<?xml version="1.0" encoding="utf-8"?>
<!-- Generator: Adobe Illustrator 16.0.3, SVG Export Plug-In . SVG Version: 6.00 Build 0)  -->
<!DOCTYPE svg PUBLIC "-//W3C//DTD SVG 1.1//EN" "http://www.w3.org/Graphics/SVG/1.1/DTD/svg11.dtd">
<svg version="1.1" id="Layer_1" xmlns="http://www.w3.org/2000/svg" xmlns:xlink="http://www.w3.org/1999/xlink" x="0px" y="0px"
	 width="235px" height="55px" viewBox="0 0 235 55" enable-background="new 0 0 235 55" xml:space="preserve">
<filter  id="AI_GaussianBlur_4">
	<feGaussianBlur  stdDeviation="2"></feGaussianBlur>
</filter>
<g id="SouleDesigns_3_" display="none" filter="url(#AI_GaussianBlur_4)">
	<path display="inline" fill="#788965" d="M36.113,16.952c-0.318,0.239-0.676,0.425-1.074,0.557
		c-0.213,0.159-0.372,0.332-0.478,0.518c-0.106,0.159-0.186,0.345-0.239,0.557c-0.053,0.213-0.014,0.438,0.119,0.677
		c0.239,0.479,0.478,0.783,0.717,0.916c0.239,0.133,0.703,0.079,1.394-0.16c0.424-0.132,0.955-0.298,1.592-0.498
		c0.637-0.199,1.254-0.498,1.851-0.896c0.597-0.398,1.115-0.929,1.552-1.592c0.438-0.663,0.657-1.526,0.657-2.587
		s-0.279-1.917-0.836-2.567c-0.557-0.65-1.321-1.161-2.289-1.533c-0.969-0.371-2.097-0.623-3.384-0.756
		c-1.287-0.132-2.646-0.199-4.08-0.199c-1.035,0-2.329,0.086-3.881,0.259c-1.552,0.173-3.204,0.444-4.956,0.815
		c-1.752,0.373-3.503,0.85-5.255,1.433c-1.751,0.584-3.331,1.274-4.737,2.07c-1.407,0.796-2.555,1.712-3.443,2.747
		c-0.889,1.035-1.334,2.176-1.334,3.423c0,1.009,0.597,1.871,1.792,2.587c1.194,0.717,2.7,1.348,4.518,1.891
		c1.818,0.544,3.775,1.035,5.872,1.473c2.096,0.438,4.054,0.875,5.872,1.313c1.817,0.438,3.324,0.902,4.518,1.393
		s1.791,1.082,1.791,1.771c0,0.291-0.159,0.543-0.478,0.756c-0.319,0.212-0.723,0.392-1.214,0.537
		c-0.491,0.146-1.028,0.266-1.612,0.357c-0.584,0.094-1.148,0.159-1.692,0.199s-1.022,0.066-1.433,0.079
		c-0.412,0.014-0.697,0.021-0.856,0.021c-1.513-0.027-2.925-0.1-4.239-0.22c-1.313-0.119-2.481-0.259-3.502-0.418
		c-1.022-0.159-1.865-0.325-2.528-0.498c-0.664-0.171-1.102-0.298-1.313-0.378c-0.213-0.105-0.465-0.186-0.756-0.239
		c-0.292-0.052-0.578-0.065-0.856-0.04c-0.279,0.027-0.531,0.106-0.756,0.238c-0.226,0.133-0.392,0.333-0.498,0.598
		c-0.106,0.293-0.133,0.545-0.08,0.756c0.053,0.213,0.152,0.404,0.298,0.578c0.146,0.172,0.318,0.332,0.518,0.478
		c0.199,0.147,0.392,0.286,0.577,0.419c0.265,0.186,0.836,0.423,1.711,0.716c0.876,0.292,1.957,0.577,3.245,0.856
		c1.287,0.279,2.747,0.518,4.379,0.717c1.632,0.197,3.323,0.298,5.075,0.298c1.777,0,3.429-0.16,4.956-0.478
		c1.525-0.318,2.846-0.758,3.96-1.313c1.115-0.558,1.997-1.201,2.647-1.931c0.65-0.729,0.988-1.493,1.015-2.289
		c0.026-0.822-0.305-1.565-0.995-2.229c-0.69-0.663-1.606-1.274-2.747-1.832c-1.142-0.557-2.448-1.067-3.921-1.532
		c-1.473-0.464-2.985-0.902-4.538-1.313c-1.553-0.412-3.065-0.797-4.538-1.155c-1.473-0.358-2.786-0.71-3.941-1.055
		c-1.154-0.344-2.083-0.697-2.786-1.055c-0.704-0.358-1.055-0.723-1.055-1.095c0-0.424,0.292-0.842,0.875-1.253
		c0.583-0.411,1.347-0.803,2.289-1.175c0.941-0.371,1.99-0.709,3.145-1.015c1.154-0.305,2.309-0.577,3.463-0.816
		c1.154-0.239,2.249-0.424,3.284-0.557c1.035-0.132,1.884-0.225,2.548-0.279c0.928-0.053,1.831-0.093,2.707-0.119
		c0.876-0.026,1.646-0.006,2.309,0.06s1.194,0.199,1.592,0.398c0.398,0.199,0.597,0.498,0.597,0.896
		c0,0.372-0.113,0.703-0.339,0.995C36.664,16.527,36.405,16.767,36.113,16.952z"/>
	<path display="inline" fill="#788965" d="M108.197,27.469c-0.584-0.132-1.002-0.073-1.254,0.179
		c-0.253,0.253-0.524,0.763-0.816,1.534c-0.053,0.158-0.265,0.424-0.637,0.795c-0.372,0.373-0.883,0.737-1.533,1.096
		c-0.65,0.357-1.453,0.67-2.408,0.936c-0.956,0.266-2.044,0.398-3.265,0.398c-0.557,0-1.055-0.1-1.493-0.299
		c-0.438-0.198-0.803-0.443-1.095-0.735c0.61,0,1.379-0.106,2.309-0.319c0.637-0.132,1.247-0.338,1.831-0.615
		c0.583-0.279,1.101-0.625,1.552-1.037c0.451-0.41,0.809-0.875,1.075-1.393c0.265-0.518,0.398-1.081,0.398-1.691
		s-0.173-1.115-0.518-1.513c-0.345-0.398-0.776-0.717-1.294-0.956c-0.517-0.239-1.068-0.411-1.652-0.518
		c-0.584-0.106-1.115-0.16-1.592-0.16s-1.115,0.074-1.911,0.22s-1.592,0.418-2.389,0.815c-0.796,0.398-1.52,0.943-2.169,1.633
		c-0.504,0.534-0.856,1.19-1.065,1.963c-0.227,0.282-0.462,0.734-0.707,1.381c-0.053,0.079-0.172,0.266-0.358,0.557
		s-0.464,0.584-0.836,0.875c-0.372,0.293-0.836,0.558-1.393,0.797c-0.557,0.238-1.234,0.357-2.03,0.357
		c-0.876,0-1.566-0.211-2.07-0.637c-0.504-0.424-0.876-1.021-1.115-1.791c0.398-0.558,0.956-1.347,1.672-2.368
		c0.717-1.021,1.426-2.149,2.13-3.384c0.703-1.233,1.307-2.508,1.811-3.821s0.756-2.554,0.756-3.722c0-0.345-0.04-0.789-0.12-1.333
		c-0.08-0.543-0.245-1.068-0.498-1.572c-0.252-0.504-0.63-0.936-1.134-1.293c-0.504-0.358-1.168-0.538-1.99-0.538
		c-0.956,0-1.798,0.239-2.528,0.717s-1.36,1.114-1.891,1.911c-0.531,0.796-0.976,1.692-1.333,2.687
		c-0.358,0.995-0.637,2.01-0.836,3.045c-0.199,1.035-0.345,2.037-0.438,3.005c-0.093,0.969-0.139,1.825-0.139,2.568
		c0,0.839,0.064,1.683,0.192,2.531c-0.107,0.125-0.217,0.275-0.332,0.474c-0.146,0.253-0.313,0.552-0.498,0.896
		c-0.106,0.239-0.286,0.498-0.538,0.776s-0.644,0.538-1.174,0.776c-0.875,0.397-1.532,0.484-1.97,0.259s-0.803-0.552-1.095-0.976
		c-0.133-0.213-0.212-0.518-0.239-0.916c-0.026-0.397-0.026-0.816,0-1.253c0.027-0.438,0.073-0.869,0.14-1.294
		c0.066-0.424,0.126-0.769,0.179-1.035c0.08-0.531-0.066-0.995-0.438-1.393c-0.372-0.398-0.73-0.637-1.075-0.716
		c-0.318-0.08-0.696-0.08-1.134,0s-0.736,0.186-0.896,0.318c-0.08,0.079-0.16,0.245-0.239,0.497
		c-0.079,0.253-0.146,0.545-0.199,0.876c-0.053,0.332-0.1,0.664-0.14,0.995c-0.04,0.333-0.073,0.591-0.099,0.777
		c-0.133,1.114-0.478,2.018-1.035,2.707c-0.558,0.689-1.168,1.048-1.831,1.075c-0.318,0-0.604-0.066-0.856-0.199
		c-0.252-0.132-0.458-0.299-0.617-0.498c-0.159-0.198-0.286-0.397-0.378-0.597c-0.094-0.199-0.14-0.379-0.14-0.538
		c0-0.345,0.046-0.757,0.14-1.233c0.092-0.478,0.205-1.208,0.338-2.189c0.053-0.478,0.006-0.842-0.14-1.095
		c-0.146-0.252-0.325-0.431-0.537-0.538c-0.212-0.105-0.418-0.165-0.617-0.179c-0.199-0.013-0.338-0.02-0.418-0.02
		c-0.16-0.026-0.385-0.026-0.677,0c-0.292,0.026-0.624,0.146-0.995,0.358c-0.186,0.133-0.338,0.412-0.458,0.836
		c-0.092,0.329-0.168,0.703-0.229,1.119c-0.15,0.135-0.306,0.28-0.467,0.434c-0.213,0.213-0.478,0.365-0.796,0.458
		c-0.318,0.093-0.657,0.146-1.015,0.159c-0.358,0.014-0.704-0.006-1.035-0.059c-0.333-0.054-0.591-0.12-0.776-0.2
		c-0.292-0.132-0.518-0.272-0.677-0.418c-0.159-0.145-0.306-0.285-0.438-0.418c-0.106-0.265-0.292-0.543-0.557-0.835
		c-0.451-0.531-1.221-1.035-2.309-1.513c-0.318-0.133-0.717-0.272-1.194-0.418s-1.048-0.219-1.711-0.219
		c-1.089,0-2.097,0.179-3.025,0.537c-0.929,0.358-1.739,0.823-2.428,1.394c-0.69,0.571-1.234,1.208-1.632,1.911
		c-0.398,0.704-0.598,1.387-0.598,2.05c0,0.69,0.106,1.353,0.318,1.989c0.212,0.639,0.558,1.203,1.036,1.693
		s1.108,0.889,1.891,1.193c0.782,0.305,1.731,0.458,2.846,0.458c1.008,0,1.943-0.12,2.807-0.358
		c0.861-0.238,1.631-0.551,2.309-0.936c0.677-0.385,1.234-0.822,1.672-1.314c0.438-0.49,0.736-0.988,0.895-1.492
		c0.743,0.025,1.434-0.021,2.07-0.141c0.638-0.119,1.181-0.244,1.632-0.377c0.348-0.1,0.667-0.229,0.964-0.38
		c-0.005,0.228-0.008,0.451-0.008,0.658c0,0.505,0.105,1.022,0.318,1.553c0.212,0.531,0.511,1.015,0.896,1.453
		c0.384,0.438,0.849,0.79,1.393,1.055s1.161,0.397,1.851,0.397c0.689,0,1.32-0.119,1.891-0.358c0.57-0.239,1.055-0.504,1.453-0.796
		c0.478-0.345,0.902-0.743,1.274-1.193c0.344,0.424,0.756,0.782,1.234,1.074c0.398,0.292,0.896,0.543,1.493,0.756
		c0.597,0.213,1.28,0.317,2.05,0.317c1.061,0,1.983-0.179,2.767-0.537c0.782-0.358,1.426-0.769,1.931-1.233
		c0.368-0.34,0.671-0.674,0.912-1.008c0.085,0.166,0.168,0.331,0.262,0.489c0.543,0.916,1.28,1.659,2.209,2.229
		c0.928,0.569,2.096,0.854,3.502,0.854c1.406,0,2.594-0.233,3.563-0.696c0.968-0.464,1.758-0.988,2.368-1.572
		c0.131-0.125,0.251-0.25,0.367-0.371c0.225,0.363,0.505,0.699,0.848,1.007c0.65,0.584,1.506,1.042,2.567,1.374
		s2.361,0.498,3.901,0.498c1.513,0,2.886-0.174,4.12-0.518c1.234-0.345,2.295-0.776,3.185-1.293
		c0.889-0.519,1.612-1.076,2.169-1.673s0.941-1.147,1.154-1.651c0.212-0.584,0.259-1.115,0.139-1.592
		C108.695,27.787,108.489,27.522,108.197,27.469z M49.623,30.076c-0.279,0.199-0.571,0.352-0.875,0.458
		c-0.306,0.106-0.584,0.173-0.836,0.2c-0.252,0.026-0.432,0.039-0.537,0.039c-0.133,0-0.326-0.006-0.578-0.02
		c-0.252-0.013-0.504-0.066-0.756-0.158c-0.252-0.094-0.471-0.26-0.657-0.498c-0.186-0.24-0.279-0.584-0.279-1.035
		c0-0.453,0.12-0.836,0.358-1.155c0.238-0.319,0.511-0.577,0.816-0.776c0.305-0.2,0.617-0.352,0.935-0.458
		c0.319-0.106,0.558-0.16,0.717-0.16c0.133,0,0.252,0,0.358,0c0.105,0,0.239,0.014,0.398,0.041c0.053,0.212,0.112,0.412,0.179,0.597
		c0.066,0.186,0.125,0.372,0.18,0.557c0.159,0.397,0.338,0.716,0.537,0.955s0.418,0.425,0.657,0.558l0.04,0.039
		C50.12,29.605,49.901,29.877,49.623,30.076z M81.606,22.991c0.053-0.677,0.12-1.36,0.199-2.05c0.159-1.3,0.338-2.335,0.537-3.105
		c0.199-0.77,0.412-1.36,0.637-1.771s0.458-0.677,0.697-0.796c0.239-0.12,0.464-0.179,0.677-0.179h0.04
		c0.212,0,0.345,0.179,0.398,0.538c0.053,0.358,0.06,0.79,0.02,1.293c-0.04,0.504-0.113,1.009-0.219,1.513
		c-0.106,0.504-0.212,0.902-0.318,1.194c-0.08,0.239-0.226,0.583-0.438,1.035s-0.451,0.936-0.716,1.453
		c-0.266,0.517-0.544,1.028-0.836,1.532c-0.292,0.505-0.557,0.93-0.796,1.274C81.513,24.312,81.553,23.667,81.606,22.991z
		 M95.34,27.449c0.292-0.358,0.703-0.604,1.234-0.736c0.61-0.159,1.075-0.212,1.393-0.159c0.318,0.053,0.531,0.199,0.637,0.438
		c0.132,0.239,0.105,0.492-0.08,0.757c-0.186,0.267-0.531,0.504-1.035,0.716c-0.504,0.212-0.989,0.313-1.453,0.299
		c-0.465-0.014-0.882-0.047-1.254-0.101C94.862,28.212,95.047,27.807,95.34,27.449z"/>
	<path display="inline" fill="#788965" d="M143.137,17.438h-0.041c0-0.822-0.324-1.771-0.975-2.846
		c-0.65-1.075-1.686-2.063-3.105-2.965s-3.244-1.612-5.474-2.13s-4.896-0.63-8.001-0.338c-1.777,0.159-3.557,0.411-5.333,0.756
		c-1.778,0.345-3.444,0.724-4.996,1.135c-1.553,0.412-2.932,0.836-4.14,1.274c-1.207,0.438-2.143,0.843-2.806,1.214
		c-0.345,0.292-0.61,0.677-0.796,1.154c-0.185,0.478-0.265,1.128-0.239,1.951c0,0.238,0.067,0.471,0.2,0.696
		c0.133,0.226,0.292,0.412,0.478,0.558s0.372,0.246,0.557,0.298c0.186,0.053,0.345,0.04,0.478-0.04
		c0.372-0.212,1.108-0.537,2.209-0.975c1.102-0.438,2.448-0.881,4.041-1.333c-0.159,0.743-0.305,1.619-0.438,2.627
		c-0.134,1.009-0.259,2.07-0.378,3.185c-0.12,1.114-0.233,2.243-0.339,3.383c-0.106,1.142-0.186,2.203-0.239,3.185
		c-0.054,0.982-0.086,1.852-0.099,2.607c-0.014,0.756-0.007,1.307,0.02,1.652c0.026,0.213,0.146,0.518,0.358,0.916
		c0.212,0.397,0.511,0.783,0.896,1.154c0.384,0.371,0.862,0.696,1.433,0.976c0.571,0.278,1.227,0.418,1.97,0.418
		c1.38,0,2.912-0.193,4.599-0.578c1.685-0.384,3.396-0.929,5.135-1.631c1.738-0.703,3.431-1.54,5.074-2.509
		c1.646-0.967,3.133-2.049,4.459-3.243c1.646-1.513,2.965-3.111,3.961-4.796C142.6,21.505,143.109,19.587,143.137,17.438z
		 M137.604,18.353c0.054,0.584-0.061,1.288-0.34,2.11c-0.277,0.823-0.729,1.692-1.354,2.607c-0.623,0.916-1.413,1.838-2.368,2.767
		c-0.955,0.929-2.063,1.778-3.323,2.547c-1.261,0.771-2.681,1.413-4.259,1.931c-1.579,0.518-3.298,0.83-5.155,0.936
		c-0.584,0.025-1.055,0-1.412-0.08c-0.358-0.08-0.617-0.252-0.776-0.518s-0.246-0.644-0.259-1.135c-0.015-0.49,0.02-1.146,0.1-1.97
		c0.132-1.3,0.285-2.607,0.458-3.921c0.172-1.313,0.344-2.548,0.519-3.702c0.172-1.154,0.351-2.202,0.537-3.145
		c0.186-0.941,0.357-1.705,0.518-2.289c1.326-0.266,2.666-0.478,4.021-0.637s2.681-0.239,3.979-0.239
		c1.964,0,3.529,0.113,4.697,0.338c1.168,0.226,2.069,0.544,2.707,0.956c0.637,0.412,1.067,0.909,1.295,1.493
		c0.225,0.584,0.377,1.234,0.457,1.95L137.604,18.353L137.604,18.353z"/>
	<path display="inline" fill="#788965" d="M167.334,26.752c-0.425-0.424-0.891-0.796-1.395-1.115
		c-0.504-0.319-0.987-0.597-1.453-0.836c-0.463-0.239-0.867-0.424-1.213-0.557c-0.346-0.132-0.558-0.226-0.637-0.279
		c-0.293-0.159-0.498-0.351-0.617-0.577c-0.119-0.225-0.207-0.418-0.26-0.578c-0.025-0.079-0.072-0.192-0.14-0.338
		c-0.065-0.146-0.172-0.298-0.317-0.458c-0.146-0.159-0.318-0.292-0.518-0.398c-0.199-0.106-0.444-0.159-0.737-0.159
		c-0.292,0-0.551,0.086-0.774,0.259c-0.228,0.173-0.433,0.372-0.617,0.597c-0.186,0.226-0.325,0.458-0.418,0.696
		c-0.094,0.239-0.139,0.438-0.139,0.598c0,0.212,0.004,0.504,0.02,0.875c0.013,0.372,0.166,0.743,0.458,1.115
		c-0.08,0.345-0.16,0.617-0.238,0.816c-0.081,0.199-0.167,0.398-0.26,0.597c-0.06,0.125-0.128,0.265-0.202,0.411
		c-0.193,0.033-0.354,0.106-0.475,0.226c-0.252,0.253-0.523,0.763-0.815,1.533c-0.054,0.159-0.267,0.424-0.637,0.795
		c-0.372,0.373-0.882,0.737-1.533,1.096c-0.649,0.357-1.452,0.67-2.407,0.935c-0.955,0.267-2.045,0.397-3.265,0.397
		c-0.558,0-1.056-0.098-1.493-0.297s-0.802-0.444-1.094-0.736c0.609,0,1.379-0.105,2.309-0.319c0.637-0.133,1.247-0.338,1.831-0.616
		c0.583-0.279,1.101-0.623,1.554-1.035c0.451-0.412,0.809-0.875,1.074-1.394c0.266-0.518,0.397-1.081,0.397-1.692
		c0-0.61-0.173-1.115-0.519-1.513c-0.345-0.397-0.775-0.716-1.293-0.955c-0.519-0.239-1.068-0.412-1.652-0.518
		s-1.114-0.16-1.592-0.16c-0.479,0-1.115,0.073-1.91,0.219c-0.797,0.146-1.594,0.418-2.39,0.816
		c-0.797,0.398-1.521,0.942-2.17,1.633c-0.649,0.69-1.055,1.579-1.214,2.667c-0.132,0.93-0.086,1.785,0.141,2.566
		c0.225,0.783,0.662,1.468,1.313,2.051c0.648,0.584,1.506,1.042,2.566,1.374c1.063,0.332,2.361,0.497,3.901,0.497
		c1.513,0,2.886-0.174,4.119-0.518c1.233-0.345,2.296-0.775,3.187-1.293c0.646-0.377,1.201-0.773,1.672-1.191
		c0.045,0.238,0.182,0.445,0.416,0.615c0.664,0.557,1.348,0.961,2.051,1.213s1.347,0.418,1.931,0.498
		c0.584,0.078,1.095,0.105,1.532,0.078c0.438-0.025,0.736-0.039,0.896-0.039c0.157,0,0.477-0.061,0.955-0.18
		c0.478-0.119,0.975-0.339,1.491-0.658c0.519-0.317,0.981-0.769,1.394-1.352c0.412-0.584,0.617-1.354,0.617-2.309l0.039,0.039
		c0-0.638-0.14-1.215-0.418-1.73C168.109,27.648,167.758,27.177,167.334,26.752z M145.8,27.449c0.292-0.358,0.702-0.603,1.233-0.736
		c0.609-0.16,1.074-0.212,1.394-0.16c0.318,0.053,0.53,0.199,0.638,0.438c0.133,0.239,0.105,0.491-0.08,0.756
		c-0.187,0.267-0.53,0.505-1.034,0.717c-0.505,0.212-0.989,0.312-1.452,0.298c-0.466-0.013-0.883-0.046-1.255-0.1
		C145.322,28.212,145.507,27.807,145.8,27.449z M164.389,29.816v0.041c-0.078,0.398-0.259,0.703-0.537,0.916
		s-0.61,0.346-0.994,0.397c-0.387,0.054-0.791,0.054-1.215,0c-0.426-0.052-0.836-0.132-1.233-0.237
		c-0.159-0.054-0.306-0.101-0.438-0.14c-0.133-0.04-0.266-0.073-0.396-0.101l0.08-0.158c0.291-0.344,0.522-0.836,0.695-1.473
		c0.172-0.637,0.324-1.313,0.457-2.029c0.451,0.159,0.902,0.332,1.354,0.518c0.452,0.186,0.856,0.392,1.214,0.617
		c0.359,0.225,0.637,0.471,0.836,0.736C164.408,29.167,164.468,29.473,164.389,29.816z"/>
	<path display="inline" fill="#788965" d="M170.318,18.333c0.24,0.306,0.584,0.571,1.035,0.796c0.451,0.226,1.049,0.365,1.791,0.418
		c0.742,0.053,1.319-0.033,1.731-0.259c0.412-0.225,0.724-0.491,0.937-0.796c0.211-0.305,0.345-0.604,0.396-0.896
		c0.055-0.292,0.081-0.491,0.081-0.597s-0.04-0.332-0.12-0.677c-0.08-0.344-0.253-0.703-0.518-1.075
		c-0.266-0.371-0.663-0.703-1.194-0.995c-0.53-0.292-1.233-0.438-2.108-0.438c-0.586,0-1.05,0.094-1.395,0.279
		c-0.346,0.187-0.609,0.418-0.796,0.697c-0.187,0.279-0.306,0.571-0.358,0.875c-0.053,0.306-0.078,0.577-0.078,0.816
		c0,0.265,0.039,0.564,0.118,0.895C169.921,17.71,170.08,18.028,170.318,18.333z"/>
	<path display="inline" fill="#788965" d="M225.43,28.166c-0.277-0.518-0.631-0.989-1.055-1.414
		c-0.425-0.424-0.891-0.796-1.393-1.115c-0.506-0.318-0.989-0.597-1.453-0.836c-0.465-0.239-0.869-0.424-1.215-0.557
		c-0.344-0.132-0.558-0.226-0.638-0.279c-0.292-0.159-0.497-0.351-0.616-0.577c-0.119-0.225-0.205-0.418-0.259-0.578
		c-0.026-0.079-0.073-0.192-0.14-0.338s-0.174-0.298-0.318-0.458c-0.146-0.159-0.318-0.292-0.518-0.398
		c-0.199-0.106-0.444-0.159-0.737-0.159c-0.291,0-0.551,0.086-0.774,0.259c-0.227,0.173-0.433,0.372-0.616,0.597
		c-0.187,0.226-0.326,0.458-0.419,0.696c-0.094,0.239-0.139,0.438-0.139,0.598c0,0.212,0.006,0.504,0.02,0.875
		c0.013,0.372,0.165,0.743,0.457,1.115c-0.079,0.345-0.158,0.617-0.238,0.816c-0.08,0.199-0.166,0.398-0.258,0.597
		c-0.059,0.123-0.126,0.259-0.199,0.402c-0.221,0.028-0.4,0.104-0.537,0.234c-0.266,0.253-0.531,0.763-0.797,1.532
		c-0.158,0.506-0.471,0.942-0.936,1.314s-1.082,0.557-1.852,0.557c-0.371,0-0.67-0.093-0.896-0.277
		c-0.225-0.186-0.393-0.433-0.497-0.737c-0.105-0.304-0.173-0.669-0.198-1.095c-0.027-0.424-0.04-0.875-0.04-1.354
		c0-0.478-0.007-0.949-0.021-1.413c-0.014-0.464-0.055-0.889-0.119-1.274c-0.066-0.384-0.174-0.709-0.318-0.975
		c-0.146-0.265-0.352-0.452-0.617-0.558c-0.266-0.08-0.576-0.139-0.936-0.178c-0.358-0.041-0.729-0.047-1.114-0.021
		c-0.385,0.027-0.756,0.1-1.114,0.219c-0.357,0.12-0.671,0.298-0.936,0.538c-0.266,0.239-0.531,0.511-0.797,0.816
		c-0.266,0.305-0.504,0.584-0.717,0.836s-0.392,0.464-0.537,0.637c-0.146,0.173-0.232,0.259-0.258,0.259
		c-0.135,0-0.227-0.292-0.279-0.875c0-0.133-0.021-0.312-0.061-0.538c-0.039-0.225-0.125-0.458-0.259-0.697
		c-0.133-0.239-0.317-0.451-0.558-0.637c-0.238-0.185-0.557-0.318-0.954-0.397c-1.54-0.239-2.283,0.318-2.229,1.672
		c0,0.345,0.014,0.929,0.039,1.751c0.012,0.366,0.033,0.741,0.059,1.119c-0.086,0.119-0.172,0.251-0.256,0.413
		c-0.135,0.253-0.293,0.564-0.479,0.935c-0.318,0.611-0.639,1.089-0.955,1.433c-0.32,0.346-0.625,0.705-0.917,1.076
		c-0.317,0.371-0.79,0.764-1.413,1.174s-1.32,0.803-2.089,1.174c0.054-0.981,0.101-1.924,0.14-2.826s0.125-1.618,0.258-2.148
		c0.134-0.293,0.267-0.664,0.398-1.116c0.079-0.239,0.119-0.411,0.119-0.518c0.212-0.876,0.391-1.519,0.537-1.93
		c0.146-0.411,0.113-0.79-0.1-1.134c-0.213-0.345-0.558-0.638-1.035-0.876c-0.478-0.239-1.021-0.319-1.631-0.239
		c-0.373,0.054-0.639,0.206-0.797,0.458c-0.158,0.253-0.306,0.617-0.438,1.095c-0.452-0.186-0.981-0.338-1.593-0.457
		c-0.61-0.12-1.301-0.192-2.069-0.219c-0.823-0.026-1.687,0.073-2.588,0.299c-0.902,0.226-1.726,0.577-2.468,1.054
		c-0.742,0.478-1.354,1.083-1.832,1.812c-0.478,0.729-0.717,1.585-0.717,2.567c0,0.431,0.049,0.821,0.129,1.187
		c-0.232,0.237-0.487,0.452-0.783,0.625c-0.387,0.226-0.817,0.313-1.295,0.259c-0.424-0.053-0.756-0.225-0.994-0.518
		c-0.239-0.292-0.412-0.629-0.52-1.014c-0.104-0.386-0.166-0.783-0.178-1.195c-0.016-0.411-0.008-0.762,0.02-1.055
		c0.054-0.583,0.101-1.095,0.14-1.533c0.04-0.438,0.062-0.802,0.062-1.094c0-0.106-0.049-0.258-0.141-0.458
		c-0.094-0.199-0.232-0.391-0.418-0.577s-0.398-0.344-0.637-0.478c-0.239-0.132-0.518-0.198-0.838-0.198
		c-0.77,0-1.346,0.179-1.73,0.538c-0.385,0.358-0.577,1.108-0.577,2.249c0,0.398-0.013,0.869-0.038,1.413
		c-0.027,0.544-0.027,1.122,0,1.731c0.025,0.611,0.125,1.221,0.297,1.832c0.174,0.611,0.465,1.166,0.877,1.671
		c0.41,0.505,0.975,0.917,1.69,1.233c0.717,0.318,1.633,0.491,2.747,0.519c1.273,0.026,2.302-0.2,3.085-0.677
		c0.347-0.211,0.651-0.438,0.933-0.676c0.111,0.09,0.225,0.18,0.342,0.258c0.57,0.384,1.154,0.648,1.752,0.795
		c0.596,0.146,1.055,0.219,1.373,0.219c0.449,0,1.127-0.133,2.029-0.396c0.901-0.267,1.856-0.69,2.865-1.274
		c-0.053,0.452-0.087,0.862-0.1,1.233c-0.014,0.373-0.033,0.678-0.061,0.916c-0.025,0.053-0.039,0.174-0.039,0.358
		c-1.115,0.452-2.109,0.83-2.984,1.135c-0.877,0.306-1.447,0.511-1.713,0.617c-0.293,0.133-0.664,0.331-1.114,0.597
		c-0.451,0.266-0.89,0.611-1.313,1.036c-0.425,0.425-0.789,0.929-1.095,1.513s-0.458,1.248-0.458,1.989
		c0,0.931,0.221,1.705,0.657,2.33c0.438,0.621,0.948,1.119,1.532,1.492c0.584,0.371,1.168,0.631,1.75,0.774
		c0.586,0.146,1.011,0.222,1.274,0.222c0.558-0.027,1.294-0.154,2.21-0.379c0.915-0.228,1.838-0.736,2.766-1.533
		c0.426-0.371,0.765-0.869,1.017-1.492s0.458-1.301,0.616-2.028c0.16-0.73,0.271-1.476,0.339-2.23
		c0.065-0.756,0.126-1.439,0.18-2.05c0.291-0.134,0.577-0.292,0.854-0.478c0.279-0.187,0.578-0.386,0.896-0.598
		c0.559-0.372,1.129-0.775,1.713-1.214s1.146-0.929,1.691-1.474c0.543-0.543,1.061-1.153,1.552-1.83
		c0.044-0.063,0.087-0.129,0.132-0.193c0.168,0.635,0.396,1.04,0.685,1.208c0.663,0.397,1.175,0.61,1.532,0.637s0.604,0.026,0.736,0
		c0.133-0.026,0.324-0.151,0.577-0.378c0.252-0.225,0.404-0.482,0.457-0.775c0-0.133,0.054-0.338,0.16-0.617
		c0.104-0.279,0.219-0.578,0.338-0.896s0.252-0.617,0.397-0.896c0.146-0.278,0.26-0.483,0.338-0.616
		c0.08-0.134,0.193-0.324,0.34-0.577c0.146-0.252,0.292-0.498,0.438-0.736c0.146-0.24,0.284-0.432,0.418-0.578
		c0.133-0.145,0.237-0.206,0.317-0.179c0.08,0.054,0.146,0.179,0.198,0.378c0.054,0.2,0.105,0.438,0.16,0.716
		c0.053,0.278,0.111,0.563,0.18,0.855c0.066,0.292,0.14,0.544,0.219,0.757c0.079,0.214,0.212,0.538,0.398,0.976
		c0.186,0.438,0.463,0.869,0.836,1.293c0.369,0.425,0.849,0.797,1.433,1.115c0.583,0.317,1.313,0.478,2.188,0.478
		c0.85,0,1.6-0.132,2.25-0.397c0.648-0.266,1.199-0.604,1.652-1.015c0.145-0.132,0.277-0.271,0.407-0.413
		c0.07,0.098,0.154,0.189,0.269,0.273c0.662,0.557,1.347,0.961,2.049,1.213c0.703,0.253,1.348,0.418,1.932,0.498
		c0.583,0.078,1.096,0.105,1.532,0.078c0.438-0.025,0.735-0.039,0.896-0.039s0.479-0.061,0.955-0.18
		c0.479-0.119,0.977-0.339,1.493-0.658c0.519-0.317,0.981-0.769,1.394-1.352c0.412-0.584,0.617-1.354,0.617-2.309l0.039,0.039
		C225.848,29.26,225.709,28.682,225.43,28.166z M186.818,41.699c-0.227,0.678-0.563,1.227-1.016,1.652
		c-0.134,0.133-0.292,0.271-0.478,0.418c-0.187,0.145-0.392,0.258-0.617,0.338s-0.472,0.119-0.735,0.119
		c-0.268,0-0.559-0.105-0.875-0.318c-0.373-0.238-0.613-0.51-0.718-0.816c-0.106-0.305-0.106-0.604,0-0.895
		c0.104-0.293,0.291-0.57,0.558-0.836c0.265-0.266,0.598-0.465,0.996-0.598c0.688-0.238,1.306-0.451,1.85-0.638
		s1.055-0.372,1.531-0.558C187.21,40.313,187.043,41.023,186.818,41.699z M187.834,28.266c-0.08,0.187-0.173,0.377-0.279,0.577
		c-0.105,0.199-0.213,0.404-0.318,0.617c-0.213,0.425-0.551,0.791-1.016,1.095c-0.464,0.305-0.955,0.524-1.472,0.657
		c-0.519,0.134-1.017,0.187-1.493,0.16c-0.479-0.026-0.811-0.16-0.994-0.399c-0.214-0.238-0.273-0.535-0.18-0.896
		c0.092-0.358,0.299-0.709,0.616-1.054c0.317-0.346,0.737-0.639,1.255-0.875c0.518-0.239,1.107-0.359,1.771-0.359
		c0.449,0,0.848,0.047,1.192,0.14c0.345,0.092,0.663,0.192,0.956,0.297L187.834,28.266z M221.43,29.816v0.041
		c-0.08,0.398-0.259,0.703-0.537,0.916c-0.277,0.213-0.61,0.346-0.994,0.397c-0.387,0.054-0.791,0.054-1.215,0
		c-0.426-0.052-0.836-0.132-1.233-0.237c-0.16-0.054-0.306-0.101-0.438-0.14c-0.135-0.04-0.267-0.073-0.398-0.101l0.08-0.158
		c0.291-0.344,0.523-0.836,0.697-1.473c0.172-0.637,0.323-1.313,0.457-2.029c0.45,0.159,0.901,0.332,1.354,0.518
		c0.45,0.186,0.854,0.392,1.213,0.617c0.358,0.225,0.638,0.471,0.836,0.736C221.45,29.167,221.509,29.473,221.43,29.816z"/>
</g>
<g id="SouleDesigns_1_" display="none">
	<g display="inline">
		<path fill="#788965" d="M37.113,16.891c-0.318,0.239-0.676,0.425-1.074,0.557c-0.213,0.159-0.372,0.332-0.478,0.518
			c-0.106,0.159-0.186,0.345-0.239,0.557c-0.053,0.213-0.014,0.438,0.119,0.677c0.239,0.478,0.478,0.783,0.717,0.916
			c0.239,0.133,0.703,0.079,1.394-0.16c0.424-0.132,0.955-0.298,1.592-0.498c0.637-0.199,1.254-0.498,1.851-0.896
			c0.597-0.398,1.115-0.929,1.552-1.592c0.438-0.663,0.657-1.526,0.657-2.587s-0.279-1.917-0.836-2.567
			c-0.557-0.65-1.321-1.161-2.289-1.533c-0.969-0.371-2.097-0.623-3.384-0.756c-1.287-0.132-2.646-0.199-4.08-0.199
			c-1.035,0-2.329,0.086-3.881,0.259c-1.552,0.173-3.204,0.444-4.956,0.815c-1.752,0.373-3.503,0.85-5.255,1.433
			c-1.751,0.584-3.331,1.274-4.737,2.07c-1.407,0.796-2.555,1.712-3.443,2.747c-0.889,1.035-1.334,2.176-1.334,3.423
			c0,1.009,0.597,1.871,1.792,2.587c1.194,0.717,2.7,1.348,4.518,1.891c1.818,0.544,3.775,1.035,5.872,1.473
			c2.096,0.438,4.054,0.875,5.872,1.313c1.817,0.438,3.324,0.902,4.518,1.394c1.194,0.49,1.791,1.082,1.791,1.771
			c0,0.292-0.159,0.544-0.478,0.756s-0.723,0.392-1.214,0.537c-0.491,0.146-1.028,0.267-1.612,0.358
			c-0.584,0.093-1.148,0.158-1.692,0.199c-0.544,0.039-1.022,0.065-1.433,0.078c-0.412,0.014-0.697,0.021-0.856,0.021
			c-1.513-0.026-2.925-0.099-4.239-0.22c-1.313-0.118-2.481-0.258-3.502-0.418c-1.022-0.158-1.865-0.324-2.528-0.498
			c-0.664-0.17-1.102-0.297-1.313-0.377c-0.213-0.105-0.465-0.186-0.756-0.239c-0.292-0.052-0.578-0.066-0.856-0.04
			c-0.279,0.027-0.531,0.105-0.756,0.238c-0.226,0.133-0.392,0.332-0.498,0.598c-0.106,0.292-0.133,0.544-0.08,0.756
			c0.053,0.212,0.152,0.404,0.298,0.578c0.146,0.172,0.318,0.332,0.518,0.477c0.199,0.147,0.392,0.286,0.577,0.42
			c0.265,0.185,0.836,0.422,1.711,0.715c0.876,0.293,1.957,0.578,3.245,0.856c1.287,0.279,2.747,0.519,4.379,0.718
			c1.632,0.197,3.323,0.297,5.075,0.297c1.777,0,3.429-0.16,4.956-0.478c1.525-0.317,2.846-0.757,3.96-1.313
			c1.115-0.557,1.997-1.201,2.647-1.931c0.65-0.729,0.988-1.493,1.015-2.289c0.026-0.821-0.305-1.565-0.995-2.229
			s-1.606-1.274-2.747-1.832c-1.142-0.557-2.448-1.067-3.921-1.532c-1.473-0.464-2.985-0.902-4.538-1.313
			c-1.553-0.412-3.065-0.797-4.538-1.155c-1.473-0.358-2.786-0.71-3.941-1.055c-1.154-0.344-2.083-0.697-2.786-1.055
			c-0.704-0.358-1.055-0.723-1.055-1.095c0-0.424,0.292-0.842,0.875-1.253c0.583-0.411,1.347-0.803,2.289-1.175
			c0.941-0.371,1.99-0.709,3.145-1.015c1.154-0.305,2.309-0.577,3.463-0.816c1.154-0.239,2.249-0.424,3.284-0.557
			c1.035-0.132,1.884-0.225,2.548-0.279c0.928-0.053,1.831-0.093,2.707-0.119c0.876-0.026,1.646-0.006,2.309,0.06
			c0.663,0.066,1.194,0.199,1.592,0.398c0.398,0.199,0.597,0.498,0.597,0.896c0,0.372-0.113,0.703-0.339,0.995
			C37.664,16.467,37.405,16.706,37.113,16.891z"/>
		<path fill="#788965" d="M109.197,27.408c-0.584-0.132-1.002-0.073-1.254,0.179c-0.253,0.253-0.524,0.763-0.816,1.533
			c-0.053,0.159-0.265,0.425-0.637,0.796c-0.372,0.372-0.883,0.736-1.533,1.095s-1.453,0.671-2.408,0.937
			c-0.956,0.266-2.044,0.398-3.265,0.398c-0.557,0-1.055-0.1-1.493-0.299s-0.803-0.443-1.095-0.736c0.61,0,1.379-0.105,2.309-0.318
			c0.637-0.133,1.247-0.338,1.831-0.616c0.583-0.278,1.101-0.624,1.552-1.036c0.451-0.41,0.809-0.875,1.075-1.393
			c0.265-0.518,0.398-1.081,0.398-1.691c0-0.61-0.173-1.115-0.518-1.513c-0.345-0.398-0.776-0.717-1.294-0.956
			c-0.517-0.239-1.068-0.411-1.652-0.518c-0.584-0.106-1.115-0.16-1.592-0.16s-1.115,0.074-1.911,0.22s-1.592,0.418-2.389,0.815
			c-0.796,0.398-1.52,0.943-2.169,1.633c-0.504,0.534-0.856,1.19-1.065,1.963c-0.227,0.281-0.462,0.734-0.707,1.38
			c-0.053,0.08-0.172,0.266-0.358,0.557c-0.186,0.292-0.464,0.584-0.836,0.876c-0.372,0.293-0.836,0.557-1.393,0.797
			c-0.557,0.238-1.234,0.357-2.03,0.357c-0.876,0-1.566-0.212-2.07-0.637c-0.504-0.424-0.876-1.021-1.115-1.791
			c0.398-0.559,0.956-1.347,1.672-2.368c0.717-1.021,1.426-2.149,2.13-3.384c0.703-1.233,1.307-2.508,1.811-3.821
			s0.756-2.554,0.756-3.722c0-0.345-0.04-0.789-0.12-1.333c-0.08-0.543-0.245-1.068-0.498-1.572
			c-0.252-0.504-0.63-0.936-1.134-1.293c-0.504-0.358-1.168-0.538-1.99-0.538c-0.956,0-1.798,0.239-2.528,0.717
			s-1.36,1.114-1.891,1.911c-0.531,0.796-0.976,1.692-1.333,2.687c-0.358,0.995-0.637,2.01-0.836,3.045
			c-0.199,1.035-0.345,2.037-0.438,3.005c-0.093,0.969-0.139,1.825-0.139,2.568c0,0.839,0.064,1.683,0.192,2.531
			c-0.107,0.125-0.217,0.275-0.332,0.474c-0.146,0.254-0.313,0.553-0.498,0.896c-0.106,0.238-0.286,0.498-0.538,0.775
			c-0.252,0.278-0.644,0.539-1.174,0.776c-0.875,0.398-1.532,0.485-1.97,0.259c-0.438-0.226-0.803-0.551-1.095-0.976
			c-0.133-0.212-0.212-0.517-0.239-0.915c-0.026-0.398-0.026-0.816,0-1.254c0.027-0.438,0.073-0.869,0.14-1.294
			c0.066-0.424,0.126-0.769,0.179-1.035c0.08-0.531-0.066-0.995-0.438-1.393c-0.372-0.398-0.73-0.637-1.075-0.716
			c-0.318-0.08-0.696-0.08-1.134,0s-0.736,0.186-0.896,0.318c-0.08,0.079-0.16,0.245-0.239,0.497
			c-0.079,0.253-0.146,0.545-0.199,0.876c-0.053,0.332-0.1,0.664-0.14,0.995c-0.04,0.333-0.073,0.591-0.099,0.777
			c-0.133,1.114-0.478,2.017-1.035,2.708c-0.558,0.689-1.168,1.047-1.831,1.074c-0.318,0-0.604-0.065-0.856-0.199
			c-0.252-0.131-0.458-0.299-0.617-0.498c-0.159-0.198-0.286-0.397-0.378-0.596c-0.094-0.199-0.14-0.379-0.14-0.539
			c0-0.345,0.046-0.756,0.14-1.232c0.092-0.478,0.205-1.208,0.338-2.189c0.053-0.478,0.006-0.842-0.14-1.095
			c-0.146-0.252-0.325-0.431-0.537-0.538c-0.212-0.105-0.418-0.165-0.617-0.179c-0.199-0.013-0.338-0.021-0.418-0.021
			c-0.16-0.026-0.385-0.026-0.677,0c-0.292,0.026-0.624,0.146-0.995,0.358c-0.186,0.133-0.338,0.412-0.458,0.836
			c-0.092,0.329-0.168,0.703-0.229,1.119c-0.15,0.135-0.306,0.28-0.467,0.434c-0.213,0.213-0.478,0.365-0.796,0.458
			c-0.318,0.093-0.657,0.146-1.015,0.159c-0.358,0.014-0.704-0.006-1.035-0.059c-0.333-0.054-0.591-0.12-0.776-0.2
			c-0.292-0.132-0.518-0.272-0.677-0.418c-0.159-0.145-0.306-0.285-0.438-0.418c-0.106-0.265-0.292-0.543-0.557-0.835
			c-0.451-0.531-1.221-1.035-2.309-1.513c-0.318-0.133-0.717-0.272-1.194-0.418s-1.048-0.219-1.711-0.219
			c-1.089,0-2.097,0.179-3.025,0.537c-0.929,0.358-1.739,0.823-2.428,1.394c-0.69,0.571-1.234,1.208-1.632,1.911
			c-0.398,0.704-0.598,1.387-0.598,2.049c0,0.69,0.106,1.354,0.318,1.99c0.212,0.639,0.558,1.202,1.036,1.692
			c0.478,0.491,1.108,0.89,1.891,1.194c0.782,0.305,1.731,0.457,2.846,0.457c1.008,0,1.943-0.119,2.807-0.358
			c0.861-0.238,1.631-0.55,2.309-0.935c0.677-0.386,1.234-0.822,1.672-1.314c0.438-0.491,0.736-0.989,0.895-1.493
			c0.743,0.026,1.434-0.021,2.07-0.14c0.638-0.119,1.181-0.245,1.632-0.377c0.348-0.101,0.667-0.229,0.964-0.381
			c-0.005,0.229-0.008,0.451-0.008,0.658c0,0.506,0.105,1.022,0.318,1.553c0.212,0.531,0.511,1.016,0.896,1.453
			c0.384,0.438,0.849,0.791,1.393,1.056s1.161,0.397,1.851,0.397c0.689,0,1.32-0.119,1.891-0.358
			c0.57-0.239,1.055-0.505,1.453-0.796c0.478-0.346,0.902-0.743,1.274-1.194c0.344,0.425,0.756,0.783,1.234,1.075
			c0.398,0.292,0.896,0.543,1.493,0.755c0.597,0.213,1.28,0.317,2.05,0.317c1.061,0,1.983-0.178,2.767-0.537
			c0.782-0.357,1.426-0.769,1.931-1.233c0.368-0.339,0.671-0.674,0.912-1.007c0.085,0.165,0.168,0.331,0.262,0.488
			c0.543,0.916,1.28,1.66,2.209,2.229c0.928,0.57,2.096,0.854,3.502,0.854c1.406,0,2.594-0.232,3.563-0.695
			c0.968-0.464,1.758-0.989,2.368-1.573c0.131-0.125,0.251-0.249,0.367-0.371c0.225,0.363,0.505,0.7,0.848,1.007
			c0.65,0.584,1.506,1.043,2.567,1.375s2.361,0.498,3.901,0.498c1.513,0,2.886-0.174,4.12-0.519s2.295-0.776,3.185-1.293
			c0.889-0.519,1.612-1.075,2.169-1.672s0.941-1.147,1.154-1.652c0.212-0.583,0.259-1.114,0.139-1.592
			C109.695,27.727,109.489,27.462,109.197,27.408z M50.623,30.016c-0.279,0.199-0.571,0.353-0.875,0.459
			c-0.306,0.106-0.584,0.172-0.836,0.199s-0.432,0.04-0.537,0.04c-0.133,0-0.326-0.006-0.578-0.021
			c-0.252-0.012-0.504-0.065-0.756-0.158c-0.252-0.094-0.471-0.26-0.657-0.498c-0.186-0.239-0.279-0.583-0.279-1.035
			s0.12-0.836,0.358-1.155c0.238-0.319,0.511-0.577,0.816-0.776c0.305-0.2,0.617-0.352,0.935-0.458
			c0.319-0.106,0.558-0.16,0.717-0.16c0.133,0,0.252,0,0.358,0c0.105,0,0.239,0.014,0.398,0.041
			c0.053,0.212,0.112,0.412,0.179,0.597c0.066,0.186,0.125,0.372,0.18,0.557c0.159,0.398,0.338,0.716,0.537,0.956
			c0.199,0.238,0.418,0.424,0.657,0.557l0.04,0.04C51.12,29.545,50.901,29.816,50.623,30.016z M82.606,22.93
			c0.053-0.677,0.12-1.36,0.199-2.05c0.159-1.3,0.338-2.335,0.537-3.105c0.199-0.77,0.412-1.36,0.637-1.771s0.458-0.677,0.697-0.796
			c0.239-0.12,0.464-0.179,0.677-0.179h0.04c0.212,0,0.345,0.179,0.398,0.538c0.053,0.358,0.06,0.79,0.02,1.293
			c-0.04,0.504-0.113,1.009-0.219,1.513c-0.106,0.504-0.212,0.902-0.318,1.194c-0.08,0.239-0.226,0.583-0.438,1.035
			s-0.451,0.936-0.716,1.453c-0.266,0.517-0.544,1.028-0.836,1.532c-0.292,0.505-0.557,0.93-0.796,1.274
			C82.513,24.251,82.553,23.607,82.606,22.93z M96.34,27.389c0.292-0.358,0.703-0.604,1.234-0.736
			c0.61-0.159,1.075-0.212,1.393-0.159c0.318,0.053,0.531,0.199,0.637,0.438c0.132,0.239,0.105,0.492-0.08,0.757
			c-0.186,0.266-0.531,0.504-1.035,0.715c-0.504,0.213-0.989,0.313-1.453,0.299c-0.465-0.014-0.882-0.046-1.254-0.1
			C95.862,28.152,96.047,27.747,96.34,27.389z"/>
		<path fill="#788965" d="M144.137,17.377h-0.041c0-0.822-0.324-1.771-0.975-2.846c-0.65-1.075-1.686-2.063-3.105-2.965
			s-3.244-1.612-5.474-2.13s-4.896-0.63-8.001-0.338c-1.777,0.159-3.557,0.411-5.333,0.756c-1.778,0.345-3.444,0.724-4.996,1.135
			c-1.553,0.412-2.932,0.836-4.14,1.274c-1.207,0.438-2.143,0.843-2.806,1.214c-0.345,0.292-0.61,0.677-0.796,1.154
			c-0.185,0.478-0.265,1.128-0.239,1.951c0,0.238,0.067,0.471,0.2,0.696c0.133,0.226,0.292,0.412,0.478,0.558
			s0.372,0.246,0.557,0.298c0.186,0.053,0.345,0.04,0.478-0.04c0.372-0.212,1.108-0.537,2.209-0.975
			c1.102-0.438,2.448-0.881,4.041-1.333c-0.159,0.743-0.305,1.619-0.438,2.627c-0.134,1.009-0.259,2.07-0.378,3.185
			c-0.12,1.114-0.233,2.243-0.339,3.383c-0.106,1.142-0.186,2.203-0.239,3.185c-0.054,0.982-0.086,1.852-0.099,2.607
			c-0.014,0.756-0.007,1.307,0.02,1.651c0.026,0.214,0.146,0.519,0.358,0.916c0.212,0.398,0.511,0.783,0.896,1.154
			c0.384,0.372,0.862,0.696,1.433,0.976c0.571,0.279,1.227,0.418,1.97,0.418c1.38,0,2.912-0.193,4.599-0.578
			c1.685-0.384,3.396-0.929,5.135-1.631c1.738-0.703,3.431-1.539,5.074-2.508c1.646-0.968,3.133-2.05,4.459-3.244
			c1.646-1.513,2.965-3.111,3.961-4.796C143.6,21.444,144.109,19.526,144.137,17.377z M138.604,18.292
			c0.054,0.584-0.061,1.288-0.34,2.11c-0.277,0.823-0.729,1.692-1.354,2.607c-0.623,0.916-1.413,1.838-2.368,2.767
			c-0.955,0.929-2.063,1.778-3.323,2.547c-1.261,0.77-2.681,1.413-4.259,1.931c-1.579,0.518-3.298,0.829-5.155,0.936
			c-0.584,0.025-1.055,0-1.412-0.08c-0.358-0.08-0.617-0.252-0.776-0.519c-0.159-0.265-0.246-0.643-0.259-1.134
			c-0.015-0.49,0.02-1.146,0.1-1.97c0.132-1.3,0.285-2.607,0.458-3.921c0.172-1.313,0.344-2.548,0.519-3.702
			c0.172-1.154,0.351-2.202,0.537-3.146c0.186-0.941,0.357-1.705,0.518-2.289c1.326-0.266,2.666-0.478,4.021-0.637
			s2.681-0.239,3.979-0.239c1.964,0,3.529,0.113,4.697,0.338c1.168,0.226,2.069,0.544,2.707,0.956
			c0.637,0.412,1.067,0.909,1.295,1.493c0.225,0.584,0.377,1.234,0.457,1.95L138.604,18.292L138.604,18.292z"/>
		<path fill="#788965" d="M168.334,26.692c-0.425-0.424-0.891-0.796-1.395-1.115c-0.504-0.319-0.987-0.597-1.453-0.836
			c-0.463-0.239-0.867-0.424-1.213-0.557c-0.346-0.132-0.558-0.226-0.637-0.279c-0.293-0.159-0.498-0.351-0.617-0.577
			c-0.119-0.225-0.207-0.418-0.26-0.578c-0.025-0.079-0.072-0.192-0.14-0.338c-0.065-0.146-0.172-0.298-0.317-0.458
			c-0.146-0.159-0.318-0.292-0.518-0.398s-0.444-0.159-0.737-0.159c-0.292,0-0.551,0.086-0.774,0.259
			c-0.228,0.173-0.433,0.372-0.617,0.597c-0.186,0.226-0.325,0.458-0.418,0.696c-0.094,0.239-0.139,0.438-0.139,0.598
			c0,0.212,0.004,0.504,0.02,0.875c0.013,0.372,0.166,0.743,0.458,1.115c-0.08,0.345-0.16,0.617-0.238,0.816
			c-0.081,0.199-0.167,0.398-0.26,0.597c-0.06,0.125-0.128,0.265-0.202,0.411c-0.193,0.033-0.354,0.106-0.475,0.226
			c-0.252,0.253-0.523,0.763-0.815,1.532c-0.054,0.16-0.267,0.425-0.637,0.796c-0.372,0.372-0.882,0.737-1.533,1.095
			c-0.649,0.358-1.452,0.67-2.407,0.936s-2.045,0.397-3.265,0.397c-0.558,0-1.056-0.099-1.493-0.298s-0.802-0.443-1.094-0.736
			c0.609,0,1.379-0.105,2.309-0.318c0.637-0.133,1.247-0.338,1.831-0.616c0.583-0.278,1.101-0.624,1.554-1.036
			c0.451-0.412,0.809-0.875,1.074-1.393s0.397-1.081,0.397-1.692c0-0.61-0.173-1.115-0.519-1.513
			c-0.345-0.397-0.775-0.716-1.293-0.955c-0.519-0.239-1.068-0.412-1.652-0.518s-1.114-0.16-1.592-0.16
			c-0.479,0-1.115,0.073-1.91,0.219c-0.797,0.146-1.594,0.418-2.39,0.816c-0.797,0.398-1.521,0.942-2.17,1.633
			c-0.649,0.69-1.055,1.579-1.214,2.667c-0.132,0.93-0.086,1.785,0.141,2.567c0.225,0.783,0.662,1.468,1.313,2.05
			c0.648,0.584,1.506,1.043,2.566,1.375c1.063,0.332,2.361,0.496,3.901,0.496c1.513,0,2.886-0.173,4.119-0.517
			c1.233-0.345,2.296-0.776,3.187-1.294c0.646-0.376,1.201-0.773,1.672-1.191c0.045,0.238,0.182,0.445,0.416,0.615
			c0.664,0.557,1.348,0.961,2.051,1.213c0.703,0.253,1.347,0.418,1.931,0.498c0.584,0.079,1.095,0.105,1.532,0.079
			s0.736-0.04,0.896-0.04c0.157,0,0.477-0.061,0.955-0.179c0.478-0.12,0.975-0.339,1.491-0.658c0.519-0.317,0.981-0.769,1.394-1.353
			s0.617-1.354,0.617-2.309l0.039,0.04c0-0.638-0.14-1.215-0.418-1.731C169.109,27.587,168.758,27.116,168.334,26.692z
			 M146.8,27.388c0.292-0.358,0.702-0.603,1.233-0.736c0.609-0.16,1.074-0.212,1.394-0.16c0.318,0.053,0.53,0.199,0.638,0.438
			c0.133,0.239,0.105,0.491-0.08,0.756c-0.187,0.266-0.53,0.505-1.034,0.716c-0.505,0.213-0.989,0.313-1.452,0.299
			c-0.466-0.014-0.883-0.047-1.255-0.1C146.322,28.152,146.507,27.746,146.8,27.388z M165.389,29.756v0.041
			c-0.078,0.398-0.259,0.703-0.537,0.916c-0.278,0.212-0.61,0.346-0.994,0.396c-0.387,0.055-0.791,0.055-1.215,0
			c-0.426-0.051-0.836-0.131-1.233-0.237c-0.159-0.054-0.306-0.101-0.438-0.14s-0.266-0.072-0.396-0.1l0.08-0.158
			c0.291-0.345,0.522-0.836,0.695-1.473c0.172-0.637,0.324-1.314,0.457-2.03c0.451,0.159,0.902,0.332,1.354,0.518
			c0.452,0.186,0.856,0.392,1.214,0.617c0.359,0.225,0.637,0.471,0.836,0.735C165.408,29.107,165.468,29.412,165.389,29.756z"/>
		<path fill="#788965" d="M171.318,18.272c0.24,0.306,0.584,0.571,1.035,0.796c0.451,0.226,1.049,0.365,1.791,0.418
			c0.742,0.053,1.319-0.033,1.731-0.259c0.412-0.225,0.724-0.491,0.937-0.796c0.211-0.305,0.345-0.604,0.396-0.896
			c0.055-0.292,0.081-0.491,0.081-0.597s-0.04-0.332-0.12-0.677c-0.08-0.344-0.253-0.703-0.518-1.075
			c-0.266-0.371-0.663-0.703-1.194-0.995c-0.53-0.292-1.233-0.438-2.108-0.438c-0.586,0-1.05,0.094-1.395,0.279
			c-0.346,0.187-0.609,0.418-0.796,0.697s-0.306,0.571-0.358,0.875c-0.053,0.306-0.078,0.577-0.078,0.816
			c0,0.265,0.039,0.564,0.118,0.895C170.921,17.649,171.08,17.968,171.318,18.272z"/>
		<path fill="#788965" d="M226.43,28.105c-0.277-0.519-0.631-0.989-1.055-1.415c-0.425-0.424-0.891-0.796-1.393-1.115
			c-0.506-0.318-0.989-0.597-1.453-0.836c-0.465-0.239-0.869-0.424-1.215-0.557c-0.344-0.132-0.558-0.226-0.638-0.279
			c-0.292-0.159-0.497-0.351-0.616-0.577c-0.119-0.225-0.205-0.418-0.259-0.578c-0.026-0.079-0.073-0.192-0.14-0.338
			s-0.174-0.298-0.318-0.458c-0.146-0.159-0.318-0.292-0.518-0.398s-0.444-0.159-0.737-0.159c-0.291,0-0.551,0.086-0.774,0.259
			c-0.227,0.173-0.433,0.372-0.616,0.597c-0.187,0.226-0.326,0.458-0.419,0.696c-0.094,0.239-0.139,0.438-0.139,0.598
			c0,0.212,0.006,0.504,0.02,0.875c0.013,0.372,0.165,0.743,0.457,1.115c-0.079,0.345-0.158,0.617-0.238,0.816
			c-0.08,0.199-0.166,0.398-0.258,0.597c-0.059,0.123-0.126,0.259-0.199,0.402c-0.221,0.028-0.4,0.104-0.537,0.234
			c-0.266,0.253-0.531,0.763-0.797,1.532c-0.158,0.505-0.471,0.941-0.936,1.314c-0.465,0.371-1.082,0.557-1.852,0.557
			c-0.371,0-0.67-0.094-0.896-0.278c-0.225-0.185-0.393-0.433-0.497-0.737c-0.105-0.304-0.173-0.668-0.198-1.095
			c-0.027-0.424-0.04-0.875-0.04-1.353s-0.007-0.949-0.021-1.413c-0.014-0.464-0.055-0.889-0.119-1.274
			c-0.066-0.384-0.174-0.709-0.318-0.975c-0.146-0.265-0.352-0.452-0.617-0.558c-0.266-0.08-0.576-0.139-0.936-0.178
			c-0.358-0.041-0.729-0.047-1.114-0.021c-0.385,0.027-0.756,0.1-1.114,0.219c-0.357,0.12-0.671,0.298-0.936,0.538
			c-0.266,0.239-0.531,0.511-0.797,0.816c-0.266,0.305-0.504,0.584-0.717,0.836s-0.392,0.464-0.537,0.637
			c-0.146,0.173-0.232,0.259-0.258,0.259c-0.135,0-0.227-0.292-0.279-0.875c0-0.133-0.021-0.312-0.061-0.538
			c-0.039-0.225-0.125-0.458-0.259-0.697c-0.133-0.239-0.317-0.451-0.558-0.637c-0.238-0.185-0.557-0.318-0.954-0.397
			c-1.54-0.239-2.283,0.318-2.229,1.672c0,0.345,0.014,0.929,0.039,1.751c0.012,0.366,0.033,0.741,0.059,1.119
			c-0.086,0.119-0.172,0.251-0.256,0.414c-0.135,0.252-0.293,0.563-0.479,0.935c-0.318,0.61-0.639,1.089-0.955,1.433
			c-0.32,0.346-0.625,0.704-0.917,1.075c-0.317,0.372-0.79,0.765-1.413,1.174c-0.623,0.411-1.32,0.804-2.089,1.175
			c0.054-0.981,0.101-1.924,0.14-2.826s0.125-1.619,0.258-2.149c0.134-0.292,0.267-0.664,0.398-1.115
			c0.079-0.239,0.119-0.411,0.119-0.518c0.212-0.876,0.391-1.519,0.537-1.93c0.146-0.411,0.113-0.79-0.1-1.134
			c-0.213-0.345-0.558-0.638-1.035-0.876c-0.478-0.239-1.021-0.319-1.631-0.239c-0.373,0.054-0.639,0.206-0.797,0.458
			c-0.158,0.253-0.306,0.617-0.438,1.095c-0.452-0.186-0.981-0.338-1.593-0.457c-0.61-0.12-1.301-0.192-2.069-0.219
			c-0.823-0.026-1.687,0.073-2.588,0.299c-0.902,0.226-1.726,0.577-2.468,1.054c-0.742,0.478-1.354,1.083-1.832,1.812
			c-0.478,0.73-0.717,1.585-0.717,2.568c0,0.43,0.049,0.821,0.129,1.186c-0.232,0.237-0.487,0.453-0.783,0.625
			c-0.387,0.227-0.817,0.313-1.295,0.26c-0.424-0.053-0.756-0.225-0.994-0.518c-0.239-0.293-0.412-0.63-0.52-1.015
			c-0.104-0.385-0.166-0.783-0.178-1.194c-0.016-0.412-0.008-0.763,0.02-1.055c0.054-0.583,0.101-1.095,0.14-1.533
			c0.04-0.438,0.062-0.802,0.062-1.094c0-0.106-0.049-0.258-0.141-0.458c-0.094-0.199-0.232-0.391-0.418-0.577
			s-0.398-0.344-0.637-0.478c-0.239-0.132-0.518-0.198-0.838-0.198c-0.77,0-1.346,0.179-1.73,0.538
			c-0.385,0.358-0.577,1.108-0.577,2.249c0,0.398-0.013,0.869-0.038,1.413c-0.027,0.544-0.027,1.123,0,1.731
			c0.025,0.611,0.125,1.222,0.297,1.832c0.174,0.611,0.465,1.167,0.877,1.671c0.41,0.506,0.975,0.918,1.69,1.234
			c0.717,0.318,1.633,0.49,2.747,0.518c1.273,0.026,2.302-0.199,3.085-0.677c0.347-0.21,0.651-0.438,0.933-0.675
			c0.111,0.09,0.225,0.179,0.342,0.257c0.57,0.384,1.154,0.649,1.752,0.795c0.596,0.146,1.055,0.22,1.373,0.22
			c0.449,0,1.127-0.134,2.029-0.397c0.901-0.267,1.856-0.69,2.865-1.274c-0.053,0.452-0.087,0.863-0.1,1.234
			c-0.014,0.372-0.033,0.677-0.061,0.916c-0.025,0.053-0.039,0.173-0.039,0.357c-1.115,0.453-2.109,0.83-2.984,1.136
			c-0.877,0.305-1.447,0.511-1.713,0.616c-0.293,0.134-0.664,0.332-1.114,0.598c-0.451,0.265-0.89,0.611-1.313,1.036
			c-0.425,0.424-0.789,0.928-1.095,1.512s-0.458,1.248-0.458,1.99c0,0.93,0.221,1.704,0.657,2.329
			c0.438,0.621,0.948,1.119,1.532,1.492c0.584,0.371,1.168,0.631,1.75,0.775c0.586,0.146,1.011,0.221,1.274,0.221
			c0.558-0.026,1.294-0.153,2.21-0.379c0.915-0.227,1.838-0.736,2.766-1.533c0.426-0.371,0.765-0.869,1.017-1.491
			c0.252-0.623,0.458-1.302,0.616-2.029c0.16-0.729,0.271-1.476,0.339-2.229c0.065-0.756,0.126-1.439,0.18-2.051
			c0.291-0.133,0.577-0.291,0.854-0.478c0.279-0.187,0.578-0.386,0.896-0.597c0.559-0.373,1.129-0.775,1.713-1.215
			c0.584-0.438,1.146-0.929,1.691-1.473c0.543-0.543,1.061-1.154,1.552-1.831c0.044-0.062,0.087-0.129,0.132-0.192
			c0.168,0.635,0.396,1.039,0.685,1.207c0.663,0.398,1.175,0.611,1.532,0.638s0.604,0.026,0.736,0
			c0.133-0.026,0.324-0.152,0.577-0.378c0.252-0.226,0.404-0.483,0.457-0.776c0-0.132,0.054-0.338,0.16-0.617
			c0.104-0.278,0.219-0.577,0.338-0.896s0.252-0.617,0.397-0.896c0.146-0.279,0.26-0.484,0.338-0.617
			c0.08-0.133,0.193-0.324,0.34-0.576s0.292-0.498,0.438-0.737s0.284-0.431,0.418-0.577c0.133-0.145,0.237-0.206,0.317-0.179
			c0.08,0.054,0.146,0.179,0.198,0.378c0.054,0.199,0.105,0.438,0.16,0.716c0.053,0.278,0.111,0.563,0.18,0.856
			c0.066,0.291,0.14,0.543,0.219,0.756c0.079,0.214,0.212,0.539,0.398,0.976c0.186,0.438,0.463,0.87,0.836,1.294
			c0.369,0.424,0.849,0.796,1.433,1.114c0.583,0.317,1.313,0.478,2.188,0.478c0.85,0,1.6-0.132,2.25-0.397
			c0.648-0.265,1.199-0.603,1.652-1.015c0.145-0.131,0.277-0.271,0.407-0.412c0.07,0.098,0.154,0.189,0.269,0.272
			c0.662,0.558,1.347,0.961,2.049,1.213c0.703,0.253,1.348,0.418,1.932,0.498c0.583,0.079,1.096,0.106,1.532,0.079
			c0.438-0.025,0.735-0.04,0.896-0.04s0.479-0.06,0.955-0.179c0.479-0.12,0.977-0.34,1.493-0.658
			c0.519-0.318,0.981-0.77,1.394-1.352c0.412-0.584,0.617-1.354,0.617-2.31l0.039,0.04C226.848,29.199,226.709,28.622,226.43,28.105
			z M187.818,41.639c-0.227,0.678-0.563,1.228-1.016,1.652c-0.134,0.133-0.292,0.271-0.478,0.418
			c-0.187,0.145-0.392,0.258-0.617,0.338s-0.472,0.119-0.735,0.119c-0.268,0-0.559-0.105-0.875-0.318
			c-0.373-0.238-0.613-0.51-0.718-0.815c-0.106-0.306-0.106-0.604,0-0.896c0.104-0.293,0.291-0.57,0.558-0.836
			c0.265-0.266,0.598-0.465,0.996-0.598c0.688-0.238,1.306-0.451,1.85-0.637c0.544-0.187,1.055-0.373,1.531-0.559
			C188.21,40.252,188.043,40.963,187.818,41.639z M188.834,28.204c-0.08,0.187-0.173,0.378-0.279,0.578
			c-0.105,0.198-0.213,0.403-0.318,0.616c-0.213,0.426-0.551,0.791-1.016,1.096c-0.464,0.305-0.955,0.523-1.472,0.656
			c-0.519,0.135-1.017,0.187-1.493,0.16c-0.479-0.025-0.811-0.16-0.994-0.398c-0.214-0.238-0.273-0.536-0.18-0.896
			c0.092-0.357,0.299-0.709,0.616-1.054s0.737-0.638,1.255-0.875c0.518-0.239,1.107-0.359,1.771-0.359
			c0.449,0,0.848,0.047,1.192,0.14c0.345,0.093,0.663,0.192,0.956,0.298L188.834,28.204z M222.43,29.756v0.041
			c-0.08,0.398-0.259,0.703-0.537,0.916c-0.277,0.212-0.61,0.346-0.994,0.396c-0.387,0.055-0.791,0.055-1.215,0
			c-0.426-0.051-0.836-0.131-1.233-0.237c-0.16-0.054-0.306-0.101-0.438-0.14c-0.135-0.039-0.267-0.072-0.398-0.1l0.08-0.158
			c0.291-0.345,0.523-0.836,0.697-1.473c0.172-0.637,0.323-1.314,0.457-2.03c0.45,0.159,0.901,0.332,1.354,0.518
			c0.45,0.186,0.854,0.392,1.213,0.617c0.358,0.225,0.638,0.471,0.836,0.735C222.45,29.107,222.509,29.412,222.43,29.756z"/>
	</g>
</g>
<g>
	<g>
		<path fill="#D2DA9C" d="M36.113,18.891c-0.318,0.239-0.676,0.425-1.074,0.557c-0.213,0.159-0.372,0.332-0.478,0.518
			c-0.106,0.159-0.186,0.345-0.239,0.557c-0.053,0.213-0.014,0.438,0.119,0.677c0.239,0.478,0.478,0.783,0.717,0.916
			c0.239,0.133,0.703,0.079,1.394-0.16c0.424-0.132,0.955-0.298,1.592-0.498c0.637-0.199,1.254-0.498,1.851-0.896
			c0.597-0.398,1.115-0.929,1.552-1.592c0.438-0.663,0.657-1.526,0.657-2.587s-0.279-1.917-0.836-2.567
			c-0.557-0.65-1.321-1.161-2.289-1.533c-0.969-0.371-2.097-0.623-3.384-0.756c-1.287-0.132-2.646-0.199-4.08-0.199
			c-1.035,0-2.329,0.086-3.881,0.259c-1.552,0.173-3.204,0.444-4.956,0.815c-1.752,0.373-3.503,0.85-5.255,1.433
			c-1.751,0.584-3.331,1.274-4.737,2.07c-1.407,0.796-2.555,1.712-3.443,2.747c-0.889,1.035-1.334,2.176-1.334,3.423
			c0,1.009,0.597,1.871,1.792,2.587c1.194,0.717,2.7,1.348,4.518,1.891c1.818,0.544,3.775,1.035,5.872,1.472
			c2.096,0.438,4.054,0.875,5.872,1.313c1.817,0.438,3.324,0.902,4.518,1.394c1.194,0.49,1.791,1.082,1.791,1.771
			c0,0.292-0.159,0.544-0.478,0.756s-0.723,0.392-1.214,0.537c-0.491,0.146-1.028,0.267-1.612,0.358
			c-0.584,0.093-1.148,0.158-1.692,0.199c-0.544,0.039-1.022,0.065-1.433,0.078c-0.412,0.014-0.697,0.021-0.856,0.021
			c-1.513-0.026-2.925-0.099-4.239-0.22c-1.313-0.118-2.481-0.258-3.502-0.418c-1.022-0.158-1.865-0.324-2.528-0.498
			c-0.664-0.17-1.102-0.297-1.313-0.377c-0.213-0.105-0.465-0.186-0.756-0.239c-0.292-0.052-0.578-0.066-0.856-0.04
			c-0.279,0.027-0.531,0.105-0.756,0.238c-0.226,0.133-0.392,0.332-0.498,0.598c-0.106,0.292-0.133,0.544-0.08,0.756
			c0.053,0.212,0.152,0.404,0.298,0.578c0.146,0.172,0.318,0.332,0.518,0.477c0.199,0.147,0.392,0.286,0.577,0.42
			c0.265,0.185,0.836,0.422,1.711,0.715c0.876,0.293,1.957,0.578,3.245,0.856c1.287,0.279,2.747,0.519,4.379,0.718
			c1.632,0.197,3.323,0.297,5.075,0.297c1.777,0,3.429-0.16,4.956-0.478c1.525-0.317,2.846-0.757,3.96-1.313
			c1.115-0.557,1.997-1.201,2.647-1.931c0.65-0.729,0.988-1.493,1.015-2.289c0.026-0.821-0.305-1.565-0.995-2.229
			s-1.606-1.274-2.747-1.832c-1.142-0.557-2.448-1.067-3.921-1.532c-1.473-0.464-2.985-0.902-4.538-1.313
			c-1.553-0.412-3.065-0.797-4.538-1.155c-1.473-0.358-2.786-0.71-3.941-1.055c-1.154-0.344-2.083-0.697-2.786-1.055
			c-0.704-0.358-1.055-0.723-1.055-1.095c0-0.424,0.292-0.842,0.875-1.253c0.583-0.411,1.347-0.803,2.289-1.175
			c0.941-0.371,1.99-0.709,3.145-1.015c1.154-0.305,2.309-0.577,3.463-0.816c1.154-0.239,2.249-0.424,3.284-0.557
			c1.035-0.132,1.884-0.225,2.548-0.279c0.928-0.053,1.831-0.093,2.707-0.119c0.876-0.026,1.646-0.006,2.309,0.06
			c0.663,0.066,1.194,0.199,1.592,0.398c0.398,0.199,0.597,0.498,0.597,0.896c0,0.372-0.113,0.703-0.339,0.995
			C36.664,18.467,36.405,18.706,36.113,18.891z"/>
		<path fill="#D2DA9C" d="M108.197,29.408c-0.584-0.133-1.002-0.073-1.254,0.179c-0.253,0.253-0.524,0.763-0.816,1.533
			c-0.053,0.159-0.265,0.425-0.637,0.796c-0.372,0.372-0.883,0.736-1.533,1.095s-1.453,0.671-2.408,0.937
			c-0.956,0.266-2.044,0.398-3.265,0.398c-0.557,0-1.055-0.1-1.493-0.299s-0.803-0.443-1.095-0.736c0.61,0,1.379-0.105,2.309-0.318
			c0.637-0.133,1.247-0.338,1.831-0.616c0.583-0.278,1.101-0.624,1.552-1.036c0.451-0.41,0.809-0.875,1.075-1.393
			c0.265-0.518,0.398-1.081,0.398-1.691c0-0.61-0.173-1.115-0.518-1.513c-0.345-0.398-0.776-0.717-1.294-0.956
			c-0.517-0.239-1.068-0.411-1.652-0.518c-0.584-0.106-1.115-0.16-1.592-0.16s-1.115,0.074-1.911,0.22s-1.592,0.418-2.389,0.815
			c-0.796,0.398-1.52,0.943-2.169,1.633c-0.504,0.534-0.856,1.19-1.065,1.963c-0.227,0.281-0.462,0.734-0.707,1.38
			c-0.053,0.08-0.172,0.267-0.358,0.557c-0.186,0.292-0.464,0.584-0.836,0.876c-0.372,0.293-0.836,0.557-1.393,0.797
			c-0.557,0.238-1.234,0.357-2.03,0.357c-0.876,0-1.566-0.212-2.07-0.637c-0.504-0.424-0.876-1.021-1.115-1.791
			c0.398-0.559,0.956-1.348,1.672-2.368c0.717-1.021,1.426-2.149,2.13-3.384c0.703-1.233,1.307-2.508,1.811-3.821
			s0.756-2.554,0.756-3.722c0-0.345-0.04-0.789-0.12-1.333c-0.08-0.543-0.245-1.068-0.498-1.572
			c-0.252-0.504-0.63-0.936-1.134-1.293c-0.504-0.358-1.168-0.538-1.99-0.538c-0.956,0-1.798,0.239-2.528,0.717
			s-1.36,1.114-1.891,1.911c-0.531,0.796-0.976,1.692-1.333,2.687c-0.358,0.995-0.637,2.01-0.836,3.045
			c-0.199,1.035-0.345,2.037-0.438,3.005c-0.093,0.969-0.139,1.825-0.139,2.568c0,0.838,0.064,1.683,0.192,2.531
			c-0.107,0.125-0.217,0.274-0.332,0.474c-0.146,0.254-0.313,0.553-0.498,0.896c-0.106,0.238-0.286,0.498-0.538,0.775
			c-0.252,0.279-0.644,0.539-1.174,0.776c-0.875,0.398-1.532,0.485-1.97,0.259c-0.438-0.226-0.803-0.551-1.095-0.976
			c-0.133-0.212-0.212-0.517-0.239-0.915c-0.026-0.398-0.026-0.816,0-1.254c0.027-0.438,0.073-0.869,0.14-1.294
			c0.066-0.425,0.126-0.769,0.179-1.035c0.08-0.531-0.066-0.995-0.438-1.393c-0.372-0.398-0.73-0.637-1.075-0.716
			c-0.318-0.08-0.696-0.08-1.134,0s-0.736,0.186-0.896,0.318c-0.08,0.079-0.16,0.245-0.239,0.497
			c-0.079,0.253-0.146,0.545-0.199,0.876c-0.053,0.332-0.1,0.664-0.14,0.995c-0.04,0.333-0.073,0.591-0.099,0.777
			c-0.133,1.113-0.478,2.017-1.035,2.707c-0.558,0.689-1.168,1.047-1.831,1.074c-0.318,0-0.604-0.065-0.856-0.199
			c-0.252-0.131-0.458-0.299-0.617-0.498c-0.159-0.198-0.286-0.397-0.378-0.596c-0.094-0.199-0.14-0.379-0.14-0.539
			c0-0.345,0.046-0.756,0.14-1.232c0.092-0.479,0.205-1.208,0.338-2.189c0.053-0.478,0.006-0.842-0.14-1.095
			c-0.146-0.252-0.325-0.431-0.537-0.538c-0.212-0.105-0.418-0.165-0.617-0.179c-0.199-0.013-0.338-0.02-0.418-0.02
			c-0.16-0.026-0.385-0.026-0.677,0c-0.292,0.026-0.624,0.146-0.995,0.358c-0.186,0.133-0.338,0.412-0.458,0.836
			c-0.092,0.329-0.168,0.703-0.229,1.119c-0.15,0.135-0.306,0.28-0.467,0.434c-0.213,0.214-0.478,0.365-0.796,0.458
			c-0.318,0.094-0.657,0.146-1.015,0.159c-0.358,0.015-0.704-0.006-1.035-0.06c-0.333-0.053-0.591-0.119-0.776-0.199
			c-0.292-0.133-0.518-0.272-0.677-0.418c-0.159-0.145-0.306-0.285-0.438-0.418c-0.106-0.265-0.292-0.543-0.557-0.835
			c-0.451-0.531-1.221-1.035-2.309-1.513c-0.318-0.133-0.717-0.272-1.194-0.418s-1.048-0.219-1.711-0.219
			c-1.089,0-2.097,0.179-3.025,0.537c-0.929,0.358-1.739,0.823-2.428,1.394c-0.69,0.571-1.234,1.208-1.632,1.912
			c-0.398,0.703-0.598,1.387-0.598,2.049c0,0.69,0.106,1.354,0.318,1.99c0.212,0.639,0.558,1.202,1.036,1.692
			c0.478,0.491,1.108,0.89,1.891,1.194c0.782,0.305,1.731,0.457,2.846,0.457c1.008,0,1.943-0.119,2.807-0.358
			c0.861-0.238,1.631-0.55,2.309-0.935c0.677-0.386,1.234-0.822,1.672-1.314c0.438-0.491,0.736-0.989,0.895-1.493
			c0.743,0.026,1.434-0.021,2.07-0.14c0.638-0.119,1.181-0.245,1.632-0.377c0.348-0.1,0.667-0.229,0.964-0.381
			c-0.005,0.229-0.008,0.451-0.008,0.658c0,0.506,0.105,1.022,0.318,1.553c0.212,0.531,0.511,1.016,0.896,1.453
			c0.384,0.438,0.849,0.791,1.393,1.056s1.161,0.397,1.851,0.397c0.689,0,1.32-0.119,1.891-0.358
			c0.57-0.239,1.055-0.505,1.453-0.796c0.478-0.346,0.902-0.743,1.274-1.194c0.344,0.425,0.756,0.783,1.234,1.075
			c0.398,0.292,0.896,0.543,1.493,0.755c0.597,0.213,1.28,0.317,2.05,0.317c1.061,0,1.983-0.178,2.767-0.537
			c0.782-0.357,1.426-0.769,1.931-1.233c0.368-0.339,0.671-0.674,0.912-1.007c0.085,0.165,0.168,0.331,0.262,0.488
			c0.543,0.916,1.28,1.66,2.209,2.229c0.928,0.57,2.096,0.854,3.502,0.854c1.406,0,2.594-0.232,3.563-0.695
			c0.968-0.464,1.758-0.989,2.368-1.573c0.131-0.125,0.251-0.249,0.367-0.371c0.225,0.363,0.505,0.7,0.848,1.007
			c0.65,0.584,1.506,1.043,2.567,1.375s2.361,0.498,3.901,0.498c1.513,0,2.886-0.174,4.12-0.519s2.295-0.776,3.185-1.293
			c0.889-0.519,1.612-1.075,2.169-1.672s0.941-1.147,1.154-1.652c0.212-0.583,0.259-1.114,0.139-1.592
			C108.695,29.727,108.489,29.462,108.197,29.408z M49.623,32.016c-0.279,0.199-0.571,0.353-0.875,0.459
			c-0.306,0.106-0.584,0.172-0.836,0.199s-0.432,0.04-0.537,0.04c-0.133,0-0.326-0.006-0.578-0.021
			c-0.252-0.012-0.504-0.065-0.756-0.158c-0.252-0.094-0.471-0.26-0.657-0.498c-0.186-0.239-0.279-0.583-0.279-1.035
			s0.12-0.836,0.358-1.154c0.238-0.32,0.511-0.578,0.816-0.777c0.305-0.199,0.617-0.352,0.935-0.457
			c0.319-0.106,0.558-0.16,0.717-0.16c0.133,0,0.252,0,0.358,0c0.105,0,0.239,0.014,0.398,0.041
			c0.053,0.212,0.112,0.412,0.179,0.597c0.066,0.187,0.125,0.372,0.18,0.558c0.159,0.397,0.338,0.716,0.537,0.955
			c0.199,0.238,0.418,0.424,0.657,0.557l0.04,0.04C50.12,31.545,49.901,31.816,49.623,32.016z M81.606,24.93
			c0.053-0.677,0.12-1.36,0.199-2.05c0.159-1.3,0.338-2.335,0.537-3.105c0.199-0.77,0.412-1.36,0.637-1.771s0.458-0.677,0.697-0.796
			c0.239-0.12,0.464-0.179,0.677-0.179h0.04c0.212,0,0.345,0.179,0.398,0.538c0.053,0.358,0.06,0.79,0.02,1.293
			c-0.04,0.504-0.113,1.009-0.219,1.513c-0.106,0.504-0.212,0.902-0.318,1.194c-0.08,0.239-0.226,0.583-0.438,1.035
			s-0.451,0.936-0.716,1.453c-0.266,0.517-0.544,1.028-0.836,1.532c-0.292,0.505-0.557,0.93-0.796,1.274
			C81.513,26.251,81.553,25.607,81.606,24.93z M95.34,29.389c0.292-0.357,0.703-0.604,1.234-0.736
			c0.61-0.158,1.075-0.211,1.393-0.158c0.318,0.053,0.531,0.199,0.637,0.438c0.132,0.239,0.105,0.492-0.08,0.758
			c-0.186,0.266-0.531,0.504-1.035,0.715c-0.504,0.213-0.989,0.313-1.453,0.299c-0.465-0.014-0.882-0.046-1.254-0.1
			C94.862,30.152,95.047,29.747,95.34,29.389z"/>
		<path fill="#D2DA9C" d="M143.137,19.377h-0.041c0-0.822-0.324-1.771-0.975-2.846c-0.65-1.075-1.686-2.063-3.105-2.965
			s-3.244-1.612-5.474-2.13s-4.896-0.63-8.001-0.338c-1.777,0.159-3.557,0.411-5.333,0.756c-1.778,0.345-3.444,0.724-4.996,1.135
			c-1.553,0.412-2.932,0.836-4.14,1.274c-1.207,0.438-2.143,0.843-2.806,1.214c-0.345,0.292-0.61,0.677-0.796,1.154
			c-0.185,0.478-0.265,1.128-0.239,1.951c0,0.238,0.067,0.471,0.2,0.696c0.133,0.226,0.292,0.412,0.478,0.558
			s0.372,0.246,0.557,0.298c0.186,0.053,0.345,0.04,0.478-0.04c0.372-0.212,1.108-0.537,2.209-0.975
			c1.102-0.438,2.448-0.881,4.041-1.333c-0.159,0.743-0.305,1.619-0.438,2.627c-0.134,1.009-0.259,2.07-0.378,3.185
			c-0.12,1.114-0.233,2.243-0.339,3.383c-0.106,1.142-0.186,2.203-0.239,3.185c-0.054,0.982-0.086,1.852-0.099,2.607
			c-0.014,0.756-0.007,1.307,0.02,1.651c0.026,0.214,0.146,0.519,0.358,0.916c0.212,0.398,0.511,0.783,0.896,1.154
			c0.384,0.372,0.862,0.696,1.433,0.976c0.57,0.279,1.227,0.418,1.97,0.418c1.38,0,2.912-0.193,4.599-0.578
			c1.685-0.384,3.396-0.929,5.135-1.631c1.738-0.703,3.431-1.539,5.074-2.508c1.646-0.968,3.133-2.05,4.459-3.244
			c1.646-1.513,2.965-3.111,3.961-4.796C142.6,23.444,143.109,21.526,143.137,19.377z M137.604,20.292
			c0.054,0.584-0.061,1.288-0.34,2.11c-0.277,0.823-0.729,1.692-1.354,2.607c-0.623,0.916-1.413,1.838-2.368,2.767
			c-0.955,0.929-2.063,1.779-3.323,2.547c-1.261,0.77-2.681,1.413-4.259,1.931c-1.579,0.518-3.298,0.829-5.155,0.936
			c-0.584,0.025-1.055,0-1.412-0.08c-0.358-0.08-0.617-0.252-0.776-0.519c-0.159-0.265-0.246-0.643-0.259-1.134
			c-0.015-0.49,0.02-1.146,0.1-1.971c0.132-1.299,0.285-2.606,0.458-3.92c0.172-1.313,0.344-2.548,0.519-3.702
			c0.172-1.154,0.351-2.202,0.537-3.146c0.186-0.941,0.357-1.705,0.518-2.289c1.326-0.266,2.666-0.478,4.021-0.637
			s2.681-0.239,3.979-0.239c1.964,0,3.529,0.113,4.697,0.338c1.168,0.226,2.069,0.544,2.707,0.956
			c0.637,0.412,1.067,0.909,1.295,1.493c0.225,0.584,0.377,1.234,0.457,1.95L137.604,20.292L137.604,20.292z"/>
		<path fill="#D2DA9C" d="M167.334,28.691c-0.425-0.424-0.891-0.795-1.395-1.114c-0.504-0.319-0.987-0.597-1.453-0.836
			c-0.463-0.239-0.867-0.424-1.213-0.557c-0.346-0.132-0.558-0.226-0.637-0.279c-0.293-0.159-0.498-0.351-0.617-0.577
			c-0.119-0.225-0.207-0.418-0.26-0.578c-0.025-0.079-0.072-0.192-0.14-0.338c-0.065-0.146-0.172-0.298-0.317-0.458
			c-0.146-0.159-0.318-0.292-0.518-0.398s-0.444-0.159-0.737-0.159c-0.292,0-0.551,0.086-0.774,0.259
			c-0.228,0.173-0.433,0.372-0.617,0.597c-0.186,0.226-0.325,0.458-0.418,0.696c-0.094,0.239-0.139,0.438-0.139,0.598
			c0,0.212,0.004,0.504,0.02,0.875c0.013,0.372,0.166,0.743,0.458,1.115c-0.08,0.345-0.16,0.617-0.238,0.816
			c-0.081,0.198-0.167,0.397-0.26,0.597c-0.06,0.125-0.128,0.265-0.202,0.411c-0.193,0.033-0.354,0.105-0.475,0.226
			c-0.252,0.253-0.523,0.763-0.815,1.532c-0.054,0.16-0.267,0.425-0.637,0.796c-0.372,0.372-0.882,0.737-1.533,1.095
			c-0.649,0.358-1.452,0.67-2.407,0.936s-2.045,0.397-3.265,0.397c-0.558,0-1.056-0.099-1.493-0.298s-0.802-0.443-1.094-0.736
			c0.609,0,1.379-0.105,2.309-0.318c0.637-0.133,1.247-0.338,1.831-0.616c0.583-0.278,1.101-0.624,1.554-1.036
			c0.451-0.412,0.809-0.875,1.074-1.393c0.266-0.519,0.397-1.081,0.397-1.692c0-0.61-0.173-1.115-0.519-1.513
			c-0.345-0.397-0.775-0.716-1.293-0.955c-0.519-0.239-1.068-0.412-1.652-0.518s-1.114-0.16-1.592-0.16
			c-0.479,0-1.115,0.073-1.91,0.219c-0.797,0.146-1.594,0.418-2.39,0.816c-0.797,0.398-1.521,0.942-2.17,1.633
			c-0.649,0.69-1.055,1.579-1.214,2.667c-0.132,0.93-0.086,1.785,0.141,2.567c0.225,0.783,0.662,1.468,1.313,2.05
			c0.648,0.584,1.506,1.043,2.566,1.375c1.063,0.332,2.361,0.496,3.901,0.496c1.513,0,2.886-0.173,4.119-0.517
			c1.233-0.345,2.296-0.776,3.187-1.294c0.646-0.376,1.201-0.773,1.672-1.191c0.045,0.238,0.182,0.445,0.416,0.615
			c0.664,0.557,1.348,0.961,2.051,1.213c0.703,0.253,1.347,0.418,1.931,0.498c0.584,0.079,1.095,0.105,1.532,0.079
			s0.736-0.04,0.896-0.04c0.157,0,0.477-0.061,0.955-0.179c0.478-0.12,0.975-0.339,1.491-0.658c0.519-0.317,0.981-0.769,1.394-1.353
			s0.617-1.354,0.617-2.309l0.039,0.04c0-0.638-0.14-1.215-0.418-1.731C168.109,29.587,167.758,29.116,167.334,28.691z
			 M145.8,29.389c0.292-0.359,0.702-0.604,1.233-0.736c0.609-0.16,1.074-0.213,1.394-0.16c0.318,0.053,0.53,0.199,0.638,0.438
			c0.133,0.239,0.105,0.491-0.08,0.756c-0.187,0.267-0.53,0.506-1.034,0.717c-0.505,0.213-0.989,0.313-1.452,0.299
			c-0.466-0.014-0.883-0.047-1.255-0.1C145.322,30.152,145.507,29.746,145.8,29.389z M164.389,31.756v0.041
			c-0.078,0.398-0.259,0.703-0.537,0.916c-0.278,0.212-0.61,0.346-0.994,0.396c-0.387,0.055-0.791,0.055-1.215,0
			c-0.426-0.051-0.836-0.131-1.233-0.237c-0.159-0.054-0.306-0.101-0.438-0.14s-0.266-0.072-0.396-0.1l0.08-0.158
			c0.291-0.345,0.522-0.836,0.695-1.473c0.172-0.637,0.324-1.314,0.457-2.029c0.451,0.158,0.902,0.332,1.354,0.518
			s0.856,0.392,1.214,0.617c0.359,0.225,0.637,0.471,0.836,0.735C164.408,31.107,164.468,31.412,164.389,31.756z"/>
		<path fill="#D2DA9C" d="M170.318,20.272c0.24,0.306,0.584,0.571,1.035,0.796c0.451,0.226,1.049,0.365,1.791,0.418
			c0.742,0.053,1.319-0.033,1.731-0.259c0.412-0.225,0.724-0.491,0.937-0.796c0.211-0.305,0.345-0.604,0.396-0.896
			c0.055-0.292,0.081-0.491,0.081-0.597s-0.04-0.332-0.12-0.677c-0.08-0.344-0.253-0.703-0.518-1.075
			c-0.266-0.371-0.663-0.703-1.194-0.995c-0.53-0.292-1.233-0.438-2.108-0.438c-0.586,0-1.05,0.094-1.395,0.279
			c-0.346,0.187-0.609,0.418-0.796,0.697s-0.306,0.571-0.358,0.875c-0.053,0.306-0.078,0.577-0.078,0.816
			c0,0.265,0.039,0.564,0.118,0.895C169.921,19.649,170.08,19.968,170.318,20.272z"/>
		<path fill="#D2DA9C" d="M225.43,30.105c-0.277-0.519-0.631-0.989-1.055-1.414c-0.425-0.424-0.891-0.796-1.393-1.115
			c-0.506-0.318-0.989-0.597-1.453-0.836c-0.465-0.239-0.869-0.424-1.215-0.557c-0.344-0.132-0.558-0.226-0.638-0.279
			c-0.292-0.159-0.497-0.351-0.616-0.577c-0.119-0.225-0.205-0.418-0.259-0.578c-0.026-0.079-0.073-0.192-0.14-0.338
			s-0.174-0.298-0.318-0.458c-0.146-0.159-0.318-0.292-0.518-0.398s-0.444-0.159-0.737-0.159c-0.291,0-0.551,0.086-0.774,0.259
			c-0.227,0.173-0.433,0.372-0.616,0.597c-0.187,0.226-0.326,0.458-0.419,0.696c-0.094,0.239-0.139,0.438-0.139,0.598
			c0,0.212,0.006,0.504,0.02,0.875c0.013,0.372,0.165,0.743,0.457,1.115c-0.079,0.345-0.158,0.616-0.238,0.815
			s-0.166,0.398-0.258,0.598c-0.059,0.123-0.126,0.259-0.199,0.402c-0.221,0.027-0.4,0.104-0.537,0.233
			c-0.266,0.253-0.531,0.763-0.797,1.532c-0.158,0.505-0.471,0.941-0.936,1.314c-0.465,0.371-1.082,0.557-1.852,0.557
			c-0.371,0-0.67-0.094-0.896-0.278c-0.225-0.185-0.393-0.433-0.497-0.737c-0.105-0.304-0.173-0.668-0.198-1.095
			c-0.027-0.424-0.04-0.875-0.04-1.353c0-0.479-0.007-0.949-0.021-1.414c-0.014-0.463-0.055-0.888-0.119-1.273
			c-0.066-0.384-0.174-0.709-0.318-0.975c-0.146-0.265-0.352-0.452-0.617-0.558c-0.266-0.08-0.576-0.139-0.936-0.178
			c-0.358-0.041-0.729-0.047-1.114-0.021c-0.385,0.027-0.756,0.1-1.114,0.219c-0.357,0.12-0.671,0.298-0.936,0.538
			c-0.266,0.239-0.531,0.511-0.797,0.816c-0.266,0.305-0.504,0.584-0.717,0.836s-0.392,0.464-0.537,0.637
			c-0.146,0.173-0.232,0.259-0.258,0.259c-0.135,0-0.227-0.292-0.279-0.875c0-0.133-0.021-0.312-0.061-0.538
			c-0.039-0.225-0.125-0.458-0.259-0.697c-0.133-0.239-0.317-0.451-0.558-0.637c-0.238-0.185-0.557-0.318-0.954-0.397
			c-1.54-0.239-2.283,0.318-2.229,1.672c0,0.345,0.014,0.929,0.039,1.75c0.012,0.367,0.033,0.742,0.059,1.119
			c-0.086,0.119-0.172,0.252-0.256,0.414c-0.135,0.252-0.293,0.563-0.479,0.935c-0.318,0.61-0.639,1.089-0.955,1.433
			c-0.32,0.346-0.625,0.704-0.917,1.075c-0.317,0.372-0.79,0.765-1.413,1.174c-0.623,0.411-1.32,0.804-2.089,1.175
			c0.054-0.981,0.101-1.924,0.14-2.826s0.125-1.619,0.258-2.149c0.134-0.292,0.267-0.664,0.398-1.115
			c0.079-0.239,0.119-0.411,0.119-0.519c0.212-0.875,0.391-1.519,0.537-1.929c0.146-0.411,0.113-0.79-0.1-1.134
			c-0.213-0.345-0.558-0.638-1.035-0.876c-0.478-0.239-1.021-0.319-1.631-0.239c-0.373,0.054-0.639,0.206-0.797,0.458
			c-0.158,0.253-0.306,0.617-0.438,1.095c-0.452-0.186-0.981-0.338-1.593-0.457c-0.61-0.12-1.301-0.192-2.069-0.219
			c-0.823-0.026-1.687,0.073-2.588,0.299c-0.902,0.226-1.726,0.577-2.468,1.054c-0.742,0.478-1.354,1.083-1.832,1.812
			c-0.478,0.73-0.717,1.586-0.717,2.568c0,0.43,0.049,0.821,0.129,1.186c-0.232,0.237-0.487,0.453-0.783,0.625
			c-0.387,0.227-0.817,0.313-1.295,0.26c-0.424-0.053-0.756-0.225-0.994-0.518c-0.239-0.293-0.412-0.63-0.52-1.015
			c-0.104-0.385-0.166-0.783-0.178-1.194c-0.016-0.412-0.008-0.763,0.02-1.055c0.054-0.583,0.101-1.096,0.14-1.533
			c0.04-0.438,0.062-0.802,0.062-1.094c0-0.106-0.049-0.258-0.141-0.458c-0.094-0.199-0.232-0.391-0.418-0.577
			s-0.398-0.344-0.637-0.478c-0.239-0.132-0.518-0.198-0.838-0.198c-0.77,0-1.346,0.179-1.73,0.538
			c-0.385,0.358-0.577,1.108-0.577,2.249c0,0.398-0.013,0.869-0.038,1.412c-0.027,0.545-0.027,1.123,0,1.731
			c0.025,0.611,0.125,1.222,0.297,1.832c0.174,0.611,0.465,1.167,0.877,1.671c0.41,0.506,0.975,0.918,1.69,1.234
			c0.717,0.318,1.633,0.49,2.747,0.518c1.273,0.026,2.302-0.199,3.085-0.677c0.347-0.21,0.651-0.438,0.933-0.675
			c0.111,0.09,0.225,0.179,0.342,0.257c0.57,0.384,1.154,0.649,1.752,0.795c0.596,0.146,1.055,0.22,1.373,0.22
			c0.449,0,1.127-0.134,2.029-0.397c0.901-0.267,1.856-0.69,2.865-1.274c-0.053,0.452-0.087,0.863-0.1,1.234
			c-0.014,0.372-0.033,0.677-0.061,0.916c-0.025,0.053-0.039,0.173-0.039,0.357c-1.115,0.453-2.109,0.83-2.984,1.136
			c-0.877,0.305-1.447,0.511-1.713,0.616c-0.293,0.134-0.664,0.332-1.114,0.598c-0.451,0.265-0.89,0.611-1.313,1.036
			c-0.425,0.424-0.789,0.928-1.095,1.512s-0.458,1.248-0.458,1.99c0,0.93,0.221,1.704,0.657,2.329
			c0.438,0.621,0.948,1.119,1.532,1.492c0.584,0.371,1.168,0.631,1.75,0.775c0.586,0.146,1.011,0.221,1.274,0.221
			c0.558-0.026,1.294-0.153,2.21-0.379c0.915-0.227,1.838-0.736,2.766-1.533c0.426-0.371,0.765-0.869,1.017-1.491
			c0.252-0.623,0.458-1.302,0.616-2.029c0.16-0.729,0.271-1.476,0.339-2.229c0.065-0.756,0.126-1.44,0.18-2.051
			c0.291-0.133,0.577-0.291,0.854-0.478c0.279-0.187,0.578-0.386,0.896-0.597c0.559-0.373,1.129-0.775,1.713-1.215
			c0.584-0.438,1.146-0.929,1.691-1.473c0.543-0.543,1.061-1.154,1.552-1.831c0.044-0.062,0.087-0.129,0.132-0.192
			c0.168,0.635,0.396,1.039,0.685,1.207c0.663,0.398,1.175,0.611,1.532,0.638s0.604,0.026,0.736,0
			c0.133-0.026,0.324-0.152,0.577-0.378c0.252-0.226,0.404-0.483,0.457-0.776c0-0.132,0.054-0.338,0.16-0.617
			c0.104-0.278,0.219-0.577,0.338-0.896s0.252-0.617,0.397-0.896c0.146-0.279,0.26-0.484,0.338-0.617
			c0.08-0.133,0.193-0.324,0.34-0.576s0.292-0.498,0.438-0.737s0.284-0.431,0.418-0.577c0.133-0.145,0.237-0.206,0.317-0.179
			c0.08,0.054,0.146,0.179,0.198,0.378c0.054,0.199,0.105,0.438,0.16,0.716c0.053,0.278,0.111,0.563,0.18,0.856
			c0.066,0.291,0.14,0.543,0.219,0.756c0.079,0.214,0.212,0.539,0.398,0.976c0.186,0.438,0.463,0.87,0.836,1.294
			c0.369,0.424,0.849,0.796,1.433,1.114c0.583,0.317,1.313,0.478,2.188,0.478c0.85,0,1.6-0.132,2.25-0.397
			c0.648-0.265,1.199-0.603,1.652-1.015c0.145-0.131,0.277-0.271,0.407-0.412c0.07,0.098,0.154,0.189,0.269,0.272
			c0.662,0.558,1.347,0.961,2.049,1.213c0.703,0.253,1.348,0.418,1.932,0.498c0.583,0.079,1.096,0.106,1.532,0.079
			c0.438-0.025,0.735-0.04,0.896-0.04s0.479-0.06,0.955-0.179c0.479-0.12,0.977-0.34,1.493-0.658
			c0.519-0.318,0.981-0.77,1.394-1.352c0.412-0.584,0.617-1.354,0.617-2.31l0.039,0.04C225.848,31.199,225.709,30.622,225.43,30.105
			z M186.818,43.639c-0.227,0.678-0.563,1.228-1.016,1.652c-0.134,0.133-0.292,0.271-0.478,0.418
			c-0.187,0.145-0.392,0.258-0.617,0.338s-0.472,0.119-0.735,0.119c-0.268,0-0.559-0.105-0.875-0.318
			c-0.373-0.238-0.613-0.51-0.718-0.815c-0.106-0.306-0.106-0.604,0-0.896c0.104-0.293,0.291-0.57,0.558-0.836
			c0.265-0.266,0.598-0.465,0.996-0.598c0.688-0.238,1.306-0.451,1.85-0.637c0.544-0.187,1.055-0.373,1.531-0.558
			C187.21,42.252,187.043,42.963,186.818,43.639z M187.834,30.204c-0.08,0.187-0.173,0.378-0.279,0.578
			c-0.105,0.198-0.213,0.403-0.318,0.616c-0.213,0.426-0.551,0.791-1.016,1.096c-0.464,0.305-0.955,0.523-1.472,0.656
			c-0.519,0.135-1.017,0.187-1.493,0.16c-0.479-0.025-0.811-0.16-0.994-0.398c-0.214-0.238-0.273-0.536-0.18-0.896
			c0.092-0.357,0.299-0.709,0.616-1.054s0.737-0.638,1.255-0.875c0.518-0.239,1.107-0.358,1.771-0.358
			c0.449,0,0.848,0.047,1.192,0.14s0.663,0.192,0.956,0.298L187.834,30.204z M221.43,31.756v0.041
			c-0.08,0.398-0.259,0.703-0.537,0.916c-0.277,0.212-0.61,0.346-0.994,0.396c-0.387,0.055-0.791,0.055-1.215,0
			c-0.426-0.051-0.836-0.131-1.233-0.237c-0.16-0.054-0.306-0.101-0.438-0.14c-0.135-0.039-0.267-0.072-0.398-0.1l0.08-0.158
			c0.291-0.345,0.523-0.836,0.697-1.473c0.172-0.637,0.323-1.314,0.457-2.029c0.45,0.158,0.901,0.332,1.354,0.518
			c0.45,0.186,0.854,0.392,1.213,0.617c0.358,0.225,0.638,0.471,0.836,0.735C221.45,31.107,221.509,31.412,221.43,31.756z"/>
	</g>
</g>
</svg>
