<?xml version="1.0" encoding="utf-8"?>
<!-- Generator: Adobe Illustrator 16.0.3, SVG Export Plug-In . SVG Version: 6.00 Build 0)  -->
<!DOCTYPE svg PUBLIC "-//W3C//DTD SVG 1.1//EN" "http://www.w3.org/Graphics/SVG/1.1/DTD/svg11.dtd">
<svg version="1.1" id="Layer_1" xmlns="http://www.w3.org/2000/svg" xmlns:xlink="http://www.w3.org/1999/xlink" x="0px" y="0px"
	 width="190px" height="40px" viewBox="0 0 190 40" enable-background="new 0 0 190 40" xml:space="preserve">
<g id="SouleDesigns_1_">
	<g>
		<path fill="#A3A3A3" d="M26.574,11.011c-0.271,0.203-0.575,0.361-0.914,0.474c-0.181,0.135-0.317,0.282-0.407,0.44
			c-0.09,0.136-0.158,0.294-0.204,0.474c-0.045,0.181-0.012,0.373,0.102,0.576c0.203,0.407,0.406,0.666,0.61,0.779
			c0.203,0.113,0.598,0.067,1.186-0.136c0.361-0.112,0.813-0.253,1.354-0.424c0.542-0.169,1.067-0.423,1.575-0.762
			c0.508-0.338,0.949-0.791,1.32-1.354c0.373-0.564,0.559-1.299,0.559-2.202s-0.237-1.631-0.711-2.184
			c-0.474-0.553-1.124-0.988-1.948-1.304c-0.825-0.316-1.784-0.53-2.879-0.644c-1.094-0.112-2.251-0.169-3.471-0.169
			c-0.881,0-1.981,0.073-3.302,0.22c-1.32,0.147-2.726,0.378-4.217,0.693c-1.49,0.317-2.98,0.723-4.471,1.219
			c-1.49,0.497-2.834,1.083-4.03,1.761c-1.197,0.678-2.174,1.457-2.93,2.337c-0.756,0.881-1.135,1.852-1.135,2.913
			c0,0.858,0.508,1.591,1.524,2.2c1.017,0.611,2.297,1.147,3.844,1.609c1.547,0.463,3.211,0.881,4.996,1.254
			c1.783,0.373,3.449,0.743,4.996,1.116c1.546,0.373,2.829,0.769,3.844,1.187c1.016,0.416,1.524,0.92,1.524,1.507
			c0,0.249-0.136,0.464-0.407,0.644c-0.271,0.183-0.615,0.334-1.033,0.457c-0.418,0.125-0.875,0.229-1.372,0.306
			c-0.497,0.08-0.977,0.135-1.439,0.17c-0.463,0.033-0.869,0.056-1.219,0.065c-0.35,0.013-0.593,0.019-0.728,0.019
			c-1.287-0.022-2.489-0.084-3.606-0.188c-1.117-0.101-2.111-0.22-2.979-0.354c-0.87-0.135-1.587-0.275-2.151-0.424
			c-0.565-0.146-0.938-0.254-1.117-0.32c-0.181-0.09-0.396-0.158-0.643-0.203c-0.249-0.045-0.492-0.057-0.729-0.033
			c-0.238,0.021-0.452,0.088-0.643,0.201c-0.192,0.113-0.333,0.281-0.424,0.51c-0.09,0.248-0.113,0.463-0.068,0.644
			c0.045,0.183,0.129,0.345,0.253,0.492c0.124,0.146,0.271,0.282,0.44,0.405c0.169,0.125,0.334,0.242,0.491,0.355
			c0.225,0.158,0.711,0.359,1.456,0.607c0.746,0.25,1.665,0.492,2.761,0.729c1.095,0.236,2.337,0.441,3.726,0.611
			c1.388,0.166,2.827,0.252,4.317,0.252c1.512,0,2.917-0.138,4.217-0.406c1.297-0.271,2.421-0.646,3.369-1.116
			c0.949-0.476,1.699-1.021,2.252-1.646c0.553-0.619,0.841-1.271,0.864-1.947c0.022-0.696-0.26-1.33-0.847-1.896
			c-0.587-0.563-1.366-1.084-2.337-1.56c-0.972-0.474-2.083-0.908-3.336-1.304c-1.253-0.395-2.54-0.768-3.861-1.117
			c-1.321-0.35-2.608-0.678-3.861-0.981c-1.253-0.305-2.37-0.604-3.353-0.897c-0.982-0.293-1.772-0.594-2.37-0.897
			c-0.599-0.305-0.898-0.615-0.898-0.932c0-0.361,0.249-0.717,0.745-1.066c0.496-0.35,1.146-0.684,1.948-1
			c0.8-0.316,1.693-0.603,2.676-0.864c0.981-0.259,1.964-0.491,2.946-0.694c0.982-0.203,1.914-0.36,2.794-0.473
			c0.88-0.113,1.603-0.192,2.167-0.238c0.79-0.045,1.558-0.079,2.303-0.101c0.746-0.022,1.4-0.005,1.965,0.051
			c0.564,0.057,1.016,0.169,1.354,0.339c0.339,0.169,0.508,0.423,0.508,0.762c0,0.316-0.096,0.598-0.289,0.846
			C27.043,10.648,26.822,10.853,26.574,11.011z"/>
		<path fill="#A3A3A3" d="M87.903,19.957c-0.497-0.111-0.853-0.062-1.067,0.152c-0.215,0.215-0.445,0.648-0.693,1.305
			c-0.045,0.136-0.227,0.361-0.543,0.678c-0.315,0.316-0.75,0.626-1.303,0.932c-0.554,0.308-1.236,0.57-2.05,0.797
			c-0.813,0.229-1.739,0.341-2.776,0.341c-0.475,0-0.898-0.086-1.271-0.257c-0.373-0.168-0.684-0.377-0.932-0.625
			c0.519,0,1.173-0.09,1.964-0.271c0.542-0.112,1.062-0.288,1.558-0.522c0.496-0.236,0.938-0.531,1.32-0.883
			c0.384-0.349,0.688-0.744,0.915-1.185c0.226-0.441,0.338-0.92,0.338-1.439s-0.147-0.947-0.44-1.287
			c-0.293-0.338-0.66-0.609-1.101-0.813c-0.438-0.204-0.909-0.35-1.405-0.44s-0.949-0.136-1.354-0.136s-0.949,0.063-1.626,0.188
			c-0.677,0.125-1.354,0.355-2.033,0.692c-0.677,0.339-1.293,0.802-1.845,1.39c-0.43,0.454-0.729,1.012-0.906,1.67
			c-0.193,0.237-0.393,0.623-0.602,1.174c-0.045,0.066-0.146,0.227-0.304,0.475c-0.158,0.25-0.395,0.496-0.711,0.746
			s-0.711,0.473-1.185,0.678c-0.474,0.201-1.05,0.304-1.728,0.304c-0.745,0-1.332-0.181-1.761-0.541
			c-0.429-0.361-0.746-0.869-0.949-1.524c0.339-0.476,0.813-1.146,1.422-2.015c0.61-0.869,1.213-1.828,1.813-2.879
			c0.598-1.049,1.112-2.134,1.541-3.25c0.429-1.117,0.643-2.173,0.643-3.167c0-0.293-0.034-0.671-0.102-1.134
			c-0.068-0.462-0.208-0.909-0.423-1.337c-0.215-0.429-0.536-0.796-0.965-1.1c-0.429-0.304-0.994-0.458-1.693-0.458
			c-0.813,0-1.53,0.203-2.151,0.61c-0.621,0.407-1.157,0.948-1.608,1.626c-0.452,0.677-0.831,1.439-1.134,2.286
			c-0.305,0.847-0.542,1.71-0.711,2.59c-0.169,0.881-0.293,1.733-0.373,2.557c-0.079,0.824-0.118,1.552-0.118,2.185
			c0,0.714,0.054,1.433,0.163,2.153c-0.091,0.105-0.184,0.234-0.282,0.404c-0.125,0.215-0.267,0.472-0.424,0.763
			c-0.09,0.2-0.244,0.424-0.458,0.657c-0.214,0.236-0.548,0.459-0.999,0.66c-0.745,0.34-1.304,0.414-1.676,0.222
			c-0.372-0.191-0.683-0.47-0.932-0.83c-0.113-0.181-0.18-0.438-0.203-0.777c-0.022-0.34-0.022-0.695,0-1.066
			c0.023-0.373,0.062-0.739,0.119-1.102c0.056-0.361,0.107-0.654,0.152-0.881c0.068-0.452-0.057-0.848-0.373-1.186
			s-0.621-0.541-0.915-0.608c-0.27-0.067-0.592-0.067-0.964,0c-0.373,0.067-0.626,0.159-0.762,0.271
			c-0.068,0.067-0.136,0.209-0.204,0.424c-0.067,0.215-0.125,0.464-0.169,0.746c-0.045,0.281-0.085,0.564-0.119,0.847
			c-0.034,0.283-0.062,0.502-0.084,0.661c-0.113,0.947-0.407,1.717-0.881,2.303c-0.475,0.588-0.994,0.894-1.558,0.914
			c-0.271,0-0.513-0.055-0.728-0.168c-0.214-0.111-0.39-0.256-0.525-0.426c-0.135-0.168-0.243-0.338-0.321-0.506
			c-0.08-0.17-0.119-0.322-0.119-0.459c0-0.293,0.039-0.644,0.119-1.047c0.078-0.408,0.174-1.029,0.288-1.863
			c0.044-0.406,0.005-0.717-0.12-0.932c-0.124-0.215-0.276-0.367-0.457-0.459c-0.18-0.089-0.355-0.141-0.524-0.152
			c-0.169-0.01-0.288-0.018-0.355-0.018c-0.136-0.021-0.328-0.021-0.576,0c-0.249,0.022-0.531,0.125-0.847,0.305
			c-0.159,0.113-0.288,0.352-0.39,0.711c-0.078,0.281-0.143,0.599-0.195,0.953c-0.128,0.114-0.26,0.237-0.397,0.369
			c-0.181,0.18-0.407,0.311-0.677,0.389c-0.27,0.08-0.559,0.125-0.863,0.136c-0.305,0.012-0.599-0.005-0.881-0.05
			c-0.283-0.047-0.503-0.102-0.66-0.17c-0.249-0.113-0.441-0.232-0.576-0.355c-0.136-0.124-0.261-0.242-0.373-0.355
			c-0.09-0.227-0.249-0.463-0.474-0.711c-0.384-0.451-1.039-0.879-1.965-1.287c-0.271-0.112-0.61-0.23-1.016-0.354
			c-0.406-0.125-0.892-0.187-1.456-0.187c-0.927,0-1.784,0.152-2.574,0.457c-0.79,0.305-1.479,0.699-2.065,1.187
			c-0.587,0.485-1.05,1.027-1.388,1.626c-0.339,0.6-0.509,1.18-0.509,1.743c0,0.588,0.09,1.151,0.271,1.692
			c0.181,0.545,0.475,1.022,0.882,1.438c0.407,0.418,0.942,0.759,1.609,1.017c0.665,0.261,1.473,0.39,2.421,0.39
			c0.858,0,1.653-0.103,2.389-0.306c0.732-0.201,1.387-0.469,1.964-0.795c0.576-0.328,1.05-0.699,1.422-1.117
			s0.626-0.842,0.762-1.271c0.632,0.021,1.22-0.021,1.761-0.12c0.543-0.101,1.005-0.207,1.389-0.319
			c0.295-0.086,0.567-0.193,0.82-0.324c-0.004,0.195-0.007,0.385-0.007,0.562c0,0.43,0.089,0.868,0.271,1.319
			c0.181,0.453,0.435,0.865,0.763,1.236c0.326,0.373,0.722,0.674,1.185,0.898c0.463,0.224,0.987,0.337,1.575,0.337
			c0.586,0,1.123-0.101,1.609-0.304c0.485-0.203,0.897-0.433,1.236-0.679c0.407-0.295,0.767-0.633,1.083-1.016
			c0.293,0.36,0.644,0.666,1.05,0.914c0.339,0.247,0.763,0.463,1.271,0.643c0.508,0.183,1.089,0.271,1.745,0.271
			c0.902,0,1.687-0.15,2.354-0.457c0.666-0.303,1.213-0.652,1.643-1.049c0.313-0.289,0.571-0.573,0.776-0.855
			c0.073,0.141,0.143,0.281,0.223,0.414c0.462,0.779,1.089,1.412,1.879,1.896c0.79,0.483,1.783,0.729,2.979,0.729
			s2.207-0.199,3.032-0.594c0.823-0.396,1.496-0.842,2.014-1.338c0.112-0.105,0.214-0.213,0.313-0.314
			c0.19,0.309,0.43,0.596,0.721,0.855c0.554,0.496,1.281,0.889,2.185,1.17c0.902,0.281,2.009,0.424,3.319,0.424
			c1.287,0,2.455-0.146,3.505-0.441c1.05-0.293,1.952-0.658,2.709-1.1c0.756-0.441,1.372-0.914,1.846-1.424
			c0.474-0.508,0.8-0.978,0.981-1.404c0.18-0.496,0.221-0.947,0.119-1.354C88.327,20.229,88.152,20.004,87.903,19.957z
			 M38.069,22.177c-0.238,0.169-0.486,0.302-0.745,0.392c-0.261,0.091-0.497,0.146-0.711,0.168
			c-0.214,0.023-0.368,0.035-0.457,0.035c-0.113,0-0.277-0.006-0.492-0.02c-0.214-0.01-0.429-0.055-0.643-0.135
			c-0.214-0.078-0.401-0.221-0.559-0.424c-0.158-0.203-0.237-0.494-0.237-0.881c0-0.385,0.102-0.711,0.305-0.982
			c0.203-0.271,0.435-0.49,0.694-0.66c0.26-0.17,0.525-0.299,0.796-0.391c0.271-0.09,0.475-0.136,0.61-0.136
			c0.113,0,0.214,0,0.304,0c0.089,0,0.203,0.013,0.339,0.035c0.045,0.181,0.095,0.351,0.152,0.508
			c0.056,0.158,0.106,0.315,0.153,0.474c0.135,0.34,0.288,0.609,0.457,0.813c0.169,0.204,0.355,0.36,0.559,0.477l0.034,0.033
			C38.491,21.775,38.305,22.007,38.069,22.177z M65.279,16.147c0.045-0.575,0.102-1.157,0.169-1.743
			c0.135-1.106,0.288-1.988,0.457-2.643c0.169-0.655,0.351-1.157,0.542-1.507c0.192-0.35,0.39-0.576,0.593-0.677
			c0.203-0.102,0.395-0.152,0.576-0.152h0.034c0.181,0,0.293,0.152,0.339,0.458c0.045,0.305,0.051,0.672,0.017,1.1
			c-0.034,0.429-0.096,0.859-0.187,1.288c-0.091,0.429-0.181,0.767-0.271,1.016c-0.068,0.204-0.192,0.496-0.373,0.88
			c-0.181,0.386-0.384,0.797-0.609,1.236c-0.226,0.439-0.462,0.875-0.711,1.303c-0.249,0.431-0.474,0.793-0.678,1.084
			C65.2,17.271,65.235,16.725,65.279,16.147z M76.965,19.941c0.248-0.305,0.599-0.514,1.051-0.626
			c0.519-0.135,0.914-0.18,1.185-0.135c0.271,0.045,0.452,0.169,0.542,0.373c0.112,0.203,0.089,0.418-0.068,0.644
			c-0.158,0.228-0.451,0.43-0.881,0.61c-0.429,0.182-0.841,0.266-1.236,0.254c-0.395-0.013-0.75-0.039-1.066-0.086
			C76.559,20.591,76.715,20.246,76.965,19.941z"/>
		<path fill="#A3A3A3" d="M117.631,11.424h-0.035c0-0.699-0.275-1.507-0.828-2.421c-0.555-0.915-1.436-1.756-2.643-2.523
			c-1.207-0.768-2.762-1.372-4.658-1.812c-1.896-0.441-4.164-0.536-6.807-0.288c-1.514,0.135-3.025,0.349-4.538,0.643
			c-1.513,0.293-2.93,0.616-4.25,0.966c-1.321,0.35-2.495,0.711-3.522,1.084c-1.026,0.373-1.822,0.717-2.387,1.033
			c-0.293,0.249-0.52,0.576-0.677,0.981c-0.157,0.407-0.226,0.96-0.204,1.66c0,0.203,0.057,0.401,0.17,0.592
			c0.113,0.192,0.25,0.351,0.407,0.475c0.158,0.124,0.315,0.209,0.474,0.253c0.158,0.045,0.293,0.034,0.407-0.034
			c0.316-0.18,0.942-0.457,1.88-0.829c0.938-0.373,2.082-0.75,3.438-1.134c-0.135,0.632-0.26,1.377-0.373,2.235
			c-0.114,0.858-0.221,1.761-0.322,2.709c-0.102,0.947-0.197,1.908-0.287,2.878c-0.091,0.972-0.158,1.875-0.205,2.709
			c-0.045,0.836-0.072,1.574-0.084,2.219c-0.012,0.644-0.006,1.111,0.018,1.404c0.021,0.183,0.123,0.439,0.305,0.777
			c0.18,0.34,0.436,0.666,0.762,0.982c0.327,0.315,0.733,0.592,1.219,0.83c0.486,0.236,1.044,0.354,1.677,0.354
			c1.174,0,2.478-0.164,3.912-0.491c1.435-0.326,2.891-0.791,4.367-1.388c1.479-0.601,2.92-1.312,4.317-2.136
			c1.399-0.823,2.665-1.743,3.794-2.76c1.4-1.287,2.521-2.647,3.369-4.081C117.174,14.884,117.607,13.251,117.631,11.424z
			 M112.924,12.203c0.045,0.497-0.053,1.096-0.289,1.795c-0.236,0.699-0.621,1.438-1.15,2.218c-0.53,0.78-1.203,1.563-2.018,2.354
			c-0.813,0.791-1.754,1.513-2.826,2.167c-1.072,0.656-2.279,1.203-3.623,1.644s-2.807,0.707-4.387,0.797
			c-0.496,0.021-0.896,0-1.201-0.067c-0.305-0.066-0.525-0.215-0.658-0.439c-0.137-0.227-0.211-0.547-0.223-0.965
			c-0.014-0.418,0.018-0.977,0.086-1.677c0.111-1.106,0.242-2.218,0.391-3.336c0.146-1.116,0.291-2.167,0.439-3.149
			c0.146-0.982,0.299-1.874,0.457-2.677c0.158-0.801,0.305-1.45,0.439-1.947c1.13-0.227,2.27-0.407,3.423-0.542
			c1.151-0.136,2.28-0.203,3.386-0.203c1.67,0,3.002,0.096,3.996,0.287c0.993,0.192,1.76,0.463,2.303,0.813s0.908,0.773,1.104,1.27
			c0.189,0.497,0.32,1.05,0.39,1.659H112.924L112.924,12.203z"/>
		<path fill="#A3A3A3" d="M138.217,19.349c-0.359-0.36-0.758-0.677-1.188-0.948c-0.428-0.271-0.84-0.508-1.234-0.711
			c-0.396-0.204-0.738-0.361-1.033-0.474c-0.295-0.113-0.476-0.192-0.541-0.237c-0.25-0.135-0.424-0.298-0.523-0.49
			c-0.104-0.191-0.178-0.355-0.225-0.492c-0.021-0.067-0.061-0.164-0.117-0.289c-0.055-0.125-0.146-0.252-0.271-0.39
			c-0.123-0.136-0.271-0.249-0.438-0.339c-0.17-0.09-0.379-0.135-0.627-0.135s-0.47,0.072-0.658,0.221
			c-0.193,0.146-0.369,0.316-0.525,0.508c-0.156,0.192-0.275,0.389-0.354,0.592c-0.08,0.203-0.117,0.373-0.117,0.509
			c0,0.18,0.003,0.429,0.017,0.745c0.013,0.315,0.142,0.632,0.392,0.949c-0.068,0.293-0.137,0.523-0.203,0.693
			c-0.069,0.169-0.144,0.338-0.221,0.508c-0.052,0.106-0.109,0.225-0.173,0.35c-0.165,0.029-0.302,0.091-0.403,0.192
			c-0.215,0.216-0.445,0.648-0.693,1.304c-0.046,0.137-0.229,0.36-0.542,0.678c-0.315,0.316-0.75,0.628-1.306,0.933
			c-0.553,0.305-1.234,0.57-2.047,0.795c-0.813,0.229-1.74,0.34-2.777,0.34c-0.475,0-0.898-0.084-1.271-0.254
			c-0.371-0.17-0.683-0.379-0.931-0.627c0.519,0,1.173-0.09,1.964-0.271c0.543-0.114,1.063-0.288,1.559-0.524
			c0.496-0.234,0.938-0.529,1.322-0.881c0.383-0.353,0.688-0.744,0.914-1.187c0.227-0.439,0.338-0.918,0.338-1.438
			c0-0.519-0.146-0.948-0.441-1.287c-0.293-0.338-0.658-0.608-1.1-0.813c-0.441-0.203-0.91-0.351-1.406-0.44
			s-0.946-0.136-1.354-0.136c-0.406,0-0.947,0.063-1.626,0.188c-0.678,0.125-1.354,0.354-2.033,0.693
			c-0.679,0.338-1.295,0.801-1.847,1.389c-0.553,0.588-0.896,1.344-1.032,2.271c-0.11,0.791-0.071,1.52,0.12,2.184
			c0.191,0.666,0.563,1.25,1.116,1.746c0.552,0.496,1.28,0.887,2.184,1.168c0.904,0.283,2.011,0.424,3.319,0.424
			c1.287,0,2.455-0.148,3.504-0.439c1.05-0.295,1.953-0.66,2.712-1.102c0.552-0.32,1.022-0.658,1.424-1.014
			c0.037,0.201,0.153,0.377,0.354,0.521c0.563,0.476,1.146,0.817,1.744,1.032c0.6,0.216,1.146,0.354,1.644,0.425
			c0.497,0.065,0.933,0.088,1.304,0.065c0.373-0.021,0.627-0.033,0.764-0.033c0.134,0,0.404-0.053,0.813-0.151
			c0.406-0.103,0.829-0.289,1.269-0.562c0.442-0.27,0.836-0.653,1.188-1.149c0.352-0.498,0.525-1.151,0.525-1.965l0.033,0.032
			c0-0.541-0.119-1.032-0.355-1.473C138.881,20.11,138.578,19.709,138.217,19.349z M119.896,19.94
			c0.248-0.305,0.597-0.513,1.049-0.626c0.52-0.136,0.914-0.18,1.186-0.136c0.271,0.045,0.451,0.169,0.543,0.373
			c0.113,0.202,0.09,0.417-0.066,0.643c-0.158,0.228-0.45,0.431-0.879,0.609c-0.432,0.182-0.844,0.266-1.235,0.256
			c-0.396-0.013-0.751-0.041-1.066-0.086C119.49,20.591,119.646,20.246,119.896,19.94z M135.713,21.955v0.035
			c-0.066,0.338-0.222,0.598-0.457,0.777c-0.236,0.182-0.52,0.295-0.847,0.338c-0.329,0.047-0.675,0.047-1.034,0
			c-0.361-0.043-0.711-0.109-1.049-0.201c-0.135-0.047-0.262-0.086-0.372-0.119c-0.112-0.033-0.228-0.063-0.337-0.084l0.068-0.135
			c0.246-0.295,0.442-0.713,0.59-1.254c0.146-0.543,0.274-1.119,0.391-1.728c0.383,0.135,0.768,0.281,1.15,0.439
			c0.384,0.158,0.729,0.333,1.033,0.525c0.305,0.191,0.543,0.4,0.711,0.625C135.729,21.404,135.779,21.662,135.713,21.955z"/>
		<path fill="#A3A3A3" d="M140.758,12.185c0.203,0.26,0.496,0.485,0.881,0.677c0.385,0.192,0.893,0.311,1.522,0.355
			c0.632,0.045,1.122-0.028,1.474-0.22c0.352-0.191,0.615-0.418,0.797-0.677c0.18-0.26,0.293-0.514,0.336-0.762
			c0.049-0.249,0.07-0.418,0.07-0.508c0-0.09-0.035-0.282-0.104-0.576c-0.068-0.292-0.215-0.598-0.441-0.914
			s-0.563-0.598-1.016-0.847c-0.451-0.249-1.049-0.373-1.793-0.373c-0.498,0-0.896,0.08-1.188,0.237
			c-0.295,0.159-0.519,0.356-0.678,0.593c-0.158,0.237-0.261,0.486-0.306,0.745c-0.045,0.26-0.063,0.491-0.063,0.694
			c0,0.226,0.03,0.479,0.101,0.761C140.418,11.655,140.553,11.927,140.758,12.185z"/>
		<path fill="#A3A3A3" d="M187.646,20.552c-0.236-0.442-0.537-0.843-0.897-1.205c-0.36-0.361-0.758-0.677-1.185-0.949
			c-0.432-0.271-0.844-0.508-1.236-0.711c-0.396-0.204-0.739-0.36-1.034-0.474c-0.291-0.113-0.476-0.192-0.543-0.238
			c-0.248-0.135-0.422-0.298-0.522-0.491c-0.103-0.19-0.174-0.354-0.222-0.491c-0.021-0.067-0.062-0.164-0.118-0.289
			c-0.059-0.123-0.147-0.252-0.271-0.39c-0.124-0.135-0.271-0.248-0.44-0.338c-0.169-0.09-0.377-0.135-0.627-0.135
			c-0.248,0-0.469,0.073-0.657,0.22c-0.193,0.146-0.369,0.316-0.523,0.508c-0.158,0.192-0.277,0.391-0.355,0.592
			c-0.08,0.205-0.117,0.373-0.117,0.51c0,0.18,0.004,0.429,0.017,0.744c0.012,0.316,0.142,0.631,0.39,0.949
			c-0.066,0.293-0.136,0.524-0.201,0.693c-0.068,0.169-0.144,0.339-0.222,0.508c-0.05,0.104-0.106,0.221-0.17,0.342
			c-0.188,0.023-0.34,0.088-0.457,0.199c-0.226,0.215-0.45,0.65-0.678,1.305c-0.136,0.43-0.4,0.799-0.796,1.116
			C176.381,22.843,175.855,23,175.2,23c-0.313,0-0.569-0.078-0.763-0.234c-0.189-0.158-0.334-0.369-0.422-0.627
			c-0.091-0.26-0.147-0.568-0.17-0.932c-0.022-0.361-0.033-0.746-0.033-1.151c0-0.407-0.006-0.808-0.019-1.202
			c-0.013-0.395-0.048-0.756-0.103-1.084c-0.057-0.327-0.147-0.604-0.271-0.83c-0.123-0.225-0.299-0.384-0.522-0.475
			c-0.228-0.068-0.49-0.118-0.797-0.151c-0.306-0.034-0.619-0.04-0.947-0.019c-0.328,0.023-0.646,0.086-0.947,0.188
			c-0.305,0.102-0.572,0.253-0.797,0.458c-0.227,0.204-0.451,0.435-0.678,0.694c-0.228,0.259-0.431,0.497-0.61,0.711
			c-0.181,0.214-0.334,0.395-0.456,0.542c-0.125,0.147-0.197,0.221-0.221,0.221c-0.115,0-0.193-0.249-0.236-0.745
			c0-0.113-0.02-0.265-0.053-0.457c-0.033-0.191-0.105-0.391-0.221-0.594c-0.113-0.203-0.271-0.383-0.476-0.542
			c-0.203-0.157-0.476-0.271-0.813-0.338c-1.311-0.204-1.94,0.271-1.896,1.422c0,0.293,0.013,0.791,0.032,1.49
			c0.011,0.312,0.027,0.63,0.052,0.952c-0.073,0.101-0.146,0.213-0.219,0.354c-0.115,0.214-0.249,0.479-0.408,0.795
			c-0.271,0.521-0.543,0.927-0.813,1.22s-0.531,0.599-0.779,0.914c-0.271,0.315-0.672,0.649-1.202,0.998
			c-0.529,0.353-1.123,0.687-1.776,1c0.047-0.834,0.088-1.638,0.12-2.403c0.033-0.766,0.104-1.378,0.22-1.828
			c0.112-0.248,0.227-0.564,0.338-0.949c0.065-0.203,0.102-0.351,0.102-0.44c0.182-0.746,0.334-1.291,0.457-1.642
			c0.124-0.351,0.096-0.672-0.085-0.965c-0.183-0.293-0.476-0.542-0.881-0.745s-0.868-0.271-1.388-0.203
			c-0.317,0.047-0.545,0.176-0.679,0.391c-0.135,0.215-0.262,0.523-0.373,0.931c-0.385-0.158-0.834-0.287-1.354-0.388
			c-0.521-0.103-1.105-0.164-1.76-0.188c-0.701-0.021-1.437,0.063-2.203,0.254c-0.769,0.192-1.469,0.491-2.101,0.897
			c-0.631,0.407-1.151,0.921-1.56,1.542c-0.405,0.621-0.608,1.349-0.608,2.185c0,0.367,0.041,0.699,0.108,1.012
			c-0.196,0.199-0.414,0.385-0.666,0.529c-0.329,0.193-0.694,0.268-1.104,0.223c-0.359-0.045-0.644-0.189-0.846-0.439
			c-0.203-0.25-0.352-0.537-0.441-0.863c-0.088-0.327-0.143-0.668-0.15-1.016c-0.014-0.352-0.008-0.65,0.017-0.898
			c0.048-0.495,0.089-0.931,0.121-1.304c0.033-0.373,0.054-0.682,0.054-0.93c0-0.09-0.043-0.221-0.121-0.391
			c-0.08-0.169-0.196-0.332-0.354-0.49c-0.16-0.158-0.34-0.293-0.543-0.407c-0.203-0.112-0.441-0.169-0.714-0.169
			c-0.653,0-1.146,0.152-1.472,0.459c-0.328,0.305-0.491,0.941-0.491,1.914c0,0.338-0.011,0.738-0.03,1.201
			c-0.023,0.463-0.023,0.957,0,1.475c0.021,0.521,0.105,1.039,0.252,1.559c0.146,0.521,0.396,0.992,0.746,1.423
			c0.35,0.43,0.829,0.78,1.438,1.049c0.608,0.271,1.39,0.418,2.338,0.44c1.082,0.021,1.957-0.168,2.625-0.575
			c0.295-0.179,0.553-0.373,0.793-0.574c0.095,0.076,0.19,0.151,0.291,0.22c0.483,0.327,0.981,0.551,1.49,0.676
			c0.508,0.125,0.896,0.188,1.168,0.188c0.383,0,0.959-0.114,1.728-0.338c0.767-0.228,1.579-0.588,2.438-1.084
			c-0.045,0.385-0.074,0.733-0.086,1.049c-0.013,0.315-0.027,0.576-0.054,0.779c-0.021,0.045-0.032,0.147-0.032,0.305
			c-0.947,0.386-1.794,0.707-2.539,0.968c-0.746,0.26-1.229,0.435-1.457,0.522c-0.248,0.114-0.564,0.282-0.947,0.51
			c-0.383,0.226-0.758,0.521-1.116,0.881c-0.36,0.361-0.671,0.789-0.933,1.285c-0.261,0.498-0.39,1.063-0.39,1.692
			c0,0.791,0.188,1.451,0.56,1.982c0.373,0.527,0.807,0.951,1.304,1.271c0.495,0.315,0.993,0.536,1.487,0.657
			c0.5,0.125,0.86,0.188,1.084,0.188c0.476-0.021,1.104-0.129,1.881-0.321c0.779-0.192,1.563-0.625,2.354-1.306
			c0.363-0.313,0.651-0.737,0.866-1.269c0.214-0.53,0.39-1.106,0.522-1.729c0.137-0.619,0.229-1.254,0.289-1.896
			c0.056-0.644,0.106-1.224,0.151-1.744c0.248-0.111,0.491-0.246,0.728-0.406c0.237-0.158,0.492-0.328,0.764-0.508
			c0.477-0.316,0.961-0.658,1.457-1.033c0.496-0.373,0.977-0.791,1.439-1.254c0.461-0.461,0.901-0.98,1.319-1.559
			c0.036-0.054,0.073-0.107,0.11-0.162c0.144,0.539,0.338,0.885,0.584,1.026c0.563,0.339,1,0.519,1.303,0.542
			c0.307,0.022,0.516,0.022,0.628,0c0.11-0.021,0.274-0.13,0.489-0.32c0.215-0.191,0.345-0.412,0.39-0.66
			c0-0.111,0.045-0.287,0.138-0.523c0.088-0.238,0.187-0.492,0.287-0.764c0.102-0.271,0.215-0.524,0.338-0.764
			c0.125-0.236,0.221-0.412,0.287-0.523c0.067-0.113,0.163-0.275,0.288-0.49s0.248-0.424,0.373-0.627s0.242-0.366,0.354-0.491
			c0.111-0.123,0.201-0.175,0.271-0.152c0.068,0.046,0.125,0.152,0.17,0.322c0.046,0.168,0.089,0.374,0.136,0.608
			c0.045,0.236,0.095,0.479,0.153,0.729c0.058,0.248,0.119,0.463,0.187,0.646c0.065,0.183,0.182,0.457,0.34,0.83
			c0.156,0.373,0.395,0.739,0.711,1.103c0.314,0.36,0.723,0.676,1.219,0.946s1.117,0.406,1.862,0.406
			c0.724,0,1.36-0.111,1.913-0.339c0.553-0.225,1.021-0.512,1.406-0.862c0.123-0.11,0.233-0.229,0.346-0.351
			c0.061,0.082,0.132,0.16,0.229,0.23c0.563,0.475,1.146,0.816,1.744,1.031c0.6,0.217,1.146,0.355,1.645,0.424
			c0.496,0.066,0.933,0.091,1.303,0.066c0.373-0.021,0.627-0.033,0.763-0.033c0.14,0,0.407-0.053,0.813-0.152
			c0.406-0.104,0.83-0.288,1.271-0.561c0.44-0.271,0.836-0.654,1.187-1.15c0.352-0.496,0.524-1.15,0.524-1.965L188,22.031
			C188.002,21.48,187.883,20.992,187.646,20.552z M154.795,32.064c-0.191,0.576-0.479,1.045-0.865,1.406
			c-0.111,0.112-0.248,0.229-0.404,0.354c-0.159,0.123-0.334,0.219-0.524,0.286c-0.19,0.068-0.401,0.104-0.625,0.104
			c-0.229,0-0.478-0.091-0.744-0.271c-0.317-0.201-0.521-0.435-0.61-0.691c-0.09-0.262-0.09-0.514,0-0.764
			c0.088-0.248,0.248-0.484,0.476-0.711c0.226-0.228,0.509-0.396,0.849-0.51c0.584-0.203,1.108-0.384,1.572-0.541
			c0.463-0.16,0.896-0.316,1.303-0.478C155.129,30.886,154.986,31.49,154.795,32.064z M155.659,20.635
			c-0.067,0.158-0.147,0.322-0.237,0.492c-0.09,0.168-0.182,0.344-0.271,0.523c-0.182,0.361-0.469,0.674-0.863,0.934
			c-0.396,0.259-0.813,0.445-1.252,0.559c-0.439,0.114-0.864,0.158-1.271,0.137c-0.406-0.021-0.688-0.137-0.846-0.34
			c-0.184-0.203-0.232-0.455-0.152-0.763c0.078-0.304,0.254-0.604,0.522-0.896c0.271-0.295,0.628-0.543,1.067-0.746
			c0.44-0.203,0.94-0.305,1.508-0.305c0.382,0,0.723,0.04,1.014,0.12c0.295,0.079,0.564,0.164,0.813,0.253L155.659,20.635z
			 M184.242,21.955v0.035c-0.068,0.338-0.221,0.598-0.457,0.777c-0.234,0.182-0.52,0.295-0.846,0.338
			c-0.33,0.047-0.674,0.047-1.033,0c-0.361-0.043-0.713-0.109-1.049-0.201c-0.137-0.047-0.262-0.086-0.373-0.119
			c-0.115-0.033-0.228-0.063-0.338-0.084l0.065-0.135c0.248-0.295,0.445-0.713,0.595-1.254c0.146-0.543,0.273-1.119,0.389-1.728
			c0.383,0.135,0.768,0.281,1.152,0.439c0.383,0.158,0.727,0.333,1.03,0.525c0.306,0.191,0.543,0.4,0.711,0.625
			C184.26,21.404,184.309,21.662,184.242,21.955z"/>
	</g>
</g>
</svg>
