<?xml version="1.0" encoding="utf-8"?>
<!-- Generator: Adobe Illustrator 18.1.1, SVG Export Plug-In . SVG Version: 6.00 Build 0)  -->
<svg version="1.1" xmlns="http://www.w3.org/2000/svg" xmlns:xlink="http://www.w3.org/1999/xlink" x="0px" y="0px"
	 viewBox="0 0 494 135" enable-background="new 0 0 494 135" xml:space="preserve">
<g id="Layer_1" display="none">
	
		<text transform="matrix(1 0 0 1 1.7241 59.7871)" display="inline" fill="#FFFFFF" stroke="#000000" stroke-width="2" stroke-miterlimit="10" font-family="'bangwhackpow'" font-size="69" letter-spacing="1">Peck, Peck, PECK!</text>
	
		<text transform="matrix(1 0 0 1 71.4253 116.8706)" display="inline" fill="#FFFFFF" stroke="#000000" stroke-width="2" stroke-miterlimit="10" font-family="'bangwhackpow'" font-size="56" letter-spacing="1">Austin’s Story</text>
</g>
<g id="Layer_2">
	<g>
		
			<path fill="#F0E5BB" stroke="#0B1C19" stroke-width="2" stroke-linecap="square" stroke-linejoin="round" stroke-miterlimit="10" d="
			M2.1,11.7c0,0,0.3,0.1,0.6,0.1c0.3,0,0.7,0,1.2,0c0.5,0,0.9,0,1.4-0.1c0.5,0,1-0.1,1.6-0.1l0.3,3.9c1.2-0.4,2.7-0.7,4.5-1.1
			c1.8-0.3,3.7-0.5,5.6-0.5c1.5,0,3,0.2,4.5,0.5c1.5,0.3,2.8,0.9,4,1.8c1.2,0.9,2.1,2,2.9,3.5c0.7,1.5,1.1,3.4,1.1,5.8
			c0,2.5-0.6,4.6-1.7,6.3c-1.1,1.7-2.6,3.2-4.6,4.3c-1.9,1.2-4.1,2.2-6.6,2.9c-2.5,0.8-5.2,1.5-8,2.1L10.2,60H6.6
			c-0.5,0-0.9,0-1.3,0c-0.4,0-0.8,0-1.2,0H3c0-2.2-0.1-4.3-0.1-6.1c0-1.9-0.1-4.1-0.2-6.5c-0.1-2.5-0.1-5-0.2-7.7
			c0-2.7-0.1-5.4-0.2-8.1c-0.1-2.7-0.1-5.3-0.2-7.7c0-2.4-0.1-4.5-0.1-6.4c0-1.9,0-3.3,0-4.3C2,12.2,2,11.7,2.1,11.7z M24.4,24.6
			c-0.1-1.1-0.5-2-1-2.7c-0.5-0.7-1.2-1.3-2-1.7c-0.8-0.4-1.7-0.7-2.7-0.9c-1-0.2-2-0.2-3.1-0.2c-1.5,0-2.9,0.1-4.4,0.3
			c-1.5,0.2-2.7,0.5-3.8,0.7l1.1,15.3c1.1-0.2,2.5-0.5,4.3-1c1.8-0.5,3.5-1.1,5.2-1.9s3.2-1.8,4.5-3c1.2-1.2,1.9-2.6,1.9-4.2V24.6z"
			/>
		
			<path fill="#F0E5BB" stroke="#0B1C19" stroke-width="2" stroke-linecap="square" stroke-linejoin="round" stroke-miterlimit="10" d="
			M65.1,52c-1.5,2.2-3.5,4-6,5.5c-2.5,1.5-5.5,2.2-9,2.2c-2.6,0-4.9-0.3-7.1-1c-2.2-0.7-4-1.7-5.6-3.1c-1.5-1.4-2.7-3.1-3.6-5.1
			c-0.9-2-1.3-4.4-1.3-7.1c0-3.7,0.6-6.7,1.9-9.1c1.2-2.4,2.8-4.2,4.7-5.6c1.9-1.4,4-2.3,6.2-2.8c2.2-0.5,4.3-0.8,6.2-0.8
			c2.4,0,4.6,0.4,6.5,1.2c1.9,0.8,3.5,1.9,4.9,3.3c1.4,1.4,2.4,3,3.2,4.9c0.8,1.9,1.3,3.9,1.6,6c0,0-0.7,0.1-2.2,0.3
			c-1.4,0.2-3.3,0.4-5.5,0.6c-2.2,0.2-4.6,0.5-7.1,0.7c-2.6,0.3-4.9,0.5-7.1,0.8c-2.2,0.3-4,0.5-5.5,0.6c-1.5,0.2-2.2,0.3-2.2,0.3
			c0.1,1.4,0.4,2.8,0.9,4.1c0.5,1.3,1.2,2.4,2.1,3.4c0.9,1,2.1,1.8,3.6,2.3c1.4,0.6,3.1,0.9,5.1,0.9c1.9,0,3.6-0.5,5-1.6
			c1.5-1.1,2.6-2.3,3.5-3.7L65.1,52z M38.7,39.2l9.7-1.7c1.2-0.2,2.4-0.4,3.5-0.6c1.1-0.2,2.2-0.4,3-0.5c0.9-0.1,1.8-0.3,2.9-0.5
			c-0.2-1.3-1.1-2.4-2.5-3.3c-1.4-0.9-3.4-1.3-5.8-1.3c-3.1,0-5.6,0.7-7.5,2.2C40.2,34.9,39.1,36.8,38.7,39.2z"/>
		
			<path fill="#F0E5BB" stroke="#0B1C19" stroke-width="2" stroke-linecap="square" stroke-linejoin="round" stroke-miterlimit="10" d="
			M102.6,52.7c-1,1.4-2.1,2.5-3.4,3.4c-1.3,0.9-2.6,1.7-4.1,2.2c-1.4,0.6-2.9,0.9-4.3,1.2c-1.5,0.2-2.9,0.3-4.2,0.3
			c-2.6,0-4.9-0.5-6.9-1.4c-2-0.9-3.7-2.2-5.1-3.8c-1.4-1.6-2.4-3.4-3.2-5.6c-0.7-2.1-1.1-4.3-1.1-6.7c0-2.2,0.4-4.3,1.1-6.3
			c0.7-2,1.9-3.9,3.3-5.5c1.5-1.6,3.3-2.9,5.6-3.9c2.2-1,4.8-1.5,7.7-1.5c3.1,0,5.8,0.5,8,1.5c2.2,1,4,2.5,5.6,4.6l-4.3,3.3
			c-1.1-1.2-2.3-2.3-3.6-3c-1.3-0.8-3.2-1.2-5.5-1.2c-1.7,0-3.2,0.4-4.5,1.1c-1.3,0.7-2.4,1.7-3.3,2.9c-0.9,1.2-1.5,2.6-2,4.1
			c-0.4,1.5-0.7,3.1-0.7,4.6c0,1.5,0.2,3,0.6,4.3c0.4,1.4,1,2.6,1.8,3.6c0.8,1.1,1.9,1.9,3.1,2.5c1.2,0.6,2.7,0.9,4.4,0.9
			c2.3-0.1,4.4-0.6,6.1-1.4c1.7-0.9,3.1-1.9,4.2-3.3L102.6,52.7z"/>
		
			<path fill="#F0E5BB" stroke="#0B1C19" stroke-width="2" stroke-linecap="square" stroke-linejoin="round" stroke-miterlimit="10" d="
			M113.4,11.5c0,0,0,0.8,0,2.1c0,1.4,0,3.2-0.1,5.5c0,2.3,0,4.9-0.1,7.7c0,2.9-0.1,5.8-0.1,8.8c0.9-0.5,1.9-1.1,3.1-1.8
			c1.2-0.7,2.5-1.4,3.8-2.1c1.3-0.8,2.6-1.5,3.9-2.2c1.3-0.7,2.4-1.4,3.4-2c1-0.6,1.8-1.1,2.4-1.4c0.6-0.4,0.9-0.6,0.9-0.6
			c0,0,0.1,0.1,0.3,0.6c0.2,0.4,0.4,0.9,0.7,1.5c0.3,0.6,0.6,1.4,1,2.2c-1.8,1.4-3.7,2.7-5.5,4.1c-1.6,1.2-3.3,2.4-5.1,3.7
			c-1.8,1.3-3.5,2.6-5,3.7c1.4,1,3.1,2.2,5.2,3.6c2.1,1.4,4.1,2.8,6,4.1c2.3,1.5,4.6,3.1,7,4.8l-4.7,5.9c-2.3-2.1-4.5-4.2-6.7-6.1
			c-0.9-0.8-1.9-1.7-2.8-2.6c-1-0.9-1.9-1.8-2.8-2.6c-0.9-0.9-1.8-1.7-2.6-2.4c-0.8-0.8-1.6-1.4-2.2-2c-0.1,0.1-0.2,0.2-0.4,0.3
			c0,2.2,0,4.2,0,6.1c0,1.9-0.1,3.5-0.1,4.9c0,1.4-0.1,2.9-0.1,4.5h-0.6c-0.4,0-0.8,0-1.2,0c-0.4,0-0.9,0-1.3,0
			c-0.5,0-1,0.1-1.6,0.1c-0.3-6.4-0.6-12.7-0.8-18.7c-0.1-2.6-0.3-5.2-0.4-7.9c-0.1-2.7-0.2-5.4-0.3-8c-0.1-2.6-0.2-5.1-0.3-7.5
			c-0.1-2.3-0.2-4.4-0.3-6.3L113.4,11.5z"/>
		
			<path fill="#F0E5BB" stroke="#0B1C19" stroke-width="2" stroke-linecap="square" stroke-linejoin="round" stroke-miterlimit="10" d="
			M142.6,53.9c1-0.7,2-1,2.9-1c1.1,0,1.9,0.4,2.4,1.2c0.5,0.8,0.8,1.6,0.8,2.3c-0.4,1.8-0.9,3.4-1.4,4.9c-0.5,1.5-1.3,3-2.3,4.5
			l-1.9-0.1c0.3-0.8,0.5-1.6,0.7-2.4c0.1-0.9,0.2-1.7,0.2-2.4v-1h-0.1c-2.6,0-3.9-0.8-3.9-2.3c0-0.6,0.2-1.1,0.6-1.8
			S141.7,54.5,142.6,53.9z"/>
		
			<path fill="#F0E5BB" stroke="#0B1C19" stroke-width="2" stroke-linecap="square" stroke-linejoin="round" stroke-miterlimit="10" d="
			M171.7,11.7c0,0,0.3,0.1,0.6,0.1c0.3,0,0.7,0,1.2,0c0.5,0,0.9,0,1.4-0.1c0.5,0,1-0.1,1.6-0.1l0.3,3.9c1.2-0.4,2.7-0.7,4.5-1.1
			c1.8-0.3,3.7-0.5,5.6-0.5c1.5,0,3,0.2,4.5,0.5c1.5,0.3,2.8,0.9,4,1.8c1.2,0.9,2.1,2,2.9,3.5c0.7,1.5,1.1,3.4,1.1,5.8
			c0,2.5-0.6,4.6-1.7,6.3c-1.1,1.7-2.6,3.2-4.6,4.3c-1.9,1.2-4.1,2.2-6.6,2.9c-2.5,0.8-5.2,1.5-8,2.1l1.3,18.8h-3.7
			c-0.5,0-0.9,0-1.3,0c-0.4,0-0.8,0-1.2,0h-1.1c0-2.2-0.1-4.3-0.1-6.1c0-1.9-0.1-4.1-0.2-6.5c-0.1-2.5-0.1-5-0.2-7.7
			c0-2.7-0.1-5.4-0.2-8.1c-0.1-2.7-0.1-5.3-0.2-7.7c0-2.4-0.1-4.5-0.1-6.4c0-1.9,0-3.3,0-4.3C171.6,12.2,171.6,11.7,171.7,11.7z
			 M194,24.6c-0.1-1.1-0.5-2-1-2.7c-0.5-0.7-1.2-1.3-2-1.7c-0.8-0.4-1.7-0.7-2.7-0.9c-1-0.2-2-0.2-3.1-0.2c-1.5,0-2.9,0.1-4.4,0.3
			c-1.5,0.2-2.7,0.5-3.8,0.7l1.1,15.3c1.1-0.2,2.5-0.5,4.3-1c1.8-0.5,3.5-1.1,5.2-1.9s3.2-1.8,4.5-3c1.2-1.2,1.9-2.6,1.9-4.2V24.6z"
			/>
		
			<path fill="#F0E5BB" stroke="#0B1C19" stroke-width="2" stroke-linecap="square" stroke-linejoin="round" stroke-miterlimit="10" d="
			M234.7,52c-1.5,2.2-3.5,4-6,5.5c-2.5,1.5-5.5,2.2-9,2.2c-2.6,0-4.9-0.3-7.1-1c-2.2-0.7-4-1.7-5.6-3.1c-1.5-1.4-2.7-3.1-3.6-5.1
			c-0.9-2-1.3-4.4-1.3-7.1c0-3.7,0.6-6.7,1.9-9.1c1.2-2.4,2.8-4.2,4.7-5.6c1.9-1.4,4-2.3,6.2-2.8c2.2-0.5,4.3-0.8,6.2-0.8
			c2.4,0,4.6,0.4,6.5,1.2c1.9,0.8,3.5,1.9,4.9,3.3c1.4,1.4,2.4,3,3.2,4.9c0.8,1.9,1.3,3.9,1.6,6c0,0-0.7,0.1-2.2,0.3
			c-1.4,0.2-3.3,0.4-5.5,0.6c-2.2,0.2-4.6,0.5-7.1,0.7c-2.6,0.3-4.9,0.5-7.1,0.8c-2.2,0.3-4,0.5-5.5,0.6c-1.5,0.2-2.2,0.3-2.2,0.3
			c0.1,1.4,0.4,2.8,0.9,4.1c0.5,1.3,1.2,2.4,2.1,3.4c0.9,1,2.1,1.8,3.6,2.3c1.4,0.6,3.1,0.9,5.1,0.9c1.9,0,3.6-0.5,5-1.6
			c1.5-1.1,2.6-2.3,3.5-3.7L234.7,52z M208.3,39.2l9.7-1.7c1.2-0.2,2.4-0.4,3.5-0.6c1.1-0.2,2.2-0.4,3-0.5c0.9-0.1,1.8-0.3,2.9-0.5
			c-0.2-1.3-1.1-2.4-2.5-3.3c-1.4-0.9-3.4-1.3-5.8-1.3c-3.1,0-5.6,0.7-7.5,2.2C209.8,34.9,208.7,36.8,208.3,39.2z"/>
		
			<path fill="#F0E5BB" stroke="#0B1C19" stroke-width="2" stroke-linecap="square" stroke-linejoin="round" stroke-miterlimit="10" d="
			M272.2,52.7c-1,1.4-2.1,2.5-3.4,3.4c-1.3,0.9-2.6,1.7-4.1,2.2c-1.4,0.6-2.9,0.9-4.3,1.2c-1.5,0.2-2.9,0.3-4.2,0.3
			c-2.6,0-4.9-0.5-6.9-1.4c-2-0.9-3.7-2.2-5.1-3.8c-1.4-1.6-2.4-3.4-3.2-5.6c-0.7-2.1-1.1-4.3-1.1-6.7c0-2.2,0.4-4.3,1.1-6.3
			c0.7-2,1.9-3.9,3.3-5.5c1.5-1.6,3.3-2.9,5.6-3.9c2.2-1,4.8-1.5,7.7-1.5c3.1,0,5.8,0.5,8,1.5c2.2,1,4,2.5,5.6,4.6l-4.3,3.3
			c-1.1-1.2-2.3-2.3-3.6-3c-1.3-0.8-3.2-1.2-5.5-1.2c-1.7,0-3.2,0.4-4.5,1.1c-1.3,0.7-2.4,1.7-3.3,2.9c-0.9,1.2-1.5,2.6-2,4.1
			c-0.4,1.5-0.7,3.1-0.7,4.6c0,1.5,0.2,3,0.6,4.3c0.4,1.4,1,2.6,1.8,3.6c0.8,1.1,1.9,1.9,3.1,2.5c1.2,0.6,2.7,0.9,4.4,0.9
			c2.3-0.1,4.4-0.6,6.1-1.4c1.7-0.9,3.1-1.9,4.2-3.3L272.2,52.7z"/>
		
			<path fill="#F0E5BB" stroke="#0B1C19" stroke-width="2" stroke-linecap="square" stroke-linejoin="round" stroke-miterlimit="10" d="
			M283,11.5c0,0,0,0.8,0,2.1c0,1.4,0,3.2-0.1,5.5c0,2.3,0,4.9-0.1,7.7c0,2.9-0.1,5.8-0.1,8.8c0.9-0.5,1.9-1.1,3.1-1.8
			c1.2-0.7,2.5-1.4,3.8-2.1c1.3-0.8,2.6-1.5,3.9-2.2c1.3-0.7,2.4-1.4,3.4-2c1-0.6,1.8-1.1,2.4-1.4c0.6-0.4,0.9-0.6,0.9-0.6
			c0,0,0.1,0.1,0.3,0.6c0.2,0.4,0.4,0.9,0.7,1.5c0.3,0.6,0.6,1.4,1,2.2c-1.8,1.4-3.7,2.7-5.5,4.1c-1.6,1.2-3.3,2.4-5.1,3.7
			c-1.8,1.3-3.5,2.6-5,3.7c1.4,1,3.1,2.2,5.2,3.6c2.1,1.4,4.1,2.8,6,4.1c2.3,1.5,4.6,3.1,7,4.8l-4.7,5.9c-2.3-2.1-4.5-4.2-6.7-6.1
			c-0.9-0.8-1.9-1.7-2.8-2.6s-1.9-1.8-2.8-2.6c-0.9-0.9-1.8-1.7-2.6-2.4c-0.8-0.8-1.6-1.4-2.2-2c-0.1,0.1-0.2,0.2-0.4,0.3
			c0,2.2,0,4.2,0,6.1c0,1.9-0.1,3.5-0.1,4.9c0,1.4-0.1,2.9-0.1,4.5h-0.6c-0.4,0-0.8,0-1.2,0c-0.4,0-0.9,0-1.3,0
			c-0.5,0-1,0.1-1.6,0.1c-0.3-6.4-0.6-12.7-0.8-18.7c-0.1-2.6-0.3-5.2-0.4-7.9c-0.1-2.7-0.2-5.4-0.3-8c-0.1-2.6-0.2-5.1-0.3-7.5
			c-0.1-2.3-0.2-4.4-0.3-6.3L283,11.5z"/>
		
			<path fill="#F0E5BB" stroke="#0B1C19" stroke-width="2" stroke-linecap="square" stroke-linejoin="round" stroke-miterlimit="10" d="
			M312.2,53.9c1-0.7,2-1,2.9-1c1.1,0,1.9,0.4,2.4,1.2c0.5,0.8,0.8,1.6,0.8,2.3c-0.4,1.8-0.9,3.4-1.4,4.9s-1.3,3-2.3,4.5l-1.9-0.1
			c0.3-0.8,0.5-1.6,0.7-2.4c0.1-0.9,0.2-1.7,0.2-2.4v-1h-0.1c-2.6,0-3.9-0.8-3.9-2.3c0-0.6,0.2-1.1,0.6-1.8S311.3,54.5,312.2,53.9z"
			/>
		
			<path fill="#F0E5BB" stroke="#0B1C19" stroke-width="2" stroke-linecap="square" stroke-linejoin="round" stroke-miterlimit="10" d="
			M341.3,11.7c0,0,0.3,0.1,0.6,0.1c0.3,0,0.7,0,1.2,0s0.9,0,1.4-0.1c0.5,0,1-0.1,1.6-0.1l0.3,3.9c1.2-0.4,2.7-0.7,4.5-1.1
			c1.8-0.3,3.7-0.5,5.6-0.5c1.5,0,3,0.2,4.5,0.5c1.5,0.3,2.8,0.9,4,1.8c1.2,0.9,2.1,2,2.9,3.5c0.7,1.5,1.1,3.4,1.1,5.8
			c0,2.5-0.6,4.6-1.7,6.3c-1.1,1.7-2.6,3.2-4.6,4.3c-1.9,1.2-4.1,2.2-6.6,2.9c-2.5,0.8-5.2,1.5-8,2.1l1.3,18.8h-3.7
			c-0.5,0-0.9,0-1.3,0c-0.4,0-0.8,0-1.2,0h-1.1c0-2.2-0.1-4.3-0.1-6.1c0-1.9-0.1-4.1-0.2-6.5c-0.1-2.5-0.1-5-0.2-7.7
			c0-2.7-0.1-5.4-0.2-8.1c-0.1-2.7-0.1-5.3-0.2-7.7c0-2.4-0.1-4.5-0.1-6.4c0-1.9,0-3.3,0-4.3C341.2,12.2,341.2,11.7,341.3,11.7z
			 M363.6,24.6c-0.1-1.1-0.5-2-1-2.7c-0.5-0.7-1.2-1.3-2-1.7c-0.8-0.4-1.7-0.7-2.7-0.9c-1-0.2-2-0.2-3.1-0.2c-1.5,0-2.9,0.1-4.4,0.3
			c-1.5,0.2-2.7,0.5-3.8,0.7l1.1,15.3c1.1-0.2,2.5-0.5,4.3-1c1.8-0.5,3.5-1.1,5.2-1.9c1.7-0.8,3.2-1.8,4.5-3
			c1.2-1.2,1.9-2.6,1.9-4.2V24.6z"/>
		
			<path fill="#F0E5BB" stroke="#0B1C19" stroke-width="2" stroke-linecap="square" stroke-linejoin="round" stroke-miterlimit="10" d="
			M394.2,29.8c0,0,0,0.3,0.1,0.7c0,0.4,0.1,0.9,0.1,1.5s0.1,1.1,0.1,1.7c0,0.6,0.1,1.1,0.1,1.5s-0.1,0.6-0.4,0.7
			c-0.3,0.1-0.7,0.1-1.5,0.1c-0.5,0-1,0-1.7,0c-0.7,0-1.5,0-2.5,0h-9.9l1.2,17.3c0.2,0,0.6-0.1,1.2-0.1c0.6,0,1.4,0,2.4-0.1
			c1,0,2,0,3.2-0.1c1.1,0,2.3-0.1,3.5-0.1c2.8,0,5.8-0.1,9.2-0.2c0,0-0.1,0.4-0.1,1.1c0,0.8,0,1.6-0.1,2.5c0,1-0.1,2.2-0.1,3.6
			h-26.2v-0.7c0-0.7,0-1.9,0-3.6c0-1.7,0-3.6-0.1-5.9c0-2.3-0.1-4.7-0.1-7.3s-0.1-5.3-0.1-7.9c0-2.6-0.1-5.2-0.1-7.6
			c0-2.4-0.1-4.6-0.1-6.5c0-1.9-0.1-3.4-0.1-4.6c0-1.1,0-1.7,0-1.8c4.6-0.4,8.8-0.8,12.5-1.1c1.6-0.1,3.1-0.3,4.6-0.4
			c1.5-0.1,2.9-0.3,4.1-0.3c1.2-0.1,2.2-0.2,2.9-0.2c0.7-0.1,1.1-0.1,1.2-0.1c0,0,0,0.2,0,0.6c0,0.3,0,0.8,0.1,1.2
			c0,0.5,0,1,0.1,1.6c0,0.6,0,1.1,0,1.5c0,0.4,0,0.7,0,0.9c0,0.2,0,0.3-0.2,0.4c-0.1,0.1-0.4,0.1-0.9,0.1s-1.1,0-2.1,0
			c-1.1,0-2.3,0-3.7,0c-1.4,0-2.9,0-4.5,0c-1.6,0-3.1,0-4.7-0.1c-1.6,0-3-0.1-4.3-0.1l0.9,13.7c1.3-0.2,2.8-0.4,4.6-0.6
			c1.8-0.2,3.5-0.4,5.1-0.6c1.6-0.2,3-0.3,4.2-0.5S394.1,29.8,394.2,29.8z"/>
		
			<path fill="#F0E5BB" stroke="#0B1C19" stroke-width="2" stroke-linecap="square" stroke-linejoin="round" stroke-miterlimit="10" d="
			M440.3,49.2c-1.8,3.6-4.3,6.2-7.5,7.9c-3.1,1.7-6.4,2.6-9.9,2.6c-2.5,0-5-0.5-7.4-1.5c-2.4-1-4.6-2.5-6.5-4.6
			c-1.9-2-3.4-4.5-4.6-7.5c-1.2-3-1.7-6.5-1.7-10.5c0-3.3,0.4-6.4,1.1-9.2c0.7-2.9,1.9-5.3,3.4-7.4c1.5-2.1,3.5-3.7,5.8-5
			c2.3-1.2,5.2-1.8,8.4-1.8c1.6,0,3.1,0.1,4.7,0.4c1.6,0.3,3.1,0.7,4.6,1.4c1.5,0.6,2.9,1.5,4.2,2.6c1.3,1.1,2.5,2.4,3.6,4.1
			l-4.2,3.3c-1.4-1.9-3.1-3.4-5.1-4.3c-2-0.9-4-1.4-6-1.4c-1.7,0-3.5,0.4-5.1,1.1c-1.7,0.7-3.2,1.8-4.5,3.2
			c-1.3,1.4-2.3,3.2-3.1,5.3c-0.8,2.1-1.2,4.6-1.2,7.4c0,3.9,0.5,7,1.4,9.5c0.9,2.5,2.2,4.4,3.7,5.8c1.5,1.4,3.1,2.4,4.9,2.9
			c1.8,0.5,3.5,0.8,5.2,0.8c2.9,0,5.4-0.7,7.2-2.2c1.9-1.4,3.3-3.4,4.3-5.8L440.3,49.2z"/>
		
			<path fill="#F0E5BB" stroke="#0B1C19" stroke-width="2" stroke-linecap="square" stroke-linejoin="round" stroke-miterlimit="10" d="
			M473.1,15.4c-1.1,1.3-2.4,3.1-4.1,5.2c-1.7,2.1-3.4,4.4-5.2,6.8c-1.8,2.4-3.7,4.8-5.5,7.1c-1.8,2.3-3.4,4.3-4.7,6
			c0.6,0.4,1.3,0.9,2.2,1.6s1.8,1.3,2.8,2c1,0.7,2.1,1.4,3.2,2.1c1.1,0.7,2.2,1.5,3.2,2.2c2.5,1.7,5.1,3.5,7.8,5.4l-4.7,5.9
			c-2.3-2.1-4.5-4.2-6.7-6.1c-0.9-0.8-1.9-1.7-2.8-2.6s-1.9-1.8-2.9-2.6c-0.9-0.9-1.8-1.7-2.7-2.4c-0.8-0.8-1.5-1.5-2.1-2.1
			l-0.4,0.5c0,2.2,0,4.2,0,6c0,1.9-0.1,3.5-0.1,4.9c0,1.4-0.1,2.9-0.1,4.5h-0.6c-0.4,0-0.8,0-1.2,0c-0.4,0-0.9,0-1.3,0
			c-0.5,0-1,0.1-1.6,0.1c-0.3-6.4-0.6-12.7-0.8-18.7c-0.1-2.6-0.3-5.2-0.4-7.9c-0.1-2.7-0.2-5.4-0.3-8c-0.1-2.6-0.2-5.1-0.3-7.5
			c-0.1-2.3-0.2-4.4-0.3-6.3l7.7,0.1c0,0,0,0.7,0,2c0,1.3,0,3-0.1,5.1c0,2.1,0,4.5-0.1,7.2c0,2.7-0.1,5.5-0.1,8.3
			c1.2-1.3,2.6-3,4.3-4.9c1.7-1.9,3.4-3.9,5.2-6c1.8-2,3.5-4,5.2-6c1.7-2,3.1-3.6,4.3-5L473.1,15.4z"/>
		
			<path fill="#F0E5BB" stroke="#0B1C19" stroke-width="2" stroke-linecap="square" stroke-linejoin="round" stroke-miterlimit="10" d="
			M480.1,53.9c0.5-0.4,1-0.6,1.5-0.8c0.5-0.2,1-0.2,1.4-0.2c0.9,0,1.7,0.3,2.2,1c0.6,0.6,0.8,1.4,0.8,2.2c0,0.9-0.4,1.8-1.2,2.6
			c-0.8,0.8-2,1.2-3.8,1.2c-1.2,0-2.1-0.2-2.7-0.7c-0.6-0.4-0.9-1-0.9-1.6c0-0.6,0.2-1.1,0.6-1.8S479.2,54.5,480.1,53.9z
			 M486.6,12.1c0,0.1,0,0.7-0.1,1.9c-0.1,1.2-0.1,2.6-0.2,4.4c-0.1,1.8-0.2,3.8-0.3,6.1c-0.1,2.3-0.3,4.6-0.4,6.9
			c-0.2,2.4-0.3,4.7-0.4,6.9c-0.1,2.3-0.3,4.3-0.3,6c-0.1,1.7-0.2,3.2-0.2,4.2c-0.1,1.1-0.1,1.6-0.1,1.7l-4.3-0.3v-0.3
			c0-0.5,0-1.4,0-2.7c0-1.3-0.1-2.9-0.1-4.8c-0.1-1.8-0.1-3.9-0.2-6.1c-0.1-2.2-0.1-4.5-0.2-6.7c-0.1-2.3-0.1-4.4-0.2-6.6
			c-0.1-2.1-0.1-4-0.2-5.6c-0.1-1.6-0.1-3-0.2-4c0-1-0.1-1.5-0.1-1.6L486.6,12.1z"/>
	</g>
	<g>
		
			<path fill="#F0E5BB" stroke="#0B1C19" stroke-width="2" stroke-linecap="square" stroke-linejoin="round" stroke-miterlimit="10" d="
			M90.2,79.8c0.3,0.8,0.6,1.8,1.1,3.1c0.5,1.3,1,2.8,1.6,4.5c0.6,1.7,1.3,3.5,1.9,5.3c0.4,0,0.9-0.1,1.2-0.1c0.4,0,0.7-0.1,1-0.1
			c0.3,0,0.6-0.1,0.8-0.1l0.1,2.5c0,0.6,0.1,1.2,0.1,1.7c0,0.5,0.1,0.7,0.1,0.7h-0.4c-0.1,0-0.3,0-0.5,0c-0.2,0-0.4,0-0.7,0
			c0.8,2.1,1.5,4.2,2.3,6.2s1.4,3.8,2,5.4c0.7,1.8,1.3,3.5,2,5.2c-1.1,0.6-2,1.1-2.9,1.5c-0.7,0.4-1.4,0.7-2,1
			c-0.6,0.3-0.9,0.4-0.9,0.4c-0.7-2.3-1.3-4.3-1.9-6.2c-0.6-1.8-1.2-3.9-1.9-6.2c-0.7-2.3-1.4-4.7-2.2-7.1c-1.3,0.1-2.7,0.1-4.1,0.2
			c-1.4,0-2.7,0.1-3.9,0.1L76.2,117c-0.4-0.2-0.9-0.4-1.3-0.5c-0.3-0.1-0.6-0.2-0.9-0.3c-0.3-0.1-0.4-0.2-0.5-0.2
			c0.6-2.1,1.1-4,1.5-5.7c0.4-1.7,0.9-3.7,1.5-5.9c0.6-2.2,1.1-4.5,1.7-6.9c-0.1-0.4-0.1-0.9-0.2-1.6c-0.1-0.7-0.1-1.1-0.1-1.2
			c0-0.1,0.1-0.1,0.2-0.1c0.1,0,0.4,0,0.9-0.1c0.5-2.1,1-4.1,1.5-6c0.5-1.9,0.9-3.6,1.3-5.1c0.4-1.5,0.8-3.1,1.2-4.9
			c0,0,0.2,0,0.8,0c0.5,0,1.2,0,1.9,0.1c0.7,0,1.5,0,2.2,0.1c0.7,0,1.3,0.1,1.7,0.1C89.4,78.7,90,79,90.2,79.8z M87.4,85.7l-2.9,8.2
			l5.3-0.6L87.4,85.7z"/>
		
			<path fill="#F0E5BB" stroke="#0B1C19" stroke-width="2" stroke-linecap="square" stroke-linejoin="round" stroke-miterlimit="10" d="
			M133,88.8v0.8c0,0.8,0,2.1,0,3.8c0,1.7-0.1,3.6-0.1,5.7c-0.1,2.1-0.1,4.2-0.1,6.4c0,2.2-0.1,4.2-0.1,6c-0.1,1.8-0.1,3.9-0.1,6.2
			h-0.5c-0.3,0-0.6,0-1,0c-0.4,0-0.7,0-1.1,0c-0.4,0-0.8,0.1-1.3,0.1c0-0.3,0-0.7-0.1-1.1c0-0.4-0.1-0.8-0.1-1.3
			c0-0.5-0.1-1.1-0.1-1.7c-1.2,1-2.6,1.8-4.1,2.4c-1.6,0.6-3.4,0.8-5.4,0.8c-2.1,0-4.1-0.3-5.8-0.9c-1.7-0.6-3.2-1.4-4.5-2.6
			c-1.3-1.1-2.2-2.5-2.9-4.2c-0.7-1.7-1-3.6-1-5.8c0-0.1,0-0.5,0-1.2c0-0.7,0-1.5,0-2.5c0-1,0-2.1,0-3.3c0-1.2,0-2.3,0-3.4
			c0-1.1,0-2,0.1-2.8c0-0.8,0-1.4,0.1-1.6l4.5,0.1c0,0.2-0.1,0.5-0.1,1.2c0,0.6,0,1.4,0,2.4c0,1,0,2.2,0,3.4c0,1.2,0,2.4,0.1,3.5
			c0,1.1,0,2,0.1,2.8c0,0.8,0,1.2,0.1,1.4c0.1,1.3,0.4,2.4,0.8,3.4c0.4,1,1,1.9,1.7,2.6c0.7,0.7,1.7,1.3,2.8,1.7
			c1.1,0.4,2.4,0.6,4,0.6c1.7,0,3.1-0.4,4.2-1.1c1.1-0.7,2-1.7,2.6-2.9c0.7-1.3,1.1-2.8,1.3-4.5c0.2-1.8,0.4-3.7,0.4-5.8
			c-0.1-1.7-0.2-3.1-0.2-4.4c0-1.3,0-2.6-0.1-4.1L133,88.8z"/>
		
			<path fill="#F0E5BB" stroke="#0B1C19" stroke-width="2" stroke-linecap="square" stroke-linejoin="round" stroke-miterlimit="10" d="
			M147.2,89.1c0.3,0,0.5,0,0.8,0c0.2,0,0.5,0,0.8,0c2.2,0,4,0.2,5.5,0.6s2.6,0.9,3.5,1.4c0.9,0.5,1.7,1.2,2.5,2.1
			c-0.7,1.1-1.4,1.9-1.8,2.6c-0.5,0.6-0.9,1.2-1.3,1.7c-0.4,0.5-0.6,0.8-0.6,0.7c0,0-0.2-0.2-0.6-0.6c-0.4-0.4-0.9-0.8-1.6-1.2
			c-0.7-0.4-1.6-0.8-2.6-1.2c-1-0.4-2.1-0.5-3.4-0.5c-0.9,0-1.8,0.1-2.7,0.4c-0.9,0.3-1.8,0.7-2.6,1.2c-0.8,0.5-1.4,1-1.9,1.6
			c-0.5,0.6-0.8,1.1-0.8,1.7c0,0.5,0.3,1,1,1.3c0.7,0.3,1.8,0.5,3.4,0.5c1,0,2.2-0.1,3.6-0.3c1.4-0.2,2.9-0.3,4.5-0.3
			c0.9,0,1.9,0.1,2.8,0.3c1,0.2,1.8,0.6,2.5,1.1c0.7,0.5,1.4,1.3,1.8,2.3c0.5,1,0.7,2.2,0.7,3.8c0,1.6-0.5,3-1.4,4.1
			c-0.9,1.1-2,2-3.3,2.7c-1.3,0.7-2.7,1.2-4.2,1.5c-1.5,0.3-2.8,0.4-4,0.4c-2,0-3.7-0.2-5.2-0.6c-1.5-0.4-2.7-0.8-3.6-1.3
			c-1-0.5-1.7-0.9-2.2-1.3c-0.5-0.4,0.6-3.6,0.6-3.6c1,0.5,2.1,1,3.2,1.4c1,0.4,2,0.7,3.2,1c1.1,0.3,2.2,0.4,3.3,0.4
			c1.1,0,2.1-0.1,3-0.3c0.9-0.2,1.7-0.5,2.4-0.8s1.2-0.8,1.6-1.3c0.4-0.5,0.6-1.1,0.6-1.7c0-0.8-0.1-1.4-0.4-1.9
			c-0.3-0.5-0.6-0.9-1.1-1.2c-0.5-0.3-1-0.5-1.7-0.6c-0.6-0.1-1.3-0.2-2-0.2c-1.1,0-2.2,0.1-3.4,0.2c-1.2,0.1-2.4,0.2-3.6,0.2
			c-1,0-1.9-0.1-2.7-0.3s-1.6-0.5-2.2-0.9c-0.7-0.4-1.2-1.1-1.5-1.9c-0.4-0.8-0.6-1.9-0.6-3.2c0-1.2,0.3-2.4,0.8-3.6
			c0.6-1.2,1.4-2.2,2.4-3.1c1-0.9,2.2-1.7,3.7-2.3C143.9,89.5,145.5,89.2,147.2,89.1z"/>
		
			<path fill="#F0E5BB" stroke="#0B1C19" stroke-width="2" stroke-linecap="square" stroke-linejoin="round" stroke-miterlimit="10" d="
			M163.4,90.9c0,0,0.4,0,1-0.1c0.7-0.1,1.5-0.2,2.5-0.3l-0.4-7.9l6.2,0.1c0,0,0,0.7,0,2c0,1.3,0,3-0.1,5c0.7-0.1,1.4-0.2,2-0.3
			c0.7-0.1,1.2-0.2,1.7-0.3c0.6-0.1,1.1-0.2,1.6-0.2l0.1,2.5c0,0.6,0.1,1.2,0.1,1.7c0,0.5,0.1,0.7,0.1,0.7h-0.3c-0.4,0-1.1,0-2,0
			c-1,0-2.1,0.1-3.3,0.1c0,1.7-0.1,3.4-0.1,5.2c0,1.8,0,3.5-0.1,5.2c0,1.7,0,3.3-0.1,4.8c0,1.5,0,2.9-0.1,4c0,1.1-0.1,2.4-0.1,3.7
			h-0.5c-0.3,0-0.6,0-1,0c-0.4,0-0.7,0-1.1,0c-0.4,0-0.8,0.1-1.3,0.1c-0.1-2.3-0.2-4.7-0.3-7.3c-0.1-2.2-0.2-4.6-0.4-7.3
			c-0.1-2.7-0.3-5.5-0.4-8.3c-0.7,0-1.3,0.1-1.8,0.1c-0.5,0-0.9,0-1.2,0c-0.1,0-0.2-0.1-0.3-0.4c-0.1-0.2-0.2-0.5-0.2-0.9
			c-0.1-0.4-0.1-0.7-0.1-1.1S163.4,91.1,163.4,90.9z"/>
		
			<path fill="#F0E5BB" stroke="#0B1C19" stroke-width="2" stroke-linecap="square" stroke-linejoin="round" stroke-miterlimit="10" d="
			M189.9,88.8c0,0,0,0.8,0,2.2c0,1.4-0.1,3.2-0.1,5.3c-0.1,2.1-0.1,4.4-0.1,6.8c0,2.4-0.1,4.7-0.1,6.8c-0.1,2.1-0.1,3.8-0.1,5.2
			c0,1.4-0.1,2.1-0.1,2.1h-0.5c-0.3,0-0.6,0-1,0c-0.4,0-0.7,0-1.1,0c-0.4,0-0.8,0.1-1.3,0.1c0-2.3-0.1-4.8-0.2-7.4
			c-0.1-2.2-0.2-4.7-0.3-7.5c-0.1-2.8-0.3-5.5-0.4-8.3c0,0-0.2,0-0.5,0.1c-0.3,0-0.6,0.1-1,0.1c-0.4,0-0.8,0.1-1.4,0.1
			c-0.1-1.1-0.2-2-0.2-2.7c0-0.7-0.1-1.2-0.1-1.8c0-0.5-0.1-0.8-0.1-0.9L189.9,88.8z M184.8,80.4c0.4-0.3,0.8-0.5,1.2-0.6
			c0.4-0.1,0.8-0.2,1.1-0.2c0.7,0,1.3,0.3,1.8,0.8c0.4,0.5,0.7,1.1,0.7,1.8c0,0.7-0.3,1.4-1,2.1c-0.6,0.7-1.7,1-3.1,1
			c-1,0-1.7-0.2-2.2-0.5c-0.5-0.4-0.7-0.8-0.7-1.3c0-0.4,0.2-0.9,0.5-1.4S184.1,80.9,184.8,80.4z"/>
		
			<path fill="#F0E5BB" stroke="#0B1C19" stroke-width="2" stroke-linecap="square" stroke-linejoin="round" stroke-miterlimit="10" d="
			M193.8,88.2c0,0,0.2,0.1,0.5,0.1c0.3,0,0.6,0,1,0c0.4,0,0.7,0,1.1-0.1c0.4,0,0.8-0.1,1.3-0.1l0.3,3.5c1.1-0.7,2.5-1.4,4.1-1.9
			c1.6-0.5,3.6-0.8,5.9-0.8c2,0.1,3.8,0.4,5.3,1.1c1.5,0.7,2.8,1.5,3.8,2.6c1,1.1,1.9,2.4,2.5,3.8c0.6,1.4,1.1,2.9,1.5,4.4
			c0.4,1.5,0.6,3.1,0.7,4.6c0.1,1.5,0.2,3,0.2,4.3c0,1.6,0,3.1-0.1,4.3c-0.1,1.2-0.1,2.1-0.1,2.5c0,0.2-7.2,0.4-7.2,0.4
			c0.1-0.9,0.2-1.8,0.4-2.9c0.1-0.9,0.2-1.9,0.3-3c0.1-1.1,0.1-2.3,0.1-3.6c0-1.7-0.1-3.4-0.3-5.2c-0.2-1.8-0.6-3.3-1.2-4.8
			c-0.6-1.4-1.4-2.6-2.4-3.5c-1-0.9-2.4-1.3-4.1-1.3c-1,0-2,0.2-2.9,0.4c-0.9,0.3-1.7,0.7-2.4,1.1c-0.7,0.5-1.4,1-2,1.6
			c-0.6,0.6-1.1,1.1-1.5,1.7l1.6,19.2h-3c-0.4,0-0.7,0-1.1,0c-0.3,0-0.7,0-1,0h-0.9c0-2-0.1-3.8-0.1-5.4c0-1.6-0.1-3.4-0.1-5.4
			c0-2,0-4-0.1-6c0-2-0.1-3.8-0.1-5.6c0-1.7,0-3.2,0-4.3C193.8,88.9,193.8,88.2,193.8,88.2z"/>
		
			<path fill="#F0E5BB" stroke="#0B1C19" stroke-width="2" stroke-linecap="square" stroke-linejoin="round" stroke-miterlimit="10" d="
			M226.9,82.7c0.8-0.6,1.6-0.8,2.4-0.8c0.9,0,1.5,0.3,1.9,1c0.4,0.6,0.6,1.3,0.6,1.9c-0.3,1.5-0.7,2.8-1.1,4
			c-0.4,1.2-1.1,2.4-1.9,3.7l-1.5-0.1c0.3-0.6,0.4-1.3,0.5-2c0.1-0.7,0.1-1.4,0.1-2v-0.8h-0.1c-2.1,0-3.1-0.6-3.1-1.8
			c0-0.4,0.2-0.9,0.5-1.4S226.2,83.2,226.9,82.7z"/>
		
			<path fill="#F0E5BB" stroke="#0B1C19" stroke-width="2" stroke-linecap="square" stroke-linejoin="round" stroke-miterlimit="10" d="
			M246.4,89.1c0.3,0,0.5,0,0.8,0c0.2,0,0.5,0,0.8,0c2.2,0,4,0.2,5.5,0.6s2.6,0.9,3.5,1.4c0.9,0.5,1.7,1.2,2.5,2.1
			c-0.7,1.1-1.4,1.9-1.8,2.6s-0.9,1.2-1.3,1.7c-0.4,0.5-0.6,0.8-0.6,0.7c0,0-0.2-0.2-0.6-0.6c-0.4-0.4-0.9-0.8-1.6-1.2
			s-1.6-0.8-2.6-1.2c-1-0.4-2.1-0.5-3.4-0.5c-0.9,0-1.8,0.1-2.7,0.4c-0.9,0.3-1.8,0.7-2.6,1.2c-0.8,0.5-1.4,1-1.9,1.6
			c-0.5,0.6-0.8,1.1-0.8,1.7c0,0.5,0.3,1,1,1.3c0.7,0.3,1.8,0.5,3.4,0.5c1,0,2.2-0.1,3.6-0.3c1.4-0.2,2.9-0.3,4.5-0.3
			c0.9,0,1.9,0.1,2.8,0.3c1,0.2,1.8,0.6,2.5,1.1c0.7,0.5,1.4,1.3,1.8,2.3c0.5,1,0.7,2.2,0.7,3.8c0,1.6-0.5,3-1.4,4.1
			c-0.9,1.1-2,2-3.3,2.7c-1.3,0.7-2.7,1.2-4.2,1.5c-1.5,0.3-2.8,0.4-4,0.4c-2,0-3.7-0.2-5.2-0.6c-1.5-0.4-2.7-0.8-3.6-1.3
			c-1-0.5-1.7-0.9-2.2-1.3c-0.5-0.4,0.6-3.6,0.6-3.6c1,0.5,2.1,1,3.2,1.4c1,0.4,2,0.7,3.2,1c1.1,0.3,2.2,0.4,3.3,0.4
			c1.1,0,2.1-0.1,3-0.3c0.9-0.2,1.7-0.5,2.4-0.8c0.7-0.4,1.2-0.8,1.6-1.3c0.4-0.5,0.6-1.1,0.6-1.7c0-0.8-0.1-1.4-0.4-1.9
			c-0.3-0.5-0.6-0.9-1.1-1.2c-0.5-0.3-1-0.5-1.7-0.6c-0.6-0.1-1.3-0.2-2-0.2c-1.1,0-2.2,0.1-3.4,0.2c-1.2,0.1-2.4,0.2-3.6,0.2
			c-1,0-1.9-0.1-2.7-0.3s-1.6-0.5-2.2-0.9c-0.7-0.4-1.2-1.1-1.5-1.9c-0.4-0.8-0.6-1.9-0.6-3.2c0-1.2,0.3-2.4,0.8-3.6
			c0.6-1.2,1.4-2.2,2.4-3.1c1-0.9,2.2-1.7,3.7-2.3C243.1,89.5,244.6,89.2,246.4,89.1z"/>
		
			<path fill="#F0E5BB" stroke="#0B1C19" stroke-width="2" stroke-linecap="square" stroke-linejoin="round" stroke-miterlimit="10" d="
			M289.9,78.1c0.3,0,0.5,0,0.8,0c0.2,0,0.5,0,0.8,0c2.2,0,4,0.2,5.5,0.6c1.5,0.4,2.6,0.9,3.5,1.4c0.9,0.5,1.7,1.2,2.5,2.1
			c-0.7,1.1-1.4,1.9-1.8,2.6c-0.5,0.6-0.9,1.2-1.3,1.7c-0.4,0.5-0.6,0.8-0.6,0.7s-0.2-0.2-0.6-0.6c-0.4-0.4-0.9-0.8-1.6-1.2
			c-0.7-0.4-1.6-0.8-2.6-1.2c-1-0.4-2.1-0.5-3.4-0.5c-0.9,0-1.7,0.2-2.5,0.5c-0.8,0.4-1.6,0.8-2.2,1.4c-0.7,0.6-1.2,1.3-1.6,2.1
			c-0.4,0.8-0.6,1.6-0.6,2.4c0,1,0.4,1.9,1.2,2.8c0.8,0.8,2.1,1.4,4,1.7c1.1,0.2,2.5,0.4,4.2,0.8c1.7,0.3,3.3,0.9,4.8,1.7
			s2.9,1.9,4,3.4c1.1,1.5,1.7,3.4,1.7,5.9c0,2.2-0.4,4.1-1.3,5.4c-0.9,1.4-2,2.5-3.2,3.2c-1.3,0.8-2.7,1.3-4.1,1.5s-2.8,0.4-4.1,0.4
			c-2.1,0-3.8-0.2-5.4-0.6c-1.5-0.4-2.8-0.8-3.8-1.3c-1-0.5-2-1.1-3.1-1.8l1.3-4.8c1,0.8,2.1,1.6,3.2,2.2c1,0.6,2,1.1,3.2,1.5
			c1.1,0.5,2.2,0.7,3.3,0.7c1.4,0,2.6-0.2,3.8-0.6c1.1-0.4,2.1-0.9,2.9-1.5c0.8-0.6,1.4-1.4,1.8-2.2c0.4-0.8,0.6-1.7,0.6-2.6
			c0-1.5-0.3-2.7-0.9-3.6c-0.6-0.9-1.4-1.6-2.3-2.1c-1-0.5-2.1-0.9-3.3-1.2c-1.3-0.3-2.5-0.5-3.8-0.7c-1.3-0.2-2.5-0.5-3.8-0.8
			c-1.2-0.3-2.3-0.8-3.3-1.4c-1-0.6-1.7-1.4-2.3-2.4c-0.6-1-0.9-2.4-0.9-4c0-1.2,0.3-2.5,0.8-3.8c0.6-1.3,1.4-2.6,2.4-3.7
			s2.2-2.1,3.7-2.9C286.6,78.6,288.2,78.1,289.9,78.1z"/>
		
			<path fill="#F0E5BB" stroke="#0B1C19" stroke-width="2" stroke-linecap="square" stroke-linejoin="round" stroke-miterlimit="10" d="
			M306.1,90.9c0,0,0.4,0,1-0.1c0.7-0.1,1.5-0.2,2.5-0.3l-0.4-7.9l6.2,0.1c0,0,0,0.7,0,2c0,1.3,0,3-0.1,5c0.7-0.1,1.4-0.2,2-0.3
			c0.7-0.1,1.2-0.2,1.7-0.3c0.6-0.1,1.1-0.2,1.6-0.2l0.1,2.5c0,0.6,0.1,1.7,0.1,1.7l-0.2,0.7c0,0-1.1,0-2,0c-1,0-2.1,0.1-3.3,0.1
			c0,1.7-0.1,3.4-0.1,5.2c0,1.8,0,3.5-0.1,5.2c0,1.7,0,3.3-0.1,4.8c0,1.5,0,2.9-0.1,4c0,1.1-0.1,2.4-0.1,3.7h-0.5c-0.3,0-0.6,0-1,0
			c-0.4,0-0.7,0-1.1,0c-0.4,0-0.8,0.1-1.3,0.1c-0.1-2.3-0.2-4.7-0.3-7.3c-0.1-2.2-0.2-4.6-0.4-7.3c-0.1-2.7-0.3-5.5-0.4-8.3
			c-0.7,0-1.3,0.1-1.8,0.1c-0.5,0-0.9,0-1.2,0c-0.1,0-0.2-0.1-0.3-0.4c-0.1-0.2-0.2-0.5-0.2-0.9c-0.1-0.4-0.1-0.7-0.1-1.1
			S306.1,91.1,306.1,90.9z"/>
		
			<path fill="#F0E5BB" stroke="#0B1C19" stroke-width="2" stroke-linecap="square" stroke-linejoin="round" stroke-miterlimit="10" d="
			M338,88.8c2.1,0,4,0.4,5.6,1.1c1.7,0.7,3.1,1.8,4.2,3.1c1.1,1.3,2,2.8,2.6,4.5c0.6,1.7,0.9,3.5,0.9,5.5c0,1.8-0.3,3.5-0.9,5.2
			c-0.6,1.7-1.5,3.2-2.7,4.5c-1.2,1.3-2.7,2.4-4.5,3.1c-1.8,0.8-3.9,1.2-6.3,1.2c-2.1,0-4-0.3-5.8-0.8c-1.8-0.6-3.3-1.4-4.5-2.5
			s-2.2-2.5-2.9-4.2c-0.7-1.7-1-3.6-1-5.7c0-3,0.5-5.4,1.5-7.3s2.3-3.4,3.8-4.5c1.5-1.1,3.2-1.9,5-2.3S336.4,88.8,338,88.8z
			 M336.7,112.6c1.4,0,2.6-0.3,3.7-0.9c1.1-0.6,2-1.4,2.7-2.4s1.2-2.1,1.6-3.3c0.4-1.2,0.5-2.5,0.5-3.8c0-1.2-0.2-2.4-0.5-3.5
			c-0.3-1.1-0.8-2.1-1.5-2.9c-0.7-0.9-1.5-1.5-2.5-2c-1-0.5-2.2-0.8-3.5-0.8c-1.8,0-3.3,0.4-4.6,1c-1.3,0.6-2.4,1.4-3.3,2.3
			c-0.9,1-1.5,2-2,3.2c-0.4,1.2-0.7,2.4-0.7,3.6c0,1.2,0.2,2.4,0.6,3.5c0.4,1.1,1.1,2.1,1.9,3c0.8,0.9,1.9,1.6,3.2,2.1
			C333.6,112.3,335.1,112.6,336.7,112.6z"/>
		
			<path fill="#F0E5BB" stroke="#0B1C19" stroke-width="2" stroke-linecap="square" stroke-linejoin="round" stroke-miterlimit="10" d="
			M360.5,88.2l-0.2,3.1c0.7-0.6,1.6-1.1,2.6-1.7c1-0.5,2.1-0.8,3.1-0.8c1,0,1.9,0.2,2.8,0.6c0.9,0.4,1.7,0.8,2.4,1.3
			c0.8,0.5,1.6,1.1,2.4,1.8l-2.4,2.4l-2.4,2.4c-0.6-0.7-1.1-1.3-1.6-1.7c-0.4-0.4-0.9-0.8-1.5-1.2c-0.5-0.4-1.1-0.5-1.5-0.5
			c-0.9,0-1.7,0.3-2.4,1c-0.8,0.6-1.4,1.3-1.9,1.9c-0.1,2.5-0.2,4.9-0.3,7.3c-0.1,2.4-0.1,4.6-0.1,6.5c0,2.2-0.1,4.3-0.1,6.3
			c-0.7,0-1.4,0.1-2,0.1c-0.5,0-1,0.1-1.4,0.1c-0.4,0-0.7,0-0.7,0.1c0,0-0.1-0.4-0.1-1.2c0-0.8-0.1-1.9-0.2-3.2
			c-0.1-1.3-0.2-2.8-0.3-4.6c-0.1-1.7-0.2-3.5-0.3-5.2c-0.1-1.8-0.2-3.5-0.3-5.2c-0.1-1.7-0.2-3.2-0.2-4.6c-0.1-1.3-0.1-2.4-0.1-3.2
			c0-0.8-0.1-1.3-0.1-1.3L360.5,88.2z"/>
		
			<path fill="#F0E5BB" stroke="#0B1C19" stroke-width="2" stroke-linecap="square" stroke-linejoin="round" stroke-miterlimit="10" d="
			M386.1,131.9c-0.1,0-0.3-0.1-0.6-0.3c-0.3-0.2-0.7-0.4-1-0.7l-1.5-1l7.6-16l-15-20.1c-0.1,0,0.1-0.2,0.7-0.6
			c0.5-0.4,1.1-0.9,1.8-1.4s1.6-1.2,2.8-2c1.5,2.4,3,4.7,4.4,7.1c0.6,1,1.2,2.1,1.9,3.1c0.7,1.1,1.3,2.2,2,3.2
			c0.7,1.1,1.3,2.1,1.9,3.1s1.2,1.9,1.8,2.8c1.2-2.6,2.4-5.1,3.6-7.5c1.2-2.4,2.2-4.6,3.1-6.5c1-2.2,2.1-4.4,3-6.4
			c1.2,0.7,2.1,1.2,2.8,1.6s1.3,0.8,1.9,1.1c0.6,0.3,0.8,0.5,0.8,0.5s-0.4,0.6-1,1.7c-0.6,1.1-1.5,2.6-2.5,4.5c-1,1.9-2.2,4-3.5,6.4
			s-2.6,4.8-4,7.3c-1.4,2.5-2.7,5-4,7.4c-1.3,2.4-2.5,4.5-3.5,6.4c-1,1.9-1.8,3.4-2.5,4.5S386.1,131.8,386.1,131.9z"/>
	</g>
</g>
</svg>
