<?xml version="1.0" encoding="utf-8"?>
<!-- Generator: Adobe Illustrator 18.1.1, SVG Export Plug-In . SVG Version: 6.00 Build 0)  -->
<svg version="1.1" id="Layer_1" xmlns="http://www.w3.org/2000/svg" xmlns:xlink="http://www.w3.org/1999/xlink" x="0px" y="0px"
	 viewBox="0 0 267 69.6" enable-background="new 0 0 267 69.6" xml:space="preserve">
<g>
	<path fill="#7C9C95" d="M4.1,22.4V6.1h3.8c2.5,0,3.8,1.3,3.8,4v2.1c0,2.7-1.3,4-3.8,4H6.7v6.1H4.1z M6.7,14h1.2
		c0.4,0,0.7-0.1,0.9-0.4C9,13.4,9.1,13,9.1,12.4V10c0-0.6-0.1-1-0.3-1.2C8.6,8.5,8.3,8.4,7.9,8.4H6.7V14z"/>
	<path fill="#7C9C95" d="M12.8,18.5V6.1h2.6v12.6c0,1.1,0.5,1.6,1.3,1.6c0.9,0,1.3-0.5,1.3-1.6V6.1h2.6v12.4c0,1.3-0.3,2.3-1,3
		c-0.7,0.7-1.7,1.1-2.9,1.1s-2.2-0.4-2.9-1.1S12.8,19.9,12.8,18.5z"/>
	<path fill="#7C9C95" d="M22.2,22.4V6.1h3.9c1.3,0,2.3,0.3,2.9,0.9c0.6,0.6,0.9,1.6,0.9,2.8v0.6c0,1.7-0.6,2.8-1.7,3.3
		c1.3,0.5,1.9,1.7,1.9,3.5v1.3c0,1.3-0.3,2.2-1,2.9c-0.7,0.7-1.6,1-2.9,1H22.2z M24.8,12.8h1c0.5,0,0.9-0.1,1.2-0.4
		c0.3-0.3,0.4-0.7,0.4-1.3v-0.9c0-1.1-0.4-1.7-1.3-1.7h-1.2V12.8z M24.8,20.1h1.5c0.4,0,0.8-0.1,1-0.4c0.2-0.2,0.3-0.7,0.3-1.2v-1.4
		c0-0.7-0.1-1.3-0.4-1.5c-0.3-0.3-0.7-0.4-1.3-0.4h-1.2V20.1z"/>
	<path fill="#7C9C95" d="M31.7,22.4V6.1h2.6v14h4.2v2.3H31.7z"/>
	<path fill="#7C9C95" d="M39.6,22.4V6.1h2.6v16.3H39.6z"/>
	<path fill="#7C9C95" d="M43.6,18.5v-1h2.6v1.2c0,1.1,0.4,1.6,1.2,1.6h0c0.8,0,1.2-0.5,1.2-1.6c0-0.6-0.2-1.2-0.5-1.7
		s-0.8-1-1.3-1.5l-1.3-1.4c-0.5-0.5-1-1.1-1.4-1.8c-0.4-0.7-0.6-1.5-0.6-2.3c0-1.3,0.3-2.3,1-3c0.7-0.7,1.6-1.1,2.8-1.1
		c1.2,0,2.1,0.4,2.7,1.1c0.6,0.7,1,1.7,1,3v0.5h-2.4V9.9c0-1.1-0.4-1.6-1.3-1.6s-1.3,0.5-1.3,1.6c0,0.4,0.1,0.9,0.3,1.3
		c0.2,0.4,0.4,0.8,0.7,1.1c0.3,0.3,0.6,0.6,1,1s0.7,0.7,1.1,1c0.3,0.4,0.7,0.7,1,1.1c0.3,0.4,0.5,0.9,0.7,1.4
		c0.2,0.5,0.3,1.1,0.3,1.8c0,1.3-0.3,2.3-1,3c-0.7,0.7-1.6,1.1-2.8,1.1s-2.1-0.4-2.8-1.1S43.6,19.8,43.6,18.5z"/>
	<path fill="#7C9C95" d="M52.7,22.4V6.1h2.6v7h2.9v-7h2.6v16.3h-2.6v-7h-2.9v7H52.7z"/>
	<path fill="#7C9C95" d="M62.7,22.4V6.1h7v2.3h-4.4V13h3.5v2.3h-3.5v4.8h4.4v2.3H62.7z"/>
	<path fill="#7C9C95" d="M71.3,22.4V6.1h4.1c2.6,0,3.8,1.3,3.8,4v8.3c0,2.7-1.3,4-3.8,4H71.3z M73.8,20.1h1.4c0.9,0,1.3-0.5,1.3-1.6
		V10c0-1.1-0.4-1.6-1.3-1.6h-1.4V20.1z"/>
	<path fill="#7C9C95" d="M84.4,22.4V6.1h3.9c1.3,0,2.3,0.3,2.9,0.9c0.6,0.6,0.9,1.6,0.9,2.8v0.6c0,1.7-0.6,2.8-1.7,3.3
		c1.3,0.5,1.9,1.7,1.9,3.5v1.3c0,1.3-0.3,2.2-1,2.9c-0.7,0.7-1.6,1-2.9,1H84.4z M87,12.8h1c0.5,0,0.9-0.1,1.2-0.4
		c0.3-0.3,0.4-0.7,0.4-1.3v-0.9c0-1.1-0.4-1.7-1.3-1.7H87V12.8z M87,20.1h1.5c0.4,0,0.8-0.1,1-0.4c0.2-0.2,0.3-0.7,0.3-1.2v-1.4
		c0-0.7-0.1-1.3-0.4-1.5c-0.3-0.3-0.7-0.4-1.3-0.4H87V20.1z"/>
	<path fill="#7C9C95" d="M93,6.1h2.6l2,7.5l2-7.5h2.6L98.7,17v5.4h-2.6V17L93,6.1z"/>
</g>
<g id="Soule_Designs">
	<g>
		<path fill="#7C9C95" d="M47.7,29.3c0,1.2-0.3,2.3-0.8,3c-0.5,0.8-1.1,1.4-1.8,1.9c-0.7,0.5-1.4,0.8-2.2,1
			c-0.7,0.2-1.4,0.4-1.9,0.6c-0.8,0.3-1.4,0.3-1.6,0.2c-0.3-0.2-0.6-0.5-0.8-1.1c-0.2-0.3-0.2-0.5-0.1-0.8c0.1-0.2,0.2-0.5,0.3-0.7
			c0.1-0.2,0.3-0.4,0.6-0.6c0.5-0.2,0.9-0.4,1.3-0.7c0.3-0.2,0.6-0.5,0.9-0.8c0.3-0.3,0.4-0.7,0.4-1.2c0-0.5-0.2-0.8-0.7-1
			s-1.1-0.4-1.9-0.5c-0.8-0.1-1.7-0.1-2.7-0.1c-1,0-2.1,0.1-3.2,0.1c-0.8,0.1-1.8,0.2-3,0.3c-1.2,0.2-2.5,0.4-3.9,0.7
			c-1.4,0.3-2.7,0.6-4.1,1c-1.4,0.4-2.6,0.8-3.7,1.2c-1.1,0.4-2,0.9-2.7,1.4c-0.7,0.5-1,1-1,1.5c0,0.4,0.4,0.9,1.2,1.3
			c0.8,0.4,1.9,0.8,3.3,1.2c1.4,0.4,2.9,0.8,4.6,1.2c1.7,0.4,3.5,0.9,5.3,1.4c1.8,0.5,3.6,1,5.3,1.5c1.7,0.5,3.3,1.1,4.6,1.8
			c1.3,0.7,2.4,1.4,3.2,2.1c0.8,0.8,1.2,1.6,1.2,2.6c0,0.9-0.4,1.8-1.2,2.7c-0.8,0.9-1.8,1.6-3.1,2.3c-1.3,0.7-2.9,1.2-4.6,1.5
			c-1.8,0.4-3.7,0.6-5.8,0.6c-2.1,0-4-0.1-6-0.4c-1.9-0.2-3.6-0.5-5.1-0.8c-1.5-0.3-2.8-0.7-3.8-1c-1-0.3-1.7-0.6-2-0.8
			c-0.2-0.2-0.4-0.3-0.7-0.5c-0.2-0.2-0.4-0.4-0.6-0.6c-0.2-0.2-0.3-0.4-0.4-0.7c-0.1-0.2,0-0.5,0.1-0.9c0.1-0.3,0.3-0.5,0.6-0.7
			c0.3-0.2,0.6-0.2,0.9-0.3c0.3,0,0.7,0,1,0c0.3,0.1,0.6,0.2,0.9,0.3c0.2,0.1,0.8,0.2,1.5,0.4c0.8,0.2,1.8,0.4,3,0.6
			c1.2,0.2,2.6,0.4,4.1,0.5c1.5,0.1,3.2,0.2,5,0.3c0.2,0,0.5,0,1,0c0.5,0,1,0,1.7-0.1c0.6,0,1.3-0.1,2-0.2c0.7-0.1,1.3-0.2,1.9-0.4
			c0.6-0.2,1.1-0.4,1.4-0.6c0.4-0.2,0.6-0.5,0.6-0.9c0-0.8-0.7-1.5-2.1-2.1c-1.4-0.6-3.2-1.1-5.3-1.6c-2.1-0.5-4.4-1-6.9-1.5
			c-2.5-0.5-4.8-1.1-6.9-1.7c-2.1-0.6-3.9-1.4-5.3-2.2c-1.4-0.8-2.1-1.9-2.1-3c0-1.5,0.5-2.8,1.6-4s2.4-2.3,4-3.2
			c1.6-0.9,3.5-1.7,5.6-2.4c2.1-0.7,4.1-1.2,6.2-1.7c2.1-0.4,4-0.8,5.8-1c1.8-0.2,3.3-0.3,4.6-0.3c1.7,0,3.3,0.1,4.8,0.2
			c1.5,0.2,2.8,0.5,4,0.9c1.1,0.4,2,1,2.7,1.8C47.4,27,47.7,28,47.7,29.3z"/>
	</g>
	<g>
		<path fill="#7C9C95" d="M70.3,41.5c0.2,0.2,0.2,0.5,0.2,1c-0.1,0.5-0.3,1-0.6,1.6s-0.8,1.1-1.4,1.6c-0.6,0.5-1.3,0.9-2.2,1.2
			c-0.5,0.2-1.2,0.3-1.9,0.4c-0.7,0.1-1.6,0.2-2.4,0.2c-0.2,0.6-0.5,1.2-1.1,1.8c-0.5,0.6-1.2,1.1-2,1.5c-0.8,0.5-1.7,0.8-2.7,1.1
			c-1,0.3-2.1,0.4-3.3,0.4c-1.3,0-2.4-0.2-3.3-0.5c-0.9-0.4-1.7-0.8-2.2-1.4c-0.6-0.6-1-1.2-1.2-2c-0.2-0.7-0.4-1.5-0.4-2.3
			c0-0.8,0.2-1.6,0.7-2.4c0.5-0.8,1.1-1.6,1.9-2.2c0.8-0.7,1.8-1.2,2.8-1.6c1.1-0.4,2.3-0.6,3.5-0.6c0.8,0,1.4,0.1,2,0.3
			c0.6,0.2,1,0.3,1.4,0.5c1.3,0.6,2.2,1.2,2.7,1.8c0.3,0.3,0.5,0.7,0.7,1c0.2,0.2,0.3,0.3,0.5,0.5c0.2,0.2,0.5,0.3,0.8,0.5
			c0.2,0.1,0.5,0.2,0.9,0.2c0.4,0.1,0.8,0.1,1.2,0.1c0.4,0,0.8-0.1,1.2-0.2c0.4-0.1,0.7-0.3,0.9-0.5c0.7-0.7,1.3-1.2,1.9-1.6
			C69.5,41.2,69.9,41.2,70.3,41.5z M57.1,46.6c-0.3-0.2-0.5-0.4-0.8-0.7c-0.2-0.3-0.4-0.7-0.6-1.1c-0.1-0.2-0.1-0.4-0.2-0.7
			c-0.1-0.2-0.1-0.5-0.2-0.7c-0.2,0-0.3,0-0.5,0c-0.1,0-0.3,0-0.4,0c-0.2,0-0.5,0.1-0.8,0.2c-0.4,0.1-0.7,0.3-1.1,0.5
			c-0.4,0.2-0.7,0.5-1,0.9c-0.3,0.4-0.4,0.8-0.4,1.4c0,0.5,0.1,0.9,0.3,1.2c0.2,0.3,0.5,0.5,0.8,0.6c0.3,0.1,0.6,0.2,0.9,0.2
			c0.3,0,0.5,0,0.7,0c0.1,0,0.3,0,0.6,0c0.3,0,0.6-0.1,1-0.2c0.4-0.1,0.7-0.3,1-0.5S57,47.1,57.1,46.6L57.1,46.6z"/>
		<path fill="#7C9C95" d="M91.1,47.4c-0.1,0.2-0.2,0.5-0.6,1.1c-0.3,0.5-0.8,1.1-1.4,1.6c-0.6,0.5-1.3,1-2.3,1.4
			c-0.9,0.4-2,0.6-3.2,0.6c-0.9,0-1.7-0.1-2.4-0.4c-0.7-0.2-1.3-0.5-1.8-0.9c-0.6-0.3-1-0.8-1.4-1.3c-0.4,0.5-0.9,1-1.5,1.4
			c-0.5,0.3-1,0.7-1.7,0.9c-0.7,0.3-1.4,0.4-2.2,0.4c-0.8,0-1.5-0.2-2.2-0.5c-0.6-0.3-1.2-0.7-1.6-1.2c-0.5-0.5-0.8-1.1-1.1-1.7
			c-0.2-0.6-0.4-1.2-0.4-1.8c0-0.6,0-1.3,0-2c0-0.7,0.1-1.4,0.2-2.1c0.1-0.7,0.2-1.3,0.3-1.8c0.1-0.5,0.3-0.8,0.5-1
			c0.4-0.2,0.8-0.4,1.2-0.4c0.3,0,0.6,0,0.8,0c0.1,0,0.3,0,0.5,0c0.2,0,0.5,0.1,0.7,0.2c0.2,0.1,0.5,0.3,0.6,0.6
			c0.2,0.3,0.2,0.7,0.2,1.3c-0.2,1.2-0.3,2-0.4,2.6c-0.1,0.6-0.2,1-0.2,1.4c0,0.2,0.1,0.4,0.2,0.6c0.1,0.2,0.3,0.5,0.4,0.7
			s0.4,0.4,0.7,0.6c0.3,0.2,0.6,0.2,1,0.2c0.8,0,1.5-0.5,2.1-1.3c0.7-0.8,1.1-1.9,1.2-3.2c0-0.2,0.1-0.5,0.1-0.9
			c0-0.4,0.1-0.8,0.2-1.2c0.1-0.4,0.1-0.7,0.2-1c0.1-0.3,0.2-0.5,0.3-0.6c0.2-0.2,0.5-0.3,1-0.4c0.5-0.1,1-0.1,1.3,0
			c0.4,0.1,0.8,0.4,1.3,0.8c0.4,0.5,0.6,1,0.5,1.6c-0.1,0.3-0.1,0.7-0.2,1.2c-0.1,0.5-0.1,1-0.2,1.5c0,0.5,0,1,0,1.5
			c0,0.5,0.1,0.8,0.3,1.1c0.3,0.5,0.8,0.9,1.3,1.1c0.5,0.3,1.3,0.2,2.3-0.3c0.6-0.3,1.1-0.6,1.4-0.9c0.3-0.3,0.5-0.6,0.6-0.9
			c0.2-0.4,0.4-0.8,0.6-1c0.2-0.3,0.3-0.5,0.5-0.7c0.2-0.2,0.3-0.3,0.6-0.3c0.2,0,0.5,0,0.8,0.1c0.3,0.1,0.6,0.4,0.8,1
			C91.5,46.1,91.4,46.7,91.1,47.4L91.1,47.4z"/>
		<path fill="#7C9C95" d="M106.3,47.4c-0.1,0.1-0.3,0.5-0.6,1.1c-0.3,0.6-0.8,1.3-1.6,1.9c-0.7,0.7-1.6,1.3-2.8,1.8
			c-1.1,0.5-2.5,0.8-4.2,0.8c-1.6,0-3-0.3-4.1-1c-1.1-0.7-2-1.5-2.6-2.6c-0.6-1.1-1.1-2.3-1.4-3.6c-0.3-1.3-0.4-2.6-0.4-3.9
			c0-0.9,0.1-1.9,0.2-3c0.1-1.1,0.3-2.3,0.5-3.5s0.6-2.4,1-3.6c0.4-1.2,0.9-2.2,1.6-3.2c0.6-0.9,1.4-1.7,2.2-2.2
			c0.9-0.6,1.8-0.8,3-0.8c1,0,1.7,0.2,2.3,0.6c0.6,0.4,1,0.9,1.3,1.5c0.3,0.6,0.5,1.2,0.6,1.8s0.1,1.2,0.1,1.6
			c0,1.4-0.3,2.8-0.9,4.4c-0.6,1.5-1.3,3-2.1,4.5c-0.8,1.4-1.7,2.8-2.5,4c-0.8,1.2-1.5,2.1-2,2.8c0.3,0.9,0.7,1.6,1.3,2.1
			c0.6,0.5,1.4,0.7,2.4,0.7c0.9,0,1.7-0.1,2.4-0.4c0.7-0.3,1.2-0.6,1.6-0.9c0.4-0.3,0.8-0.7,1-1c0.2-0.3,0.4-0.6,0.4-0.7
			c0.3-0.9,0.7-1.5,1-1.8c0.3-0.3,0.8-0.4,1.5-0.2c0.3,0.1,0.6,0.4,0.7,0.9C106.6,46,106.5,46.6,106.3,47.4L106.3,47.4z M97.1,30
			c-0.2,0-0.5,0.1-0.8,0.2c-0.3,0.1-0.6,0.5-0.8,0.9c-0.3,0.5-0.5,1.2-0.7,2.1c-0.2,0.9-0.4,2.1-0.6,3.6c-0.1,0.8-0.2,1.6-0.2,2.4
			c-0.1,0.8-0.1,1.5-0.1,2.3c0.3-0.4,0.6-0.9,0.9-1.5c0.3-0.6,0.7-1.2,1-1.8s0.6-1.2,0.8-1.7c0.2-0.5,0.4-0.9,0.5-1.2
			c0.1-0.3,0.2-0.8,0.4-1.4c0.1-0.6,0.2-1.2,0.3-1.8c0-0.6,0-1.1,0-1.5C97.6,30.3,97.4,30,97.1,30L97.1,30z"/>
		<path fill="#7C9C95" d="M125.7,47.4c-0.2,0.6-0.7,1.2-1.4,1.9c-0.7,0.7-1.5,1.4-2.5,2s-2.3,1.1-3.7,1.5c-1.4,0.4-3.1,0.6-4.8,0.6
			c-1.8,0-3.3-0.2-4.6-0.6c-1.2-0.4-2.2-0.9-3-1.6c-0.8-0.7-1.3-1.5-1.5-2.4c-0.3-0.9-0.3-1.9-0.2-3c0.2-1.3,0.7-2.3,1.4-3.1
			c0.8-0.8,1.6-1.4,2.5-1.9c0.9-0.5,1.9-0.8,2.8-1c0.9-0.2,1.7-0.3,2.2-0.3s1.2,0.1,1.9,0.2c0.7,0.1,1.3,0.3,1.9,0.6
			c0.6,0.3,1.1,0.7,1.5,1.1c0.4,0.5,0.6,1.1,0.6,1.8c0,0.7-0.2,1.4-0.5,2c-0.3,0.6-0.7,1.2-1.3,1.6c-0.5,0.5-1.1,0.9-1.8,1.2
			c-0.7,0.3-1.4,0.6-2.1,0.7c-1.1,0.2-2,0.4-2.7,0.4c0.3,0.3,0.8,0.6,1.3,0.9c0.5,0.2,1.1,0.4,1.8,0.4c1.4,0,2.7-0.2,3.8-0.5
			c1.1-0.3,2.1-0.7,2.8-1.1c0.8-0.4,1.4-0.8,1.8-1.3c0.4-0.4,0.7-0.7,0.7-0.9c0.3-0.9,0.7-1.5,1-1.8c0.3-0.3,0.8-0.4,1.5-0.2
			c0.3,0.1,0.6,0.4,0.7,0.9S125.9,46.7,125.7,47.4z M113.9,44c-0.1-0.3-0.4-0.5-0.7-0.5c-0.4-0.1-0.9,0-1.6,0.2
			c-0.6,0.2-1.1,0.4-1.4,0.9c-0.3,0.4-0.6,0.9-0.7,1.4c0.4,0.1,0.9,0.1,1.5,0.1c0.5,0,1.1-0.1,1.7-0.4c0.6-0.2,1-0.5,1.2-0.8
			C114,44.6,114,44.3,113.9,44z"/>
	</g>
	<g>
		<path fill="#7C9C95" d="M166.1,32.8c0,2.5-0.6,4.8-1.8,6.7c-1.2,2-2.7,3.9-4.6,5.6c-1.6,1.4-3.3,2.7-5.2,3.8s-3.9,2.1-6,2.9
			c-2,0.8-4,1.5-6,1.9c-2,0.5-3.8,0.7-5.4,0.7c-0.9,0-1.6-0.2-2.3-0.5c-0.7-0.3-1.2-0.7-1.7-1.1c-0.5-0.4-0.8-0.9-1.1-1.4
			c-0.2-0.5-0.4-0.8-0.4-1.1c0-0.4,0-1,0-1.9s0.1-1.9,0.1-3.1c0.1-1.2,0.2-2.4,0.3-3.7c0.1-1.3,0.3-2.7,0.4-4
			c0.1-1.3,0.3-2.6,0.4-3.7c0.2-1.2,0.3-2.2,0.5-3.1c-1.9,0.5-3.4,1-4.7,1.6c-1.3,0.5-2.2,0.9-2.6,1.1c-0.2,0.1-0.3,0.1-0.6,0
			c-0.2-0.1-0.4-0.2-0.7-0.4c-0.2-0.2-0.4-0.4-0.6-0.7c-0.2-0.3-0.2-0.5-0.2-0.8c0-1,0.1-1.7,0.3-2.3c0.2-0.6,0.5-1,0.9-1.4
			c0.8-0.4,1.9-0.9,3.3-1.4c1.4-0.5,3-1,4.9-1.5c1.8-0.5,3.8-0.9,5.9-1.3c2.1-0.4,4.2-0.7,6.3-0.9c3.6-0.3,6.8-0.2,9.4,0.4
			c2.6,0.6,4.8,1.4,6.4,2.5c1.7,1.1,2.9,2.2,3.6,3.5C165.6,30.7,166,31.8,166.1,32.8L166.1,32.8z M159.6,33.9
			c-0.1-0.8-0.3-1.6-0.5-2.3c-0.3-0.7-0.8-1.3-1.5-1.8s-1.8-0.9-3.2-1.1c-1.4-0.3-3.2-0.4-5.5-0.4c-1.5,0-3.1,0.1-4.7,0.3
			c-1.6,0.2-3.2,0.4-4.7,0.7c-0.2,0.7-0.4,1.6-0.6,2.7c-0.2,1.1-0.4,2.3-0.6,3.7c-0.2,1.4-0.4,2.8-0.6,4.3c-0.2,1.5-0.4,3.1-0.5,4.6
			c-0.1,1-0.1,1.7-0.1,2.3c0,0.6,0.1,1,0.3,1.3c0.2,0.3,0.5,0.5,0.9,0.6s1,0.1,1.7,0.1c2.2-0.1,4.2-0.5,6-1.1c1.9-0.6,3.5-1.4,5-2.3
			c1.5-0.9,2.8-1.9,3.9-3c1.1-1.1,2-2.2,2.8-3.2c0.7-1.1,1.3-2.1,1.6-3.1C159.5,35.4,159.6,34.6,159.6,33.9L159.6,33.9z"/>
	</g>
	<g>
		<path fill="#7C9C95" d="M184.8,47.4c-0.2,0.6-0.7,1.2-1.4,1.9c-0.7,0.7-1.5,1.4-2.5,2c-1,0.6-2.3,1.1-3.7,1.5
			c-1.4,0.4-3.1,0.6-4.8,0.6c-1.8,0-3.3-0.2-4.6-0.6c-1.2-0.4-2.2-0.9-3-1.6c-0.8-0.7-1.3-1.5-1.5-2.4c-0.3-0.9-0.3-1.9-0.2-3
			c0.2-1.3,0.7-2.3,1.4-3.1c0.8-0.8,1.6-1.4,2.5-1.9s1.9-0.8,2.8-1c0.9-0.2,1.7-0.3,2.2-0.3c0.6,0,1.2,0.1,1.9,0.2
			c0.7,0.1,1.3,0.3,1.9,0.6c0.6,0.3,1.1,0.7,1.5,1.1s0.6,1.1,0.6,1.8c0,0.7-0.2,1.4-0.5,2c-0.3,0.6-0.7,1.2-1.3,1.6
			c-0.5,0.5-1.1,0.9-1.8,1.2s-1.4,0.6-2.1,0.7c-1.1,0.2-2,0.4-2.7,0.4c0.3,0.3,0.8,0.6,1.3,0.9s1.1,0.4,1.8,0.4
			c1.4,0,2.7-0.2,3.8-0.5c1.1-0.3,2.1-0.7,2.8-1.1c0.8-0.4,1.4-0.8,1.8-1.3c0.4-0.4,0.7-0.7,0.7-0.9c0.3-0.9,0.7-1.5,1-1.8
			c0.3-0.3,0.8-0.4,1.5-0.2c0.3,0.1,0.6,0.4,0.7,0.9S185.1,46.7,184.8,47.4z M173,44c-0.1-0.3-0.4-0.5-0.7-0.5
			c-0.4-0.1-0.9,0-1.6,0.2c-0.6,0.2-1.1,0.4-1.4,0.9c-0.3,0.4-0.6,0.9-0.7,1.4c0.4,0.1,0.9,0.1,1.5,0.1c0.5,0,1.1-0.1,1.7-0.4
			c0.6-0.2,1-0.5,1.2-0.8C173.1,44.6,173.2,44.3,173,44z"/>
		<path fill="#7C9C95" d="M196.2,47.4L196.2,47.4c0,1.1-0.3,2-0.8,2.7c-0.5,0.7-1,1.2-1.6,1.6c-0.6,0.4-1.2,0.6-1.8,0.8
			c-0.6,0.1-0.9,0.2-1.1,0.2s-0.5,0-1,0s-1.1,0-1.8-0.1c-0.7-0.1-1.4-0.3-2.3-0.6c-0.8-0.3-1.6-0.8-2.4-1.4
			c-0.3-0.2-0.5-0.6-0.5-0.9c-0.2,0-0.3-0.1-0.5-0.3c-0.3-0.3-0.4-0.8-0.4-1.4c0.1-0.6,0.3-1.3,0.6-2c0.2-0.5,0.4-0.9,0.6-1.2
			c0.2-0.3,0.3-0.6,0.4-0.8c0.1-0.2,0.2-0.5,0.3-0.7c0.1-0.2,0.2-0.6,0.3-1c-0.3-0.4-0.5-0.9-0.5-1.3c0-0.4,0-0.8,0-1
			c0-0.2,0.1-0.4,0.2-0.7c0.1-0.3,0.3-0.6,0.5-0.8c0.2-0.3,0.5-0.5,0.7-0.7c0.3-0.2,0.6-0.3,0.9-0.3c0.3,0,0.6,0.1,0.9,0.2
			c0.2,0.1,0.4,0.3,0.6,0.5s0.3,0.4,0.4,0.5c0.1,0.2,0.1,0.3,0.2,0.4c0.1,0.2,0.2,0.4,0.3,0.7c0.1,0.3,0.4,0.5,0.7,0.7
			c0.1,0.1,0.3,0.2,0.7,0.3c0.4,0.2,0.9,0.4,1.4,0.7c0.5,0.3,1.1,0.6,1.7,1c0.6,0.4,1.1,0.8,1.6,1.3c0.5,0.5,0.9,1.1,1.2,1.7
			C196,46,196.2,46.7,196.2,47.4z M191,47.4L191,47.4c0.1-0.5,0-0.8-0.2-1.1c-0.2-0.3-0.6-0.6-1-0.9c-0.4-0.3-0.9-0.5-1.4-0.7
			c-0.5-0.2-1.1-0.4-1.6-0.6c-0.2,0.8-0.3,1.6-0.5,2.4c-0.2,0.7-0.5,1.3-0.8,1.7l-0.1,0.2c0.2,0,0.3,0.1,0.5,0.1
			c0.2,0,0.3,0.1,0.5,0.2c0.5,0.1,0.9,0.2,1.4,0.3c0.5,0.1,1,0.1,1.4,0c0.5-0.1,0.8-0.2,1.2-0.5C190.7,48.2,190.9,47.8,191,47.4z"/>
		<path fill="#7C9C95" d="M211,47.4c-0.1,0.2-0.2,0.6-0.4,1.2c-0.2,0.7-0.5,1.4-1,2.1c-0.5,0.7-1.2,1.4-2.1,1.9
			c-0.9,0.6-2.1,0.8-3.6,0.8c-1.3,0-2.4-0.2-3.2-0.6c-0.8-0.4-1.5-0.9-2-1.4c-0.5-0.6-0.8-1.2-1-2c-0.2-0.7-0.3-1.4-0.4-2.1
			c0-0.7,0-1.4,0-2c0-0.6,0-1.2,0-1.7c0-1.3,0.2-2.2,0.7-2.6c0.5-0.4,1.1-0.6,2-0.6c0.4,0,0.7,0.1,1,0.2c0.3,0.2,0.5,0.3,0.7,0.6
			c0.2,0.2,0.4,0.4,0.5,0.7c0.1,0.2,0.2,0.4,0.2,0.5c0,0.3,0,0.8-0.1,1.3c0,0.5-0.1,1.1-0.2,1.8c0,0.3,0,0.8,0,1.2
			c0,0.5,0.1,0.9,0.2,1.4c0.1,0.5,0.3,0.8,0.6,1.2c0.3,0.3,0.7,0.5,1.2,0.6c0.6,0.1,1.1,0,1.5-0.3c0.5-0.3,0.8-0.6,1.2-1
			c0.3-0.4,0.6-0.8,0.8-1.1c0.2-0.4,0.3-0.6,0.3-0.8c0.2-0.9,0.6-1.5,0.9-1.8c0.4-0.3,0.9-0.4,1.6-0.2c0.3,0.1,0.6,0.4,0.7,0.9
			C211.2,46,211.2,46.6,211,47.4L211,47.4z M204.9,32.3c0,0.1,0,0.4-0.1,0.7c-0.1,0.3-0.2,0.7-0.5,1.1c-0.2,0.4-0.6,0.7-1.1,0.9
			c-0.5,0.3-1.2,0.4-2,0.3c-0.9-0.1-1.6-0.2-2.1-0.5c-0.5-0.3-0.9-0.6-1.2-0.9c-0.3-0.4-0.5-0.7-0.6-1.1c-0.1-0.4-0.1-0.7-0.1-1.1
			c0-0.3,0-0.6,0.1-1c0.1-0.4,0.2-0.7,0.4-1c0.2-0.3,0.5-0.6,0.9-0.8c0.4-0.2,0.9-0.3,1.6-0.3c1,0,1.9,0.2,2.5,0.5
			c0.6,0.3,1.1,0.7,1.4,1.2c0.3,0.4,0.5,0.9,0.6,1.3C204.9,31.9,204.9,32.2,204.9,32.3z"/>
		<path fill="#7C9C95" d="M231.8,47.4c-0.5,1-1,1.9-1.6,2.7c-0.6,0.8-1.2,1.5-1.8,2.1c-0.6,0.6-1.3,1.2-2,1.7c-0.7,0.5-1.4,1-2,1.4
			c-0.4,0.2-0.7,0.5-1,0.7c-0.3,0.2-0.7,0.4-1,0.6c-0.1,0.7-0.1,1.5-0.2,2.4c-0.1,0.9-0.2,1.8-0.4,2.6c-0.2,0.9-0.4,1.6-0.7,2.4
			s-0.7,1.3-1.2,1.8c-1.1,0.9-2.2,1.5-3.2,1.8c-1.1,0.3-1.9,0.4-2.6,0.4c-0.3,0-0.8-0.1-1.5-0.3c-0.7-0.2-1.4-0.5-2.1-0.9
			c-0.7-0.4-1.3-1-1.8-1.8c-0.5-0.7-0.8-1.6-0.8-2.7c0-0.9,0.2-1.6,0.5-2.3c0.4-0.7,0.8-1.3,1.3-1.8c0.5-0.5,1-0.9,1.5-1.2
			c0.5-0.3,1-0.5,1.3-0.7c0.3-0.1,1-0.4,2-0.7c1-0.4,2.2-0.8,3.5-1.3c0-0.2,0-0.4,0-0.4c0-0.3,0.1-0.6,0.1-1.1
			c0-0.4,0.1-0.9,0.1-1.4c-1.2,0.7-2.3,1.2-3.4,1.5c-1.1,0.3-1.9,0.5-2.4,0.5c-0.4,0-0.9-0.1-1.6-0.3s-1.4-0.5-2.1-0.9
			c-0.7-0.5-1.3-1.1-1.8-1.8c-0.5-0.8-0.8-1.7-0.8-2.9c0-1.2,0.3-2.2,0.8-3c0.6-0.9,1.3-1.6,2.1-2.1c0.9-0.6,1.8-1,2.9-1.2
			c1.1-0.3,2.1-0.4,3-0.3c0.9,0,1.7,0.1,2.4,0.3c0.7,0.1,1.3,0.3,1.9,0.5c0.2-0.6,0.3-1,0.5-1.3c0.2-0.3,0.5-0.5,0.9-0.5
			c0.7-0.1,1.4,0,1.9,0.3c0.6,0.3,1,0.6,1.2,1c0.2,0.4,0.3,0.8,0.1,1.3c-0.2,0.5-0.4,1.2-0.6,2.3c0,0.1,0,0.3-0.1,0.6
			c-0.2,0.5-0.3,1-0.5,1.3c-0.2,0.6-0.3,1.5-0.3,2.5c0,1.1-0.1,2.2-0.2,3.3c0.9-0.4,1.7-0.9,2.5-1.4c0.7-0.5,1.3-0.9,1.7-1.4
			c0.3-0.4,0.7-0.9,1.1-1.3c0.4-0.4,0.7-1,1.1-1.7c0.2-0.4,0.4-0.8,0.6-1.1c0.2-0.3,0.3-0.5,0.5-0.7c0.2-0.2,0.3-0.3,0.6-0.3
			c0.2,0,0.5,0,0.8,0.1c0.2,0,0.3,0.1,0.4,0.3c0.1,0.2,0.2,0.4,0.3,0.7c0.1,0.3,0.1,0.6,0.1,0.9C232.1,46.8,232,47.1,231.8,47.4
			L231.8,47.4z M218.5,45.4c-0.3-0.1-0.7-0.2-1.1-0.4c-0.4-0.1-0.9-0.2-1.4-0.2c-0.8,0-1.5,0.1-2.1,0.4c-0.6,0.3-1.1,0.6-1.5,1
			c-0.4,0.4-0.6,0.8-0.7,1.2c-0.1,0.4,0,0.8,0.2,1c0.2,0.3,0.6,0.4,1.2,0.5c0.6,0,1.1,0,1.8-0.2c0.6-0.2,1.2-0.4,1.7-0.8
			c0.5-0.4,0.9-0.8,1.2-1.3c0.1-0.2,0.2-0.5,0.4-0.7C218.3,45.9,218.4,45.7,218.5,45.4L218.5,45.4z M217.9,58.7
			c-0.6,0.2-1.2,0.4-1.8,0.7c-0.6,0.2-1.4,0.5-2.2,0.7c-0.5,0.2-0.9,0.4-1.2,0.7c-0.3,0.3-0.5,0.6-0.7,1c-0.1,0.3-0.1,0.7,0,1.1
			c0.1,0.4,0.4,0.7,0.8,1c0.4,0.2,0.7,0.4,1,0.4c0.3,0,0.6,0,0.9-0.1c0.3-0.1,0.5-0.2,0.7-0.4c0.2-0.2,0.4-0.3,0.6-0.5
			c0.5-0.5,0.9-1.1,1.2-1.9C217.5,60.4,217.7,59.6,217.9,58.7z"/>
		<path fill="#7C9C95" d="M251.7,47.4c-0.2,0.6-0.5,1.1-0.9,1.7c-0.4,0.6-0.8,1.1-1.3,1.6c-0.5,0.5-1.2,0.9-1.9,1.2
			c-0.8,0.3-1.6,0.5-2.6,0.5c-1,0-1.9-0.2-2.6-0.6c-0.7-0.4-1.2-0.8-1.7-1.3c-0.4-0.5-0.8-1-1-1.5c-0.2-0.5-0.4-0.9-0.5-1.1
			c-0.1-0.2-0.2-0.5-0.3-0.9c-0.1-0.3-0.1-0.7-0.2-1c-0.1-0.3-0.1-0.6-0.2-0.8c-0.1-0.2-0.1-0.4-0.2-0.4c-0.1,0-0.2,0-0.4,0.2
			c-0.2,0.2-0.3,0.4-0.5,0.7c-0.2,0.3-0.3,0.6-0.5,0.9c-0.2,0.3-0.3,0.5-0.4,0.7c-0.1,0.2-0.2,0.4-0.4,0.7c-0.2,0.3-0.3,0.7-0.5,1
			c-0.1,0.4-0.3,0.7-0.4,1.1s-0.2,0.6-0.2,0.7c-0.1,0.3-0.2,0.6-0.5,0.9c-0.3,0.3-0.5,0.4-0.7,0.4c-0.2,0-0.4,0-0.9,0
			c-0.4,0-1-0.3-1.8-0.7c-0.4-0.2-0.7-0.8-0.9-1.7s-0.4-1.9-0.5-2.9s-0.2-2-0.2-3c0-1,0-1.6,0-2.1c-0.1-1.6,0.8-2.2,2.6-2
			c0.5,0.1,0.8,0.2,1.1,0.5c0.3,0.2,0.5,0.5,0.7,0.7c0.2,0.3,0.3,0.6,0.3,0.8c0,0.3,0.1,0.5,0.1,0.6c0.1,0.7,0.2,1,0.3,1
			c0,0,0.1-0.1,0.3-0.3c0.2-0.2,0.4-0.5,0.6-0.7c0.2-0.3,0.5-0.6,0.8-1c0.3-0.4,0.6-0.7,0.9-1c0.3-0.3,0.7-0.5,1.1-0.6
			c0.4-0.1,0.9-0.2,1.3-0.3c0.5,0,0.9,0,1.3,0c0.4,0,0.8,0.1,1.1,0.2c0.3,0.1,0.6,0.3,0.7,0.7c0.2,0.3,0.3,0.7,0.4,1.1
			c0.1,0.5,0.1,0.9,0.1,1.5c0,0.5,0,1.1,0,1.7s0,1.1,0,1.6c0,0.5,0.1,0.9,0.2,1.3c0.1,0.4,0.3,0.6,0.6,0.9c0.3,0.2,0.6,0.3,1,0.3
			c0.9,0,1.6-0.2,2.2-0.7c0.5-0.4,0.9-0.9,1.1-1.5c0.3-0.9,0.6-1.5,0.9-1.8c0.3-0.3,0.8-0.4,1.5-0.2c0.2,0,0.3,0.2,0.4,0.4
			c0.1,0.2,0.2,0.5,0.3,0.7c0,0.3,0.1,0.6,0,0.9C251.8,46.9,251.7,47.1,251.7,47.4L251.7,47.4z"/>
		<path fill="#7C9C95" d="M263,47.4L263,47.4c0,1.1-0.3,2-0.8,2.7c-0.5,0.7-1,1.2-1.6,1.6c-0.6,0.4-1.2,0.6-1.8,0.8
			c-0.6,0.1-0.9,0.2-1.1,0.2s-0.5,0-1,0s-1.1,0-1.8-0.1c-0.7-0.1-1.4-0.3-2.3-0.6c-0.8-0.3-1.6-0.8-2.4-1.4
			c-0.3-0.2-0.5-0.6-0.5-0.9c-0.2,0-0.3-0.1-0.5-0.3c-0.3-0.3-0.4-0.8-0.4-1.4c0.1-0.6,0.3-1.3,0.6-2c0.2-0.5,0.4-0.9,0.6-1.2
			c0.2-0.3,0.3-0.6,0.4-0.8c0.1-0.2,0.2-0.5,0.3-0.7c0.1-0.2,0.2-0.6,0.3-1c-0.3-0.4-0.5-0.9-0.5-1.3c0-0.4,0-0.8,0-1
			c0-0.2,0.1-0.4,0.2-0.7c0.1-0.3,0.3-0.6,0.5-0.8c0.2-0.3,0.5-0.5,0.7-0.7c0.3-0.2,0.6-0.3,0.9-0.3c0.3,0,0.6,0.1,0.9,0.2
			c0.2,0.1,0.4,0.3,0.6,0.5s0.3,0.4,0.4,0.5c0.1,0.2,0.1,0.3,0.2,0.4c0.1,0.2,0.2,0.4,0.3,0.7c0.1,0.3,0.4,0.5,0.7,0.7
			c0.1,0.1,0.3,0.2,0.7,0.3c0.4,0.2,0.9,0.4,1.4,0.7c0.5,0.3,1.1,0.6,1.7,1c0.6,0.4,1.1,0.8,1.6,1.3c0.5,0.5,0.9,1.1,1.2,1.7
			C262.9,46,263,46.7,263,47.4z M257.9,47.4L257.9,47.4c0.1-0.5,0-0.8-0.2-1.1c-0.2-0.3-0.6-0.6-1-0.9c-0.4-0.3-0.9-0.5-1.4-0.7
			c-0.5-0.2-1.1-0.4-1.6-0.6c-0.2,0.8-0.3,1.6-0.5,2.4c-0.2,0.7-0.5,1.3-0.8,1.7l-0.1,0.2c0.2,0,0.3,0.1,0.5,0.1
			c0.2,0,0.3,0.1,0.5,0.2c0.5,0.1,0.9,0.2,1.4,0.3c0.5,0.1,1,0.1,1.4,0c0.5-0.1,0.8-0.2,1.2-0.5C257.6,48.2,257.8,47.8,257.9,47.4z"
			/>
	</g>
</g>
</svg>
