<?xml version="1.0" encoding="utf-8"?>
<!-- Generator: Adobe Illustrator 16.0.3, SVG Export Plug-In . SVG Version: 6.00 Build 0)  -->
<!DOCTYPE svg PUBLIC "-//W3C//DTD SVG 1.1//EN" "http://www.w3.org/Graphics/SVG/1.1/DTD/svg11.dtd">
<svg version="1.1" id="Layer_1" xmlns="http://www.w3.org/2000/svg" xmlns:xlink="http://www.w3.org/1999/xlink" x="0px" y="0px"
	 width="18px" height="18px" viewBox="2 2 18 18" enable-background="new 2 2 18 18" xml:space="preserve">
<g>
	<path fill="#AAAAAA" d="M10.773,4.851c-3.255,0-5.894,2.639-5.894,5.893c0,3.256,2.639,5.895,5.894,5.895
		c1.036,0,2.009-0.269,2.855-0.738c0.075-0.155,0.128-0.331,0.141-0.542c0.087-1.549-1.412-2.833-2.271-3.69
		c1.654,0.231,3.153,1.475,3.375,3.31c1.106-1.071,1.795-2.571,1.795-4.233C16.667,7.489,14.028,4.851,10.773,4.851z M7.665,6.841
		c2.496-0.035,3.692,1.229,3.407,3.975C8.826,10.646,7.179,9.507,7.665,6.841z M6.601,13.441c0.463-1.85,2.845-3.064,4.613-1.633
		C10.937,13.622,8.575,14.625,6.601,13.441z M11.64,11.241c-0.302-2.621,1.098-3.539,3.265-3.69
		C15.177,10.142,14.026,11.309,11.64,11.241z"/>
	<path fill="#AAAAAA" d="M11,3c-4.411,0-8,3.589-8,8s3.589,8,8,8s8-3.589,8-8S15.412,3,11,3z M14.661,16.987
		c-0.162,0.434-0.475,0.915-1.077,1.062c-0.381,0.092-0.564-0.1-0.654-0.306c-0.613,0.174-1.261,0.27-1.93,0.27
		c-3.89,0-7.042-3.153-7.042-7.042c0-3.89,3.153-7.043,7.042-7.043s7.042,3.153,7.042,7.043
		C18.042,13.519,16.688,15.751,14.661,16.987z"/>
</g>
</svg>
