<?xml version="1.0" encoding="utf-8"?>
<!-- Generator: Adobe Illustrator 16.0.3, SVG Export Plug-In . SVG Version: 6.00 Build 0)  -->
<!DOCTYPE svg PUBLIC "-//W3C//DTD SVG 1.1//EN" "http://www.w3.org/Graphics/SVG/1.1/DTD/svg11.dtd">
<svg version="1.1" id="Layer_1" xmlns="http://www.w3.org/2000/svg" xmlns:xlink="http://www.w3.org/1999/xlink" x="0px" y="0px"
	 width="235px" height="55px" viewBox="0 0 235 55" enable-background="new 0 0 235 55" xml:space="preserve">
<filter  id="AI_GaussianBlur_4">
	<feGaussianBlur  stdDeviation="2"></feGaussianBlur>
</filter>
<g id="SouleDesigns_3_" filter="url(#AI_GaussianBlur_4)">
	<path fill="#788965" d="M36.113,16.952c-0.318,0.239-0.676,0.425-1.074,0.557c-0.213,0.159-0.372,0.332-0.478,0.518
		c-0.106,0.159-0.186,0.345-0.239,0.557c-0.053,0.213-0.014,0.438,0.119,0.677c0.239,0.478,0.478,0.783,0.717,0.916
		c0.239,0.133,0.703,0.079,1.394-0.16c0.424-0.132,0.955-0.298,1.592-0.498c0.637-0.199,1.254-0.498,1.851-0.896
		c0.597-0.398,1.115-0.929,1.552-1.592c0.438-0.663,0.657-1.526,0.657-2.587c0-1.061-0.279-1.917-0.836-2.567
		s-1.321-1.161-2.289-1.533c-0.969-0.371-2.097-0.623-3.384-0.756c-1.287-0.132-2.646-0.199-4.08-0.199
		c-1.035,0-2.329,0.086-3.881,0.259c-1.552,0.173-3.204,0.444-4.956,0.815c-1.752,0.373-3.503,0.85-5.255,1.433
		c-1.751,0.584-3.331,1.274-4.737,2.07c-1.407,0.796-2.555,1.712-3.443,2.747c-0.889,1.035-1.334,2.176-1.334,3.423
		c0,1.009,0.597,1.871,1.792,2.587c1.194,0.717,2.7,1.348,4.518,1.891c1.818,0.544,3.775,1.035,5.872,1.473
		c2.096,0.438,4.054,0.875,5.872,1.313c1.817,0.438,3.324,0.902,4.518,1.393c1.194,0.491,1.791,1.082,1.791,1.771
		c0,0.292-0.159,0.544-0.478,0.756c-0.319,0.212-0.723,0.392-1.214,0.537c-0.491,0.146-1.028,0.266-1.612,0.358
		c-0.584,0.093-1.148,0.159-1.692,0.199c-0.544,0.04-1.022,0.066-1.433,0.079c-0.412,0.014-0.697,0.02-0.856,0.02
		c-1.513-0.026-2.925-0.099-4.239-0.219c-1.313-0.119-2.481-0.259-3.502-0.418c-1.022-0.159-1.865-0.325-2.528-0.498
		c-0.664-0.171-1.102-0.298-1.313-0.378c-0.213-0.105-0.465-0.185-0.756-0.239c-0.292-0.052-0.578-0.066-0.856-0.04
		c-0.279,0.027-0.531,0.106-0.756,0.238c-0.226,0.133-0.392,0.333-0.498,0.598c-0.106,0.292-0.133,0.544-0.08,0.756
		c0.053,0.212,0.152,0.404,0.298,0.578c0.146,0.172,0.318,0.332,0.518,0.477c0.199,0.147,0.392,0.286,0.577,0.419
		c0.265,0.185,0.836,0.423,1.711,0.716c0.876,0.292,1.957,0.577,3.245,0.856c1.287,0.279,2.747,0.518,4.379,0.717
		c1.632,0.198,3.323,0.298,5.075,0.298c1.777,0,3.429-0.16,4.956-0.478c1.525-0.318,2.846-0.757,3.96-1.313
		c1.115-0.557,1.997-1.201,2.647-1.931c0.65-0.729,0.988-1.493,1.015-2.289c0.026-0.822-0.305-1.565-0.995-2.229
		c-0.69-0.663-1.606-1.274-2.747-1.832c-1.142-0.557-2.448-1.067-3.921-1.532c-1.473-0.464-2.985-0.902-4.538-1.313
		c-1.553-0.412-3.065-0.797-4.538-1.155c-1.473-0.358-2.786-0.71-3.941-1.055c-1.154-0.344-2.083-0.697-2.786-1.055
		c-0.704-0.358-1.055-0.723-1.055-1.095c0-0.424,0.292-0.842,0.875-1.253c0.583-0.411,1.347-0.803,2.289-1.175
		c0.941-0.371,1.99-0.709,3.145-1.015c1.154-0.305,2.309-0.577,3.463-0.816c1.154-0.239,2.249-0.424,3.284-0.557
		c1.035-0.132,1.884-0.225,2.548-0.279c0.928-0.053,1.831-0.093,2.707-0.119c0.876-0.026,1.646-0.006,2.309,0.06
		c0.663,0.066,1.194,0.199,1.592,0.398c0.398,0.199,0.597,0.498,0.597,0.896c0,0.372-0.113,0.703-0.339,0.995
		C36.664,16.527,36.405,16.767,36.113,16.952z"/>
	<path fill="#788965" d="M108.197,27.469c-0.584-0.132-1.002-0.073-1.254,0.179c-0.253,0.253-0.524,0.763-0.816,1.533
		c-0.053,0.159-0.265,0.425-0.637,0.796c-0.372,0.372-0.883,0.737-1.533,1.095c-0.65,0.358-1.453,0.67-2.408,0.936
		c-0.956,0.266-2.044,0.398-3.265,0.398c-0.557,0-1.055-0.099-1.493-0.298s-0.803-0.444-1.095-0.736c0.61,0,1.379-0.106,2.309-0.319
		c0.637-0.132,1.247-0.338,1.831-0.616c0.583-0.279,1.101-0.624,1.552-1.036c0.451-0.411,0.809-0.875,1.075-1.393
		c0.265-0.518,0.398-1.081,0.398-1.691s-0.173-1.115-0.518-1.513c-0.345-0.398-0.776-0.717-1.294-0.956
		c-0.517-0.239-1.068-0.411-1.652-0.518c-0.584-0.106-1.115-0.16-1.592-0.16s-1.115,0.074-1.911,0.22s-1.592,0.418-2.389,0.815
		c-0.796,0.398-1.52,0.943-2.169,1.633c-0.504,0.534-0.856,1.19-1.065,1.963c-0.227,0.282-0.462,0.734-0.707,1.38
		c-0.053,0.08-0.172,0.266-0.358,0.557c-0.186,0.292-0.464,0.584-0.836,0.876c-0.372,0.292-0.836,0.557-1.393,0.796
		s-1.234,0.358-2.03,0.358c-0.876,0-1.566-0.212-2.07-0.637c-0.504-0.424-0.876-1.021-1.115-1.791
		c0.398-0.558,0.956-1.347,1.672-2.368c0.717-1.021,1.426-2.149,2.13-3.384c0.703-1.233,1.307-2.508,1.811-3.821
		c0.504-1.313,0.756-2.554,0.756-3.722c0-0.345-0.04-0.789-0.12-1.333c-0.08-0.543-0.245-1.068-0.498-1.572
		c-0.252-0.504-0.63-0.936-1.134-1.293c-0.504-0.358-1.168-0.538-1.99-0.538c-0.956,0-1.798,0.239-2.528,0.717
		c-0.73,0.478-1.36,1.114-1.891,1.911c-0.531,0.796-0.976,1.692-1.333,2.687c-0.358,0.995-0.637,2.01-0.836,3.045
		c-0.199,1.035-0.345,2.037-0.438,3.005c-0.093,0.969-0.139,1.825-0.139,2.568c0,0.839,0.064,1.683,0.192,2.531
		c-0.107,0.125-0.217,0.275-0.332,0.474c-0.146,0.253-0.313,0.552-0.498,0.896c-0.106,0.239-0.286,0.498-0.538,0.776
		s-0.644,0.538-1.174,0.776c-0.875,0.398-1.532,0.485-1.97,0.259c-0.438-0.226-0.803-0.551-1.095-0.976
		c-0.133-0.212-0.212-0.517-0.239-0.915c-0.026-0.398-0.026-0.817,0-1.254c0.027-0.438,0.073-0.869,0.14-1.294
		c0.066-0.424,0.126-0.769,0.179-1.035c0.08-0.531-0.066-0.995-0.438-1.393c-0.372-0.398-0.73-0.637-1.075-0.716
		c-0.318-0.08-0.696-0.08-1.134,0c-0.438,0.08-0.736,0.186-0.896,0.318c-0.08,0.079-0.16,0.245-0.239,0.497
		c-0.079,0.253-0.146,0.545-0.199,0.876c-0.053,0.332-0.1,0.664-0.14,0.995c-0.04,0.333-0.073,0.591-0.099,0.777
		c-0.133,1.114-0.478,2.017-1.035,2.707c-0.558,0.69-1.168,1.048-1.831,1.075c-0.318,0-0.604-0.066-0.856-0.199
		c-0.252-0.132-0.458-0.299-0.617-0.498s-0.286-0.398-0.378-0.597c-0.094-0.199-0.14-0.378-0.14-0.538
		c0-0.345,0.046-0.756,0.14-1.233c0.092-0.478,0.205-1.208,0.338-2.189c0.053-0.478,0.006-0.842-0.14-1.095
		c-0.146-0.252-0.325-0.431-0.537-0.538c-0.212-0.105-0.418-0.165-0.617-0.179c-0.199-0.013-0.338-0.02-0.418-0.02
		c-0.16-0.026-0.385-0.026-0.677,0c-0.292,0.026-0.624,0.146-0.995,0.358c-0.186,0.133-0.338,0.412-0.458,0.836
		c-0.092,0.329-0.168,0.703-0.229,1.119c-0.15,0.135-0.306,0.28-0.467,0.434c-0.213,0.213-0.478,0.365-0.796,0.458
		c-0.318,0.093-0.657,0.146-1.015,0.159c-0.358,0.014-0.704-0.006-1.035-0.059c-0.333-0.054-0.591-0.12-0.776-0.2
		c-0.292-0.132-0.518-0.272-0.677-0.418c-0.159-0.145-0.306-0.285-0.438-0.418c-0.106-0.265-0.292-0.543-0.557-0.835
		c-0.451-0.531-1.221-1.035-2.309-1.513c-0.318-0.133-0.717-0.272-1.194-0.418s-1.048-0.219-1.711-0.219
		c-1.089,0-2.097,0.179-3.025,0.537c-0.929,0.358-1.739,0.823-2.428,1.394c-0.69,0.571-1.234,1.208-1.632,1.911
		c-0.398,0.704-0.598,1.387-0.598,2.05c0,0.69,0.106,1.353,0.318,1.99c0.212,0.638,0.558,1.202,1.036,1.692
		c0.478,0.491,1.108,0.89,1.891,1.194c0.782,0.305,1.731,0.458,2.846,0.458c1.008,0,1.943-0.12,2.807-0.359
		c0.861-0.238,1.631-0.55,2.309-0.935c0.677-0.385,1.234-0.822,1.672-1.314c0.438-0.491,0.736-0.989,0.895-1.493
		c0.743,0.026,1.434-0.02,2.07-0.14c0.638-0.119,1.181-0.245,1.632-0.377c0.348-0.1,0.667-0.228,0.964-0.38
		c-0.005,0.228-0.008,0.451-0.008,0.658c0,0.505,0.105,1.022,0.318,1.553c0.212,0.531,0.511,1.015,0.896,1.453
		c0.384,0.438,0.849,0.79,1.393,1.055c0.544,0.265,1.161,0.397,1.851,0.397c0.689,0,1.32-0.119,1.891-0.358
		c0.57-0.239,1.055-0.504,1.453-0.796c0.478-0.345,0.902-0.743,1.274-1.194c0.344,0.425,0.756,0.783,1.234,1.075
		c0.398,0.292,0.896,0.543,1.493,0.755c0.597,0.213,1.28,0.318,2.05,0.318c1.061,0,1.983-0.178,2.767-0.537
		c0.782-0.358,1.426-0.769,1.931-1.234c0.368-0.339,0.671-0.674,0.912-1.007c0.085,0.165,0.168,0.331,0.262,0.489
		c0.543,0.916,1.28,1.659,2.209,2.229c0.928,0.57,2.096,0.855,3.502,0.855c1.406,0,2.594-0.233,3.563-0.696
		c0.968-0.464,1.758-0.989,2.368-1.573c0.131-0.125,0.251-0.249,0.367-0.371c0.225,0.363,0.505,0.7,0.848,1.007
		c0.65,0.584,1.506,1.042,2.567,1.374c1.061,0.332,2.361,0.498,3.901,0.498c1.513,0,2.886-0.173,4.12-0.518
		c1.234-0.344,2.295-0.776,3.185-1.293c0.889-0.518,1.612-1.075,2.169-1.672c0.557-0.597,0.941-1.147,1.154-1.652
		c0.212-0.583,0.259-1.115,0.139-1.592C108.695,27.787,108.489,27.522,108.197,27.469z M49.623,30.076
		c-0.279,0.199-0.571,0.352-0.875,0.458c-0.306,0.107-0.584,0.173-0.836,0.2c-0.252,0.027-0.432,0.04-0.537,0.04
		c-0.133,0-0.326-0.006-0.578-0.02c-0.252-0.013-0.504-0.066-0.756-0.159c-0.252-0.093-0.471-0.259-0.657-0.498
		c-0.186-0.239-0.279-0.583-0.279-1.035s0.12-0.836,0.358-1.155s0.511-0.577,0.816-0.776c0.305-0.2,0.617-0.352,0.935-0.458
		c0.319-0.106,0.558-0.16,0.717-0.16c0.133,0,0.252,0,0.358,0c0.105,0,0.239,0.014,0.398,0.041c0.053,0.212,0.112,0.412,0.179,0.597
		c0.066,0.186,0.125,0.372,0.18,0.557c0.159,0.398,0.338,0.716,0.537,0.955c0.199,0.239,0.418,0.425,0.657,0.557l0.04,0.04
		C50.12,29.605,49.901,29.877,49.623,30.076z M81.606,22.991c0.053-0.677,0.12-1.36,0.199-2.05c0.159-1.3,0.338-2.335,0.537-3.105
		c0.199-0.77,0.412-1.36,0.637-1.771c0.225-0.411,0.458-0.677,0.697-0.796c0.239-0.12,0.464-0.179,0.677-0.179h0.04
		c0.212,0,0.345,0.179,0.398,0.538c0.053,0.358,0.06,0.79,0.02,1.293c-0.04,0.504-0.113,1.009-0.219,1.513
		c-0.106,0.504-0.212,0.902-0.318,1.194c-0.08,0.239-0.226,0.583-0.438,1.035c-0.212,0.452-0.451,0.936-0.716,1.453
		c-0.266,0.517-0.544,1.028-0.836,1.532c-0.292,0.505-0.557,0.93-0.796,1.274C81.513,24.312,81.553,23.667,81.606,22.991z
		 M95.34,27.449c0.292-0.358,0.703-0.604,1.234-0.736c0.61-0.159,1.075-0.212,1.393-0.159s0.531,0.199,0.637,0.438
		c0.132,0.239,0.105,0.492-0.08,0.757c-0.186,0.266-0.531,0.504-1.035,0.716c-0.504,0.212-0.989,0.312-1.453,0.298
		c-0.465-0.013-0.882-0.046-1.254-0.1C94.862,28.212,95.047,27.807,95.34,27.449z"/>
	<path fill="#788965" d="M143.136,17.438h-0.04c0-0.822-0.324-1.771-0.975-2.846c-0.651-1.075-1.686-2.063-3.105-2.965
		c-1.42-0.902-3.244-1.612-5.474-2.13c-2.229-0.518-4.896-0.63-8.001-0.338c-1.777,0.159-3.557,0.411-5.333,0.756
		c-1.778,0.345-3.444,0.724-4.996,1.135c-1.553,0.412-2.932,0.836-4.14,1.274c-1.207,0.438-2.143,0.843-2.806,1.214
		c-0.345,0.292-0.61,0.677-0.796,1.154c-0.185,0.478-0.265,1.128-0.239,1.951c0,0.238,0.067,0.471,0.2,0.696
		c0.133,0.226,0.292,0.412,0.478,0.558c0.186,0.146,0.372,0.246,0.557,0.298c0.186,0.053,0.345,0.04,0.478-0.04
		c0.372-0.212,1.108-0.537,2.209-0.975c1.102-0.438,2.448-0.881,4.041-1.333c-0.159,0.743-0.305,1.619-0.438,2.627
		c-0.134,1.009-0.259,2.07-0.378,3.185c-0.12,1.114-0.233,2.243-0.339,3.383c-0.106,1.142-0.186,2.203-0.239,3.185
		c-0.054,0.982-0.086,1.851-0.099,2.607c-0.014,0.756-0.007,1.307,0.02,1.652c0.026,0.213,0.146,0.518,0.358,0.916
		c0.212,0.398,0.511,0.783,0.896,1.154c0.384,0.372,0.862,0.697,1.433,0.976c0.571,0.279,1.227,0.418,1.97,0.418
		c1.38,0,2.912-0.193,4.598-0.578c1.685-0.384,3.396-0.929,5.136-1.631c1.737-0.703,3.43-1.54,5.074-2.508
		c1.646-0.968,3.132-2.05,4.459-3.244c1.645-1.513,2.965-3.111,3.961-4.796C142.599,21.505,143.109,19.587,143.136,17.438z
		 M137.603,18.353c0.054,0.584-0.06,1.288-0.339,2.11c-0.277,0.823-0.729,1.692-1.354,2.607c-0.623,0.916-1.413,1.838-2.368,2.767
		c-0.955,0.929-2.063,1.778-3.323,2.547c-1.261,0.77-2.681,1.413-4.259,1.931c-1.579,0.517-3.298,0.829-5.155,0.935
		c-0.584,0.026-1.055,0-1.413-0.08s-0.617-0.252-0.776-0.518c-0.159-0.265-0.246-0.643-0.259-1.134c-0.014-0.49,0.02-1.147,0.1-1.97
		c0.132-1.3,0.285-2.607,0.458-3.921c0.172-1.313,0.344-2.548,0.518-3.702c0.172-1.154,0.351-2.202,0.537-3.145
		c0.186-0.941,0.358-1.705,0.518-2.289c1.326-0.266,2.666-0.478,4.021-0.637c1.354-0.159,2.68-0.239,3.98-0.239
		c1.963,0,3.528,0.113,4.696,0.338c1.168,0.226,2.07,0.544,2.708,0.956c0.636,0.412,1.067,0.909,1.294,1.493
		c0.225,0.584,0.378,1.234,0.457,1.95H137.603z"/>
	<path fill="#788965" d="M167.334,26.752c-0.425-0.424-0.89-0.796-1.394-1.115s-0.988-0.597-1.453-0.836
		c-0.464-0.239-0.868-0.424-1.214-0.557c-0.345-0.132-0.557-0.226-0.637-0.279c-0.292-0.159-0.497-0.351-0.616-0.577
		c-0.12-0.225-0.207-0.418-0.26-0.578c-0.026-0.079-0.073-0.192-0.14-0.338c-0.066-0.146-0.172-0.298-0.317-0.458
		c-0.146-0.159-0.318-0.292-0.518-0.398c-0.199-0.106-0.444-0.159-0.737-0.159c-0.292,0-0.551,0.086-0.775,0.259
		c-0.227,0.173-0.432,0.372-0.617,0.597c-0.186,0.226-0.325,0.458-0.418,0.696c-0.093,0.239-0.139,0.438-0.139,0.598
		c0,0.212,0.005,0.504,0.02,0.875c0.013,0.372,0.166,0.743,0.458,1.115c-0.08,0.345-0.16,0.617-0.238,0.816
		c-0.081,0.199-0.167,0.398-0.26,0.597c-0.06,0.125-0.128,0.265-0.202,0.411c-0.194,0.033-0.354,0.106-0.474,0.226
		c-0.253,0.253-0.524,0.763-0.816,1.532c-0.054,0.16-0.266,0.425-0.637,0.796c-0.372,0.372-0.882,0.737-1.533,1.095
		c-0.65,0.358-1.452,0.67-2.407,0.935c-0.955,0.266-2.045,0.398-3.265,0.398c-0.558,0-1.055-0.099-1.493-0.298
		c-0.438-0.199-0.802-0.444-1.094-0.736c0.609,0,1.379-0.106,2.309-0.319c0.637-0.133,1.247-0.338,1.831-0.616
		c0.583-0.279,1.101-0.624,1.553-1.036c0.451-0.412,0.809-0.875,1.075-1.393c0.265-0.518,0.397-1.081,0.397-1.692
		c0-0.61-0.173-1.115-0.518-1.513c-0.345-0.397-0.776-0.716-1.293-0.955c-0.519-0.239-1.069-0.412-1.653-0.518
		c-0.583-0.106-1.114-0.16-1.592-0.16s-1.114,0.073-1.91,0.219c-0.797,0.146-1.593,0.418-2.389,0.816
		c-0.797,0.398-1.521,0.942-2.17,1.633c-0.65,0.69-1.055,1.579-1.214,2.667c-0.132,0.929-0.086,1.785,0.14,2.567
		c0.225,0.783,0.663,1.467,1.313,2.05c0.649,0.584,1.506,1.042,2.567,1.374c1.062,0.332,2.361,0.497,3.901,0.497
		c1.512,0,2.886-0.173,4.119-0.517c1.234-0.345,2.296-0.776,3.186-1.294c0.646-0.376,1.201-0.773,1.672-1.191
		c0.046,0.238,0.182,0.445,0.417,0.615c0.663,0.557,1.347,0.961,2.05,1.213c0.703,0.253,1.347,0.418,1.931,0.498
		c0.584,0.079,1.095,0.106,1.532,0.079c0.438-0.026,0.736-0.04,0.896-0.04c0.158,0,0.477-0.06,0.955-0.179
		c0.478-0.12,0.975-0.339,1.492-0.658c0.518-0.318,0.981-0.769,1.394-1.352c0.411-0.584,0.617-1.354,0.617-2.309l0.039,0.04
		c0-0.638-0.14-1.215-0.418-1.731C168.11,27.648,167.758,27.177,167.334,26.752z M145.8,27.449c0.292-0.358,0.702-0.603,1.233-0.736
		c0.61-0.16,1.075-0.212,1.394-0.16c0.318,0.053,0.53,0.199,0.637,0.438c0.133,0.239,0.106,0.491-0.079,0.756
		c-0.187,0.266-0.531,0.505-1.035,0.717c-0.504,0.212-0.989,0.312-1.452,0.298c-0.466-0.013-0.883-0.046-1.255-0.1
		C145.322,28.212,145.507,27.807,145.8,27.449z M164.389,29.817v0.041c-0.079,0.398-0.259,0.703-0.537,0.916
		c-0.279,0.212-0.611,0.345-0.995,0.397c-0.386,0.054-0.79,0.054-1.215,0c-0.425-0.052-0.836-0.132-1.233-0.238
		c-0.159-0.053-0.306-0.1-0.438-0.139c-0.133-0.04-0.266-0.073-0.397-0.1l0.08-0.159c0.291-0.344,0.523-0.836,0.696-1.472
		c0.172-0.637,0.324-1.314,0.457-2.03c0.451,0.159,0.902,0.332,1.354,0.518s0.856,0.392,1.214,0.617
		c0.359,0.225,0.637,0.471,0.836,0.736C164.408,29.167,164.468,29.473,164.389,29.817z"/>
	<path fill="#788965" d="M170.319,18.333c0.239,0.306,0.584,0.571,1.035,0.796c0.451,0.226,1.048,0.365,1.791,0.418
		c0.742,0.053,1.319-0.033,1.731-0.259c0.412-0.225,0.723-0.491,0.936-0.796c0.212-0.305,0.345-0.604,0.397-0.896
		c0.054-0.292,0.081-0.491,0.081-0.597s-0.04-0.332-0.12-0.677c-0.08-0.344-0.253-0.703-0.518-1.075
		c-0.265-0.371-0.663-0.703-1.194-0.995c-0.53-0.292-1.234-0.438-2.109-0.438c-0.585,0-1.049,0.094-1.394,0.279
		c-0.345,0.187-0.61,0.418-0.796,0.697s-0.306,0.571-0.358,0.875c-0.053,0.306-0.079,0.577-0.079,0.816
		c0,0.265,0.039,0.564,0.119,0.895C169.921,17.71,170.08,18.028,170.319,18.333z"/>
	<path fill="#788965" d="M225.43,28.166c-0.278-0.518-0.631-0.989-1.055-1.414c-0.425-0.424-0.89-0.796-1.393-1.115
		c-0.505-0.318-0.989-0.597-1.453-0.836c-0.465-0.239-0.869-0.424-1.215-0.557c-0.344-0.132-0.557-0.226-0.637-0.279
		c-0.292-0.159-0.497-0.351-0.616-0.577c-0.12-0.225-0.206-0.418-0.259-0.578c-0.027-0.079-0.074-0.192-0.14-0.338
		c-0.067-0.146-0.173-0.298-0.318-0.458c-0.146-0.159-0.319-0.292-0.518-0.398c-0.199-0.106-0.444-0.159-0.737-0.159
		c-0.291,0-0.551,0.086-0.775,0.259c-0.226,0.173-0.432,0.372-0.616,0.597c-0.187,0.226-0.326,0.458-0.419,0.696
		c-0.093,0.239-0.139,0.438-0.139,0.598c0,0.212,0.006,0.504,0.02,0.875c0.013,0.372,0.165,0.743,0.457,1.115
		c-0.079,0.345-0.158,0.617-0.238,0.816c-0.08,0.199-0.166,0.398-0.258,0.597c-0.059,0.123-0.126,0.259-0.199,0.402
		c-0.221,0.028-0.401,0.104-0.537,0.234c-0.266,0.253-0.531,0.763-0.797,1.532c-0.158,0.505-0.471,0.942-0.936,1.314
		c-0.464,0.372-1.081,0.557-1.851,0.557c-0.372,0-0.67-0.093-0.896-0.278s-0.393-0.432-0.498-0.737
		c-0.105-0.304-0.173-0.669-0.198-1.095c-0.027-0.424-0.04-0.875-0.04-1.353c0-0.478-0.007-0.949-0.02-1.413
		c-0.014-0.464-0.055-0.889-0.119-1.274c-0.067-0.384-0.174-0.709-0.319-0.975c-0.146-0.265-0.352-0.452-0.617-0.558
		c-0.266-0.08-0.577-0.139-0.936-0.178c-0.358-0.041-0.729-0.047-1.114-0.021c-0.385,0.027-0.756,0.1-1.114,0.219
		c-0.358,0.12-0.671,0.298-0.936,0.538c-0.266,0.239-0.531,0.511-0.797,0.816c-0.265,0.305-0.504,0.584-0.716,0.836
		c-0.213,0.252-0.392,0.464-0.538,0.637c-0.146,0.173-0.232,0.259-0.258,0.259c-0.134,0-0.226-0.292-0.279-0.875
		c0-0.133-0.02-0.312-0.06-0.538c-0.04-0.225-0.126-0.458-0.259-0.697s-0.318-0.451-0.557-0.637
		c-0.239-0.185-0.558-0.318-0.955-0.397c-1.54-0.239-2.283,0.318-2.229,1.672c0,0.345,0.013,0.929,0.039,1.751
		c0.012,0.366,0.033,0.741,0.058,1.119c-0.086,0.119-0.171,0.251-0.256,0.413c-0.134,0.253-0.292,0.564-0.478,0.935
		c-0.319,0.611-0.638,1.089-0.955,1.433c-0.32,0.345-0.625,0.704-0.917,1.075c-0.317,0.372-0.79,0.764-1.413,1.174
		c-0.623,0.411-1.32,0.803-2.089,1.174c0.053-0.981,0.1-1.923,0.14-2.826c0.039-0.902,0.125-1.618,0.258-2.149
		c0.133-0.292,0.266-0.664,0.398-1.115c0.079-0.239,0.119-0.411,0.119-0.518c0.212-0.876,0.391-1.519,0.537-1.93
		s0.113-0.79-0.1-1.134c-0.212-0.345-0.557-0.638-1.034-0.876c-0.478-0.239-1.022-0.319-1.632-0.239
		c-0.372,0.054-0.638,0.206-0.797,0.458c-0.158,0.253-0.305,0.617-0.438,1.095c-0.452-0.186-0.981-0.338-1.593-0.457
		c-0.61-0.12-1.3-0.192-2.069-0.219c-0.823-0.026-1.687,0.073-2.588,0.299c-0.902,0.226-1.726,0.577-2.468,1.054
		c-0.742,0.478-1.354,1.083-1.831,1.812c-0.478,0.73-0.717,1.585-0.717,2.568c0,0.43,0.049,0.821,0.128,1.186
		c-0.232,0.237-0.487,0.452-0.783,0.625c-0.386,0.226-0.817,0.313-1.294,0.259c-0.425-0.053-0.757-0.225-0.995-0.518
		c-0.239-0.292-0.412-0.629-0.519-1.014c-0.105-0.385-0.166-0.783-0.178-1.195c-0.015-0.411-0.008-0.762,0.02-1.054
		c0.053-0.583,0.1-1.095,0.139-1.533c0.04-0.438,0.061-0.802,0.061-1.094c0-0.106-0.048-0.258-0.14-0.458
		c-0.094-0.199-0.233-0.391-0.418-0.577c-0.186-0.186-0.398-0.344-0.637-0.478c-0.239-0.132-0.518-0.198-0.837-0.198
		c-0.77,0-1.347,0.179-1.731,0.538c-0.385,0.358-0.577,1.108-0.577,2.249c0,0.398-0.013,0.869-0.039,1.413
		c-0.027,0.544-0.027,1.122,0,1.731c0.026,0.611,0.125,1.221,0.298,1.832s0.464,1.167,0.876,1.671
		c0.411,0.505,0.975,0.917,1.691,1.234c0.717,0.318,1.633,0.491,2.747,0.518c1.274,0.026,2.302-0.2,3.085-0.677
		c0.347-0.21,0.652-0.438,0.933-0.675c0.111,0.09,0.224,0.179,0.341,0.257c0.57,0.384,1.154,0.649,1.752,0.795
		c0.596,0.146,1.055,0.219,1.373,0.219c0.45,0,1.127-0.133,2.03-0.397c0.901-0.266,1.856-0.69,2.865-1.274
		c-0.053,0.452-0.087,0.863-0.099,1.234c-0.015,0.372-0.034,0.677-0.061,0.916c-0.026,0.053-0.039,0.173-0.039,0.358
		c-1.115,0.452-2.11,0.83-2.985,1.135c-0.876,0.305-1.447,0.511-1.712,0.617c-0.293,0.133-0.664,0.331-1.115,0.597
		c-0.451,0.265-0.89,0.611-1.313,1.036c-0.425,0.424-0.79,0.928-1.095,1.512s-0.458,1.248-0.458,1.99c0,0.93,0.22,1.705,0.657,2.33
		c0.438,0.621,0.948,1.119,1.532,1.492c0.584,0.371,1.168,0.631,1.751,0.775c0.585,0.146,1.01,0.221,1.274,0.221
		c0.558-0.027,1.294-0.154,2.21-0.379c0.915-0.227,1.837-0.736,2.766-1.533c0.425-0.371,0.764-0.869,1.016-1.492
		s0.458-1.301,0.616-2.029c0.16-0.73,0.272-1.475,0.339-2.23c0.065-0.756,0.126-1.439,0.18-2.05
		c0.291-0.133,0.577-0.292,0.855-0.478c0.279-0.186,0.577-0.385,0.896-0.597c0.558-0.372,1.128-0.775,1.712-1.214
		c0.584-0.438,1.147-0.929,1.692-1.473c0.543-0.543,1.06-1.154,1.552-1.831c0.044-0.062,0.087-0.129,0.132-0.193
		c0.168,0.635,0.396,1.04,0.684,1.208c0.664,0.398,1.175,0.611,1.533,0.637c0.357,0.026,0.604,0.026,0.736,0
		c0.133-0.026,0.324-0.152,0.577-0.378c0.252-0.225,0.404-0.483,0.457-0.776c0-0.132,0.054-0.338,0.16-0.617
		c0.105-0.279,0.219-0.578,0.338-0.896c0.119-0.318,0.252-0.617,0.398-0.896c0.146-0.279,0.259-0.484,0.338-0.617
		c0.08-0.133,0.192-0.324,0.339-0.577c0.146-0.252,0.292-0.498,0.438-0.737c0.145-0.239,0.284-0.431,0.417-0.577
		c0.133-0.145,0.238-0.206,0.318-0.179c0.08,0.054,0.146,0.179,0.199,0.378c0.053,0.2,0.105,0.438,0.159,0.716
		c0.053,0.279,0.112,0.564,0.18,0.856c0.066,0.292,0.14,0.544,0.219,0.757c0.079,0.213,0.212,0.538,0.398,0.975
		c0.186,0.438,0.463,0.87,0.836,1.294c0.37,0.424,0.849,0.796,1.433,1.114c0.583,0.318,1.313,0.478,2.188,0.478
		c0.85,0,1.6-0.132,2.25-0.398c0.649-0.265,1.2-0.603,1.652-1.014c0.145-0.132,0.278-0.271,0.408-0.413
		c0.07,0.098,0.154,0.19,0.268,0.273c0.663,0.557,1.347,0.961,2.05,1.213c0.703,0.253,1.347,0.418,1.931,0.498
		c0.583,0.079,1.095,0.106,1.532,0.079c0.438-0.026,0.736-0.04,0.896-0.04s0.479-0.06,0.955-0.179
		c0.479-0.12,0.976-0.339,1.493-0.658c0.519-0.318,0.981-0.769,1.394-1.352c0.411-0.584,0.617-1.354,0.617-2.309l0.039,0.04
		C225.848,29.26,225.709,28.682,225.43,28.166z M186.818,41.699c-0.226,0.678-0.563,1.227-1.015,1.652
		c-0.134,0.133-0.292,0.271-0.478,0.418c-0.187,0.145-0.392,0.258-0.617,0.338s-0.472,0.119-0.736,0.119
		c-0.267,0-0.558-0.105-0.875-0.318c-0.373-0.238-0.612-0.51-0.717-0.816c-0.107-0.305-0.107-0.604,0-0.895
		c0.104-0.293,0.291-0.57,0.557-0.836c0.265-0.266,0.598-0.465,0.996-0.598c0.688-0.238,1.306-0.451,1.85-0.637
		s1.055-0.372,1.532-0.558C187.21,40.313,187.043,41.023,186.818,41.699z M187.834,28.265c-0.08,0.187-0.173,0.378-0.279,0.578
		c-0.106,0.199-0.213,0.404-0.318,0.617c-0.213,0.425-0.551,0.791-1.016,1.095c-0.464,0.305-0.955,0.524-1.472,0.657
		c-0.518,0.134-1.016,0.186-1.493,0.16c-0.479-0.026-0.81-0.16-0.995-0.399c-0.213-0.238-0.272-0.536-0.179-0.896
		c0.092-0.358,0.299-0.709,0.616-1.054c0.318-0.345,0.737-0.638,1.255-0.875c0.517-0.239,1.107-0.359,1.771-0.359
		c0.45,0,0.848,0.047,1.193,0.14c0.345,0.093,0.663,0.192,0.956,0.298L187.834,28.265z M221.43,29.817v0.041
		c-0.08,0.398-0.259,0.703-0.538,0.916c-0.277,0.212-0.61,0.345-0.994,0.397c-0.386,0.054-0.79,0.054-1.214,0
		c-0.426-0.052-0.836-0.132-1.234-0.238c-0.16-0.053-0.306-0.1-0.438-0.139c-0.135-0.04-0.267-0.073-0.399-0.1l0.081-0.159
		c0.291-0.344,0.523-0.836,0.696-1.472c0.172-0.637,0.324-1.314,0.458-2.03c0.45,0.159,0.901,0.332,1.354,0.518
		c0.45,0.186,0.854,0.392,1.213,0.617c0.358,0.225,0.638,0.471,0.836,0.736C221.45,29.167,221.509,29.473,221.43,29.817z"/>
</g>
<g id="SouleDesigns_1_">
	<g>
		<path fill="#788965" d="M37.113,16.891c-0.318,0.239-0.676,0.425-1.074,0.557c-0.213,0.159-0.372,0.332-0.478,0.518
			c-0.106,0.159-0.186,0.345-0.239,0.557c-0.053,0.213-0.014,0.438,0.119,0.677c0.239,0.478,0.478,0.783,0.717,0.916
			c0.239,0.133,0.703,0.079,1.394-0.16c0.424-0.132,0.955-0.298,1.592-0.498c0.637-0.199,1.254-0.498,1.851-0.896
			c0.597-0.398,1.115-0.929,1.552-1.592c0.438-0.663,0.657-1.526,0.657-2.587c0-1.061-0.279-1.917-0.836-2.567
			s-1.321-1.161-2.289-1.533c-0.969-0.371-2.097-0.623-3.384-0.756c-1.287-0.132-2.646-0.199-4.08-0.199
			c-1.035,0-2.329,0.086-3.881,0.259c-1.552,0.173-3.204,0.444-4.956,0.815c-1.752,0.373-3.503,0.85-5.255,1.433
			c-1.751,0.584-3.331,1.274-4.737,2.07c-1.407,0.796-2.555,1.712-3.443,2.747c-0.889,1.035-1.334,2.176-1.334,3.423
			c0,1.009,0.597,1.871,1.792,2.587c1.194,0.717,2.7,1.348,4.518,1.891c1.818,0.544,3.775,1.035,5.872,1.473
			c2.096,0.438,4.054,0.875,5.872,1.313c1.817,0.438,3.324,0.902,4.518,1.393c1.194,0.491,1.791,1.082,1.791,1.771
			c0,0.292-0.159,0.544-0.478,0.756c-0.319,0.212-0.723,0.392-1.214,0.537c-0.491,0.146-1.028,0.266-1.612,0.358
			c-0.584,0.093-1.148,0.159-1.692,0.199c-0.544,0.04-1.022,0.066-1.433,0.079c-0.412,0.014-0.697,0.02-0.856,0.02
			c-1.513-0.026-2.925-0.099-4.239-0.219c-1.313-0.119-2.481-0.259-3.502-0.418c-1.022-0.159-1.865-0.325-2.528-0.498
			c-0.664-0.171-1.102-0.298-1.313-0.378c-0.213-0.105-0.465-0.185-0.756-0.239c-0.292-0.052-0.578-0.066-0.856-0.04
			c-0.279,0.027-0.531,0.106-0.756,0.238c-0.226,0.133-0.392,0.333-0.498,0.598c-0.106,0.292-0.133,0.544-0.08,0.756
			c0.053,0.212,0.152,0.404,0.298,0.578c0.146,0.172,0.318,0.332,0.518,0.477c0.199,0.147,0.392,0.286,0.577,0.419
			c0.265,0.185,0.836,0.423,1.711,0.716c0.876,0.292,1.957,0.577,3.245,0.856c1.287,0.279,2.747,0.518,4.379,0.717
			c1.632,0.198,3.323,0.298,5.075,0.298c1.777,0,3.429-0.16,4.956-0.478c1.525-0.318,2.846-0.757,3.96-1.313
			c1.115-0.557,1.997-1.201,2.647-1.931c0.65-0.729,0.988-1.493,1.015-2.289c0.026-0.822-0.305-1.565-0.995-2.229
			c-0.69-0.663-1.606-1.274-2.747-1.832c-1.142-0.557-2.448-1.067-3.921-1.532c-1.473-0.464-2.985-0.902-4.538-1.313
			c-1.553-0.412-3.065-0.797-4.538-1.155c-1.473-0.358-2.786-0.71-3.941-1.055c-1.154-0.344-2.083-0.697-2.786-1.055
			c-0.704-0.358-1.055-0.723-1.055-1.095c0-0.424,0.292-0.842,0.875-1.253c0.583-0.411,1.347-0.803,2.289-1.175
			c0.941-0.371,1.99-0.709,3.145-1.015c1.154-0.305,2.309-0.577,3.463-0.816c1.154-0.239,2.249-0.424,3.284-0.557
			c1.035-0.132,1.884-0.225,2.548-0.279c0.928-0.053,1.831-0.093,2.707-0.119c0.876-0.026,1.646-0.006,2.309,0.06
			c0.663,0.066,1.194,0.199,1.592,0.398c0.398,0.199,0.597,0.498,0.597,0.896c0,0.372-0.113,0.703-0.339,0.995
			C37.664,16.467,37.405,16.706,37.113,16.891z"/>
		<path fill="#788965" d="M109.197,27.408c-0.584-0.132-1.002-0.073-1.254,0.179c-0.253,0.253-0.524,0.763-0.816,1.533
			c-0.053,0.159-0.265,0.425-0.637,0.796c-0.372,0.372-0.883,0.737-1.533,1.095c-0.65,0.358-1.453,0.67-2.408,0.936
			c-0.956,0.266-2.044,0.398-3.265,0.398c-0.557,0-1.055-0.099-1.493-0.298s-0.803-0.444-1.095-0.736
			c0.61,0,1.379-0.106,2.309-0.319c0.637-0.132,1.247-0.338,1.831-0.616c0.583-0.279,1.101-0.624,1.552-1.036
			c0.451-0.411,0.809-0.875,1.075-1.393c0.265-0.518,0.398-1.081,0.398-1.691s-0.173-1.115-0.518-1.513
			c-0.345-0.398-0.776-0.717-1.294-0.956c-0.517-0.239-1.068-0.411-1.652-0.518c-0.584-0.106-1.115-0.16-1.592-0.16
			s-1.115,0.074-1.911,0.22s-1.592,0.418-2.389,0.815c-0.796,0.398-1.52,0.943-2.169,1.633c-0.504,0.534-0.856,1.19-1.065,1.963
			c-0.227,0.282-0.462,0.734-0.707,1.38c-0.053,0.08-0.172,0.266-0.358,0.557c-0.186,0.292-0.464,0.584-0.836,0.876
			c-0.372,0.292-0.836,0.557-1.393,0.796s-1.234,0.358-2.03,0.358c-0.876,0-1.566-0.212-2.07-0.637
			c-0.504-0.424-0.876-1.021-1.115-1.791c0.398-0.558,0.956-1.347,1.672-2.368c0.717-1.021,1.426-2.149,2.13-3.384
			c0.703-1.233,1.307-2.508,1.811-3.821c0.504-1.313,0.756-2.554,0.756-3.722c0-0.345-0.04-0.789-0.12-1.333
			c-0.08-0.543-0.245-1.068-0.498-1.572c-0.252-0.504-0.63-0.936-1.134-1.293c-0.504-0.358-1.168-0.538-1.99-0.538
			c-0.956,0-1.798,0.239-2.528,0.717c-0.73,0.478-1.36,1.114-1.891,1.911c-0.531,0.796-0.976,1.692-1.333,2.687
			c-0.358,0.995-0.637,2.01-0.836,3.045c-0.199,1.035-0.345,2.037-0.438,3.005c-0.093,0.969-0.139,1.825-0.139,2.568
			c0,0.839,0.064,1.683,0.192,2.531c-0.107,0.125-0.217,0.275-0.332,0.474c-0.146,0.253-0.313,0.552-0.498,0.896
			c-0.106,0.239-0.286,0.498-0.538,0.776s-0.644,0.538-1.174,0.776c-0.875,0.398-1.532,0.485-1.97,0.259
			c-0.438-0.226-0.803-0.551-1.095-0.976c-0.133-0.212-0.212-0.517-0.239-0.915c-0.026-0.398-0.026-0.817,0-1.254
			c0.027-0.438,0.073-0.869,0.14-1.294c0.066-0.424,0.126-0.769,0.179-1.035c0.08-0.531-0.066-0.995-0.438-1.393
			c-0.372-0.398-0.73-0.637-1.075-0.716c-0.318-0.08-0.696-0.08-1.134,0c-0.438,0.08-0.736,0.186-0.896,0.318
			c-0.08,0.079-0.16,0.245-0.239,0.497c-0.079,0.253-0.146,0.545-0.199,0.876c-0.053,0.332-0.1,0.664-0.14,0.995
			c-0.04,0.333-0.073,0.591-0.099,0.777c-0.133,1.114-0.478,2.017-1.035,2.707c-0.558,0.69-1.168,1.048-1.831,1.075
			c-0.318,0-0.604-0.066-0.856-0.199c-0.252-0.132-0.458-0.299-0.617-0.498s-0.286-0.398-0.378-0.597
			c-0.094-0.199-0.14-0.378-0.14-0.538c0-0.345,0.046-0.756,0.14-1.233c0.092-0.478,0.205-1.208,0.338-2.189
			c0.053-0.478,0.006-0.842-0.14-1.095c-0.146-0.252-0.325-0.431-0.537-0.538c-0.212-0.105-0.418-0.165-0.617-0.179
			c-0.199-0.013-0.338-0.02-0.418-0.02c-0.16-0.026-0.385-0.026-0.677,0c-0.292,0.026-0.624,0.146-0.995,0.358
			c-0.186,0.133-0.338,0.412-0.458,0.836c-0.092,0.329-0.168,0.703-0.229,1.119c-0.15,0.135-0.306,0.28-0.467,0.434
			c-0.213,0.213-0.478,0.365-0.796,0.458c-0.318,0.093-0.657,0.146-1.015,0.159c-0.358,0.014-0.704-0.006-1.035-0.059
			c-0.333-0.054-0.591-0.12-0.776-0.2c-0.292-0.132-0.518-0.272-0.677-0.418c-0.159-0.145-0.306-0.285-0.438-0.418
			c-0.106-0.265-0.292-0.543-0.557-0.835c-0.451-0.531-1.221-1.035-2.309-1.513c-0.318-0.133-0.717-0.272-1.194-0.418
			s-1.048-0.219-1.711-0.219c-1.089,0-2.097,0.179-3.025,0.537c-0.929,0.358-1.739,0.823-2.428,1.394
			c-0.69,0.571-1.234,1.208-1.632,1.911c-0.398,0.704-0.598,1.387-0.598,2.05c0,0.69,0.106,1.353,0.318,1.99
			c0.212,0.638,0.558,1.202,1.036,1.692c0.478,0.491,1.108,0.89,1.891,1.194c0.782,0.305,1.731,0.458,2.846,0.458
			c1.008,0,1.943-0.12,2.807-0.359c0.861-0.238,1.631-0.55,2.309-0.935c0.677-0.385,1.234-0.822,1.672-1.314
			c0.438-0.491,0.736-0.989,0.895-1.493c0.743,0.026,1.434-0.02,2.07-0.14c0.638-0.119,1.181-0.245,1.632-0.377
			c0.348-0.1,0.667-0.228,0.964-0.38c-0.005,0.228-0.008,0.451-0.008,0.658c0,0.505,0.105,1.022,0.318,1.553
			c0.212,0.531,0.511,1.015,0.896,1.453c0.384,0.438,0.849,0.79,1.393,1.055c0.544,0.265,1.161,0.397,1.851,0.397
			c0.689,0,1.32-0.119,1.891-0.358c0.57-0.239,1.055-0.504,1.453-0.796c0.478-0.345,0.902-0.743,1.274-1.194
			c0.344,0.425,0.756,0.783,1.234,1.075c0.398,0.292,0.896,0.543,1.493,0.755c0.597,0.213,1.28,0.318,2.05,0.318
			c1.061,0,1.983-0.178,2.767-0.537c0.782-0.358,1.426-0.769,1.931-1.234c0.368-0.339,0.671-0.674,0.912-1.007
			c0.085,0.165,0.168,0.331,0.262,0.489c0.543,0.916,1.28,1.659,2.209,2.229c0.928,0.57,2.096,0.855,3.502,0.855
			c1.406,0,2.594-0.233,3.563-0.696c0.968-0.464,1.758-0.989,2.368-1.573c0.131-0.125,0.251-0.249,0.367-0.371
			c0.225,0.363,0.505,0.7,0.848,1.007c0.65,0.584,1.506,1.042,2.567,1.374c1.061,0.332,2.361,0.498,3.901,0.498
			c1.513,0,2.886-0.173,4.12-0.518c1.234-0.344,2.295-0.776,3.185-1.293c0.889-0.518,1.612-1.075,2.169-1.672
			c0.557-0.597,0.941-1.147,1.154-1.652c0.212-0.583,0.259-1.115,0.139-1.592C109.695,27.727,109.489,27.462,109.197,27.408z
			 M50.623,30.016c-0.279,0.199-0.571,0.352-0.875,0.458c-0.306,0.107-0.584,0.173-0.836,0.2c-0.252,0.027-0.432,0.04-0.537,0.04
			c-0.133,0-0.326-0.006-0.578-0.02c-0.252-0.013-0.504-0.066-0.756-0.159c-0.252-0.093-0.471-0.259-0.657-0.498
			c-0.186-0.239-0.279-0.583-0.279-1.035s0.12-0.836,0.358-1.155s0.511-0.577,0.816-0.776c0.305-0.2,0.617-0.352,0.935-0.458
			c0.319-0.106,0.558-0.16,0.717-0.16c0.133,0,0.252,0,0.358,0c0.105,0,0.239,0.014,0.398,0.041
			c0.053,0.212,0.112,0.412,0.179,0.597c0.066,0.186,0.125,0.372,0.18,0.557c0.159,0.398,0.338,0.716,0.537,0.955
			c0.199,0.239,0.418,0.425,0.657,0.557l0.04,0.04C51.12,29.545,50.901,29.817,50.623,30.016z M82.606,22.93
			c0.053-0.677,0.12-1.36,0.199-2.05c0.159-1.3,0.338-2.335,0.537-3.105c0.199-0.77,0.412-1.36,0.637-1.771
			c0.225-0.411,0.458-0.677,0.697-0.796c0.239-0.12,0.464-0.179,0.677-0.179h0.04c0.212,0,0.345,0.179,0.398,0.538
			c0.053,0.358,0.06,0.79,0.02,1.293c-0.04,0.504-0.113,1.009-0.219,1.513c-0.106,0.504-0.212,0.902-0.318,1.194
			c-0.08,0.239-0.226,0.583-0.438,1.035c-0.212,0.452-0.451,0.936-0.716,1.453c-0.266,0.517-0.544,1.028-0.836,1.532
			c-0.292,0.505-0.557,0.93-0.796,1.274C82.513,24.251,82.553,23.607,82.606,22.93z M96.34,27.389
			c0.292-0.358,0.703-0.604,1.234-0.736c0.61-0.159,1.075-0.212,1.393-0.159s0.531,0.199,0.637,0.438
			c0.132,0.239,0.105,0.492-0.08,0.757c-0.186,0.266-0.531,0.504-1.035,0.716c-0.504,0.212-0.989,0.312-1.453,0.298
			c-0.465-0.013-0.882-0.046-1.254-0.1C95.862,28.152,96.047,27.747,96.34,27.389z"/>
		<path fill="#788965" d="M144.136,17.377h-0.04c0-0.822-0.324-1.771-0.975-2.846c-0.651-1.075-1.686-2.063-3.105-2.965
			c-1.42-0.902-3.244-1.612-5.474-2.13c-2.229-0.518-4.896-0.63-8.001-0.338c-1.777,0.159-3.557,0.411-5.333,0.756
			c-1.778,0.345-3.444,0.724-4.996,1.135c-1.553,0.412-2.932,0.836-4.14,1.274c-1.207,0.438-2.143,0.843-2.806,1.214
			c-0.345,0.292-0.61,0.677-0.796,1.154c-0.185,0.478-0.265,1.128-0.239,1.951c0,0.238,0.067,0.471,0.2,0.696
			c0.133,0.226,0.292,0.412,0.478,0.558c0.186,0.146,0.372,0.246,0.557,0.298c0.186,0.053,0.345,0.04,0.478-0.04
			c0.372-0.212,1.108-0.537,2.209-0.975c1.102-0.438,2.448-0.881,4.041-1.333c-0.159,0.743-0.305,1.619-0.438,2.627
			c-0.134,1.009-0.259,2.07-0.378,3.185c-0.12,1.114-0.233,2.243-0.339,3.383c-0.106,1.142-0.186,2.203-0.239,3.185
			c-0.054,0.982-0.086,1.851-0.099,2.607c-0.014,0.756-0.007,1.307,0.02,1.652c0.026,0.213,0.146,0.518,0.358,0.916
			c0.212,0.398,0.511,0.783,0.896,1.154c0.384,0.372,0.862,0.697,1.433,0.976c0.571,0.279,1.227,0.418,1.97,0.418
			c1.38,0,2.912-0.193,4.598-0.578c1.685-0.384,3.396-0.929,5.136-1.631c1.737-0.703,3.43-1.54,5.074-2.508
			c1.646-0.968,3.132-2.05,4.459-3.244c1.645-1.513,2.965-3.111,3.961-4.796C143.599,21.444,144.109,19.526,144.136,17.377z
			 M138.603,18.292c0.054,0.584-0.06,1.288-0.339,2.11c-0.277,0.823-0.729,1.692-1.354,2.607c-0.623,0.916-1.413,1.838-2.368,2.767
			c-0.955,0.929-2.063,1.778-3.323,2.547c-1.261,0.77-2.681,1.413-4.259,1.931c-1.579,0.517-3.298,0.829-5.155,0.935
			c-0.584,0.026-1.055,0-1.413-0.08s-0.617-0.252-0.776-0.518c-0.159-0.265-0.246-0.643-0.259-1.134
			c-0.014-0.49,0.02-1.147,0.1-1.97c0.132-1.3,0.285-2.607,0.458-3.921c0.172-1.313,0.344-2.548,0.518-3.702
			c0.172-1.154,0.351-2.202,0.537-3.145c0.186-0.941,0.358-1.705,0.518-2.289c1.326-0.266,2.666-0.478,4.021-0.637
			c1.354-0.159,2.68-0.239,3.98-0.239c1.963,0,3.528,0.113,4.696,0.338c1.168,0.226,2.07,0.544,2.708,0.956
			c0.636,0.412,1.067,0.909,1.294,1.493c0.225,0.584,0.378,1.234,0.457,1.95H138.603z"/>
		<path fill="#788965" d="M168.334,26.692c-0.425-0.424-0.89-0.796-1.394-1.115s-0.988-0.597-1.453-0.836
			c-0.464-0.239-0.868-0.424-1.214-0.557c-0.345-0.132-0.557-0.226-0.637-0.279c-0.292-0.159-0.497-0.351-0.616-0.577
			c-0.12-0.225-0.207-0.418-0.26-0.578c-0.026-0.079-0.073-0.192-0.14-0.338c-0.066-0.146-0.172-0.298-0.317-0.458
			c-0.146-0.159-0.318-0.292-0.518-0.398c-0.199-0.106-0.444-0.159-0.737-0.159c-0.292,0-0.551,0.086-0.775,0.259
			c-0.227,0.173-0.432,0.372-0.617,0.597c-0.186,0.226-0.325,0.458-0.418,0.696c-0.093,0.239-0.139,0.438-0.139,0.598
			c0,0.212,0.005,0.504,0.02,0.875c0.013,0.372,0.166,0.743,0.458,1.115c-0.08,0.345-0.16,0.617-0.238,0.816
			c-0.081,0.199-0.167,0.398-0.26,0.597c-0.06,0.125-0.128,0.265-0.202,0.411c-0.194,0.033-0.354,0.106-0.474,0.226
			c-0.253,0.253-0.524,0.763-0.816,1.532c-0.054,0.16-0.266,0.425-0.637,0.796c-0.372,0.372-0.882,0.737-1.533,1.095
			c-0.65,0.358-1.452,0.67-2.407,0.935c-0.955,0.266-2.045,0.398-3.265,0.398c-0.558,0-1.055-0.099-1.493-0.298
			c-0.438-0.199-0.802-0.444-1.094-0.736c0.609,0,1.379-0.106,2.309-0.319c0.637-0.133,1.247-0.338,1.831-0.616
			c0.583-0.279,1.101-0.624,1.553-1.036c0.451-0.412,0.809-0.875,1.075-1.393c0.265-0.518,0.397-1.081,0.397-1.692
			c0-0.61-0.173-1.115-0.518-1.513c-0.345-0.397-0.776-0.716-1.293-0.955c-0.519-0.239-1.069-0.412-1.653-0.518
			c-0.583-0.106-1.114-0.16-1.592-0.16s-1.114,0.073-1.91,0.219c-0.797,0.146-1.593,0.418-2.389,0.816
			c-0.797,0.398-1.521,0.942-2.17,1.633c-0.65,0.69-1.055,1.579-1.214,2.667c-0.132,0.929-0.086,1.785,0.14,2.567
			c0.225,0.783,0.663,1.467,1.313,2.05c0.649,0.584,1.506,1.042,2.567,1.374c1.062,0.332,2.361,0.497,3.901,0.497
			c1.512,0,2.886-0.173,4.119-0.517c1.234-0.345,2.296-0.776,3.186-1.294c0.646-0.376,1.201-0.773,1.672-1.191
			c0.046,0.238,0.182,0.445,0.417,0.615c0.663,0.557,1.347,0.961,2.05,1.213c0.703,0.253,1.347,0.418,1.931,0.498
			c0.584,0.079,1.095,0.106,1.532,0.079c0.438-0.026,0.736-0.04,0.896-0.04c0.158,0,0.477-0.06,0.955-0.179
			c0.478-0.12,0.975-0.339,1.492-0.658c0.518-0.318,0.981-0.769,1.394-1.352c0.411-0.584,0.617-1.354,0.617-2.309l0.039,0.04
			c0-0.638-0.14-1.215-0.418-1.731C169.11,27.587,168.758,27.116,168.334,26.692z M146.8,27.388
			c0.292-0.358,0.702-0.603,1.233-0.736c0.61-0.16,1.075-0.212,1.394-0.16c0.318,0.053,0.53,0.199,0.637,0.438
			c0.133,0.239,0.106,0.491-0.079,0.756c-0.187,0.266-0.531,0.505-1.035,0.717c-0.504,0.212-0.989,0.312-1.452,0.298
			c-0.466-0.013-0.883-0.046-1.255-0.1C146.322,28.152,146.507,27.746,146.8,27.388z M165.389,29.756v0.041
			c-0.079,0.398-0.259,0.703-0.537,0.916c-0.279,0.212-0.611,0.345-0.995,0.397c-0.386,0.054-0.79,0.054-1.215,0
			c-0.425-0.052-0.836-0.132-1.233-0.238c-0.159-0.053-0.306-0.1-0.438-0.139c-0.133-0.04-0.266-0.073-0.397-0.1l0.08-0.159
			c0.291-0.344,0.523-0.836,0.696-1.472c0.172-0.637,0.324-1.314,0.457-2.03c0.451,0.159,0.902,0.332,1.354,0.518
			s0.856,0.392,1.214,0.617c0.359,0.225,0.637,0.471,0.836,0.736C165.408,29.107,165.468,29.412,165.389,29.756z"/>
		<path fill="#788965" d="M171.319,18.272c0.239,0.306,0.584,0.571,1.035,0.796c0.451,0.226,1.048,0.365,1.791,0.418
			c0.742,0.053,1.319-0.033,1.731-0.259c0.412-0.225,0.723-0.491,0.936-0.796c0.212-0.305,0.345-0.604,0.397-0.896
			c0.054-0.292,0.081-0.491,0.081-0.597s-0.04-0.332-0.12-0.677c-0.08-0.344-0.253-0.703-0.518-1.075
			c-0.265-0.371-0.663-0.703-1.194-0.995c-0.53-0.292-1.234-0.438-2.109-0.438c-0.585,0-1.049,0.094-1.394,0.279
			c-0.345,0.187-0.61,0.418-0.796,0.697s-0.306,0.571-0.358,0.875c-0.053,0.306-0.079,0.577-0.079,0.816
			c0,0.265,0.039,0.564,0.119,0.895C170.921,17.649,171.08,17.968,171.319,18.272z"/>
		<path fill="#788965" d="M226.43,28.105c-0.278-0.518-0.631-0.989-1.055-1.414c-0.425-0.424-0.89-0.796-1.393-1.115
			c-0.505-0.318-0.989-0.597-1.453-0.836c-0.465-0.239-0.869-0.424-1.215-0.557c-0.344-0.132-0.557-0.226-0.637-0.279
			c-0.292-0.159-0.497-0.351-0.616-0.577c-0.12-0.225-0.206-0.418-0.259-0.578c-0.027-0.079-0.074-0.192-0.14-0.338
			c-0.067-0.146-0.173-0.298-0.318-0.458c-0.146-0.159-0.319-0.292-0.518-0.398c-0.199-0.106-0.444-0.159-0.737-0.159
			c-0.291,0-0.551,0.086-0.775,0.259c-0.226,0.173-0.432,0.372-0.616,0.597c-0.187,0.226-0.326,0.458-0.419,0.696
			c-0.093,0.239-0.139,0.438-0.139,0.598c0,0.212,0.006,0.504,0.02,0.875c0.013,0.372,0.165,0.743,0.457,1.115
			c-0.079,0.345-0.158,0.617-0.238,0.816c-0.08,0.199-0.166,0.398-0.258,0.597c-0.059,0.123-0.126,0.259-0.199,0.402
			c-0.221,0.028-0.401,0.104-0.537,0.234c-0.266,0.253-0.531,0.763-0.797,1.532c-0.158,0.505-0.471,0.942-0.936,1.314
			c-0.464,0.372-1.081,0.557-1.851,0.557c-0.372,0-0.67-0.093-0.896-0.278s-0.393-0.432-0.498-0.737
			c-0.105-0.304-0.173-0.669-0.198-1.095c-0.027-0.424-0.04-0.875-0.04-1.353c0-0.478-0.007-0.949-0.02-1.413
			c-0.014-0.464-0.055-0.889-0.119-1.274c-0.067-0.384-0.174-0.709-0.319-0.975c-0.146-0.265-0.352-0.452-0.617-0.558
			c-0.266-0.08-0.577-0.139-0.936-0.178c-0.358-0.041-0.729-0.047-1.114-0.021c-0.385,0.027-0.756,0.1-1.114,0.219
			c-0.358,0.12-0.671,0.298-0.936,0.538c-0.266,0.239-0.531,0.511-0.797,0.816c-0.265,0.305-0.504,0.584-0.716,0.836
			c-0.213,0.252-0.392,0.464-0.538,0.637c-0.146,0.173-0.232,0.259-0.258,0.259c-0.134,0-0.226-0.292-0.279-0.875
			c0-0.133-0.02-0.312-0.06-0.538c-0.04-0.225-0.126-0.458-0.259-0.697s-0.318-0.451-0.557-0.637
			c-0.239-0.185-0.558-0.318-0.955-0.397c-1.54-0.239-2.283,0.318-2.229,1.672c0,0.345,0.013,0.929,0.039,1.751
			c0.012,0.366,0.033,0.741,0.058,1.119c-0.086,0.119-0.171,0.251-0.256,0.413c-0.134,0.253-0.292,0.564-0.478,0.935
			c-0.319,0.611-0.638,1.089-0.955,1.433c-0.32,0.345-0.625,0.704-0.917,1.075c-0.317,0.372-0.79,0.764-1.413,1.174
			c-0.623,0.411-1.32,0.803-2.089,1.174c0.053-0.981,0.1-1.923,0.14-2.826c0.039-0.902,0.125-1.618,0.258-2.149
			c0.133-0.292,0.266-0.664,0.398-1.115c0.079-0.239,0.119-0.411,0.119-0.518c0.212-0.876,0.391-1.519,0.537-1.93
			s0.113-0.79-0.1-1.134c-0.212-0.345-0.557-0.638-1.034-0.876c-0.478-0.239-1.022-0.319-1.632-0.239
			c-0.372,0.054-0.638,0.206-0.797,0.458c-0.158,0.253-0.305,0.617-0.438,1.095c-0.452-0.186-0.981-0.338-1.593-0.457
			c-0.61-0.12-1.3-0.192-2.069-0.219c-0.823-0.026-1.687,0.073-2.588,0.299c-0.902,0.226-1.726,0.577-2.468,1.054
			c-0.742,0.478-1.354,1.083-1.831,1.812c-0.478,0.73-0.717,1.585-0.717,2.568c0,0.43,0.049,0.821,0.128,1.186
			c-0.232,0.237-0.487,0.452-0.783,0.625c-0.386,0.226-0.817,0.313-1.294,0.259c-0.425-0.053-0.757-0.225-0.995-0.518
			c-0.239-0.292-0.412-0.629-0.519-1.014c-0.105-0.385-0.166-0.783-0.178-1.195c-0.015-0.411-0.008-0.762,0.02-1.054
			c0.053-0.583,0.1-1.095,0.139-1.533c0.04-0.438,0.061-0.802,0.061-1.094c0-0.106-0.048-0.258-0.14-0.458
			c-0.094-0.199-0.233-0.391-0.418-0.577c-0.186-0.186-0.398-0.344-0.637-0.478c-0.239-0.132-0.518-0.198-0.837-0.198
			c-0.77,0-1.347,0.179-1.731,0.538c-0.385,0.358-0.577,1.108-0.577,2.249c0,0.398-0.013,0.869-0.039,1.413
			c-0.027,0.544-0.027,1.122,0,1.731c0.026,0.611,0.125,1.221,0.298,1.832s0.464,1.167,0.876,1.671
			c0.411,0.505,0.975,0.917,1.691,1.234c0.717,0.318,1.633,0.491,2.747,0.518c1.274,0.026,2.302-0.2,3.085-0.677
			c0.347-0.21,0.652-0.438,0.933-0.675c0.111,0.09,0.224,0.179,0.341,0.257c0.57,0.384,1.154,0.649,1.752,0.795
			c0.596,0.146,1.055,0.219,1.373,0.219c0.45,0,1.127-0.133,2.03-0.397c0.901-0.266,1.856-0.69,2.865-1.274
			c-0.053,0.452-0.087,0.863-0.099,1.234c-0.015,0.372-0.034,0.677-0.061,0.916c-0.026,0.053-0.039,0.173-0.039,0.358
			c-1.115,0.452-2.11,0.83-2.985,1.135c-0.876,0.305-1.447,0.511-1.712,0.617c-0.293,0.133-0.664,0.331-1.115,0.597
			c-0.451,0.265-0.89,0.611-1.313,1.036c-0.425,0.424-0.79,0.928-1.095,1.512s-0.458,1.248-0.458,1.99c0,0.93,0.22,1.705,0.657,2.33
			c0.438,0.621,0.948,1.119,1.532,1.492c0.584,0.371,1.168,0.631,1.751,0.775c0.585,0.146,1.01,0.221,1.274,0.221
			c0.558-0.027,1.294-0.154,2.21-0.379c0.915-0.227,1.837-0.736,2.766-1.533c0.425-0.371,0.764-0.869,1.016-1.492
			s0.458-1.301,0.616-2.029c0.16-0.73,0.272-1.475,0.339-2.23c0.065-0.756,0.126-1.439,0.18-2.05
			c0.291-0.133,0.577-0.292,0.855-0.478c0.279-0.186,0.577-0.385,0.896-0.597c0.558-0.372,1.128-0.775,1.712-1.214
			c0.584-0.438,1.147-0.929,1.692-1.473c0.543-0.543,1.06-1.154,1.552-1.831c0.044-0.062,0.087-0.129,0.132-0.193
			c0.168,0.635,0.396,1.04,0.684,1.208c0.664,0.398,1.175,0.611,1.533,0.637c0.357,0.026,0.604,0.026,0.736,0
			c0.133-0.026,0.324-0.152,0.577-0.378c0.252-0.225,0.404-0.483,0.457-0.776c0-0.132,0.054-0.338,0.16-0.617
			c0.105-0.279,0.219-0.578,0.338-0.896c0.119-0.318,0.252-0.617,0.398-0.896c0.146-0.279,0.259-0.484,0.338-0.617
			c0.08-0.133,0.192-0.324,0.339-0.577c0.146-0.252,0.292-0.498,0.438-0.737c0.145-0.239,0.284-0.431,0.417-0.577
			c0.133-0.145,0.238-0.206,0.318-0.179c0.08,0.054,0.146,0.179,0.199,0.378c0.053,0.2,0.105,0.438,0.159,0.716
			c0.053,0.279,0.112,0.564,0.18,0.856c0.066,0.292,0.14,0.544,0.219,0.757c0.079,0.213,0.212,0.538,0.398,0.975
			c0.186,0.438,0.463,0.87,0.836,1.294c0.37,0.424,0.849,0.796,1.433,1.114c0.583,0.318,1.313,0.478,2.188,0.478
			c0.85,0,1.6-0.132,2.25-0.398c0.649-0.265,1.2-0.603,1.652-1.014c0.145-0.132,0.278-0.271,0.408-0.413
			c0.07,0.098,0.154,0.19,0.268,0.273c0.663,0.557,1.347,0.961,2.05,1.213c0.703,0.253,1.347,0.418,1.931,0.498
			c0.583,0.079,1.095,0.106,1.532,0.079c0.438-0.026,0.736-0.04,0.896-0.04s0.479-0.06,0.955-0.179
			c0.479-0.12,0.976-0.339,1.493-0.658c0.519-0.318,0.981-0.769,1.394-1.352c0.411-0.584,0.617-1.354,0.617-2.309l0.039,0.04
			C226.848,29.199,226.709,28.622,226.43,28.105z M187.818,41.639c-0.226,0.678-0.563,1.227-1.015,1.652
			c-0.134,0.133-0.292,0.271-0.478,0.418c-0.187,0.145-0.392,0.258-0.617,0.338s-0.472,0.119-0.736,0.119
			c-0.267,0-0.558-0.105-0.875-0.318c-0.373-0.238-0.612-0.51-0.717-0.816c-0.107-0.305-0.107-0.604,0-0.895
			c0.104-0.293,0.291-0.57,0.557-0.836c0.265-0.266,0.598-0.465,0.996-0.598c0.688-0.238,1.306-0.451,1.85-0.637
			s1.055-0.372,1.532-0.558C188.21,40.252,188.043,40.963,187.818,41.639z M188.834,28.204c-0.08,0.187-0.173,0.378-0.279,0.578
			c-0.106,0.199-0.213,0.404-0.318,0.617c-0.213,0.425-0.551,0.791-1.016,1.095c-0.464,0.305-0.955,0.524-1.472,0.657
			c-0.518,0.134-1.016,0.186-1.493,0.16c-0.479-0.026-0.81-0.16-0.995-0.399c-0.213-0.238-0.272-0.536-0.179-0.896
			c0.092-0.358,0.299-0.709,0.616-1.054c0.318-0.345,0.737-0.638,1.255-0.875c0.517-0.239,1.107-0.359,1.771-0.359
			c0.45,0,0.848,0.047,1.193,0.14c0.345,0.093,0.663,0.192,0.956,0.298L188.834,28.204z M222.43,29.756v0.041
			c-0.08,0.398-0.259,0.703-0.538,0.916c-0.277,0.212-0.61,0.345-0.994,0.397c-0.386,0.054-0.79,0.054-1.214,0
			c-0.426-0.052-0.836-0.132-1.234-0.238c-0.16-0.053-0.306-0.1-0.438-0.139c-0.135-0.04-0.267-0.073-0.399-0.1l0.081-0.159
			c0.291-0.344,0.523-0.836,0.696-1.472c0.172-0.637,0.324-1.314,0.458-2.03c0.45,0.159,0.901,0.332,1.354,0.518
			c0.45,0.186,0.854,0.392,1.213,0.617c0.358,0.225,0.638,0.471,0.836,0.736C222.45,29.107,222.509,29.412,222.43,29.756z"/>
	</g>
</g>
<g id="SouleDesigns">
	<g>
		<g>
			<linearGradient id="SVGID_1_" gradientUnits="userSpaceOnUse" x1="116.9287" y1="7.9395" x2="116.9287" y2="46.4321">
				<stop  offset="0" style="stop-color:#FFFFFF"/>
				<stop  offset="0.5968" style="stop-color:#FFFFFF"/>
				<stop  offset="0.8279" style="stop-color:#F8F9F9"/>
				<stop  offset="1" style="stop-color:#F1F2F2"/>
			</linearGradient>
			<path fill="url(#SVGID_1_)" d="M36.113,15.891c-0.318,0.239-0.676,0.425-1.074,0.557c-0.213,0.159-0.372,0.332-0.478,0.518
				c-0.106,0.159-0.186,0.345-0.239,0.557c-0.053,0.213-0.014,0.438,0.119,0.677c0.239,0.478,0.478,0.783,0.717,0.916
				c0.239,0.133,0.703,0.079,1.394-0.16c0.424-0.132,0.955-0.298,1.592-0.498c0.637-0.199,1.254-0.498,1.851-0.896
				c0.597-0.398,1.115-0.929,1.552-1.592c0.438-0.663,0.657-1.526,0.657-2.587c0-1.061-0.279-1.917-0.836-2.567
				s-1.321-1.161-2.289-1.533c-0.969-0.371-2.097-0.623-3.384-0.756c-1.287-0.132-2.646-0.199-4.08-0.199
				c-1.035,0-2.329,0.086-3.881,0.259c-1.552,0.173-3.204,0.444-4.956,0.815c-1.752,0.373-3.503,0.85-5.255,1.433
				c-1.751,0.584-3.331,1.274-4.737,2.07c-1.407,0.796-2.555,1.712-3.443,2.747c-0.889,1.035-1.334,2.176-1.334,3.423
				c0,1.009,0.597,1.871,1.792,2.587c1.194,0.717,2.7,1.348,4.518,1.891c1.818,0.544,3.775,1.035,5.872,1.473
				c2.096,0.438,4.054,0.875,5.872,1.313c1.817,0.438,3.324,0.902,4.518,1.393c1.194,0.491,1.791,1.082,1.791,1.771
				c0,0.292-0.159,0.544-0.478,0.756c-0.319,0.212-0.723,0.392-1.214,0.537c-0.491,0.146-1.028,0.266-1.612,0.358
				c-0.584,0.093-1.148,0.159-1.692,0.199c-0.544,0.04-1.022,0.066-1.433,0.079c-0.412,0.014-0.697,0.02-0.856,0.02
				c-1.513-0.026-2.925-0.099-4.239-0.219c-1.313-0.119-2.481-0.259-3.502-0.418c-1.022-0.159-1.865-0.325-2.528-0.498
				c-0.664-0.171-1.102-0.298-1.313-0.378c-0.213-0.105-0.465-0.185-0.756-0.239c-0.292-0.052-0.578-0.066-0.856-0.04
				c-0.279,0.027-0.531,0.106-0.756,0.238c-0.226,0.133-0.392,0.333-0.498,0.598c-0.106,0.292-0.133,0.544-0.08,0.756
				c0.053,0.212,0.152,0.404,0.298,0.578c0.146,0.172,0.318,0.332,0.518,0.477c0.199,0.147,0.392,0.286,0.577,0.419
				c0.265,0.185,0.836,0.423,1.711,0.716c0.876,0.292,1.957,0.577,3.245,0.856c1.287,0.279,2.747,0.518,4.379,0.717
				c1.632,0.198,3.323,0.298,5.075,0.298c1.777,0,3.429-0.16,4.956-0.478c1.525-0.318,2.846-0.757,3.96-1.313
				c1.115-0.557,1.997-1.201,2.647-1.931c0.65-0.729,0.988-1.493,1.015-2.289c0.026-0.822-0.305-1.565-0.995-2.229
				c-0.69-0.663-1.606-1.274-2.747-1.832c-1.142-0.557-2.448-1.067-3.921-1.532c-1.473-0.464-2.985-0.902-4.538-1.313
				c-1.553-0.412-3.065-0.797-4.538-1.155c-1.473-0.358-2.786-0.71-3.941-1.055c-1.154-0.344-2.083-0.697-2.786-1.055
				c-0.704-0.358-1.055-0.723-1.055-1.095c0-0.424,0.292-0.842,0.875-1.253c0.583-0.411,1.347-0.803,2.289-1.175
				c0.941-0.371,1.99-0.709,3.145-1.015c1.154-0.305,2.309-0.577,3.463-0.816c1.154-0.239,2.249-0.424,3.284-0.557
				c1.035-0.132,1.884-0.225,2.548-0.279c0.928-0.053,1.831-0.093,2.707-0.119c0.876-0.026,1.646-0.006,2.309,0.06
				c0.663,0.066,1.194,0.199,1.592,0.398c0.398,0.199,0.597,0.498,0.597,0.896c0,0.372-0.113,0.703-0.339,0.995
				C36.664,15.467,36.405,15.706,36.113,15.891z"/>
			<linearGradient id="SVGID_2_" gradientUnits="userSpaceOnUse" x1="116.9287" y1="7.9395" x2="116.9287" y2="46.4321">
				<stop  offset="0" style="stop-color:#FFFFFF"/>
				<stop  offset="0.5968" style="stop-color:#FFFFFF"/>
				<stop  offset="0.8279" style="stop-color:#F8F9F9"/>
				<stop  offset="1" style="stop-color:#F1F2F2"/>
			</linearGradient>
			<path fill="url(#SVGID_2_)" d="M108.197,26.408c-0.584-0.132-1.002-0.073-1.254,0.179c-0.253,0.253-0.524,0.763-0.816,1.533
				c-0.053,0.159-0.265,0.425-0.637,0.796c-0.372,0.372-0.883,0.737-1.533,1.095c-0.65,0.358-1.453,0.67-2.408,0.936
				c-0.956,0.266-2.044,0.398-3.265,0.398c-0.557,0-1.055-0.099-1.493-0.298s-0.803-0.444-1.095-0.736
				c0.61,0,1.379-0.106,2.309-0.319c0.637-0.132,1.247-0.338,1.831-0.616c0.583-0.279,1.101-0.624,1.552-1.036
				c0.451-0.411,0.809-0.875,1.075-1.393c0.265-0.518,0.398-1.081,0.398-1.691s-0.173-1.115-0.518-1.513
				c-0.345-0.398-0.776-0.717-1.294-0.956c-0.517-0.239-1.068-0.411-1.652-0.518c-0.584-0.106-1.115-0.16-1.592-0.16
				s-1.115,0.074-1.911,0.22s-1.592,0.418-2.389,0.815c-0.796,0.398-1.52,0.943-2.169,1.633c-0.504,0.534-0.856,1.19-1.065,1.963
				c-0.227,0.282-0.462,0.734-0.707,1.38c-0.053,0.08-0.172,0.266-0.358,0.557c-0.186,0.292-0.464,0.584-0.836,0.876
				c-0.372,0.292-0.836,0.557-1.393,0.796s-1.234,0.358-2.03,0.358c-0.876,0-1.566-0.212-2.07-0.637
				c-0.504-0.424-0.876-1.021-1.115-1.791c0.398-0.558,0.956-1.347,1.672-2.368c0.717-1.021,1.426-2.149,2.13-3.384
				c0.703-1.233,1.307-2.508,1.811-3.821c0.504-1.313,0.756-2.554,0.756-3.722c0-0.345-0.04-0.789-0.12-1.333
				c-0.08-0.543-0.245-1.068-0.498-1.572c-0.252-0.504-0.63-0.936-1.134-1.293c-0.504-0.358-1.168-0.538-1.99-0.538
				c-0.956,0-1.798,0.239-2.528,0.717c-0.73,0.478-1.36,1.114-1.891,1.911c-0.531,0.796-0.976,1.692-1.333,2.687
				c-0.358,0.995-0.637,2.01-0.836,3.045c-0.199,1.035-0.345,2.037-0.438,3.005c-0.093,0.969-0.139,1.825-0.139,2.568
				c0,0.839,0.064,1.683,0.192,2.531c-0.107,0.125-0.217,0.275-0.332,0.474c-0.146,0.253-0.313,0.552-0.498,0.896
				c-0.106,0.239-0.286,0.498-0.538,0.776s-0.644,0.538-1.174,0.776c-0.875,0.398-1.532,0.485-1.97,0.259
				c-0.438-0.226-0.803-0.551-1.095-0.976c-0.133-0.212-0.212-0.517-0.239-0.915c-0.026-0.398-0.026-0.817,0-1.254
				c0.027-0.438,0.073-0.869,0.14-1.294c0.066-0.424,0.126-0.769,0.179-1.035c0.08-0.531-0.066-0.995-0.438-1.393
				c-0.372-0.398-0.73-0.637-1.075-0.716c-0.318-0.08-0.696-0.08-1.134,0c-0.438,0.08-0.736,0.186-0.896,0.318
				c-0.08,0.079-0.16,0.245-0.239,0.497c-0.079,0.253-0.146,0.545-0.199,0.876c-0.053,0.332-0.1,0.664-0.14,0.995
				c-0.04,0.333-0.073,0.591-0.099,0.777c-0.133,1.114-0.478,2.017-1.035,2.707c-0.558,0.69-1.168,1.048-1.831,1.075
				c-0.318,0-0.604-0.066-0.856-0.199c-0.252-0.132-0.458-0.299-0.617-0.498s-0.286-0.398-0.378-0.597
				c-0.094-0.199-0.14-0.378-0.14-0.538c0-0.345,0.046-0.756,0.14-1.233c0.092-0.478,0.205-1.208,0.338-2.189
				c0.053-0.478,0.006-0.842-0.14-1.095c-0.146-0.252-0.325-0.431-0.537-0.538c-0.212-0.105-0.418-0.165-0.617-0.179
				c-0.199-0.013-0.338-0.02-0.418-0.02c-0.16-0.026-0.385-0.026-0.677,0c-0.292,0.026-0.624,0.146-0.995,0.358
				c-0.186,0.133-0.338,0.412-0.458,0.836c-0.092,0.329-0.168,0.703-0.229,1.119c-0.15,0.135-0.306,0.28-0.467,0.434
				c-0.213,0.213-0.478,0.365-0.796,0.458c-0.318,0.093-0.657,0.146-1.015,0.159c-0.358,0.014-0.704-0.006-1.035-0.059
				c-0.333-0.054-0.591-0.12-0.776-0.2c-0.292-0.132-0.518-0.272-0.677-0.418c-0.159-0.145-0.306-0.285-0.438-0.418
				c-0.106-0.265-0.292-0.543-0.557-0.835c-0.451-0.531-1.221-1.035-2.309-1.513c-0.318-0.133-0.717-0.272-1.194-0.418
				s-1.048-0.219-1.711-0.219c-1.089,0-2.097,0.179-3.025,0.537c-0.929,0.358-1.739,0.823-2.428,1.394
				c-0.69,0.571-1.234,1.208-1.632,1.911c-0.398,0.704-0.598,1.387-0.598,2.05c0,0.69,0.106,1.353,0.318,1.99
				c0.212,0.638,0.558,1.202,1.036,1.692c0.478,0.491,1.108,0.89,1.891,1.194c0.782,0.305,1.731,0.458,2.846,0.458
				c1.008,0,1.943-0.12,2.807-0.359c0.861-0.238,1.631-0.55,2.309-0.935c0.677-0.385,1.234-0.822,1.672-1.314
				c0.438-0.491,0.736-0.989,0.895-1.493c0.743,0.026,1.434-0.02,2.07-0.14c0.638-0.119,1.181-0.245,1.632-0.377
				c0.348-0.1,0.667-0.228,0.964-0.38c-0.005,0.228-0.008,0.451-0.008,0.658c0,0.505,0.105,1.022,0.318,1.553
				c0.212,0.531,0.511,1.015,0.896,1.453c0.384,0.438,0.849,0.79,1.393,1.055c0.544,0.265,1.161,0.397,1.851,0.397
				c0.689,0,1.32-0.119,1.891-0.358c0.57-0.239,1.055-0.504,1.453-0.796c0.478-0.345,0.902-0.743,1.274-1.194
				c0.344,0.425,0.756,0.783,1.234,1.075c0.398,0.292,0.896,0.543,1.493,0.755c0.597,0.213,1.28,0.318,2.05,0.318
				c1.061,0,1.983-0.178,2.767-0.537c0.782-0.358,1.426-0.769,1.931-1.234c0.368-0.339,0.671-0.674,0.912-1.007
				c0.085,0.165,0.168,0.331,0.262,0.489c0.543,0.916,1.28,1.659,2.209,2.229c0.928,0.57,2.096,0.855,3.502,0.855
				c1.406,0,2.594-0.233,3.563-0.696c0.968-0.464,1.758-0.989,2.368-1.573c0.131-0.125,0.251-0.249,0.367-0.371
				c0.225,0.363,0.505,0.7,0.848,1.007c0.65,0.584,1.506,1.042,2.567,1.374c1.061,0.332,2.361,0.498,3.901,0.498
				c1.513,0,2.886-0.173,4.12-0.518c1.234-0.344,2.295-0.776,3.185-1.293c0.889-0.518,1.612-1.075,2.169-1.672
				c0.557-0.597,0.941-1.147,1.154-1.652c0.212-0.583,0.259-1.115,0.139-1.592C108.695,26.727,108.489,26.462,108.197,26.408z
				 M49.623,29.016c-0.279,0.199-0.571,0.352-0.875,0.458c-0.306,0.107-0.584,0.173-0.836,0.2c-0.252,0.027-0.432,0.04-0.537,0.04
				c-0.133,0-0.326-0.006-0.578-0.02c-0.252-0.013-0.504-0.066-0.756-0.159c-0.252-0.093-0.471-0.259-0.657-0.498
				c-0.186-0.239-0.279-0.583-0.279-1.035s0.12-0.836,0.358-1.155s0.511-0.577,0.816-0.776c0.305-0.2,0.617-0.352,0.935-0.458
				c0.319-0.106,0.558-0.16,0.717-0.16c0.133,0,0.252,0,0.358,0c0.105,0,0.239,0.014,0.398,0.041
				c0.053,0.212,0.112,0.412,0.179,0.597c0.066,0.186,0.125,0.372,0.18,0.557c0.159,0.398,0.338,0.716,0.537,0.955
				c0.199,0.239,0.418,0.425,0.657,0.557l0.04,0.04C50.12,28.545,49.901,28.817,49.623,29.016z M81.606,21.93
				c0.053-0.677,0.12-1.36,0.199-2.05c0.159-1.3,0.338-2.335,0.537-3.105c0.199-0.77,0.412-1.36,0.637-1.771
				c0.225-0.411,0.458-0.677,0.697-0.796c0.239-0.12,0.464-0.179,0.677-0.179h0.04c0.212,0,0.345,0.179,0.398,0.538
				c0.053,0.358,0.06,0.79,0.02,1.293c-0.04,0.504-0.113,1.009-0.219,1.513c-0.106,0.504-0.212,0.902-0.318,1.194
				c-0.08,0.239-0.226,0.583-0.438,1.035c-0.212,0.452-0.451,0.936-0.716,1.453c-0.266,0.517-0.544,1.028-0.836,1.532
				c-0.292,0.505-0.557,0.93-0.796,1.274C81.513,23.251,81.553,22.607,81.606,21.93z M95.34,26.389
				c0.292-0.358,0.703-0.604,1.234-0.736c0.61-0.159,1.075-0.212,1.393-0.159s0.531,0.199,0.637,0.438
				c0.132,0.239,0.105,0.492-0.08,0.757c-0.186,0.266-0.531,0.504-1.035,0.716c-0.504,0.212-0.989,0.312-1.453,0.298
				c-0.465-0.013-0.882-0.046-1.254-0.1C94.862,27.152,95.047,26.747,95.34,26.389z"/>
			<linearGradient id="SVGID_3_" gradientUnits="userSpaceOnUse" x1="116.9287" y1="7.9395" x2="116.9287" y2="46.4321">
				<stop  offset="0" style="stop-color:#FFFFFF"/>
				<stop  offset="0.5968" style="stop-color:#FFFFFF"/>
				<stop  offset="0.8279" style="stop-color:#F8F9F9"/>
				<stop  offset="1" style="stop-color:#F1F2F2"/>
			</linearGradient>
			<path fill="url(#SVGID_3_)" d="M143.136,16.377h-0.04c0-0.822-0.324-1.771-0.975-2.846c-0.651-1.075-1.686-2.063-3.105-2.965
				c-1.42-0.902-3.244-1.612-5.474-2.13c-2.229-0.518-4.896-0.63-8.001-0.338c-1.777,0.159-3.557,0.411-5.333,0.756
				c-1.778,0.345-3.444,0.724-4.996,1.135c-1.553,0.412-2.932,0.836-4.14,1.274c-1.207,0.438-2.143,0.843-2.806,1.214
				c-0.345,0.292-0.61,0.677-0.796,1.154c-0.185,0.478-0.265,1.128-0.239,1.951c0,0.238,0.067,0.471,0.2,0.696
				c0.133,0.226,0.292,0.412,0.478,0.558c0.186,0.146,0.372,0.246,0.557,0.298c0.186,0.053,0.345,0.04,0.478-0.04
				c0.372-0.212,1.108-0.537,2.209-0.975c1.102-0.438,2.448-0.881,4.041-1.333c-0.159,0.743-0.305,1.619-0.438,2.627
				c-0.134,1.009-0.259,2.07-0.378,3.185c-0.12,1.114-0.233,2.243-0.339,3.383c-0.106,1.142-0.186,2.203-0.239,3.185
				c-0.054,0.982-0.086,1.851-0.099,2.607c-0.014,0.756-0.007,1.307,0.02,1.652c0.026,0.213,0.146,0.518,0.358,0.916
				c0.212,0.398,0.511,0.783,0.896,1.154c0.384,0.372,0.862,0.697,1.433,0.976c0.57,0.279,1.227,0.418,1.97,0.418
				c1.38,0,2.912-0.193,4.598-0.578c1.685-0.384,3.396-0.929,5.136-1.631c1.737-0.703,3.43-1.54,5.074-2.508
				c1.646-0.968,3.132-2.05,4.459-3.244c1.645-1.513,2.965-3.111,3.961-4.796C142.599,20.444,143.109,18.526,143.136,16.377z
				 M137.603,17.292c0.054,0.584-0.06,1.288-0.339,2.11c-0.277,0.823-0.729,1.692-1.354,2.607c-0.623,0.916-1.413,1.838-2.368,2.767
				c-0.955,0.929-2.063,1.778-3.323,2.547c-1.261,0.77-2.681,1.413-4.259,1.931c-1.579,0.517-3.298,0.829-5.155,0.935
				c-0.584,0.026-1.055,0-1.413-0.08s-0.617-0.252-0.776-0.518c-0.159-0.265-0.246-0.643-0.259-1.134
				c-0.014-0.49,0.02-1.147,0.1-1.97c0.132-1.3,0.285-2.607,0.458-3.921c0.172-1.313,0.344-2.548,0.518-3.702
				c0.172-1.154,0.351-2.202,0.537-3.145c0.186-0.941,0.358-1.705,0.518-2.289c1.326-0.266,2.666-0.478,4.021-0.637
				c1.354-0.159,2.68-0.239,3.98-0.239c1.963,0,3.528,0.113,4.696,0.338c1.168,0.226,2.07,0.544,2.708,0.956
				c0.636,0.412,1.067,0.909,1.294,1.493c0.225,0.584,0.378,1.234,0.457,1.95H137.603z"/>
			<linearGradient id="SVGID_4_" gradientUnits="userSpaceOnUse" x1="116.9287" y1="7.9395" x2="116.9287" y2="46.4321">
				<stop  offset="0" style="stop-color:#FFFFFF"/>
				<stop  offset="0.5968" style="stop-color:#FFFFFF"/>
				<stop  offset="0.8279" style="stop-color:#F8F9F9"/>
				<stop  offset="1" style="stop-color:#F1F2F2"/>
			</linearGradient>
			<path fill="url(#SVGID_4_)" d="M167.334,25.692c-0.425-0.424-0.89-0.796-1.394-1.115s-0.988-0.597-1.453-0.836
				c-0.464-0.239-0.868-0.424-1.214-0.557c-0.345-0.132-0.557-0.226-0.637-0.279c-0.292-0.159-0.497-0.351-0.616-0.577
				c-0.12-0.225-0.207-0.418-0.26-0.578c-0.026-0.079-0.073-0.192-0.14-0.338c-0.066-0.146-0.172-0.298-0.317-0.458
				c-0.146-0.159-0.318-0.292-0.518-0.398c-0.199-0.106-0.444-0.159-0.737-0.159c-0.292,0-0.551,0.086-0.775,0.259
				c-0.227,0.173-0.432,0.372-0.617,0.597c-0.186,0.226-0.325,0.458-0.418,0.696c-0.093,0.239-0.139,0.438-0.139,0.598
				c0,0.212,0.005,0.504,0.02,0.875c0.013,0.372,0.166,0.743,0.458,1.115c-0.08,0.345-0.16,0.617-0.238,0.816
				c-0.081,0.199-0.167,0.398-0.26,0.597c-0.06,0.125-0.128,0.265-0.202,0.411c-0.194,0.033-0.354,0.106-0.474,0.226
				c-0.253,0.253-0.524,0.763-0.816,1.532c-0.054,0.16-0.266,0.425-0.637,0.796c-0.372,0.372-0.882,0.737-1.533,1.095
				c-0.65,0.358-1.452,0.67-2.407,0.935c-0.955,0.266-2.045,0.398-3.265,0.398c-0.558,0-1.055-0.099-1.493-0.298
				c-0.438-0.199-0.802-0.444-1.094-0.736c0.609,0,1.379-0.106,2.309-0.319c0.637-0.133,1.247-0.338,1.831-0.616
				c0.583-0.279,1.101-0.624,1.553-1.036c0.451-0.412,0.809-0.875,1.075-1.393c0.265-0.518,0.397-1.081,0.397-1.692
				c0-0.61-0.173-1.115-0.518-1.513c-0.345-0.397-0.776-0.716-1.293-0.955c-0.519-0.239-1.069-0.412-1.653-0.518
				c-0.583-0.106-1.114-0.16-1.592-0.16s-1.114,0.073-1.91,0.219c-0.797,0.146-1.593,0.418-2.389,0.816
				c-0.797,0.398-1.521,0.942-2.17,1.633c-0.65,0.69-1.055,1.579-1.214,2.667c-0.132,0.929-0.086,1.785,0.14,2.567
				c0.225,0.783,0.663,1.467,1.313,2.05c0.649,0.584,1.506,1.042,2.567,1.374c1.062,0.332,2.361,0.497,3.901,0.497
				c1.512,0,2.886-0.173,4.119-0.517c1.234-0.345,2.296-0.776,3.186-1.294c0.646-0.376,1.201-0.773,1.672-1.191
				c0.046,0.238,0.182,0.445,0.417,0.615c0.663,0.557,1.347,0.961,2.05,1.213c0.703,0.253,1.347,0.418,1.931,0.498
				c0.584,0.079,1.095,0.106,1.532,0.079c0.438-0.026,0.736-0.04,0.896-0.04c0.158,0,0.477-0.06,0.955-0.179
				c0.478-0.12,0.975-0.339,1.492-0.658c0.518-0.318,0.981-0.769,1.394-1.352c0.411-0.584,0.617-1.354,0.617-2.309l0.039,0.04
				c0-0.638-0.14-1.215-0.418-1.731C168.11,26.587,167.758,26.116,167.334,25.692z M145.8,26.388
				c0.292-0.358,0.702-0.603,1.233-0.736c0.61-0.16,1.075-0.212,1.394-0.16c0.318,0.053,0.53,0.199,0.637,0.438
				c0.133,0.239,0.106,0.491-0.079,0.756c-0.187,0.266-0.531,0.505-1.035,0.717c-0.504,0.212-0.989,0.312-1.452,0.298
				c-0.466-0.013-0.883-0.046-1.255-0.1C145.322,27.152,145.507,26.746,145.8,26.388z M164.389,28.756v0.041
				c-0.079,0.398-0.259,0.703-0.537,0.916c-0.279,0.212-0.611,0.345-0.995,0.397c-0.386,0.054-0.79,0.054-1.215,0
				c-0.425-0.052-0.836-0.132-1.233-0.238c-0.159-0.053-0.306-0.1-0.438-0.139c-0.133-0.04-0.266-0.073-0.397-0.1l0.08-0.159
				c0.291-0.344,0.523-0.836,0.696-1.472c0.172-0.637,0.324-1.314,0.457-2.03c0.451,0.159,0.902,0.332,1.354,0.518
				s0.856,0.392,1.214,0.617c0.359,0.225,0.637,0.471,0.836,0.736C164.408,28.107,164.468,28.412,164.389,28.756z"/>
			<linearGradient id="SVGID_5_" gradientUnits="userSpaceOnUse" x1="116.9287" y1="7.9395" x2="116.9287" y2="46.4321">
				<stop  offset="0" style="stop-color:#FFFFFF"/>
				<stop  offset="0.5968" style="stop-color:#FFFFFF"/>
				<stop  offset="0.8279" style="stop-color:#F8F9F9"/>
				<stop  offset="1" style="stop-color:#F1F2F2"/>
			</linearGradient>
			<path fill="url(#SVGID_5_)" d="M170.319,17.272c0.239,0.306,0.584,0.571,1.035,0.796c0.451,0.226,1.048,0.365,1.791,0.418
				c0.742,0.053,1.319-0.033,1.731-0.259c0.412-0.225,0.723-0.491,0.936-0.796c0.212-0.305,0.345-0.604,0.397-0.896
				c0.054-0.292,0.081-0.491,0.081-0.597s-0.04-0.332-0.12-0.677c-0.08-0.344-0.253-0.703-0.518-1.075
				c-0.265-0.371-0.663-0.703-1.194-0.995c-0.53-0.292-1.234-0.438-2.109-0.438c-0.585,0-1.049,0.094-1.394,0.279
				c-0.345,0.187-0.61,0.418-0.796,0.697s-0.306,0.571-0.358,0.875c-0.053,0.306-0.079,0.577-0.079,0.816
				c0,0.265,0.039,0.564,0.119,0.895C169.921,16.649,170.08,16.968,170.319,17.272z"/>
			<linearGradient id="SVGID_6_" gradientUnits="userSpaceOnUse" x1="116.9287" y1="7.9395" x2="116.9287" y2="46.4321">
				<stop  offset="0" style="stop-color:#FFFFFF"/>
				<stop  offset="0.5968" style="stop-color:#FFFFFF"/>
				<stop  offset="0.8279" style="stop-color:#F8F9F9"/>
				<stop  offset="1" style="stop-color:#F1F2F2"/>
			</linearGradient>
			<path fill="url(#SVGID_6_)" d="M225.43,27.105c-0.278-0.518-0.631-0.989-1.055-1.414c-0.425-0.424-0.89-0.796-1.393-1.115
				c-0.505-0.318-0.989-0.597-1.453-0.836c-0.465-0.239-0.869-0.424-1.215-0.557c-0.344-0.132-0.557-0.226-0.637-0.279
				c-0.292-0.159-0.497-0.351-0.616-0.577c-0.12-0.225-0.206-0.418-0.259-0.578c-0.027-0.079-0.074-0.192-0.14-0.338
				c-0.067-0.146-0.173-0.298-0.318-0.458c-0.146-0.159-0.319-0.292-0.518-0.398c-0.199-0.106-0.444-0.159-0.737-0.159
				c-0.291,0-0.551,0.086-0.775,0.259c-0.226,0.173-0.432,0.372-0.616,0.597c-0.187,0.226-0.326,0.458-0.419,0.696
				c-0.093,0.239-0.139,0.438-0.139,0.598c0,0.212,0.006,0.504,0.02,0.875c0.013,0.372,0.165,0.743,0.457,1.115
				c-0.079,0.345-0.158,0.617-0.238,0.816c-0.08,0.199-0.166,0.398-0.258,0.597c-0.059,0.123-0.126,0.259-0.199,0.402
				c-0.221,0.028-0.401,0.104-0.537,0.234c-0.266,0.253-0.531,0.763-0.797,1.532c-0.158,0.505-0.471,0.942-0.936,1.314
				c-0.464,0.372-1.081,0.557-1.851,0.557c-0.372,0-0.67-0.093-0.896-0.278s-0.393-0.432-0.498-0.737
				c-0.105-0.304-0.173-0.669-0.198-1.095c-0.027-0.424-0.04-0.875-0.04-1.353c0-0.478-0.007-0.949-0.02-1.413
				c-0.014-0.464-0.055-0.889-0.119-1.274c-0.067-0.384-0.174-0.709-0.319-0.975c-0.146-0.265-0.352-0.452-0.617-0.558
				c-0.266-0.08-0.577-0.139-0.936-0.178c-0.358-0.041-0.729-0.047-1.114-0.021c-0.385,0.027-0.756,0.1-1.114,0.219
				c-0.358,0.12-0.671,0.298-0.936,0.538c-0.266,0.239-0.531,0.511-0.797,0.816c-0.265,0.305-0.504,0.584-0.716,0.836
				c-0.213,0.252-0.392,0.464-0.538,0.637c-0.146,0.173-0.232,0.259-0.258,0.259c-0.134,0-0.226-0.292-0.279-0.875
				c0-0.133-0.02-0.312-0.06-0.538c-0.04-0.225-0.126-0.458-0.259-0.697s-0.318-0.451-0.557-0.637
				c-0.239-0.185-0.558-0.318-0.955-0.397c-1.54-0.239-2.283,0.318-2.229,1.672c0,0.345,0.013,0.929,0.039,1.751
				c0.012,0.366,0.033,0.741,0.058,1.119c-0.086,0.119-0.171,0.251-0.256,0.413c-0.134,0.253-0.292,0.564-0.478,0.935
				c-0.319,0.611-0.638,1.089-0.955,1.433c-0.32,0.345-0.625,0.704-0.917,1.075c-0.317,0.372-0.79,0.764-1.413,1.174
				c-0.623,0.411-1.32,0.803-2.089,1.174c0.053-0.981,0.1-1.923,0.14-2.826c0.039-0.902,0.125-1.618,0.258-2.149
				c0.133-0.292,0.266-0.664,0.398-1.115c0.079-0.239,0.119-0.411,0.119-0.518c0.212-0.876,0.391-1.519,0.537-1.93
				s0.113-0.79-0.1-1.134c-0.212-0.345-0.557-0.638-1.034-0.876c-0.478-0.239-1.022-0.319-1.632-0.239
				c-0.372,0.054-0.638,0.206-0.797,0.458c-0.158,0.253-0.305,0.617-0.438,1.095c-0.452-0.186-0.981-0.338-1.593-0.457
				c-0.61-0.12-1.3-0.192-2.069-0.219c-0.823-0.026-1.687,0.073-2.588,0.299c-0.902,0.226-1.726,0.577-2.468,1.054
				c-0.742,0.478-1.354,1.083-1.831,1.812c-0.478,0.73-0.717,1.585-0.717,2.568c0,0.43,0.049,0.821,0.128,1.186
				c-0.232,0.237-0.487,0.452-0.783,0.625c-0.386,0.226-0.817,0.313-1.294,0.259c-0.425-0.053-0.757-0.225-0.995-0.518
				c-0.239-0.292-0.412-0.629-0.519-1.014c-0.105-0.385-0.166-0.783-0.178-1.195c-0.015-0.411-0.008-0.762,0.02-1.054
				c0.053-0.583,0.1-1.095,0.139-1.533c0.04-0.438,0.061-0.802,0.061-1.094c0-0.106-0.048-0.258-0.14-0.458
				c-0.094-0.199-0.233-0.391-0.418-0.577c-0.186-0.186-0.398-0.344-0.637-0.478c-0.239-0.132-0.518-0.198-0.837-0.198
				c-0.77,0-1.347,0.179-1.731,0.538c-0.385,0.358-0.577,1.108-0.577,2.249c0,0.398-0.013,0.869-0.039,1.413
				c-0.027,0.544-0.027,1.122,0,1.731c0.026,0.611,0.125,1.221,0.298,1.832s0.464,1.167,0.876,1.671
				c0.411,0.505,0.975,0.917,1.691,1.234c0.717,0.318,1.633,0.491,2.747,0.518c1.274,0.026,2.302-0.2,3.085-0.677
				c0.347-0.21,0.652-0.438,0.933-0.675c0.111,0.09,0.224,0.179,0.341,0.257c0.57,0.384,1.154,0.649,1.752,0.795
				c0.596,0.146,1.055,0.219,1.373,0.219c0.45,0,1.127-0.133,2.03-0.397c0.901-0.266,1.856-0.69,2.865-1.274
				c-0.053,0.452-0.087,0.863-0.099,1.234c-0.015,0.372-0.034,0.677-0.061,0.916c-0.026,0.053-0.039,0.173-0.039,0.358
				c-1.115,0.452-2.11,0.83-2.985,1.135c-0.876,0.305-1.447,0.511-1.712,0.617c-0.293,0.133-0.664,0.331-1.115,0.597
				c-0.451,0.265-0.89,0.611-1.313,1.036c-0.425,0.424-0.79,0.928-1.095,1.512c-0.305,0.584-0.458,1.248-0.458,1.99
				c0,0.93,0.22,1.705,0.657,2.33c0.438,0.621,0.948,1.119,1.532,1.492c0.584,0.371,1.168,0.631,1.751,0.775
				c0.585,0.146,1.01,0.221,1.274,0.221c0.558-0.027,1.294-0.154,2.21-0.379c0.915-0.227,1.837-0.736,2.766-1.533
				c0.425-0.371,0.764-0.869,1.016-1.492s0.458-1.301,0.616-2.029c0.16-0.73,0.272-1.475,0.339-2.23
				c0.065-0.756,0.126-1.44,0.18-2.05c0.291-0.133,0.577-0.292,0.855-0.478c0.279-0.186,0.577-0.385,0.896-0.597
				c0.558-0.372,1.128-0.775,1.712-1.214c0.584-0.438,1.147-0.929,1.692-1.473c0.543-0.543,1.06-1.154,1.552-1.831
				c0.044-0.062,0.087-0.129,0.132-0.193c0.168,0.635,0.396,1.04,0.684,1.208c0.664,0.398,1.175,0.611,1.533,0.637
				c0.357,0.026,0.604,0.026,0.736,0c0.133-0.026,0.324-0.152,0.577-0.378c0.252-0.225,0.404-0.483,0.457-0.776
				c0-0.132,0.054-0.338,0.16-0.617c0.105-0.279,0.219-0.578,0.338-0.896c0.119-0.318,0.252-0.617,0.398-0.896
				c0.146-0.279,0.259-0.484,0.338-0.617c0.08-0.133,0.192-0.324,0.339-0.577c0.146-0.252,0.292-0.498,0.438-0.737
				c0.145-0.239,0.284-0.431,0.417-0.577c0.133-0.145,0.238-0.206,0.318-0.179c0.08,0.054,0.146,0.179,0.199,0.378
				c0.053,0.2,0.105,0.438,0.159,0.716c0.053,0.279,0.112,0.564,0.18,0.856c0.066,0.292,0.14,0.544,0.219,0.757
				c0.079,0.213,0.212,0.538,0.398,0.975c0.186,0.438,0.463,0.87,0.836,1.294c0.37,0.424,0.849,0.796,1.433,1.114
				c0.583,0.318,1.313,0.478,2.188,0.478c0.85,0,1.6-0.132,2.25-0.398c0.649-0.265,1.2-0.603,1.652-1.014
				c0.145-0.132,0.278-0.271,0.408-0.413c0.07,0.098,0.154,0.19,0.268,0.273c0.663,0.557,1.347,0.961,2.05,1.213
				c0.703,0.253,1.347,0.418,1.931,0.498c0.583,0.079,1.095,0.106,1.532,0.079c0.438-0.026,0.736-0.04,0.896-0.04
				s0.479-0.06,0.955-0.179c0.479-0.12,0.976-0.339,1.493-0.658c0.519-0.318,0.981-0.769,1.394-1.352
				c0.411-0.584,0.617-1.354,0.617-2.309l0.039,0.04C225.848,28.199,225.709,27.622,225.43,27.105z M186.818,40.639
				c-0.226,0.678-0.563,1.227-1.015,1.652c-0.134,0.133-0.292,0.271-0.478,0.418c-0.187,0.145-0.392,0.258-0.617,0.338
				s-0.472,0.119-0.736,0.119c-0.267,0-0.558-0.105-0.875-0.318c-0.373-0.238-0.612-0.51-0.717-0.816
				c-0.107-0.305-0.107-0.604,0-0.895c0.104-0.293,0.291-0.57,0.557-0.836c0.265-0.266,0.598-0.465,0.996-0.598
				c0.688-0.238,1.306-0.451,1.85-0.637c0.544-0.186,1.055-0.372,1.532-0.557C187.21,39.252,187.043,39.963,186.818,40.639z
				 M187.834,27.204c-0.08,0.187-0.173,0.378-0.279,0.578c-0.106,0.199-0.213,0.404-0.318,0.617
				c-0.213,0.425-0.551,0.791-1.016,1.095c-0.464,0.305-0.955,0.524-1.472,0.657c-0.518,0.134-1.016,0.186-1.493,0.16
				c-0.479-0.026-0.81-0.16-0.995-0.399c-0.213-0.238-0.272-0.536-0.179-0.896c0.092-0.358,0.299-0.709,0.616-1.054
				c0.318-0.345,0.737-0.638,1.255-0.875c0.517-0.239,1.107-0.359,1.771-0.359c0.45,0,0.848,0.047,1.193,0.14
				c0.345,0.093,0.663,0.192,0.956,0.298L187.834,27.204z M221.43,28.756v0.041c-0.08,0.398-0.259,0.703-0.538,0.916
				c-0.277,0.212-0.61,0.345-0.994,0.397c-0.386,0.054-0.79,0.054-1.214,0c-0.426-0.052-0.836-0.132-1.234-0.238
				c-0.16-0.053-0.306-0.1-0.438-0.139c-0.135-0.04-0.267-0.073-0.399-0.1l0.081-0.159c0.291-0.344,0.523-0.836,0.696-1.472
				c0.172-0.637,0.324-1.314,0.458-2.03c0.45,0.159,0.901,0.332,1.354,0.518c0.45,0.186,0.854,0.392,1.213,0.617
				c0.358,0.225,0.638,0.471,0.836,0.736C221.45,28.107,221.509,28.412,221.43,28.756z"/>
		</g>
		<defs>
			<filter id="Adobe_OpacityMaskFilter" filterUnits="userSpaceOnUse" x="8.01" y="7.939" width="217.837" height="38.492">
				
					<feColorMatrix  type="matrix" values="-1 0 0 0 1  0 -1 0 0 1  0 0 -1 0 1  0 0 0 1 0" color-interpolation-filters="sRGB" result="source"/>
			</filter>
		</defs>
		<mask maskUnits="userSpaceOnUse" x="8.01" y="7.939" width="217.837" height="38.492" id="SVGID_7_">
			<g filter="url(#Adobe_OpacityMaskFilter)">
				
					<image overflow="visible" width="925" height="178" xlink:href="216F7997.jpg"  transform="matrix(0.24 0 0 0.24 6.0103 5.9395)">
				</image>
			</g>
		</mask>
		<g mask="url(#SVGID_7_)">
			<path fill="#FFFFFF" d="M36.113,15.891c-0.318,0.239-0.676,0.425-1.074,0.557c-0.213,0.159-0.372,0.332-0.478,0.518
				c-0.106,0.159-0.186,0.345-0.239,0.557c-0.053,0.213-0.014,0.438,0.119,0.677c0.239,0.478,0.478,0.783,0.717,0.916
				c0.239,0.133,0.703,0.079,1.394-0.16c0.424-0.132,0.955-0.298,1.592-0.498c0.637-0.199,1.254-0.498,1.851-0.896
				c0.597-0.398,1.115-0.929,1.552-1.592c0.438-0.663,0.657-1.526,0.657-2.587c0-1.061-0.279-1.917-0.836-2.567
				s-1.321-1.161-2.289-1.533c-0.969-0.371-2.097-0.623-3.384-0.756c-1.287-0.132-2.646-0.199-4.08-0.199
				c-1.035,0-2.329,0.086-3.881,0.259c-1.552,0.173-3.204,0.444-4.956,0.815c-1.752,0.373-3.503,0.85-5.255,1.433
				c-1.751,0.584-3.331,1.274-4.737,2.07c-1.407,0.796-2.555,1.712-3.443,2.747c-0.889,1.035-1.334,2.176-1.334,3.423
				c0,1.009,0.597,1.871,1.792,2.587c1.194,0.717,2.7,1.348,4.518,1.891c1.818,0.544,3.775,1.035,5.872,1.473
				c2.096,0.438,4.054,0.875,5.872,1.313c1.817,0.438,3.324,0.902,4.518,1.393c1.194,0.491,1.791,1.082,1.791,1.771
				c0,0.292-0.159,0.544-0.478,0.756c-0.319,0.212-0.723,0.392-1.214,0.537c-0.491,0.146-1.028,0.266-1.612,0.358
				c-0.584,0.093-1.148,0.159-1.692,0.199c-0.544,0.04-1.022,0.066-1.433,0.079c-0.412,0.014-0.697,0.02-0.856,0.02
				c-1.513-0.026-2.925-0.099-4.239-0.219c-1.313-0.119-2.481-0.259-3.502-0.418c-1.022-0.159-1.865-0.325-2.528-0.498
				c-0.664-0.171-1.102-0.298-1.313-0.378c-0.213-0.105-0.465-0.185-0.756-0.239c-0.292-0.052-0.578-0.066-0.856-0.04
				c-0.279,0.027-0.531,0.106-0.756,0.238c-0.226,0.133-0.392,0.333-0.498,0.598c-0.106,0.292-0.133,0.544-0.08,0.756
				c0.053,0.212,0.152,0.404,0.298,0.578c0.146,0.172,0.318,0.332,0.518,0.477c0.199,0.147,0.392,0.286,0.577,0.419
				c0.265,0.185,0.836,0.423,1.711,0.716c0.876,0.292,1.957,0.577,3.245,0.856c1.287,0.279,2.747,0.518,4.379,0.717
				c1.632,0.198,3.323,0.298,5.075,0.298c1.777,0,3.429-0.16,4.956-0.478c1.525-0.318,2.846-0.757,3.96-1.313
				c1.115-0.557,1.997-1.201,2.647-1.931c0.65-0.729,0.988-1.493,1.015-2.289c0.026-0.822-0.305-1.565-0.995-2.229
				c-0.69-0.663-1.606-1.274-2.747-1.832c-1.142-0.557-2.448-1.067-3.921-1.532c-1.473-0.464-2.985-0.902-4.538-1.313
				c-1.553-0.412-3.065-0.797-4.538-1.155c-1.473-0.358-2.786-0.71-3.941-1.055c-1.154-0.344-2.083-0.697-2.786-1.055
				c-0.704-0.358-1.055-0.723-1.055-1.095c0-0.424,0.292-0.842,0.875-1.253c0.583-0.411,1.347-0.803,2.289-1.175
				c0.941-0.371,1.99-0.709,3.145-1.015c1.154-0.305,2.309-0.577,3.463-0.816c1.154-0.239,2.249-0.424,3.284-0.557
				c1.035-0.132,1.884-0.225,2.548-0.279c0.928-0.053,1.831-0.093,2.707-0.119c0.876-0.026,1.646-0.006,2.309,0.06
				c0.663,0.066,1.194,0.199,1.592,0.398c0.398,0.199,0.597,0.498,0.597,0.896c0,0.372-0.113,0.703-0.339,0.995
				C36.664,15.467,36.405,15.706,36.113,15.891z"/>
			<path fill="#FFFFFF" d="M108.197,26.408c-0.584-0.132-1.002-0.073-1.254,0.179c-0.253,0.253-0.524,0.763-0.816,1.533
				c-0.053,0.159-0.265,0.425-0.637,0.796c-0.372,0.372-0.883,0.737-1.533,1.095c-0.65,0.358-1.453,0.67-2.408,0.936
				c-0.956,0.266-2.044,0.398-3.265,0.398c-0.557,0-1.055-0.099-1.493-0.298s-0.803-0.444-1.095-0.736
				c0.61,0,1.379-0.106,2.309-0.319c0.637-0.132,1.247-0.338,1.831-0.616c0.583-0.279,1.101-0.624,1.552-1.036
				c0.451-0.411,0.809-0.875,1.075-1.393c0.265-0.518,0.398-1.081,0.398-1.691s-0.173-1.115-0.518-1.513
				c-0.345-0.398-0.776-0.717-1.294-0.956c-0.517-0.239-1.068-0.411-1.652-0.518c-0.584-0.106-1.115-0.16-1.592-0.16
				s-1.115,0.074-1.911,0.22s-1.592,0.418-2.389,0.815c-0.796,0.398-1.52,0.943-2.169,1.633c-0.504,0.534-0.856,1.19-1.065,1.963
				c-0.227,0.282-0.462,0.734-0.707,1.38c-0.053,0.08-0.172,0.266-0.358,0.557c-0.186,0.292-0.464,0.584-0.836,0.876
				c-0.372,0.292-0.836,0.557-1.393,0.796s-1.234,0.358-2.03,0.358c-0.876,0-1.566-0.212-2.07-0.637
				c-0.504-0.424-0.876-1.021-1.115-1.791c0.398-0.558,0.956-1.347,1.672-2.368c0.717-1.021,1.426-2.149,2.13-3.384
				c0.703-1.233,1.307-2.508,1.811-3.821c0.504-1.313,0.756-2.554,0.756-3.722c0-0.345-0.04-0.789-0.12-1.333
				c-0.08-0.543-0.245-1.068-0.498-1.572c-0.252-0.504-0.63-0.936-1.134-1.293c-0.504-0.358-1.168-0.538-1.99-0.538
				c-0.956,0-1.798,0.239-2.528,0.717c-0.73,0.478-1.36,1.114-1.891,1.911c-0.531,0.796-0.976,1.692-1.333,2.687
				c-0.358,0.995-0.637,2.01-0.836,3.045c-0.199,1.035-0.345,2.037-0.438,3.005c-0.093,0.969-0.139,1.825-0.139,2.568
				c0,0.839,0.064,1.683,0.192,2.531c-0.107,0.125-0.217,0.275-0.332,0.474c-0.146,0.253-0.313,0.552-0.498,0.896
				c-0.106,0.239-0.286,0.498-0.538,0.776s-0.644,0.538-1.174,0.776c-0.875,0.398-1.532,0.485-1.97,0.259
				c-0.438-0.226-0.803-0.551-1.095-0.976c-0.133-0.212-0.212-0.517-0.239-0.915c-0.026-0.398-0.026-0.817,0-1.254
				c0.027-0.438,0.073-0.869,0.14-1.294c0.066-0.424,0.126-0.769,0.179-1.035c0.08-0.531-0.066-0.995-0.438-1.393
				c-0.372-0.398-0.73-0.637-1.075-0.716c-0.318-0.08-0.696-0.08-1.134,0c-0.438,0.08-0.736,0.186-0.896,0.318
				c-0.08,0.079-0.16,0.245-0.239,0.497c-0.079,0.253-0.146,0.545-0.199,0.876c-0.053,0.332-0.1,0.664-0.14,0.995
				c-0.04,0.333-0.073,0.591-0.099,0.777c-0.133,1.114-0.478,2.017-1.035,2.707c-0.558,0.69-1.168,1.048-1.831,1.075
				c-0.318,0-0.604-0.066-0.856-0.199c-0.252-0.132-0.458-0.299-0.617-0.498s-0.286-0.398-0.378-0.597
				c-0.094-0.199-0.14-0.378-0.14-0.538c0-0.345,0.046-0.756,0.14-1.233c0.092-0.478,0.205-1.208,0.338-2.189
				c0.053-0.478,0.006-0.842-0.14-1.095c-0.146-0.252-0.325-0.431-0.537-0.538c-0.212-0.105-0.418-0.165-0.617-0.179
				c-0.199-0.013-0.338-0.02-0.418-0.02c-0.16-0.026-0.385-0.026-0.677,0c-0.292,0.026-0.624,0.146-0.995,0.358
				c-0.186,0.133-0.338,0.412-0.458,0.836c-0.092,0.329-0.168,0.703-0.229,1.119c-0.15,0.135-0.306,0.28-0.467,0.434
				c-0.213,0.213-0.478,0.365-0.796,0.458c-0.318,0.093-0.657,0.146-1.015,0.159c-0.358,0.014-0.704-0.006-1.035-0.059
				c-0.333-0.054-0.591-0.12-0.776-0.2c-0.292-0.132-0.518-0.272-0.677-0.418c-0.159-0.145-0.306-0.285-0.438-0.418
				c-0.106-0.265-0.292-0.543-0.557-0.835c-0.451-0.531-1.221-1.035-2.309-1.513c-0.318-0.133-0.717-0.272-1.194-0.418
				s-1.048-0.219-1.711-0.219c-1.089,0-2.097,0.179-3.025,0.537c-0.929,0.358-1.739,0.823-2.428,1.394
				c-0.69,0.571-1.234,1.208-1.632,1.911c-0.398,0.704-0.598,1.387-0.598,2.05c0,0.69,0.106,1.353,0.318,1.99
				c0.212,0.638,0.558,1.202,1.036,1.692c0.478,0.491,1.108,0.89,1.891,1.194c0.782,0.305,1.731,0.458,2.846,0.458
				c1.008,0,1.943-0.12,2.807-0.359c0.861-0.238,1.631-0.55,2.309-0.935c0.677-0.385,1.234-0.822,1.672-1.314
				c0.438-0.491,0.736-0.989,0.895-1.493c0.743,0.026,1.434-0.02,2.07-0.14c0.638-0.119,1.181-0.245,1.632-0.377
				c0.348-0.1,0.667-0.228,0.964-0.38c-0.005,0.228-0.008,0.451-0.008,0.658c0,0.505,0.105,1.022,0.318,1.553
				c0.212,0.531,0.511,1.015,0.896,1.453c0.384,0.438,0.849,0.79,1.393,1.055c0.544,0.265,1.161,0.397,1.851,0.397
				c0.689,0,1.32-0.119,1.891-0.358c0.57-0.239,1.055-0.504,1.453-0.796c0.478-0.345,0.902-0.743,1.274-1.194
				c0.344,0.425,0.756,0.783,1.234,1.075c0.398,0.292,0.896,0.543,1.493,0.755c0.597,0.213,1.28,0.318,2.05,0.318
				c1.061,0,1.983-0.178,2.767-0.537c0.782-0.358,1.426-0.769,1.931-1.234c0.368-0.339,0.671-0.674,0.912-1.007
				c0.085,0.165,0.168,0.331,0.262,0.489c0.543,0.916,1.28,1.659,2.209,2.229c0.928,0.57,2.096,0.855,3.502,0.855
				c1.406,0,2.594-0.233,3.563-0.696c0.968-0.464,1.758-0.989,2.368-1.573c0.131-0.125,0.251-0.249,0.367-0.371
				c0.225,0.363,0.505,0.7,0.848,1.007c0.65,0.584,1.506,1.042,2.567,1.374c1.061,0.332,2.361,0.498,3.901,0.498
				c1.513,0,2.886-0.173,4.12-0.518c1.234-0.344,2.295-0.776,3.185-1.293c0.889-0.518,1.612-1.075,2.169-1.672
				c0.557-0.597,0.941-1.147,1.154-1.652c0.212-0.583,0.259-1.115,0.139-1.592C108.695,26.727,108.489,26.462,108.197,26.408z
				 M49.623,29.016c-0.279,0.199-0.571,0.352-0.875,0.458c-0.306,0.107-0.584,0.173-0.836,0.2c-0.252,0.027-0.432,0.04-0.537,0.04
				c-0.133,0-0.326-0.006-0.578-0.02c-0.252-0.013-0.504-0.066-0.756-0.159c-0.252-0.093-0.471-0.259-0.657-0.498
				c-0.186-0.239-0.279-0.583-0.279-1.035s0.12-0.836,0.358-1.155s0.511-0.577,0.816-0.776c0.305-0.2,0.617-0.352,0.935-0.458
				c0.319-0.106,0.558-0.16,0.717-0.16c0.133,0,0.252,0,0.358,0c0.105,0,0.239,0.014,0.398,0.041
				c0.053,0.212,0.112,0.412,0.179,0.597c0.066,0.186,0.125,0.372,0.18,0.557c0.159,0.398,0.338,0.716,0.537,0.955
				c0.199,0.239,0.418,0.425,0.657,0.557l0.04,0.04C50.12,28.545,49.901,28.817,49.623,29.016z M81.606,21.93
				c0.053-0.677,0.12-1.36,0.199-2.05c0.159-1.3,0.338-2.335,0.537-3.105c0.199-0.77,0.412-1.36,0.637-1.771
				c0.225-0.411,0.458-0.677,0.697-0.796c0.239-0.12,0.464-0.179,0.677-0.179h0.04c0.212,0,0.345,0.179,0.398,0.538
				c0.053,0.358,0.06,0.79,0.02,1.293c-0.04,0.504-0.113,1.009-0.219,1.513c-0.106,0.504-0.212,0.902-0.318,1.194
				c-0.08,0.239-0.226,0.583-0.438,1.035c-0.212,0.452-0.451,0.936-0.716,1.453c-0.266,0.517-0.544,1.028-0.836,1.532
				c-0.292,0.505-0.557,0.93-0.796,1.274C81.513,23.251,81.553,22.607,81.606,21.93z M95.34,26.389
				c0.292-0.358,0.703-0.604,1.234-0.736c0.61-0.159,1.075-0.212,1.393-0.159s0.531,0.199,0.637,0.438
				c0.132,0.239,0.105,0.492-0.08,0.757c-0.186,0.266-0.531,0.504-1.035,0.716c-0.504,0.212-0.989,0.312-1.453,0.298
				c-0.465-0.013-0.882-0.046-1.254-0.1C94.862,27.152,95.047,26.747,95.34,26.389z"/>
			<path fill="#FFFFFF" d="M143.136,16.377h-0.04c0-0.822-0.324-1.771-0.975-2.846c-0.651-1.075-1.686-2.063-3.105-2.965
				c-1.42-0.902-3.244-1.612-5.474-2.13c-2.229-0.518-4.896-0.63-8.001-0.338c-1.777,0.159-3.557,0.411-5.333,0.756
				c-1.778,0.345-3.444,0.724-4.996,1.135c-1.553,0.412-2.932,0.836-4.14,1.274c-1.207,0.438-2.143,0.843-2.806,1.214
				c-0.345,0.292-0.61,0.677-0.796,1.154c-0.185,0.478-0.265,1.128-0.239,1.951c0,0.238,0.067,0.471,0.2,0.696
				c0.133,0.226,0.292,0.412,0.478,0.558c0.186,0.146,0.372,0.246,0.557,0.298c0.186,0.053,0.345,0.04,0.478-0.04
				c0.372-0.212,1.108-0.537,2.209-0.975c1.102-0.438,2.448-0.881,4.041-1.333c-0.159,0.743-0.305,1.619-0.438,2.627
				c-0.134,1.009-0.259,2.07-0.378,3.185c-0.12,1.114-0.233,2.243-0.339,3.383c-0.106,1.142-0.186,2.203-0.239,3.185
				c-0.054,0.982-0.086,1.851-0.099,2.607c-0.014,0.756-0.007,1.307,0.02,1.652c0.026,0.213,0.146,0.518,0.358,0.916
				c0.212,0.398,0.511,0.783,0.896,1.154c0.384,0.372,0.862,0.697,1.433,0.976c0.57,0.279,1.227,0.418,1.97,0.418
				c1.38,0,2.912-0.193,4.598-0.578c1.685-0.384,3.396-0.929,5.136-1.631c1.737-0.703,3.43-1.54,5.074-2.508
				c1.646-0.968,3.132-2.05,4.459-3.244c1.645-1.513,2.965-3.111,3.961-4.796C142.599,20.444,143.109,18.526,143.136,16.377z
				 M137.603,17.292c0.054,0.584-0.06,1.288-0.339,2.11c-0.277,0.823-0.729,1.692-1.354,2.607c-0.623,0.916-1.413,1.838-2.368,2.767
				c-0.955,0.929-2.063,1.778-3.323,2.547c-1.261,0.77-2.681,1.413-4.259,1.931c-1.579,0.517-3.298,0.829-5.155,0.935
				c-0.584,0.026-1.055,0-1.413-0.08s-0.617-0.252-0.776-0.518c-0.159-0.265-0.246-0.643-0.259-1.134
				c-0.014-0.49,0.02-1.147,0.1-1.97c0.132-1.3,0.285-2.607,0.458-3.921c0.172-1.313,0.344-2.548,0.518-3.702
				c0.172-1.154,0.351-2.202,0.537-3.145c0.186-0.941,0.358-1.705,0.518-2.289c1.326-0.266,2.666-0.478,4.021-0.637
				c1.354-0.159,2.68-0.239,3.98-0.239c1.963,0,3.528,0.113,4.696,0.338c1.168,0.226,2.07,0.544,2.708,0.956
				c0.636,0.412,1.067,0.909,1.294,1.493c0.225,0.584,0.378,1.234,0.457,1.95H137.603z"/>
			<path fill="#FFFFFF" d="M167.334,25.692c-0.425-0.424-0.89-0.796-1.394-1.115s-0.988-0.597-1.453-0.836
				c-0.464-0.239-0.868-0.424-1.214-0.557c-0.345-0.132-0.557-0.226-0.637-0.279c-0.292-0.159-0.497-0.351-0.616-0.577
				c-0.12-0.225-0.207-0.418-0.26-0.578c-0.026-0.079-0.073-0.192-0.14-0.338c-0.066-0.146-0.172-0.298-0.317-0.458
				c-0.146-0.159-0.318-0.292-0.518-0.398c-0.199-0.106-0.444-0.159-0.737-0.159c-0.292,0-0.551,0.086-0.775,0.259
				c-0.227,0.173-0.432,0.372-0.617,0.597c-0.186,0.226-0.325,0.458-0.418,0.696c-0.093,0.239-0.139,0.438-0.139,0.598
				c0,0.212,0.005,0.504,0.02,0.875c0.013,0.372,0.166,0.743,0.458,1.115c-0.08,0.345-0.16,0.617-0.238,0.816
				c-0.081,0.199-0.167,0.398-0.26,0.597c-0.06,0.125-0.128,0.265-0.202,0.411c-0.194,0.033-0.354,0.106-0.474,0.226
				c-0.253,0.253-0.524,0.763-0.816,1.532c-0.054,0.16-0.266,0.425-0.637,0.796c-0.372,0.372-0.882,0.737-1.533,1.095
				c-0.65,0.358-1.452,0.67-2.407,0.935c-0.955,0.266-2.045,0.398-3.265,0.398c-0.558,0-1.055-0.099-1.493-0.298
				c-0.438-0.199-0.802-0.444-1.094-0.736c0.609,0,1.379-0.106,2.309-0.319c0.637-0.133,1.247-0.338,1.831-0.616
				c0.583-0.279,1.101-0.624,1.553-1.036c0.451-0.412,0.809-0.875,1.075-1.393c0.265-0.518,0.397-1.081,0.397-1.692
				c0-0.61-0.173-1.115-0.518-1.513c-0.345-0.397-0.776-0.716-1.293-0.955c-0.519-0.239-1.069-0.412-1.653-0.518
				c-0.583-0.106-1.114-0.16-1.592-0.16s-1.114,0.073-1.91,0.219c-0.797,0.146-1.593,0.418-2.389,0.816
				c-0.797,0.398-1.521,0.942-2.17,1.633c-0.65,0.69-1.055,1.579-1.214,2.667c-0.132,0.929-0.086,1.785,0.14,2.567
				c0.225,0.783,0.663,1.467,1.313,2.05c0.649,0.584,1.506,1.042,2.567,1.374c1.062,0.332,2.361,0.497,3.901,0.497
				c1.512,0,2.886-0.173,4.119-0.517c1.234-0.345,2.296-0.776,3.186-1.294c0.646-0.376,1.201-0.773,1.672-1.191
				c0.046,0.238,0.182,0.445,0.417,0.615c0.663,0.557,1.347,0.961,2.05,1.213c0.703,0.253,1.347,0.418,1.931,0.498
				c0.584,0.079,1.095,0.106,1.532,0.079c0.438-0.026,0.736-0.04,0.896-0.04c0.158,0,0.477-0.06,0.955-0.179
				c0.478-0.12,0.975-0.339,1.492-0.658c0.518-0.318,0.981-0.769,1.394-1.352c0.411-0.584,0.617-1.354,0.617-2.309l0.039,0.04
				c0-0.638-0.14-1.215-0.418-1.731C168.11,26.587,167.758,26.116,167.334,25.692z M145.8,26.388
				c0.292-0.358,0.702-0.603,1.233-0.736c0.61-0.16,1.075-0.212,1.394-0.16c0.318,0.053,0.53,0.199,0.637,0.438
				c0.133,0.239,0.106,0.491-0.079,0.756c-0.187,0.266-0.531,0.505-1.035,0.717c-0.504,0.212-0.989,0.312-1.452,0.298
				c-0.466-0.013-0.883-0.046-1.255-0.1C145.322,27.152,145.507,26.746,145.8,26.388z M164.389,28.756v0.041
				c-0.079,0.398-0.259,0.703-0.537,0.916c-0.279,0.212-0.611,0.345-0.995,0.397c-0.386,0.054-0.79,0.054-1.215,0
				c-0.425-0.052-0.836-0.132-1.233-0.238c-0.159-0.053-0.306-0.1-0.438-0.139c-0.133-0.04-0.266-0.073-0.397-0.1l0.08-0.159
				c0.291-0.344,0.523-0.836,0.696-1.472c0.172-0.637,0.324-1.314,0.457-2.03c0.451,0.159,0.902,0.332,1.354,0.518
				s0.856,0.392,1.214,0.617c0.359,0.225,0.637,0.471,0.836,0.736C164.408,28.107,164.468,28.412,164.389,28.756z"/>
			<path fill="#FFFFFF" d="M170.319,17.272c0.239,0.306,0.584,0.571,1.035,0.796c0.451,0.226,1.048,0.365,1.791,0.418
				c0.742,0.053,1.319-0.033,1.731-0.259c0.412-0.225,0.723-0.491,0.936-0.796c0.212-0.305,0.345-0.604,0.397-0.896
				c0.054-0.292,0.081-0.491,0.081-0.597s-0.04-0.332-0.12-0.677c-0.08-0.344-0.253-0.703-0.518-1.075
				c-0.265-0.371-0.663-0.703-1.194-0.995c-0.53-0.292-1.234-0.438-2.109-0.438c-0.585,0-1.049,0.094-1.394,0.279
				c-0.345,0.187-0.61,0.418-0.796,0.697s-0.306,0.571-0.358,0.875c-0.053,0.306-0.079,0.577-0.079,0.816
				c0,0.265,0.039,0.564,0.119,0.895C169.921,16.649,170.08,16.968,170.319,17.272z"/>
			<path fill="#FFFFFF" d="M225.43,27.105c-0.278-0.518-0.631-0.989-1.055-1.414c-0.425-0.424-0.89-0.796-1.393-1.115
				c-0.505-0.318-0.989-0.597-1.453-0.836c-0.465-0.239-0.869-0.424-1.215-0.557c-0.344-0.132-0.557-0.226-0.637-0.279
				c-0.292-0.159-0.497-0.351-0.616-0.577c-0.12-0.225-0.206-0.418-0.259-0.578c-0.027-0.079-0.074-0.192-0.14-0.338
				c-0.067-0.146-0.173-0.298-0.318-0.458c-0.146-0.159-0.319-0.292-0.518-0.398c-0.199-0.106-0.444-0.159-0.737-0.159
				c-0.291,0-0.551,0.086-0.775,0.259c-0.226,0.173-0.432,0.372-0.616,0.597c-0.187,0.226-0.326,0.458-0.419,0.696
				c-0.093,0.239-0.139,0.438-0.139,0.598c0,0.212,0.006,0.504,0.02,0.875c0.013,0.372,0.165,0.743,0.457,1.115
				c-0.079,0.345-0.158,0.617-0.238,0.816c-0.08,0.199-0.166,0.398-0.258,0.597c-0.059,0.123-0.126,0.259-0.199,0.402
				c-0.221,0.028-0.401,0.104-0.537,0.234c-0.266,0.253-0.531,0.763-0.797,1.532c-0.158,0.505-0.471,0.942-0.936,1.314
				c-0.464,0.372-1.081,0.557-1.851,0.557c-0.372,0-0.67-0.093-0.896-0.278s-0.393-0.432-0.498-0.737
				c-0.105-0.304-0.173-0.669-0.198-1.095c-0.027-0.424-0.04-0.875-0.04-1.353c0-0.478-0.007-0.949-0.02-1.413
				c-0.014-0.464-0.055-0.889-0.119-1.274c-0.067-0.384-0.174-0.709-0.319-0.975c-0.146-0.265-0.352-0.452-0.617-0.558
				c-0.266-0.08-0.577-0.139-0.936-0.178c-0.358-0.041-0.729-0.047-1.114-0.021c-0.385,0.027-0.756,0.1-1.114,0.219
				c-0.358,0.12-0.671,0.298-0.936,0.538c-0.266,0.239-0.531,0.511-0.797,0.816c-0.265,0.305-0.504,0.584-0.716,0.836
				c-0.213,0.252-0.392,0.464-0.538,0.637c-0.146,0.173-0.232,0.259-0.258,0.259c-0.134,0-0.226-0.292-0.279-0.875
				c0-0.133-0.02-0.312-0.06-0.538c-0.04-0.225-0.126-0.458-0.259-0.697s-0.318-0.451-0.557-0.637
				c-0.239-0.185-0.558-0.318-0.955-0.397c-1.54-0.239-2.283,0.318-2.229,1.672c0,0.345,0.013,0.929,0.039,1.751
				c0.012,0.366,0.033,0.741,0.058,1.119c-0.086,0.119-0.171,0.251-0.256,0.413c-0.134,0.253-0.292,0.564-0.478,0.935
				c-0.319,0.611-0.638,1.089-0.955,1.433c-0.32,0.345-0.625,0.704-0.917,1.075c-0.317,0.372-0.79,0.764-1.413,1.174
				c-0.623,0.411-1.32,0.803-2.089,1.174c0.053-0.981,0.1-1.923,0.14-2.826c0.039-0.902,0.125-1.618,0.258-2.149
				c0.133-0.292,0.266-0.664,0.398-1.115c0.079-0.239,0.119-0.411,0.119-0.518c0.212-0.876,0.391-1.519,0.537-1.93
				s0.113-0.79-0.1-1.134c-0.212-0.345-0.557-0.638-1.034-0.876c-0.478-0.239-1.022-0.319-1.632-0.239
				c-0.372,0.054-0.638,0.206-0.797,0.458c-0.158,0.253-0.305,0.617-0.438,1.095c-0.452-0.186-0.981-0.338-1.593-0.457
				c-0.61-0.12-1.3-0.192-2.069-0.219c-0.823-0.026-1.687,0.073-2.588,0.299c-0.902,0.226-1.726,0.577-2.468,1.054
				c-0.742,0.478-1.354,1.083-1.831,1.812c-0.478,0.73-0.717,1.585-0.717,2.568c0,0.43,0.049,0.821,0.128,1.186
				c-0.232,0.237-0.487,0.452-0.783,0.625c-0.386,0.226-0.817,0.313-1.294,0.259c-0.425-0.053-0.757-0.225-0.995-0.518
				c-0.239-0.292-0.412-0.629-0.519-1.014c-0.105-0.385-0.166-0.783-0.178-1.195c-0.015-0.411-0.008-0.762,0.02-1.054
				c0.053-0.583,0.1-1.095,0.139-1.533c0.04-0.438,0.061-0.802,0.061-1.094c0-0.106-0.048-0.258-0.14-0.458
				c-0.094-0.199-0.233-0.391-0.418-0.577c-0.186-0.186-0.398-0.344-0.637-0.478c-0.239-0.132-0.518-0.198-0.837-0.198
				c-0.77,0-1.347,0.179-1.731,0.538c-0.385,0.358-0.577,1.108-0.577,2.249c0,0.398-0.013,0.869-0.039,1.413
				c-0.027,0.544-0.027,1.122,0,1.731c0.026,0.611,0.125,1.221,0.298,1.832s0.464,1.167,0.876,1.671
				c0.411,0.505,0.975,0.917,1.691,1.234c0.717,0.318,1.633,0.491,2.747,0.518c1.274,0.026,2.302-0.2,3.085-0.677
				c0.347-0.21,0.652-0.438,0.933-0.675c0.111,0.09,0.224,0.179,0.341,0.257c0.57,0.384,1.154,0.649,1.752,0.795
				c0.596,0.146,1.055,0.219,1.373,0.219c0.45,0,1.127-0.133,2.03-0.397c0.901-0.266,1.856-0.69,2.865-1.274
				c-0.053,0.452-0.087,0.863-0.099,1.234c-0.015,0.372-0.034,0.677-0.061,0.916c-0.026,0.053-0.039,0.173-0.039,0.358
				c-1.115,0.452-2.11,0.83-2.985,1.135c-0.876,0.305-1.447,0.511-1.712,0.617c-0.293,0.133-0.664,0.331-1.115,0.597
				c-0.451,0.265-0.89,0.611-1.313,1.036c-0.425,0.424-0.79,0.928-1.095,1.512c-0.305,0.584-0.458,1.248-0.458,1.99
				c0,0.93,0.22,1.705,0.657,2.33c0.438,0.621,0.948,1.119,1.532,1.492c0.584,0.371,1.168,0.631,1.751,0.775
				c0.585,0.146,1.01,0.221,1.274,0.221c0.558-0.027,1.294-0.154,2.21-0.379c0.915-0.227,1.837-0.736,2.766-1.533
				c0.425-0.371,0.764-0.869,1.016-1.492s0.458-1.301,0.616-2.029c0.16-0.73,0.272-1.475,0.339-2.23
				c0.065-0.756,0.126-1.44,0.18-2.05c0.291-0.133,0.577-0.292,0.855-0.478c0.279-0.186,0.577-0.385,0.896-0.597
				c0.558-0.372,1.128-0.775,1.712-1.214c0.584-0.438,1.147-0.929,1.692-1.473c0.543-0.543,1.06-1.154,1.552-1.831
				c0.044-0.062,0.087-0.129,0.132-0.193c0.168,0.635,0.396,1.04,0.684,1.208c0.664,0.398,1.175,0.611,1.533,0.637
				c0.357,0.026,0.604,0.026,0.736,0c0.133-0.026,0.324-0.152,0.577-0.378c0.252-0.225,0.404-0.483,0.457-0.776
				c0-0.132,0.054-0.338,0.16-0.617c0.105-0.279,0.219-0.578,0.338-0.896c0.119-0.318,0.252-0.617,0.398-0.896
				c0.146-0.279,0.259-0.484,0.338-0.617c0.08-0.133,0.192-0.324,0.339-0.577c0.146-0.252,0.292-0.498,0.438-0.737
				c0.145-0.239,0.284-0.431,0.417-0.577c0.133-0.145,0.238-0.206,0.318-0.179c0.08,0.054,0.146,0.179,0.199,0.378
				c0.053,0.2,0.105,0.438,0.159,0.716c0.053,0.279,0.112,0.564,0.18,0.856c0.066,0.292,0.14,0.544,0.219,0.757
				c0.079,0.213,0.212,0.538,0.398,0.975c0.186,0.438,0.463,0.87,0.836,1.294c0.37,0.424,0.849,0.796,1.433,1.114
				c0.583,0.318,1.313,0.478,2.188,0.478c0.85,0,1.6-0.132,2.25-0.398c0.649-0.265,1.2-0.603,1.652-1.014
				c0.145-0.132,0.278-0.271,0.408-0.413c0.07,0.098,0.154,0.19,0.268,0.273c0.663,0.557,1.347,0.961,2.05,1.213
				c0.703,0.253,1.347,0.418,1.931,0.498c0.583,0.079,1.095,0.106,1.532,0.079c0.438-0.026,0.736-0.04,0.896-0.04
				s0.479-0.06,0.955-0.179c0.479-0.12,0.976-0.339,1.493-0.658c0.519-0.318,0.981-0.769,1.394-1.352
				c0.411-0.584,0.617-1.354,0.617-2.309l0.039,0.04C225.848,28.199,225.709,27.622,225.43,27.105z M186.818,40.639
				c-0.226,0.678-0.563,1.227-1.015,1.652c-0.134,0.133-0.292,0.271-0.478,0.418c-0.187,0.145-0.392,0.258-0.617,0.338
				s-0.472,0.119-0.736,0.119c-0.267,0-0.558-0.105-0.875-0.318c-0.373-0.238-0.612-0.51-0.717-0.816
				c-0.107-0.305-0.107-0.604,0-0.895c0.104-0.293,0.291-0.57,0.557-0.836c0.265-0.266,0.598-0.465,0.996-0.598
				c0.688-0.238,1.306-0.451,1.85-0.637c0.544-0.186,1.055-0.372,1.532-0.557C187.21,39.252,187.043,39.963,186.818,40.639z
				 M187.834,27.204c-0.08,0.187-0.173,0.378-0.279,0.578c-0.106,0.199-0.213,0.404-0.318,0.617
				c-0.213,0.425-0.551,0.791-1.016,1.095c-0.464,0.305-0.955,0.524-1.472,0.657c-0.518,0.134-1.016,0.186-1.493,0.16
				c-0.479-0.026-0.81-0.16-0.995-0.399c-0.213-0.238-0.272-0.536-0.179-0.896c0.092-0.358,0.299-0.709,0.616-1.054
				c0.318-0.345,0.737-0.638,1.255-0.875c0.517-0.239,1.107-0.359,1.771-0.359c0.45,0,0.848,0.047,1.193,0.14
				c0.345,0.093,0.663,0.192,0.956,0.298L187.834,27.204z M221.43,28.756v0.041c-0.08,0.398-0.259,0.703-0.538,0.916
				c-0.277,0.212-0.61,0.345-0.994,0.397c-0.386,0.054-0.79,0.054-1.214,0c-0.426-0.052-0.836-0.132-1.234-0.238
				c-0.16-0.053-0.306-0.1-0.438-0.139c-0.135-0.04-0.267-0.073-0.399-0.1l0.081-0.159c0.291-0.344,0.523-0.836,0.696-1.472
				c0.172-0.637,0.324-1.314,0.458-2.03c0.45,0.159,0.901,0.332,1.354,0.518c0.45,0.186,0.854,0.392,1.213,0.617
				c0.358,0.225,0.638,0.471,0.836,0.736C221.45,28.107,221.509,28.412,221.43,28.756z"/>
		</g>
	</g>
</g>
</svg>
