<?xml version="1.0" encoding="utf-8"?>
<!-- Generator: Adobe Illustrator 16.0.3, SVG Export Plug-In . SVG Version: 6.00 Build 0)  -->
<!DOCTYPE svg PUBLIC "-//W3C//DTD SVG 1.1//EN" "http://www.w3.org/Graphics/SVG/1.1/DTD/svg11.dtd">
<svg version="1.1" id="Layer_1" xmlns="http://www.w3.org/2000/svg" xmlns:xlink="http://www.w3.org/1999/xlink" x="0px" y="0px"
	 width="128px" height="128px" viewBox="0 0 128 128" enable-background="new 0 0 128 128" xml:space="preserve">
<g id="_x33_d_x5F_Axis">
	<path fill="#9DAD8E" d="M60.66,58.609c0-1.993-0.004-3.984,0.001-5.978c0.006-1.95,1.32-3.435,3.442-3.691
		c1.394-0.169,3.192,0.552,3.777,2.526c0.161,0.54,0.217,1.127,0.22,1.694c0.02,3.768,0.026,7.537-0.007,11.306
		c-0.007,0.644,0.214,0.977,0.76,1.286c3.388,1.929,6.762,3.88,10.128,5.849c1.811,1.062,2.391,3.192,1.389,4.937
		c-1.07,1.864-3.275,2.484-5.113,1.427c-3.376-1.946-6.757-3.884-10.117-5.859c-0.55-0.323-0.957-0.306-1.493,0.006
		c-3.322,1.945-6.689,3.813-9.987,5.799c-2.126,1.281-4.935,0.221-5.577-2.245c-0.362-1.393,0.2-3.201,1.682-4.04
		c3.412-1.934,6.787-3.934,10.191-5.883c0.511-0.292,0.735-0.612,0.721-1.229C60.632,62.546,60.66,60.577,60.66,58.609z"/>
	<path fill="#9DAD8E" d="M90.096,87.837c-0.414,0.665-0.792,1.235-1.131,1.829c-0.452,0.793-1.05,1.252-2.025,1.156
		c-0.642-0.065-1.307,0.063-1.938-0.039c-0.418-0.069-0.969-0.297-1.141-0.624c-0.181-0.341-0.119-0.967,0.088-1.321
		c0.721-1.222,1.551-2.38,2.34-3.561c0.629-0.945,0.626-1.234-0.006-2.192c-0.653-0.991-1.312-1.978-1.954-2.978
		c-0.68-1.058-0.199-2.02,1.06-2.095c0.692-0.044,1.394-0.034,2.086,0c0.766,0.034,1.353,0.373,1.708,1.095
		c0.271,0.551,0.603,1.073,0.967,1.715c0.383-0.673,0.659-1.313,1.077-1.841c0.3-0.379,0.758-0.789,1.202-0.865
		c0.861-0.149,1.771-0.162,2.644-0.071c1.095,0.116,1.478,1.069,0.885,2.007c-0.698,1.104-1.391,2.216-2.13,3.294
		c-0.444,0.649-0.394,1.227,0.029,1.846c0.791,1.16,1.559,2.338,2.35,3.501c0.329,0.486,0.469,0.981,0.183,1.534
		c-0.289,0.558-0.796,0.601-1.345,0.588c-0.743-0.019-1.503,0.081-2.228-0.037c-0.46-0.074-0.983-0.361-1.281-0.719
		C90.995,89.414,90.605,88.645,90.096,87.837z"/>
	<path fill="#9DAD8E" d="M38.903,87.066c1.494,0,2.849-0.003,4.204,0c1.056,0.002,1.408,0.359,1.412,1.417
		c0.008,2.309-0.042,2.348-2.369,2.339c-2.806-0.008-5.613,0.005-8.419,0c-0.975-0.003-1.366-0.401-1.434-1.378
		c-0.081-1.166,0.126-2.161,1.082-3.021c1.226-1.102,2.31-2.365,3.45-3.564c0.26-0.273,0.497-0.567,0.856-0.981
		c-1.212,0-2.276,0.002-3.34,0c-0.971-0.003-1.346-0.37-1.355-1.331c-0.004-0.456-0.016-0.914,0.014-1.368
		c0.044-0.64,0.405-1.033,1.051-1.038c3.046-0.015,6.093-0.01,9.138-0.003c0.62,0.001,0.972,0.369,1.042,0.955
		c0.148,1.235,0.112,2.367-0.943,3.343c-1.387,1.283-2.629,2.724-3.931,4.101C39.233,86.668,39.121,86.812,38.903,87.066z"/>
	<path fill="#9DAD8E" d="M64.401,35.643c0.481-0.791,0.91-1.443,1.286-2.125c0.411-0.745,0.997-1.107,1.86-1.059
		c0.621,0.036,1.26-0.072,1.865,0.034c0.449,0.078,0.967,0.304,1.249,0.637c0.331,0.387,0.192,0.907-0.125,1.374
		c-1.113,1.622-2.21,3.256-3.267,4.916c-0.238,0.375-0.379,0.868-0.402,1.315c-0.056,1.052-0.013,2.109-0.02,3.165
		c-0.006,0.854-0.516,1.369-1.375,1.383c-0.719,0.011-1.44,0.011-2.159,0c-0.915-0.014-1.354-0.46-1.357-1.367
		c-0.003-1.056,0.035-2.113-0.02-3.165c-0.021-0.428-0.157-0.9-0.386-1.258c-1.039-1.625-2.134-3.213-3.2-4.821
		c-0.303-0.456-0.631-0.921-0.279-1.506c0.332-0.549,0.821-0.742,1.452-0.706c0.574,0.034,1.152,0.037,1.725,0.001
		c0.9-0.056,1.482,0.36,1.903,1.116C63.519,34.237,63.932,34.872,64.401,35.643z"/>
</g>
<g id="Pallette" display="none">
	<path display="inline" fill-rule="evenodd" clip-rule="evenodd" fill="#9DAD8E" d="M96.045,90.519
		c-0.074,0.25-0.127,0.511-0.228,0.749c-0.436,1.034-1.279,1.43-2.347,1.432c-4.087,0.004-8.172,0.002-12.259,0.002
		c-7.823,0-15.647,0-23.472,0c-0.226,0-0.451,0-0.676,0c-0.012-0.04-0.023-0.078-0.035-0.117c0.231-0.142,0.459-0.283,0.693-0.422
		c1.38-0.798,2.773-1.569,4.132-2.401c0.503-0.31,0.997-0.451,1.575-0.408c0.422,0.03,0.848,0.003,1.292,0.003
		c0.023-0.097,0.067-0.171,0.054-0.235c-0.186-0.854,0.275-1.267,0.98-1.627c1.139-0.585,2.23-1.258,3.427-1.942
		c0,1.302,0,2.525,0,3.775c3.001,0,5.936,0,8.966,0c0-0.193,0-0.396,0-0.6c0-2.615,0.008-5.228-0.009-7.841
		c-0.002-0.37,0.091-0.583,0.427-0.774c1.706-0.96,3.39-1.959,5.092-2.925c0.187-0.106,0.438-0.143,0.659-0.143
		c3.061-0.009,6.12,0.001,9.18-0.011c1.266-0.006,2.383,0.767,2.462,2.072c0.001,0.048,0.057,0.091,0.086,0.137
		C96.045,83.001,96.045,86.76,96.045,90.519z M91.49,80.437c-2.981,0-5.913,0-8.864,0c0,2.982,0,5.932,0,8.888
		c2.974,0,5.907,0,8.864,0C91.49,86.356,91.49,83.422,91.49,80.437z"/>
	<path display="inline" fill-rule="evenodd" clip-rule="evenodd" fill="#9DAD8E" d="M53.619,63.696c0,8.775,0,17.55,0,26.323
		c0,1.759-0.91,2.68-2.658,2.682c-3.428,0-6.856,0.004-10.285-0.004c-0.675-0.003-1.328-0.089-1.889-0.559
		c-0.677-0.567-0.829-1.313-0.831-2.122c-0.004-2.983-0.002-5.967-0.002-8.948c0-14.546-0.001-29.093,0.003-43.64
		c0.001-0.652,0.037-1.304,0.466-1.861c0.529-0.689,1.254-0.929,2.079-0.93c3.545-0.006,7.089-0.013,10.634,0.003
		c1.563,0.006,2.482,0.976,2.482,2.559C53.621,46.031,53.619,54.864,53.619,63.696z M49.113,84.89
		c0.004-1.912-1.417-3.305-3.329-3.354c-1.947-0.051-3.298,1.741-3.348,3.186c-0.071,2.066,1.735,3.43,3.187,3.499
		C47.486,88.31,49.221,86.657,49.113,84.89z"/>
	<path display="inline" fill-rule="evenodd" clip-rule="evenodd" fill="#9DAD8E" d="M59.129,70.666
		c-0.075-0.049-0.135-0.107-0.207-0.13c-0.835-0.267-0.934-0.881-0.897-1.66c0.059-1.288,0.016-2.582,0.016-3.972
		c1.148,0.657,2.221,1.271,3.333,1.907c1.488-2.578,2.971-5.148,4.469-7.742c-1.849-1.071-3.672-2.127-5.497-3.182
		c-0.664-0.383-1.342-0.744-1.989-1.153c-0.155-0.098-0.301-0.347-0.303-0.528c-0.022-1.955-0.019-3.911-0.007-5.866
		c0.002-0.199,0.072-0.419,0.172-0.594c1.575-2.747,3.151-5.494,4.748-8.229c0.726-1.245,1.962-1.561,3.217-0.842
		c2.697,1.546,5.386,3.107,8.08,4.662c0.447,0.258,0.905,0.5,1.344,0.772c1.258,0.781,1.571,1.989,0.838,3.268
		c-1.02,1.783-2.061,3.556-3.086,5.336c-3.452,5.988-6.901,11.977-10.355,17.963c-1.545,2.678-3.099,5.349-4.651,8.021
		c-0.066,0.116-0.147,0.219-0.286,0.422c-0.012-0.256-0.027-0.417-0.028-0.577c-0.002-1.605,0.024-3.214-0.012-4.819
		c-0.017-0.757,0.066-1.442,0.542-2.064C58.787,71.378,58.925,71.037,59.129,70.666z M64.796,42.999
		c-1.487,2.576-2.962,5.131-4.469,7.741c2.586,1.498,5.152,2.983,7.741,4.483c1.497-2.604,2.973-5.167,4.461-7.754
		C69.908,45.953,67.373,44.488,64.796,42.999z"/>
	<path display="inline" fill-rule="evenodd" clip-rule="evenodd" fill="#9DAD8E" d="M76.05,72.551
		c-1.013-1.756-1.979-3.436-2.948-5.115c-0.452-0.782-0.924-1.554-1.351-2.348c-0.085-0.158-0.084-0.442,0.004-0.597
		c0.962-1.726,1.943-3.438,2.936-5.146c0.109-0.186,0.308-0.343,0.499-0.454c2.72-1.585,5.444-3.162,8.173-4.733
		c1.17-0.675,2.438-0.354,3.128,0.825c1.829,3.132,3.618,6.287,5.46,9.409c0.786,1.33,0.212,2.735-0.989,3.408
		c-4.351,2.446-8.648,4.98-12.97,7.476c-5.253,3.031-10.508,6.061-15.762,9.09c-0.939,0.543-1.875,1.093-2.878,1.572
		c0.701-1.219,1.435-2.421,2.096-3.662c0.696-1.303,1.423-2.545,2.957-2.931c-0.022-0.149-0.015-0.192-0.035-0.214
		c-0.623-0.696-0.404-1.33,0.053-2.034c0.69-1.061,1.288-2.179,1.975-3.363c0.654,1.117,1.275,2.181,1.916,3.279
		C70.898,75.523,73.453,74.05,76.05,72.551z M87.647,65.859c-1.423-2.466-2.828-4.887-4.211-7.32
		c-0.209-0.367-0.391-0.372-0.722-0.173c-0.904,0.544-1.826,1.057-2.74,1.586c-1.504,0.871-3.006,1.744-4.541,2.634
		c1.495,2.587,2.971,5.14,4.47,7.735C82.516,68.815,85.081,67.339,87.647,65.859z"/>
</g>
<g id="Coffee" display="none">
	<path display="inline" fill-rule="evenodd" clip-rule="evenodd" d="M91.234,59.714c1.134,0,2.234-0.061,3.329,0.012
		c2.332,0.156,4.519,0.723,6.544,2.013c2.006,1.28,3.17,4.211,2.555,6.706c-0.768,3.135-2.63,5.568-4.92,7.692
		c-3.432,3.184-7.447,5.429-11.876,6.903c-1.7,0.566-3.48,0.892-5.218,1.349c-0.227,0.059-0.435,0.235-0.619,0.395
		c-1.404,1.188-2.788,2.399-4.212,3.563c-0.25,0.207-0.642,0.334-0.967,0.334c-8.609,0.018-17.217,0.019-25.825-0.001
		c-0.349,0-0.743-0.167-1.037-0.372c-4.35-3.023-7.395-7.118-9.703-11.828c-2.063-4.209-3.397-8.652-4.136-13.257
		c-0.432-2.689-0.546-5.433-0.78-8.154c-0.033-0.375,0.069-0.758,0.106-1.139c0.062-0.66,0.519-0.896,1.085-0.992
		c0.225-0.037,0.46-0.009,0.692-0.009c17.809,0,35.618,0,53.425,0c1.55,0,1.886,0.293,1.835,1.811
		c-0.046,1.457-0.184,2.912-0.277,4.366C91.224,59.28,91.234,59.457,91.234,59.714z M90.297,65.445
		c-0.875,4.118-2.194,8.031-4.14,11.917c0.317-0.103,0.411-0.129,0.498-0.162c2.66-1.031,5.094-2.454,7.297-4.266
		c1.529-1.26,2.94-2.657,3.833-4.443c0.807-1.617,1.006-2.127-1.043-2.773C94.646,65.058,92.514,65.184,90.297,65.445z"/>
	<path display="inline" fill-rule="evenodd" clip-rule="evenodd" d="M62.698,91.477c9.76,0,19.522-0.002,29.283,0.001
		c0.929,0,1.819,0.168,2.294,1.085c0.489,0.949-0.107,2.577-1.977,2.74c-2.143,0.188-4.297,0.308-6.444,0.305
		c-1.613-0.001-3.129,0.23-4.615,0.862c-2.518,1.068-5.158,1.494-7.898,1.493c-4.492-0.005-8.982,0.119-13.473,0.126
		c-3.13,0.007-6.261-0.072-9.389-0.148c-2.71-0.067-5.238-0.904-7.724-1.913c-0.509-0.204-1.08-0.323-1.629-0.351
		c-2.687-0.142-5.378-0.22-8.063-0.37c-0.508-0.028-1.024-0.251-1.497-0.468c-0.643-0.293-0.931-0.91-0.908-1.561
		c0.024-0.694,0.424-1.27,1.122-1.494c0.501-0.163,1.038-0.296,1.559-0.296C43.125,91.473,52.911,91.477,62.698,91.477z"/>
	<path display="inline" fill-rule="evenodd" clip-rule="evenodd" d="M63.692,50.146c-0.177-0.205-0.178-0.251-0.358-0.453
		c-0.683-0.761-1.387-1.505-2.068-2.268c-2.608-2.917-3.376-5.404-1.518-9.002c0.507-0.981,1.013-1.958,1.521-2.939
		c1.351-2.605,1.218-4.618-0.893-6.821c-0.099,0.031-0.197,0.061-0.295,0.091c0.161,2.452-0.943,4.431-2.36,6.286
		c-1.082,1.417-2.239,2.78-3.267,4.235c-2.199,3.119,1.384,5.963,3.81,8.388c0.921,0.922,1.973,1.717,3.05,2.482H63.692z"/>
	<path display="inline" fill-rule="evenodd" clip-rule="evenodd" d="M61.66,20.926c0.308,1.997,1.545,3.388,3.014,4.625
		c1.119,0.945,2.291,1.833,3.374,2.818c2.32,2.11,2.182,4.537,0.664,6.915c-0.933,1.469-2.206,2.73-3.373,4.04
		c-1.238,1.384-2.106,2.912-2.128,4.842c-1.365-1.346-1.688-3.537-0.754-5.272c0.504-0.936,1.058-1.845,1.578-2.773
		c1.573-2.803,1.745-4.938-0.385-7.494c-0.582-0.696-1.162-1.392-1.744-2.086c-1.548-1.851-1.8-3.49-0.498-5.634
		C61.491,20.913,61.575,20.92,61.66,20.926z"/>
	<path display="inline" fill="#FFFFFF" d="M85.821,58.451c-0.046-0.478-0.391-0.649-0.816-0.719
		c-0.171-0.026-0.347-0.005-0.521-0.005c-6.773,0-36.378,0-43.15,0c-0.174,0-0.351-0.021-0.521,0.005
		c-0.426,0.07-0.77,0.242-0.816,0.719c-0.029,0.277-0.106,0.554-0.081,0.826c0.175,1.973,0.262,3.962,0.586,5.914
		c0.556,3.338,1.561,6.56,3.112,9.611c1.738,3.417,4.029,6.386,7.302,8.578c0.221,0.147,0.518,0.27,0.779,0.27
		c2.55,0.006,19.689,0.006,22.423,0c0.262,0,0.559-0.122,0.78-0.27c3.272-2.192,5.563-5.161,7.302-8.578
		c1.553-3.052,2.556-6.273,3.112-9.611c0.325-1.952,0.412-3.941,0.587-5.914C85.927,59.005,85.85,58.729,85.821,58.451z"/>
</g>
<g id="Cogs" transform="scale(1 -1) translate(0 -1280)" display="none">
	<path display="inline" d="M63.368,1209.112c-0.043,0.054-0.096,0.085-0.157,0.098l-1.404,0.212
		c-0.067,0.21-0.172,0.462-0.313,0.758c0.092,0.136,0.23,0.32,0.416,0.554c0.184,0.233,0.314,0.399,0.388,0.498
		c0.043,0.063,0.064,0.12,0.064,0.176c0,0.167-0.443,0.658-1.329,1.478c-0.062,0.049-0.126,0.074-0.194,0.074
		c-0.074,0-0.136-0.022-0.185-0.065l-1.089-0.821c-0.252,0.129-0.483,0.225-0.693,0.286l-0.212,1.413
		c-0.006,0.061-0.037,0.115-0.093,0.161c-0.055,0.046-0.117,0.069-0.184,0.069h-1.717c-0.142,0-0.234-0.074-0.277-0.222
		c-0.074-0.283-0.145-0.757-0.212-1.422c-0.265-0.086-0.501-0.185-0.711-0.295l-1.062,0.83c-0.062,0.043-0.126,0.065-0.194,0.065
		c-0.116,0-0.36-0.183-0.729-0.545c-0.369-0.363-0.622-0.637-0.757-0.822c-0.044-0.049-0.065-0.11-0.065-0.185
		c0-0.056,0.021-0.116,0.065-0.185c0.344-0.412,0.622-0.766,0.831-1.062c-0.129-0.252-0.228-0.486-0.295-0.702l-1.431-0.222
		c-0.055-0.006-0.104-0.039-0.147-0.096c-0.043-0.06-0.065-0.119-0.065-0.181v-1.708c0-0.068,0.022-0.128,0.065-0.18
		c0.043-0.054,0.095-0.082,0.157-0.088l1.403-0.222c0.074-0.234,0.182-0.487,0.323-0.758c-0.098-0.135-0.243-0.323-0.434-0.563
		c-0.19-0.24-0.317-0.403-0.378-0.489c-0.043-0.063-0.064-0.12-0.064-0.175c0-0.167,0.443-0.66,1.33-1.478
		c0.062-0.05,0.125-0.074,0.193-0.074c0.08,0,0.142,0.021,0.185,0.064l1.09,0.822c0.252-0.13,0.483-0.226,0.692-0.286l0.212-1.413
		c0.006-0.063,0.037-0.116,0.092-0.161c0.056-0.046,0.117-0.07,0.185-0.07h1.717c0.141,0,0.234,0.073,0.277,0.222
		c0.074,0.29,0.145,0.767,0.212,1.432c0.246,0.072,0.483,0.169,0.711,0.286l1.062-0.831c0.062-0.043,0.126-0.064,0.194-0.064
		c0.117,0,0.358,0.183,0.725,0.549c0.367,0.366,0.62,0.643,0.762,0.826c0.043,0.044,0.064,0.102,0.064,0.177
		c0,0.061-0.021,0.122-0.064,0.185c-0.345,0.412-0.622,0.766-0.831,1.062c0.128,0.251,0.228,0.485,0.295,0.702l1.431,0.22
		c0.056,0.007,0.105,0.039,0.148,0.098s0.064,0.118,0.064,0.18v1.709C63.433,1209.001,63.411,1209.062,63.368,1209.112z
		 M59.194,1206.422c-0.461-0.462-1.018-0.692-1.67-0.692s-1.21,0.23-1.671,0.692s-0.692,1.019-0.692,1.671s0.231,1.209,0.692,1.672
		c0.461,0.461,1.019,0.692,1.671,0.692s1.209-0.231,1.67-0.692c0.463-0.463,0.693-1.02,0.693-1.672S59.657,1206.884,59.194,1206.422
		z"/>
	<path display="inline" d="M69.342,1202.72v1.292c0,0.099-0.459,0.193-1.375,0.286c-0.082,0.179-0.172,0.339-0.277,0.481
		c0.314,0.695,0.471,1.119,0.471,1.272c0,0.024-0.014,0.047-0.037,0.065c-0.738,0.431-1.119,0.646-1.145,0.646l-0.057-0.019
		c-0.252-0.253-0.535-0.598-0.85-1.034c-0.122,0.012-0.215,0.019-0.275,0.019c-0.062,0-0.154-0.007-0.277-0.019
		c-0.086,0.129-0.246,0.337-0.479,0.623c-0.235,0.286-0.376,0.43-0.426,0.43c-0.013,0-0.104-0.05-0.276-0.147
		c-0.172-0.1-0.354-0.204-0.545-0.314c-0.191-0.11-0.299-0.172-0.323-0.185c-0.024-0.019-0.037-0.041-0.037-0.065
		c0-0.153,0.157-0.577,0.471-1.272c-0.104-0.143-0.197-0.303-0.277-0.481c-0.917-0.093-1.375-0.188-1.375-0.286v-1.292
		c0-0.099,0.458-0.194,1.375-0.286c0.074-0.167,0.167-0.327,0.277-0.481c-0.314-0.695-0.471-1.119-0.471-1.273
		c0-0.024,0.013-0.045,0.037-0.064c0.751-0.437,1.132-0.655,1.145-0.655c0.05,0,0.19,0.145,0.426,0.435
		c0.233,0.288,0.394,0.498,0.479,0.627c0.123-0.012,0.216-0.019,0.277-0.019c0.061,0,0.153,0.007,0.275,0.019
		c0.088-0.129,0.248-0.339,0.482-0.627c0.232-0.29,0.375-0.435,0.424-0.435c0.012,0,0.395,0.219,1.145,0.655
		c0.023,0.02,0.037,0.04,0.037,0.064c0,0.154-0.156,0.578-0.471,1.273c0.111,0.154,0.201,0.314,0.277,0.481
		C68.883,1202.525,69.342,1202.621,69.342,1202.72z M66.633,1202.53c-0.232-0.231-0.51-0.347-0.836-0.347
		c-0.327,0-0.605,0.115-0.836,0.347c-0.23,0.23-0.347,0.509-0.347,0.836c0,0.319,0.118,0.597,0.351,0.831
		c0.234,0.233,0.512,0.351,0.832,0.351c0.319,0,0.598-0.117,0.83-0.351c0.234-0.234,0.352-0.512,0.352-0.831
		C66.979,1203.039,66.863,1202.761,66.633,1202.53z"/>
	<path display="inline" d="M69.342,1212.174v1.292c0,0.1-0.459,0.194-1.375,0.286c-0.082,0.18-0.172,0.339-0.277,0.48
		c0.314,0.696,0.471,1.12,0.471,1.274c0,0.024-0.014,0.046-0.037,0.064c-0.738,0.431-1.119,0.646-1.145,0.646l-0.057-0.019
		c-0.252-0.252-0.535-0.598-0.85-1.034c-0.122,0.013-0.215,0.018-0.275,0.018c-0.062,0-0.154-0.005-0.277-0.018
		c-0.086,0.129-0.246,0.337-0.479,0.623c-0.235,0.286-0.376,0.43-0.426,0.43c-0.013,0-0.104-0.049-0.276-0.147
		s-0.354-0.203-0.545-0.314c-0.191-0.111-0.299-0.172-0.323-0.185c-0.024-0.019-0.037-0.04-0.037-0.064
		c0-0.154,0.157-0.578,0.471-1.274c-0.104-0.142-0.197-0.301-0.277-0.48c-0.917-0.092-1.375-0.187-1.375-0.286v-1.292
		c0-0.099,0.458-0.194,1.375-0.286c0.074-0.166,0.167-0.326,0.277-0.48c-0.314-0.695-0.471-1.121-0.471-1.274
		c0-0.024,0.013-0.046,0.037-0.064c0.751-0.437,1.132-0.655,1.145-0.655c0.05,0,0.19,0.145,0.426,0.434
		c0.233,0.29,0.394,0.499,0.479,0.629c0.123-0.013,0.216-0.019,0.277-0.019c0.061,0,0.153,0.006,0.275,0.019
		c0.088-0.13,0.248-0.339,0.482-0.629c0.232-0.289,0.375-0.434,0.424-0.434c0.012,0,0.395,0.219,1.145,0.655
		c0.023,0.019,0.037,0.04,0.037,0.064c0,0.153-0.156,0.579-0.471,1.274c0.111,0.154,0.201,0.314,0.277,0.48
		C68.883,1211.979,69.342,1212.075,69.342,1212.174z M66.633,1211.984c-0.232-0.23-0.51-0.347-0.836-0.347
		c-0.327,0-0.605,0.116-0.836,0.347c-0.23,0.231-0.347,0.51-0.347,0.836c0,0.319,0.118,0.597,0.351,0.831
		c0.234,0.233,0.512,0.351,0.832,0.351c0.319,0,0.598-0.117,0.83-0.351c0.234-0.234,0.352-0.512,0.352-0.831
		C66.979,1212.494,66.863,1212.216,66.633,1211.984z"/>
</g>
<g id="Cogs_1_" transform="scale(1 -1) translate(0 -1280)" display="none">
	<path display="inline" fill="#9DAD8E" d="M72.761,1219.071c-0.155,0.196-0.348,0.31-0.57,0.357l-5.123,0.772
		c-0.246,0.767-0.63,1.686-1.145,2.766c0.336,0.496,0.842,1.169,1.517,2.021c0.671,0.852,1.146,1.458,1.415,1.817
		c0.156,0.229,0.235,0.439,0.235,0.642c0,0.609-1.62,2.402-4.851,5.392c-0.226,0.178-0.458,0.271-0.709,0.271
		c-0.27,0-0.496-0.082-0.675-0.239l-3.974-2.998c-0.921,0.471-1.764,0.821-2.528,1.045l-0.774,5.157
		c-0.022,0.221-0.135,0.42-0.337,0.587c-0.201,0.167-0.427,0.253-0.673,0.253h-6.267c-0.516,0-0.854-0.271-1.012-0.809
		c-0.271-1.034-0.527-2.762-0.775-5.189c-0.966-0.313-1.83-0.674-2.595-1.077l-3.874,3.029c-0.226,0.157-0.461,0.239-0.708,0.239
		c-0.424,0-1.314-0.667-2.66-1.989c-1.348-1.326-2.269-2.324-2.763-3c-0.16-0.178-0.236-0.403-0.236-0.674
		c0-0.203,0.077-0.424,0.236-0.673c1.257-1.504,2.269-2.793,3.031-3.874c-0.472-0.919-0.83-1.775-1.077-2.563l-5.223-0.809
		c-0.202-0.021-0.381-0.142-0.539-0.348c-0.157-0.218-0.237-0.435-0.237-0.66v-6.233c0-0.249,0.08-0.469,0.237-0.655
		c0.157-0.195,0.348-0.299,0.572-0.32l5.121-0.81c0.271-0.854,0.663-1.778,1.18-2.765c-0.358-0.493-0.888-1.183-1.584-2.055
		c-0.695-0.875-1.156-1.471-1.381-1.784c-0.156-0.229-0.235-0.439-0.235-0.64c0-0.608,1.616-2.407,4.853-5.392
		c0.224-0.182,0.458-0.271,0.706-0.271c0.292,0,0.516,0.08,0.673,0.238l3.978,2.998c0.919-0.473,1.761-0.821,2.526-1.044
		l0.775-5.156c0.022-0.228,0.136-0.425,0.337-0.588c0.203-0.169,0.428-0.257,0.674-0.257h6.267c0.517,0,0.854,0.267,1.01,0.809
		c0.27,1.059,0.528,2.799,0.774,5.226c0.897,0.263,1.763,0.615,2.594,1.044l3.875-3.031c0.226-0.158,0.463-0.238,0.708-0.238
		c0.428,0,1.307,0.668,2.642,2.004c1.343,1.336,2.265,2.346,2.781,3.014c0.159,0.161,0.235,0.373,0.235,0.646
		c0,0.223-0.076,0.447-0.235,0.676c-1.258,1.503-2.268,2.793-3.03,3.873c0.469,0.916,0.832,1.771,1.077,2.563l5.224,0.802
		c0.201,0.024,0.382,0.143,0.537,0.356c0.157,0.215,0.235,0.432,0.235,0.654v6.238C72.996,1218.664,72.918,1218.885,72.761,1219.071
		z M57.53,1209.252c-1.682-1.686-3.716-2.526-6.096-2.526c-2.381,0-4.416,0.841-6.1,2.526s-2.527,3.718-2.527,6.098
		c0,2.381,0.843,4.412,2.527,6.102c1.684,1.682,3.719,2.527,6.1,2.527c2.38,0,4.414-0.845,6.096-2.527
		c1.689-1.689,2.528-3.721,2.528-6.102C60.059,1212.97,59.219,1210.938,57.53,1209.252z"/>
	<path display="inline" fill="#9DAD8E" d="M94.563,1195.741v4.716c0,0.359-1.677,0.705-5.019,1.043
		c-0.301,0.653-0.628,1.238-1.012,1.757c1.146,2.538,1.718,4.086,1.718,4.644c0,0.089-0.05,0.174-0.136,0.24
		c-2.693,1.572-4.086,2.359-4.178,2.359l-0.207-0.069c-0.919-0.921-1.952-2.179-3.101-3.772c-0.445,0.042-0.783,0.067-1.003,0.067
		c-0.225,0-0.563-0.025-1.015-0.067c-0.312,0.471-0.896,1.229-1.749,2.273c-0.858,1.044-1.37,1.568-1.554,1.568
		c-0.046,0-0.381-0.183-1.007-0.539c-0.629-0.363-1.294-0.745-1.989-1.147c-0.697-0.402-1.091-0.627-1.18-0.673
		c-0.09-0.066-0.137-0.151-0.137-0.24c0-0.558,0.574-2.105,1.721-4.644c-0.382-0.519-0.718-1.104-1.012-1.757
		c-3.348-0.338-5.021-0.684-5.021-1.043v-4.716c0-0.359,1.673-0.708,5.021-1.045c0.271-0.606,0.607-1.192,1.012-1.756
		c-1.146-2.537-1.721-4.083-1.721-4.646c0-0.09,0.047-0.165,0.137-0.236c2.739-1.594,4.13-2.392,4.176-2.392
		c0.184,0,0.695,0.527,1.554,1.587c0.853,1.05,1.438,1.816,1.749,2.288c0.451-0.044,0.79-0.068,1.015-0.068
		c0.22,0,0.558,0.024,1.003,0.068c0.32-0.472,0.906-1.238,1.763-2.288c0.847-1.06,1.369-1.587,1.545-1.587
		c0.043,0,1.44,0.798,4.178,2.392c0.086,0.071,0.136,0.146,0.136,0.236c0,0.563-0.571,2.108-1.718,4.646
		c0.405,0.563,0.733,1.149,1.012,1.756C92.886,1195.033,94.563,1195.382,94.563,1195.741z M84.676,1195.052
		c-0.848-0.847-1.861-1.267-3.05-1.267c-1.194,0-2.21,0.42-3.054,1.267c-0.839,0.84-1.264,1.854-1.264,3.05
		c0,1.165,0.433,2.178,1.279,3.033c0.856,0.852,1.868,1.278,3.038,1.278c1.164,0,2.18-0.427,3.028-1.278
		c0.855-0.855,1.282-1.868,1.282-3.033C85.937,1196.906,85.517,1195.892,84.676,1195.052z"/>
	<path display="inline" fill="#9DAD8E" d="M94.563,1230.243v4.715c0,0.363-1.677,0.709-5.019,1.044
		c-0.301,0.655-0.628,1.236-1.012,1.753c1.146,2.541,1.718,4.088,1.718,4.651c0,0.089-0.05,0.168-0.136,0.235
		c-2.693,1.572-4.086,2.359-4.178,2.359l-0.207-0.068c-0.919-0.92-1.952-2.181-3.101-3.774c-0.445,0.046-0.783,0.064-1.003,0.064
		c-0.225,0-0.563-0.018-1.015-0.064c-0.312,0.471-0.896,1.229-1.749,2.274c-0.858,1.044-1.37,1.568-1.554,1.568
		c-0.046,0-0.381-0.178-1.007-0.538c-0.629-0.36-1.294-0.742-1.989-1.147c-0.697-0.407-1.091-0.628-1.18-0.674
		c-0.09-0.067-0.137-0.146-0.137-0.235c0-0.563,0.574-2.11,1.721-4.651c-0.382-0.517-0.718-1.098-1.012-1.753
		c-3.348-0.335-5.021-0.681-5.021-1.044v-4.715c0-0.36,1.673-0.709,5.021-1.044c0.271-0.606,0.607-1.19,1.012-1.754
		c-1.146-2.537-1.721-4.091-1.721-4.651c0-0.088,0.047-0.167,0.137-0.235c2.739-1.593,4.13-2.391,4.176-2.391
		c0.184,0,0.695,0.527,1.554,1.582c0.853,1.059,1.438,1.821,1.749,2.295c0.451-0.046,0.79-0.067,1.015-0.067
		c0.22,0,0.558,0.021,1.003,0.067c0.32-0.475,0.906-1.236,1.763-2.295c0.847-1.055,1.369-1.582,1.545-1.582
		c0.043,0,1.44,0.798,4.178,2.391c0.086,0.068,0.136,0.146,0.136,0.235c0,0.56-0.571,2.114-1.718,4.651
		c0.405,0.563,0.733,1.148,1.012,1.754C92.886,1229.534,94.563,1229.883,94.563,1230.243z M84.676,1229.552
		c-0.848-0.841-1.861-1.265-3.05-1.265c-1.194,0-2.21,0.424-3.054,1.265c-0.839,0.844-1.264,1.86-1.264,3.051
		c0,1.166,0.433,2.177,1.279,3.033c0.856,0.852,1.868,1.279,3.038,1.279c1.164,0,2.18-0.427,3.028-1.279
		c0.855-0.856,1.282-1.868,1.282-3.033C85.937,1231.412,85.517,1230.396,84.676,1229.552z"/>
</g>
<g transform="scale(1 -1) translate(0 -1280)" display="none">
	<path display="inline" fill="#FFFFFF" d="M57.603,1203.123l-0.517-0.518c-0.069-0.069-0.148-0.104-0.238-0.104
		c-0.089,0-0.169,0.034-0.238,0.104l-4.822,4.821c-0.069,0.069-0.104,0.148-0.104,0.238s0.035,0.169,0.104,0.238l4.822,4.821
		c0.069,0.069,0.148,0.104,0.238,0.104c0.09,0,0.169-0.034,0.238-0.104l0.517-0.518c0.069-0.068,0.104-0.148,0.104-0.238
		s-0.034-0.168-0.104-0.237l-4.066-4.066l4.066-4.066c0.069-0.069,0.104-0.148,0.104-0.238
		C57.707,1203.271,57.672,1203.191,57.603,1203.123z M63.718,1214.163l-3.859-13.358c-0.028-0.09-0.081-0.157-0.161-0.202
		c-0.079-0.045-0.16-0.053-0.243-0.025l-0.642,0.177c-0.09,0.027-0.157,0.081-0.202,0.16c-0.045,0.078-0.054,0.163-0.026,0.253
		l3.859,13.358c0.028,0.089,0.082,0.156,0.16,0.201c0.08,0.045,0.161,0.054,0.244,0.026l0.642-0.176
		c0.089-0.028,0.157-0.081,0.202-0.161C63.737,1214.337,63.746,1214.252,63.718,1214.163z M70.517,1207.427l-4.822-4.821
		c-0.068-0.069-0.148-0.104-0.238-0.104s-0.169,0.034-0.237,0.104l-0.518,0.518c-0.069,0.068-0.104,0.148-0.104,0.237
		c0,0.09,0.034,0.169,0.104,0.238l4.065,4.066l-4.065,4.066c-0.069,0.069-0.104,0.147-0.104,0.237s0.034,0.17,0.104,0.238
		l0.518,0.518c0.068,0.069,0.147,0.104,0.237,0.104s0.17-0.034,0.238-0.104l4.822-4.821c0.068-0.069,0.103-0.148,0.103-0.238
		S70.585,1207.496,70.517,1207.427z"/>
</g>
<circle fill="none" stroke="#9DAD8E" stroke-width="4" stroke-miterlimit="10" cx="64.511" cy="64.701" r="57.854"/>
</svg>
